<svg width="146" height="44" fill="none" xmlns="http://www.w3.org/2000/svg"><path d="M140.593 0H5.407C2.421 0 0 2.462 0 5.5v33C0 41.538 2.421 44 5.407 44h135.186c2.986 0 5.407-2.462 5.407-5.5v-33c0-3.038-2.421-5.5-5.407-5.5z" fill="#000"/><path d="M51.937 30.613h-4.673l-1.092 3.304h-2.297l4.506-12.918h2.553l4.515 12.918H53.01l-1.074-3.304zm-4.145-1.826h3.617l-1.725-5.326h-.15l-1.742 5.326zm15.036-4.825c1.22 0 2.186.45 2.896 1.352.715.901 1.073 2.137 1.073 3.706 0 1.564-.352 2.796-1.056 3.697-.71.907-1.672 1.36-2.886 1.36-1.438 0-2.418-.548-2.94-1.646h-.15v4.619h-2.182V24.123h2.103v1.62h.15c.275-.554.677-.99 1.205-1.306a3.44 3.44 0 011.787-.475zm-.686 8.227c.756 0 1.349-.28 1.777-.841.423-.561.634-1.337.634-2.328 0-.99-.214-1.767-.642-2.328-.423-.56-1.01-.84-1.76-.84-.746 0-1.336.282-1.77.85-.434.566-.654 1.34-.66 2.318.006.979.226 1.752.66 2.319.429.567 1.015.85 1.76.85zm12.273-8.227c1.22 0 2.185.45 2.895 1.352.716.901 1.074 2.137 1.074 3.706 0 1.564-.352 2.796-1.056 3.697-.71.907-1.672 1.36-2.887 1.36-1.438 0-2.418-.548-2.94-1.646h-.15v4.619H69.17V24.123h2.103v1.62h.15a3.1 3.1 0 011.206-1.306 3.44 3.44 0 011.787-.475zm-.687 8.227c.757 0 1.35-.28 1.778-.841.422-.561.634-1.337.634-2.328 0-.99-.215-1.767-.643-2.328-.422-.56-1.01-.84-1.76-.84-.745 0-1.335.282-1.77.85-.433.566-.653 1.34-.66 2.318.007.979.227 1.752.66 2.319.43.567 1.016.85 1.761.85zm13.879-1.781c.07.578.367 1.038.889 1.378.522.346 1.185.52 1.99.52.75 0 1.366-.177 1.847-.529.487-.346.73-.79.73-1.334 0-.465-.184-.844-.553-1.137-.365-.292-.954-.534-1.77-.725l-1.646-.384c-2.258-.52-3.388-1.725-3.388-3.617 0-1.176.431-2.119 1.294-2.829.868-.716 2.012-1.074 3.432-1.074 1.332 0 2.435.352 3.31 1.056.874.704 1.337 1.612 1.39 2.722h-2.174a1.927 1.927 0 00-.8-1.352c-.459-.334-1.036-.502-1.735-.502-.733 0-1.32.165-1.76.493-.446.334-.669.776-.669 1.325 0 .435.173.787.52 1.056.346.275.912.504 1.698.69l1.461.34c1.285.292 2.218.728 2.799 1.306.575.58.862 1.361.862 2.346 0 1.26-.445 2.253-1.337 2.98-.898.735-2.116 1.102-3.653 1.102-1.455 0-2.631-.346-3.53-1.038-.89-.693-1.366-1.624-1.425-2.793h2.218zm13.1-8.621v2.4h2.113v1.771h-2.113v4.808c0 .93.44 1.396 1.321 1.396.199 0 .439-.015.721-.045v1.737a5.648 5.648 0 01-1.126.107c-1.103 0-1.895-.206-2.377-.617-.475-.412-.713-1.092-.713-2.041v-5.345h-1.566v-1.772h1.566v-2.399h2.174zm8.489 10.465c.762 0 1.349-.284 1.76-.85.416-.562.625-1.355.625-2.382 0-1.02-.209-1.814-.625-2.381-.416-.567-1.003-.85-1.76-.85-.763 0-1.353.283-1.769.85-.417.567-.625 1.36-.625 2.381 0 1.027.208 1.82.625 2.381.416.567 1.006.85 1.769.85zm0 1.862c-1.444 0-2.576-.451-3.398-1.352-.821-.907-1.232-2.154-1.232-3.742 0-1.575.414-2.82 1.241-3.733.828-.907 1.957-1.36 3.389-1.36 1.437 0 2.567.453 3.389 1.36.827.907 1.241 2.152 1.241 3.733 0 1.588-.411 2.835-1.233 3.742-.828.901-1.96 1.352-3.397 1.352zm7.01-9.99h2.103v1.521h.15c.135-.49.434-.892.897-1.208a2.874 2.874 0 011.629-.475c.375 0 .674.033.898.099v2.059c-.224-.084-.593-.126-1.11-.126-.704 0-1.276.206-1.716.618-.446.418-.668.967-.668 1.647v5.658h-2.183v-9.794zm11.436 1.566c-.65 0-1.187.218-1.61.653-.423.436-.657 1.012-.704 1.728h4.532c-.023-.728-.234-1.307-.633-1.737-.399-.43-.928-.644-1.585-.644zm4.305 5.532a3.382 3.382 0 01-1.444 2.113c-.763.519-1.707.779-2.834.779-1.414 0-2.526-.451-3.336-1.352-.804-.895-1.206-2.13-1.206-3.706s.406-2.826 1.215-3.751c.81-.919 1.913-1.378 3.309-1.378 1.373 0 2.45.438 3.23 1.315.775.872 1.162 2.08 1.162 3.626v.716h-6.724v.116c.03.818.259 1.462.687 1.934.434.477 1.009.716 1.725.716 1.103 0 1.818-.376 2.147-1.128h2.069zM46.344 9.125c.942 0 1.676.28 2.2.841.526.564.789 1.353.789 2.368 0 1.032-.262 1.832-.784 2.399s-1.257.85-2.205.85h-2.292V9.125h2.292zm-1.306 5.545h1.197c.665 0 1.18-.201 1.544-.604.367-.406.55-.979.55-1.719 0-.728-.185-1.295-.554-1.7-.367-.406-.88-.61-1.54-.61h-1.197v4.633zm7.538.152c.407 0 .724-.147.95-.443.223-.292.335-.704.335-1.235 0-.528-.112-.94-.335-1.235-.226-.293-.543-.439-.95-.439-.411 0-.728.146-.95.439-.224.292-.335.704-.335 1.235 0 .534.111.947.334 1.24.223.292.54.438.95.438zm0 .855c-.704 0-1.257-.225-1.66-.675-.401-.451-.602-1.07-.602-1.858 0-.785.202-1.402.607-1.853.402-.45.953-.676 1.655-.676.698 0 1.248.225 1.65.676.405.45.607 1.068.607 1.853 0 .788-.2 1.407-.603 1.857-.402.451-.953.676-1.654.676zm8.136-.094h-.981l-.99-3.59h-.075l-.986 3.59h-.972l-1.32-4.874h.959l.858 3.72h.07l.986-3.72h.907l.985 3.72h.075l.854-3.72h.946l-1.316 4.874zm2.293-4.874h.91v.774h.071a1.33 1.33 0 01.572-.635 1.84 1.84 0 01.942-.233c.534 0 .946.157 1.237.47.29.316.435.764.435 1.343v3.155h-.946V12.67c0-.782-.349-1.173-1.047-1.173-.382 0-.68.11-.898.331-.22.22-.33.522-.33.904v2.851h-.946V10.71zm5.545-1.902h.946v6.776h-.946V8.807zm4.392 6.015c.407 0 .724-.147.95-.443.223-.292.334-.704.334-1.235 0-.528-.111-.94-.334-1.235-.226-.293-.543-.439-.95-.439-.411 0-.728.146-.951.439-.223.292-.335.704-.335 1.235 0 .534.112.947.335 1.24.223.292.54.438.95.438zm0 .855c-.705 0-1.258-.225-1.66-.675-.401-.451-.602-1.07-.602-1.858 0-.785.202-1.402.607-1.853.402-.45.953-.676 1.654-.676.699 0 1.249.225 1.65.676.406.45.608 1.068.608 1.853 0 .788-.201 1.407-.603 1.857-.402.451-.953.676-1.654.676zm4.963-.823c.355 0 .651-.102.89-.304a.965.965 0 00.351-.761v-.408l-1.17.076c-.64.045-.96.28-.96.703 0 .215.084.385.251.51.162.123.374.184.638.184zm-.242.81c-.47 0-.85-.131-1.144-.394-.302-.271-.453-.627-.453-1.065 0-.436.154-.779.462-1.03.308-.247.748-.39 1.32-.425l1.298-.076v-.42c0-.538-.327-.806-.981-.806-.555 0-.888.18-.999.541h-.915c.047-.418.249-.752.607-1.002.355-.248.805-.372 1.35-.372.6 0 1.063.145 1.392.434.325.287.488.688.488 1.204v3.33h-.911V14.9h-.075c-.299.51-.779.765-1.439.765zm5.523 0c-.61 0-1.094-.227-1.452-.68-.358-.454-.537-1.067-.537-1.84 0-.77.18-1.382.541-1.835.358-.454.84-.68 1.448-.68.328 0 .623.074.884.223.262.153.457.363.586.631h.07V8.807h.946v6.776h-.906v-.77h-.075c-.305.567-.807.851-1.505.851zm.268-4.172c-.399 0-.711.148-.937.443-.229.293-.343.696-.343 1.21 0 .515.113.921.339 1.216.228.293.542.44.941.44.4 0 .713-.149.942-.444.232-.295.348-.698.348-1.208 0-.508-.116-.91-.348-1.209-.232-.298-.546-.448-.942-.448zm8.128 3.33c.408 0 .725-.147.95-.443.224-.292.335-.704.335-1.235 0-.528-.112-.94-.334-1.235-.226-.293-.543-.439-.95-.439-.412 0-.728.146-.952.439-.222.292-.334.704-.334 1.235 0 .534.112.947.334 1.24.224.292.54.438.951.438zm0 .855c-.704 0-1.257-.225-1.659-.675-.402-.451-.603-1.07-.603-1.858 0-.785.203-1.402.608-1.853.401-.45.953-.676 1.654-.676.699 0 1.248.225 1.65.676.405.45.608 1.068.608 1.853 0 .788-.201 1.407-.603 1.857-.402.451-.954.676-1.655.676zm3.398-4.968h.91v.774h.071c.117-.271.308-.483.572-.635a1.84 1.84 0 01.941-.233c.535 0 .947.157 1.237.47.29.316.436.764.436 1.343v3.155h-.946V12.67c0-.782-.349-1.173-1.047-1.173-.382 0-.68.11-.898.331-.22.22-.33.522-.33.904v2.851h-.946V10.71zm9.245-1.181v1.204h1.074v.81h-1.074v2.506c0 .254.055.44.163.56.109.116.28.174.514.174.089 0 .206-.007.353-.022v.801a2.86 2.86 0 01-.506.05c-.525 0-.902-.102-1.131-.305-.226-.203-.339-.54-.339-1.012v-2.752h-.787v-.81h.787V9.527h.946zm2.196-.721h.937v2.685h.075a1.32 1.32 0 01.572-.64c.264-.155.576-.232.938-.232.539 0 .956.158 1.25.474.295.316.444.764.444 1.343v3.146h-.946v-2.909c0-.782-.357-1.173-1.07-1.173-.384 0-.69.114-.915.34-.226.224-.339.523-.339.896v2.846h-.946V8.807zm7.521 2.627c-.35 0-.637.115-.863.345-.226.23-.352.536-.378.918h2.42c-.012-.385-.123-.691-.335-.918-.213-.23-.496-.345-.844-.345zm2.085 2.834a1.709 1.709 0 01-.708 1.034c-.367.25-.823.375-1.368.375-.687 0-1.227-.225-1.62-.675-.396-.448-.595-1.061-.595-1.84 0-.779.2-1.398.6-1.858.398-.46.935-.689 1.61-.689.666 0 1.19.218 1.571.654.379.435.568 1.037.568 1.803v.336h-3.384v.054c.014.43.136.77.365 1.02.229.251.532.376.911.376.578 0 .958-.197 1.139-.59h.911zm-84.252 12.73a.525.525 0 00-.371-.24c-2.002-.265-3.413-2.132-3.152-4.168a3.702 3.702 0 012.537-3.068.537.537 0 00.282-.797 6.138 6.138 0 00-4.425-3.142 8.537 8.537 0 00-2.754.6 6.556 6.556 0 01-1.977.47 6.556 6.556 0 01-1.978-.47 8.537 8.537 0 00-2.754-.6c-1.963 0-5.783 2.83-5.783 8.02 0 4.933 3.537 11.23 6.309 11.23a6.616 6.616 0 003.05-.714c.356-.2.75-.321 1.156-.355.406.034.8.155 1.156.355a6.617 6.617 0 003.05.714c2.197 0 4.677-3.837 5.716-7.393a.543.543 0 00-.062-.442zM21.389 15.583c3.192-.003 5.78-2.635 5.783-5.882a.53.53 0 00-.526-.534c-3.192.003-5.78 2.635-5.783 5.882a.53.53 0 00.526.534z" fill="#fff"/></svg>