<svg width="16" height="16" fill="none" xmlns="http://www.w3.org/2000/svg"><g clip-path="url(#clip0_2:488)"><path d="M.962 9.123c.065.01.131.016.198.015h11.287l-.246.114a2.29 2.29 0 00-.647.458L8.39 12.875a1.185 1.185 0 00-.166 1.517 1.145 1.145 0 001.717.15l5.724-5.725a1.145 1.145 0 00.001-1.619L9.94 1.472a1.145 1.145 0 00-1.717.115c-.32.478-.25 1.119.166 1.517l3.16 3.17c.168.169.36.31.572.419l.344.154H1.223a1.185 1.185 0 00-1.208.962 1.145 1.145 0 00.947 1.313z" fill="#fff"/></g><defs><clipPath id="clip0_2:488"><path fill="#fff" transform="rotate(180 8 8)" d="M0 0h16v16H0z"/></clipPath></defs></svg>