<svg width="24" height="24" fill="none" xmlns="http://www.w3.org/2000/svg"><path d="M23.624 14.92C22.02 21.35 15.51 25.261 9.08 23.658 2.654 22.056-1.259 15.544.345 9.116c1.602-6.43 8.113-10.342 14.54-8.74 6.43 1.603 10.341 8.116 8.739 14.545z" fill="#F7931A"/><path d="M17.293 10.29c.239-1.597-.977-2.455-2.64-3.028l.54-2.163-1.317-.328-.525 2.106a54.647 54.647 0 00-1.055-.248l.529-2.12-1.316-.328-.54 2.162c-.286-.065-.568-.13-.84-.197v-.007l-1.815-.454-.35 1.407s.977.224.956.237c.533.134.63.487.614.766l-.615 2.465a.88.88 0 01.137.044l-.139-.035-.861 3.452c-.065.162-.23.406-.603.313.013.02-.957-.239-.957-.239l-.654 1.508 1.713.427c.32.08.632.163.94.242l-.546 2.188 1.316.328.54-2.165c.359.098.707.188 1.049.273l-.538 2.154 1.317.328.545-2.183c2.245.425 3.933.253 4.644-1.778.573-1.635-.028-2.578-1.21-3.193.86-.199 1.509-.764 1.682-1.934h-.001zm-3.009 4.22c-.407 1.634-3.16.75-4.052.529l.723-2.899c.892.223 3.755.664 3.33 2.37zm.408-4.243c-.372 1.487-2.663.731-3.406.546l.655-2.629c.743.185 3.137.531 2.75 2.083z" fill="#fff"/></svg>