<svg width="128" height="16" fill="none" xmlns="http://www.w3.org/2000/svg"><g clip-path="url(#clip0_2:953)" fill="#A8A8A8"><path d="M108.904 15.73a.167.167 0 01.03.173.153.153 0 01-.139.097h-3.342a.143.143 0 01-.06-.013.164.164 0 01-.051-.037l-4.441-4.933-4.491 4.933a.15.15 0 01-.11.05h-3.342a.147.147 0 01-.084-.027.159.159 0 01-.056-.07.167.167 0 01.03-.173l6.123-6.737-5.916-6.547a.167.167 0 01-.03-.173.158.158 0 01.057-.07.147.147 0 01.084-.027h3.342a.15.15 0 01.111.05l4.249 4.743 4.265-4.743a.153.153 0 01.111-.05h3.343a.15.15 0 01.084.026.159.159 0 01.056.07.166.166 0 01-.03.173l-5.915 6.548 6.122 6.736zm-31.68.27a.207.207 0 01-.15-.065.228.228 0 01-.062-.157V2.398c0-.122.095-.221.212-.221h12.625c.117 0 .211.099.211.221v1.914a.228.228 0 01-.062.157.206.206 0 01-.149.065h-9.775v3.08h5.86c.117 0 .212.1.212.223V9.75a.229.229 0 01-.062.157.207.207 0 01-.15.065h-5.86v3.43h9.902c.117 0 .212.099.212.221v2.155a.228.228 0 01-.062.157.207.207 0 01-.15.065H77.224zm-22.356 0a.207.207 0 01-.15-.065.228.228 0 01-.061-.157V2.398c0-.122.094-.221.21-.221h2.64c.117 0 .211.099.211.221v13.38a.228.228 0 01-.062.157.207.207 0 01-.15.065h-2.638zm-15.01 0a.207.207 0 01-.15-.065.228.228 0 01-.062-.157V2.398c0-.122.095-.221.212-.221H52.33c.116 0 .21.099.21.221v1.968a.228.228 0 01-.061.156.207.207 0 01-.15.065h-9.621v3.644h5.325c.116 0 .212.1.212.222v2.074a.228.228 0 01-.063.157.207.207 0 01-.15.065h-5.324v5.029a.228.228 0 01-.062.157.207.207 0 01-.15.065h-2.639zM31.67 4.64v11.138a.228.228 0 01-.062.157.207.207 0 01-.149.065H28.82a.207.207 0 01-.15-.065.228.228 0 01-.061-.157V4.642h-5.624a.207.207 0 01-.15-.066.228.228 0 01-.062-.157V2.4c0-.123.095-.222.212-.222H37.32c.116 0 .21.099.21.221V4.42a.228.228 0 01-.061.157.207.207 0 01-.15.065H31.67zM17.808 16a.207.207 0 01-.15-.065.228.228 0 01-.061-.157V2.398c0-.122.094-.221.211-.221h2.638c.118 0 .212.099.212.221v13.38a.228.228 0 01-.062.157.207.207 0 01-.15.065h-2.638z"/><path fill-rule="evenodd" clip-rule="evenodd" d="M1.143 2.398c0-.122.094-.221.212-.221h11.274c.73 0 1.429.304 1.944.846.516.541.805 1.275.805 2.041v.922c0 .38-.07.755-.209 1.106-.138.35-.34.668-.596.936a2.74 2.74 0 01-.892.627c-.334.145-.691.22-1.052.22h.102c.73 0 1.429.303 1.945.845.515.541.806 1.275.806 2.04v1.353c0 .379-.071.755-.21 1.105a2.9 2.9 0 01-.596.937c-.255.268-.558.48-.892.625-.334.146-.691.22-1.053.22H1.355a.207.207 0 01-.15-.065.228.228 0 01-.062-.157V2.398zm3.009 2.03h7.126c.7 0 1.269.596 1.269 1.332v.63c0 .736-.568 1.332-1.27 1.332H4.153V4.427zm0 5.57h7.202c.7 0 1.27.596 1.27 1.332v.846c0 .736-.57 1.332-1.27 1.332H4.152v-3.51z"/><path d="M59.833 15.778V2.398c0-.122.095-.221.212-.221h1.8c.052 0 .102.019.14.056l10.157 9.438V2.4c0-.123.094-.222.21-.222h2.334c.116 0 .21.099.21.221v13.38a.229.229 0 01-.061.157.207.207 0 01-.15.065h-1.8a.206.206 0 01-.14-.056L62.59 6.48v9.298a.228.228 0 01-.062.157.207.207 0 01-.15.065h-2.331a.207.207 0 01-.15-.065.228.228 0 01-.062-.157zm51.616-5.344c-.133-2.266.773-4.784 2.639-6.744C118.146-.57 126.597.026 126.645.03c-.023.036-6.201 9.44-13.522 10.32-.565.068-1.125.096-1.674.084z"/><path d="M112.306 13.33c.21.35.457.677.742.977 2.506 2.63 7.033 2.142 10.112-1.091C127.23 8.942 126.645.03 126.645.03c-.022.053-4.451 10.476-11.489 12.75-.956.309-1.913.488-2.85.55z"/></g><defs><clipPath id="clip0_2:953"><path fill="#fff" d="M0 0h128v16H0z"/></clipPath></defs></svg>