<svg width="28" height="28" fill="none" xmlns="http://www.w3.org/2000/svg"><path d="M27.56 17.407c-1.869 7.5-9.465 12.065-16.966 10.194C3.096 25.731-1.468 18.135.402 10.635 2.272 3.135 9.868-1.43 17.366.44c7.5 1.87 12.065 9.468 10.195 16.968z" fill="#F7931A"/><path d="M20.175 12.005c.279-1.863-1.14-2.864-3.08-3.532l.63-2.524-1.536-.383-.613 2.457c-.404-.1-.819-.195-1.23-.29l.616-2.473-1.535-.383-.63 2.523a50.909 50.909 0 01-.98-.23l.001-.008-2.118-.53-.409 1.642s1.14.26 1.116.277c.622.155.734.567.716.894l-.717 2.875c.043.01.098.026.16.05l-.163-.04L9.4 16.359c-.076.19-.27.473-.704.365.015.023-1.117-.278-1.117-.278l-.763 1.758 2 .498c.371.094.736.191 1.095.283l-.636 2.553 1.535.383.63-2.526c.418.114.825.219 1.223.318l-.627 2.514 1.536.382.636-2.548c2.62.496 4.59.296 5.419-2.073.668-1.908-.034-3.008-1.412-3.726 1.004-.231 1.76-.892 1.962-2.255zm-3.51 4.922c-.475 1.908-3.687.877-4.728.618l.844-3.382c1.04.26 4.38.775 3.884 2.764zm.475-4.95c-.433 1.736-3.106.854-3.974.638l.765-3.067c.868.216 3.66.62 3.21 2.43z" fill="#fff"/></svg>