<svg width="60" height="61" fill="none" xmlns="http://www.w3.org/2000/svg"><g clip-path="url(#clip0_44:3489)"><path d="M59.06 38.076C55.051 54.148 38.773 63.928 22.7 59.921 6.634 55.914-3.147 39.635.861 23.565 4.868 7.49 21.146-2.29 37.214 1.717c16.072 4.006 25.853 20.287 21.846 36.36v-.001z" fill="#F7931A"/><path d="M43.233 26.5c.597-3.992-2.443-6.138-6.6-7.57l1.35-5.408-3.293-.82-1.312 5.266c-.866-.216-1.755-.42-2.638-.621l1.322-5.3-3.29-.82-1.349 5.405a106.49 106.49 0 01-2.102-.494l.004-.017-4.54-1.133-.876 3.516s2.443.56 2.391.594c1.333.333 1.575 1.215 1.534 1.915l-1.535 6.16c.091.024.21.058.342.11l-.348-.086-2.153 8.631c-.163.405-.576 1.013-1.508.782.033.048-2.393-.597-2.393-.597l-1.635 3.768 4.285 1.068c.797.2 1.578.41 2.347.606l-1.363 5.47 3.288.82 1.35-5.412c.898.244 1.77.469 2.623.681L25.79 48.4l3.293.82 1.362-5.46c5.613 1.063 9.834.635 11.611-4.442 1.432-4.088-.071-6.446-3.025-7.984 2.151-.496 3.772-1.91 4.204-4.833l-.001-.001zM35.71 37.047c-1.017 4.088-7.9 1.878-10.132 1.324l1.808-7.247c2.231.558 9.387 1.66 8.324 5.923zm1.018-10.606c-.928 3.718-6.657 1.83-8.515 1.366l1.639-6.572c1.858.463 7.843 1.328 6.876 5.206z" fill="#fff"/></g><defs><clipPath id="clip0_44:3489"><path fill="#fff" transform="translate(0 .774)" d="M0 0h60v60H0z"/></clipPath></defs></svg>