<svg width="68" height="20" fill="none" xmlns="http://www.w3.org/2000/svg"><path d="M9.714 11.102h7.307l1.161-1.185-1.16-1.185H9.713c-.641 0-1.16.53-1.16 1.185s.519 1.185 1.16 1.185z" fill="#A8A8A8"/><path d="M9.714 4.366c-3 0-5.437 2.489-5.437 5.551 0 3.063 2.437 5.551 5.437 5.551h3.03l2.322-2.37H9.714c-1.717 0-3.116-1.428-3.116-3.18 0-1.754 1.4-3.182 3.116-3.182h5.352l-2.322-2.37h-3.03zm9.714 11.102v-2.37h-1.747l-2.322 2.37h4.07z" fill="#A8A8A8"/><path d="M2.847 2.907C1.008 4.777 0 7.267 0 9.917c0 2.651 1.008 5.14 2.847 7.01 1.833 1.872 4.277 2.907 6.867 2.907h9.714v-2.37H9.714a7.292 7.292 0 01-5.23-2.208 7.603 7.603 0 01-2.162-5.339c0-2.014.77-3.91 2.162-5.339a7.292 7.292 0 015.23-2.208h9.714V0H9.714a9.526 9.526 0 00-6.867 2.907z" fill="#A8A8A8"/><path d="M17.681 6.736h1.747v-2.37H15.36l2.322 2.37zm15.292-.265l.483-.424A5.224 5.224 0 0029.729 4.5c-1.558 0-2.884.518-3.837 1.497-.965.998-1.49 2.401-1.472 3.954.006 1.46.489 2.782 1.356 3.736.953 1.048 2.322 1.597 3.953 1.597a5.224 5.224 0 003.727-1.547l-.47-.455a4.675 4.675 0 01-3.257 1.335c-1.424 0-2.609-.487-3.44-1.404-.751-.835-1.173-2.002-1.185-3.293-.006-1.397.452-2.638 1.29-3.499.818-.842 1.973-1.291 3.335-1.291a4.572 4.572 0 013.244 1.341zm2.567 7.865v-4.26h6.103v-.661h-6.104V5.192h6.727V4.5h-7.441v10.528h7.294v-.692h-6.58zm12.071-4.709l.019-.025 3.5-5.102h-.757L47.22 9.022l-.037.056-.043-.056L44.007 4.5h-.776l3.495 5.102.018.025-.018.025-3.782 5.377h.855l3.342-4.84.043-.057.037.056 3.342 4.84h.848L47.63 9.652l-.019-.025zM55.743 4.5h-.678v10.528h.678V4.5zm10.485 1.447C65.305 5 64.016 4.5 62.507 4.5c-3.593 0-5.206 2.726-5.206 5.426 0 1.454.465 2.795 1.302 3.78.94 1.104 2.29 1.69 3.898 1.69 1.606 0 2.956-.58 3.897-1.677.837-.98 1.302-2.314 1.308-3.761.012-1.597-.513-3.02-1.478-4.011zm-.337 7.291c-.819.973-1.991 1.485-3.39 1.485-1.387 0-2.554-.512-3.373-1.485-.727-.86-1.13-2.033-1.136-3.3-.006-1.409.446-2.662 1.289-3.523.794-.817 1.906-1.248 3.22-1.248 1.405 0 2.584.506 3.396 1.454.727.854 1.13 2.033 1.13 3.318 0 1.26-.403 2.432-1.136 3.3zM52.114 9.5a.53.53 0 00-.525.536c0 .293.232.537.525.537a.535.535 0 00.526-.537.535.535 0 00-.526-.536z" fill="#A8A8A8"/></svg>