<svg width="56" height="55" fill="none" xmlns="http://www.w3.org/2000/svg"><circle cx="28.474" cy="27.5" r="27.5" fill="#FD7B01"/><g clip-path="url(#clip0_44:3896)" fill="#fff"><path d="M32.998 37.182c.253.251.6.42.957.45.36.03.73-.059 1.03-.262.082-.054.16-.12.228-.188l.002-.002 4.292-4.291a1.571 1.571 0 10-2.222-2.222l-1.61 1.61v-13.34a1.571 1.571 0 00-3.142 0v13.34l-1.653-1.652a1.571 1.571 0 10-2.221 2.222l4.334 4.335c.003-.002.003 0 .005 0zm-14.986-12.34c.403 0 .805-.153 1.11-.46l1.653-1.653v13.34a1.571 1.571 0 003.141 0V22.73l1.61 1.61a1.567 1.567 0 002.22 0 1.571 1.571 0 000-2.221l-.34-.342c-.28-.278-.556-.559-.836-.835-.36-.359-.719-.717-1.077-1.077-.352-.356-.716-.701-1.066-1.062-.34-.347-.683-.689-1.045-1.015-.377-.34-.869-.507-1.376-.388-.13.03-.268.08-.385.145-.35.197-.628.521-.911.802-.346.341-.685.689-1.028 1.034-.409.41-.821.82-1.232 1.228-.343.347-.69.695-1.036 1.043-.168.167-.336.332-.503.5l-.008.008a1.571 1.571 0 001.11 2.683z"/></g><defs><clipPath id="clip0_44:3896"><path fill="#fff" transform="translate(16.442 17.188)" d="M0 0h24.063v20.625H0z"/></clipPath></defs></svg>