<svg width="32" height="32" fill="none" xmlns="http://www.w3.org/2000/svg"><circle cx="16" cy="16" r="16" fill="#FD7B01"/><path d="M18.632 21.634a.913.913 0 001.29 0v-.002l2.497-2.496a.914.914 0 10-1.293-1.293l-.937.937v-7.762a.914.914 0 00-1.827 0v7.762l-.962-.962a.914.914 0 10-1.292 1.293l2.522 2.523c.001-.002.001 0 .002 0zm-8.718-7.181a.906.906 0 00.645-.268l.962-.961v7.761a.914.914 0 001.827 0v-7.761l.937.937a.912.912 0 001.292 0 .914.914 0 000-1.293l-.199-.199c-.162-.162-.323-.325-.486-.486-.21-.208-.418-.416-.626-.626-.205-.207-.417-.408-.62-.618-.198-.202-.398-.4-.608-.59-.22-.198-.506-.296-.8-.226a.876.876 0 00-.225.084c-.204.114-.366.303-.53.467-.201.198-.399.4-.598.602l-.717.714-.603.606-.292.292a.914.914 0 00.64 1.566z" fill="#fff"/></svg>