<svg width="56" height="56" fill="none" xmlns="http://www.w3.org/2000/svg"><g clip-path="url(#clip0_2:157)" fill="#FD7B01"><path d="M21.016 24.725c3.864-4.927 9.865-8.093 16.62-8.093 1.007 0 2.001.069 2.984.206v-4.504c-3.052 2.743-10.962 4.698-20.255 4.698-9.236 0-17.124-1.932-20.21-4.664v5.796c1.543 6.32 20.644 6.572 20.861 6.561zM.143 22.69l-.011 5.887c.743 3.27 7.636 5.921 16.563 6.504a20.779 20.779 0 012.56-7.727C10.489 27.206 3.093 25.32.144 22.69zM.132 33.15l-.012 5.6c.034-.033.069-.068.103-.09.217 3.612 7.933 6.572 17.844 6.995a20.924 20.924 0 01-1.532-7.91v-.012C8.968 37.265 2.76 35.504.132 33.15zm19.249 15.169c-8.939-.15-16.449-2.127-19.26-4.824l-.012 5.28c0 3.979 9.065 7.202 20.256 7.202 2.137 0 4.195-.114 6.126-.331a21.28 21.28 0 01-7.11-7.328z"/><path d="M20.364 14.38c11.2 0 20.279-3.219 20.279-7.19 0-3.97-9.08-7.19-20.279-7.19C9.164 0 .086 3.22.086 7.19c0 3.971 9.079 7.19 20.278 7.19zm17.272 5.075c-10.093 0-18.278 8.185-18.278 18.279C19.358 47.826 27.543 56 37.636 56c10.094 0 18.278-8.184 18.278-18.278S47.73 19.455 37.636 19.455zm1.67 28.029v1.154c0 .926-.744 1.67-1.67 1.67a1.664 1.664 0 01-1.669-1.67v-1.154a5.914 5.914 0 01-2.583-1.589 1.674 1.674 0 01.069-2.355c.674-.628 1.691-.56 2.354.069.732.697 1.944.777 2 .777a2.506 2.506 0 002.321-2.492 2.508 2.508 0 00-2.492-2.503 5.84 5.84 0 01-5.83-5.83c0-2.64 1.761-4.87 4.162-5.59v-1.154c0-.926.742-1.669 1.668-1.669.926 0 1.67.743 1.67 1.669v1.154a5.914 5.914 0 012.583 1.59 1.674 1.674 0 01-.069 2.354c-.674.629-1.783.652-2.355-.069-.606-.765-1.943-.777-2-.777a2.506 2.506 0 00-2.32 2.492 2.508 2.508 0 002.491 2.504 5.84 5.84 0 015.83 5.83c0 2.64-1.76 4.869-4.16 5.589z"/></g><defs><clipPath id="clip0_2:157"><path fill="#fff" d="M0 0h56v56H0z"/></clipPath></defs></svg>