<svg width="20" height="20" fill="none" xmlns="http://www.w3.org/2000/svg"><path d="M10 19.688c5.344 0 9.688-4.344 9.688-9.688S15.343.312 10 .312.312 4.657.312 10 4.657 19.688 10 19.688zm1.306-8.463a.987.987 0 00-.706-.287H9.4a2.86 2.86 0 01-2.869-2.87c0-1.468 1.113-2.662 2.532-2.837v-.418a.936.936 0 111.875 0V5.2h1.593a.936.936 0 110 1.875H9.4a.992.992 0 00-.994.994c0 .268.1.518.288.706a.987.987 0 00.706.287h1.2a2.86 2.86 0 012.869 2.87c0 1.468-1.113 2.662-2.531 2.837v.418a.936.936 0 01-.938.938.936.936 0 01-.938-.938V14.8H7.47a.936.936 0 01-.938-.938c0-.518.419-.937.938-.937h3.13c.55 0 .994-.444.994-.994 0-.268-.1-.518-.288-.706z" fill="#FD7B01"/></svg>