<svg width="114" height="20" fill="none" xmlns="http://www.w3.org/2000/svg"><path d="M22.962 5.584c-4.133 0-7.363 3.087-7.363 7.22 0 4.134 3.148 7.195 7.363 7.195 4.214 0 7.417-3.114 7.417-7.22 0-4.081-3.148-7.195-7.417-7.195zm.028 11.436c-2.354 0-4.079-1.799-4.079-4.214 0-2.444 1.697-4.242 4.05-4.242 2.382 0 4.106 1.826 4.106 4.242 0 2.415-1.724 4.214-4.077 4.214zm8.291-8.295h2.053v11.007h3.284V5.852h-5.337v2.873zM7.334 8.563c1.725 0 3.094 1.047 3.613 2.604h3.476c-.63-3.328-3.421-5.583-7.06-5.583C3.228 5.584 0 8.67 0 12.806 0 16.94 3.148 20 7.362 20c3.558 0 6.404-2.255 7.034-5.611h-3.449c-.493 1.557-1.861 2.631-3.586 2.631-2.381 0-4.05-1.799-4.05-4.214.001-2.444 1.643-4.243 4.023-4.243zm86.347 2.9l-2.408-.349c-1.15-.16-1.97-.536-1.97-1.422 0-.967 1.067-1.45 2.517-1.45 1.588 0 2.6.671 2.82 1.772h3.174c-.356-2.792-2.546-4.43-5.911-4.43-3.477 0-5.775 1.746-5.775 4.215 0 2.362 1.505 3.732 4.543 4.161l2.408.349c1.177.16 1.834.618 1.834 1.476 0 1.101-1.15 1.557-2.736 1.557-1.944 0-3.039-.778-3.203-1.96h-3.23C86.047 18.095 88.209 20 92.148 20c3.586 0 5.967-1.61 5.967-4.376 0-2.47-1.724-3.759-4.434-4.161zM34.976.134c-1.204 0-2.107.859-2.107 2.04 0 1.18.902 2.04 2.107 2.04s2.108-.86 2.108-2.04c0-1.181-.903-2.04-2.108-2.04zm48.196 10.47c0-3.006-1.86-5.02-5.802-5.02-3.722 0-5.802 1.853-6.213 4.699h3.257c.165-1.1 1.04-2.013 2.901-2.013 1.67 0 2.491.724 2.491 1.61 0 1.155-1.505 1.45-3.366 1.638-2.518.268-5.638 1.127-5.638 4.349 0 2.497 1.889 4.107 4.9 4.107 2.353 0 3.83-.967 4.57-2.497.11 1.369 1.15 2.255 2.6 2.255h1.916V16.86h-1.615v-6.256zm-3.23 3.49c0 1.853-1.641 3.222-3.64 3.222-1.232 0-2.272-.51-2.272-1.583 0-1.37 1.67-1.745 3.203-1.906 1.478-.134 2.299-.456 2.71-1.074v1.341zM62.51 5.584c-1.834 0-3.367.752-4.461 2.013V0h-3.284v19.732h3.229v-1.826C59.088 19.222 60.648 20 62.509 20c3.94 0 6.925-3.06 6.925-7.194 0-4.135-3.039-7.222-6.925-7.222zm-.492 11.436c-2.354 0-4.079-1.799-4.079-4.214 0-2.416 1.752-4.242 4.105-4.242 2.382 0 4.05 1.8 4.05 4.242 0 2.415-1.723 4.214-4.076 4.214zM46.909 5.584c-2.135 0-3.531.858-4.352 2.067v-1.8h-3.258v13.88h3.285v-7.543c0-2.121 1.368-3.625 3.393-3.625 1.889 0 3.065 1.316 3.065 3.222v7.947h3.284v-8.188c.002-3.49-1.832-5.96-5.417-5.96zm66.861 6.765c0-3.973-2.956-6.764-6.925-6.764-4.214 0-7.307 3.114-7.307 7.22 0 4.323 3.312 7.195 7.362 7.195 3.422 0 6.104-1.987 6.787-4.805h-3.421c-.493 1.235-1.697 1.933-3.312 1.933-2.108 0-3.695-1.289-4.051-3.544h10.866v-1.235h.001zm-10.675-1.074c.521-1.933 1.999-2.872 3.696-2.872 1.861 0 3.284 1.047 3.612 2.872h-7.308z" fill="#A8A8A8"/></svg>