<svg width="50" height="50" fill="none" xmlns="http://www.w3.org/2000/svg"><path d="M16.667 8.334v25a4.167 4.167 0 004.167 4.166H37.5a4.167 4.167 0 004.167-4.166V15.088a4.168 4.168 0 00-1.254-2.98l-6.906-6.754a4.167 4.167 0 00-2.913-1.187h-9.76a4.167 4.167 0 00-4.167 4.167v0z" stroke="#FD7B01" stroke-width="4.167" stroke-linecap="round" stroke-linejoin="round"/><path d="M33.334 37.5v4.167a4.167 4.167 0 01-4.167 4.167H12.5a4.167 4.167 0 01-4.166-4.167V18.751a4.167 4.167 0 014.166-4.167h4.167" stroke="#FD7B01" stroke-width="4.167" stroke-linecap="round" stroke-linejoin="round"/></svg>