<svg width="28" height="28" fill="none" xmlns="http://www.w3.org/2000/svg"><g clip-path="url(#clip0_2:832)"><path d="M27.56 17.407c-1.869 7.5-9.465 12.065-16.966 10.194C3.096 25.731-1.468 18.135.402 10.635 2.272 3.135 9.868-1.43 17.366.44c7.5 1.87 12.065 9.468 10.195 16.968z" fill="#E9E9E9"/><g clip-path="url(#clip1_2:832)"><path d="M13.999 4.667l-.126.425v12.343l.126.125 5.729-3.387-5.73-9.506z" fill="#343434"/><path d="M13.998 4.667L8.27 14.173 14 17.56V4.667z" fill="#8C8C8C"/><path d="M13.999 18.643l-.07.086v4.397l.07.206 5.732-8.074L14 18.643z" fill="#3C3C3B"/><path d="M13.998 23.332v-4.69L8.27 15.259 14 23.332z" fill="#8C8C8C"/><path d="M13.999 17.562l5.729-3.387-5.73-2.604v5.99z" fill="#141414"/><path d="M8.27 14.175l5.729 3.387V11.57l-5.73 2.604z" fill="#393939"/></g></g><defs><clipPath id="clip0_2:832"><path fill="#fff" d="M0 0h28v28H0z"/></clipPath><clipPath id="clip1_2:832"><path fill="#fff" transform="translate(4.667 4.667)" d="M0 0h18.667v18.667H0z"/></clipPath></defs></svg>