<svg width="60" height="61" fill="none" xmlns="http://www.w3.org/2000/svg"><g clip-path="url(#clip0_44:3498)"><path d="M59.06 38.075C55.051 54.147 38.774 63.928 22.7 59.92 6.634 55.913-3.147 39.635.861 23.564 4.868 7.491 21.146-2.29 37.214 1.716c16.072 4.007 25.853 20.287 21.846 36.36z" fill="#E9E9E9"/><g clip-path="url(#clip1_44:3498)"><path d="M29.997 10.774l-.268.912v26.449l.268.267 12.277-7.257-12.277-20.37z" fill="#343434"/><path d="M29.997 10.774L17.72 31.145l12.277 7.257V10.775z" fill="#8C8C8C"/><path d="M29.997 40.723l-.15.184v9.422l.15.441 12.285-17.3-12.285 7.253z" fill="#3C3C3B"/><path d="M29.997 50.77V40.723L17.72 33.47l12.277 17.3z" fill="#8C8C8C"/><path d="M29.998 38.407l12.277-7.257-12.277-5.58v12.837z" fill="#141414"/><path d="M17.72 31.15l12.277 7.257V25.569L17.72 31.15z" fill="#393939"/></g></g><defs><clipPath id="clip0_44:3498"><path fill="#fff" transform="translate(0 .774)" d="M0 0h60v60H0z"/></clipPath><clipPath id="clip1_44:3498"><path fill="#fff" transform="translate(10 10.774)" d="M0 0h40v40H0z"/></clipPath></defs></svg>