<svg width="24" height="24" fill="none" xmlns="http://www.w3.org/2000/svg"><g clip-path="url(#clip0_2:198)"><path d="M23.624 14.92C22.02 21.35 15.51 25.261 9.08 23.658 2.654 22.056-1.259 15.544.345 9.116c1.602-6.43 8.113-10.342 14.54-8.74 6.43 1.603 10.341 8.116 8.739 14.545z" fill="#E9E9E9"/><g clip-path="url(#clip1_2:198)"><path d="M11.999 4l-.107.365v10.58l.107.106 4.91-2.903L12 4z" fill="#343434"/><path d="M11.999 4l-4.911 8.148 4.91 2.903V4z" fill="#8C8C8C"/><path d="M11.999 15.98l-.06.073v3.769l.06.177 4.914-6.92-4.914 2.9z" fill="#3C3C3B"/><path d="M11.999 19.998V15.98l-4.911-2.9 4.91 6.92z" fill="#8C8C8C"/><path d="M11.999 15.053l4.91-2.903L12 9.918v5.135z" fill="#141414"/><path d="M7.088 12.15l4.91 2.903V9.918l-4.91 2.232z" fill="#393939"/></g></g><defs><clipPath id="clip0_2:198"><path fill="#fff" d="M0 0h24v24H0z"/></clipPath><clipPath id="clip1_2:198"><path fill="#fff" transform="translate(4 4)" d="M0 0h16v16H0z"/></clipPath></defs></svg>