<svg width="32" height="32" fill="none" xmlns="http://www.w3.org/2000/svg"><g clip-path="url(#clip0_2:596)" fill="#FD7B01"><path d="M16.725 12.72v1.609c0 .51.102.94.304 1.273.278.462.734.726 1.252.726.507 0 1.01-.247 1.498-.734l5.314-5.314a2.996 2.996 0 000-4.232L19.779.734C19.292.247 18.788 0 18.28 0c-.775 0-1.556.618-1.556 1.999V3.46C9.18 3.906 2.934 9.695 2.006 17.276a.937.937 0 001.687.667 13.3 13.3 0 0110.693-5.433c.78 0 1.563.07 2.338.21z"/><path d="M29.39 13.739a.937.937 0 00-1.1.318 13.3 13.3 0 01-10.694 5.432c-.78 0-1.563-.07-2.338-.209v-1.609c0-1.38-.781-1.999-1.555-1.999-.507 0-1.011.247-1.499.735L6.89 21.72a2.996 2.996 0 000 4.232l5.314 5.314c.487.487.992.734 1.499.734.774 0 1.555-.618 1.555-1.999V28.54c7.545-.445 13.79-6.235 14.718-13.815a.937.937 0 00-.585-.986z"/></g><defs><clipPath id="clip0_2:596"><path fill="#fff" d="M0 0h32v32H0z"/></clipPath></defs></svg>