<svg width="56" height="56" fill="none" xmlns="http://www.w3.org/2000/svg"><g clip-path="url(#clip0_2:132)" fill="#FD7B01"><path d="M29.27 22.26v2.816c0 .894.178 1.644.53 2.228.486.807 1.285 1.27 2.19 1.27.889 0 1.77-.433 2.623-1.285l9.3-9.3a5.243 5.243 0 000-7.405l-9.3-9.3C33.76.432 32.879 0 31.99 0c-1.355 0-2.722 1.082-2.722 3.498v2.557c-13.202.78-24.132 10.912-25.757 24.177a1.64 1.64 0 002.953 1.169c4.357-5.953 11.352-9.508 18.713-9.508 1.364 0 2.735.123 4.091.367z"/><path d="M51.434 24.043a1.64 1.64 0 00-1.927.557c-4.357 5.952-11.353 9.507-18.713 9.507a23.13 23.13 0 01-4.092-.367v-2.815c0-2.416-1.367-3.498-2.721-3.498-.888 0-1.77.432-2.623 1.284l-9.3 9.3a5.244 5.244 0 00.001 7.406l9.3 9.299C22.21 55.568 23.092 56 23.98 56c1.354 0 2.721-1.082 2.721-3.498v-2.557c13.203-.78 24.133-10.912 25.757-24.177a1.64 1.64 0 00-1.025-1.725z"/></g><defs><clipPath id="clip0_2:132"><path fill="#fff" d="M0 0h56v56H0z"/></clipPath></defs></svg>