<svg width="320" height="331" fill="none" xmlns="http://www.w3.org/2000/svg"><g clip-path="url(#clip0_2:754)"><path d="M312 0H8C3.582 0 0 3.585 0 8.008v314.984C0 327.415 3.582 331 8 331h304c4.419 0 8-3.585 8-8.008V8.008C320 3.585 316.419 0 312 0z" fill="#26262E"/><path d="M27.707 44.712V33.5h8.4v2.243h-6v2.242h4.8v2.082h-4.8v2.402h6v2.243h-8.4zm9.358 0l2.4-4.165-2.24-4.004h2.48l1.52 3.044h.4l1.52-3.044h2.48l-2.24 4.005 2.4 4.164h-2.48l-1.68-3.204h-.4l-1.68 3.204h-2.48zm10.39-1.01c-.843-.843-1.264-1.868-1.264-3.074 0-1.207.421-2.227 1.264-3.06.854-.843 1.899-1.265 3.136-1.265 1.483 0 2.614.534 3.392 1.602.352.459.608.993.768 1.601h-2.32a2.434 2.434 0 00-.384-.64c-.405-.427-.89-.64-1.456-.64-.565 0-1.056.223-1.472.672-.405.448-.608 1.025-.608 1.73 0 .704.203 1.28.608 1.73.416.448.907.672 1.472.672.566 0 1.05-.214 1.456-.64.16-.193.288-.406.384-.641h2.32a4.255 4.255 0 01-.736 1.601c-.779 1.068-1.92 1.602-3.424 1.602-1.237 0-2.282-.416-3.136-1.25zm8.896 1.01V33.5h2.24v4.165h.08a2.32 2.32 0 01.592-.673 3.114 3.114 0 011.968-.689c1.013 0 1.797.294 2.352.881.565.587.848 1.442.848 2.563v4.965h-2.24v-4.645c0-.598-.15-1.052-.448-1.361-.288-.32-.7-.48-1.232-.48-.534 0-.987.202-1.36.608-.374.405-.56.923-.56 1.553v4.325h-2.24zm10.757-.945c-.715-.801-1.072-1.848-1.072-3.14 0-1.291.358-2.333 1.072-3.123.725-.8 1.621-1.2 2.688-1.2.715 0 1.36.213 1.936.64.245.203.453.416.624.64h.08v-1.04h2.24v8.168h-2.24V43.67h-.08c-.17.224-.379.437-.624.64a3.171 3.171 0 01-1.936.64c-1.067 0-1.963-.394-2.688-1.184zm1.808-4.901c-.373.427-.56 1.014-.56 1.762 0 .747.187 1.334.56 1.761.373.427.853.641 1.44.641.619 0 1.12-.208 1.504-.625.384-.427.576-1.02.576-1.777 0-.758-.192-1.346-.576-1.762-.384-.427-.885-.64-1.504-.64-.587 0-1.067.213-1.44.64zm7.84 5.846v-8.169h2.24v1.122h.08a2.32 2.32 0 01.592-.673 3.114 3.114 0 011.968-.689c1.013 0 1.797.294 2.352.881.565.587.848 1.442.848 2.563v4.965h-2.24v-4.645c0-.598-.15-1.052-.448-1.361-.288-.32-.699-.48-1.232-.48s-.987.202-1.36.608c-.373.405-.56.923-.56 1.553v4.325h-2.24zm10.774-1.105c-.725-.79-1.088-1.81-1.088-3.06 0-1.249.363-2.268 1.088-3.059.725-.79 1.616-1.185 2.672-1.185.704 0 1.35.22 1.936.657.245.203.453.416.624.64h.08v-1.057h2.24v11.212h-7.44v-1.922h5.2v-2.339h-.08c-.181.257-.39.476-.624.657a3.171 3.171 0 01-1.936.64c-1.056 0-1.947-.394-2.672-1.184zm1.808-4.757c-.384.416-.576.982-.576 1.697 0 .716.192 1.282.576 1.698.384.417.885.625 1.504.625.587 0 1.067-.208 1.44-.625.373-.416.56-.982.56-1.697 0-.716-.187-1.282-.56-1.698-.373-.417-.853-.625-1.44-.625-.619 0-1.12.208-1.504.625zm8.608 4.853c-.843-.844-1.264-1.869-1.264-3.075 0-1.207.421-2.227 1.264-3.06.853-.843 1.899-1.265 3.136-1.265 1.259 0 2.293.417 3.104 1.25.811.832 1.216 1.857 1.216 3.075v.48h-6.4c.085.534.325.988.72 1.361.395.374.848.561 1.36.561.565 0 1.051-.16 1.456-.48a1.66 1.66 0 00.384-.481h2.4a4.319 4.319 0 01-.8 1.441c-.853.961-2 1.442-3.44 1.442-1.237 0-2.283-.416-3.136-1.25zm1.136-3.956h3.92a1.813 1.813 0 00-.656-1.073c-.341-.3-.763-.449-1.264-.449s-.928.144-1.28.433a2.16 2.16 0 00-.72 1.089zm14.206 3.603c-1.152-1.132-1.728-2.546-1.728-4.244s.576-3.107 1.728-4.228c1.163-1.132 2.64-1.698 4.432-1.698 2.016 0 3.563.71 4.64 2.13.491.63.837 1.335 1.04 2.114h-2.48a2.938 2.938 0 00-.64-.993c-.672-.672-1.525-1.009-2.56-1.009-1.045 0-1.909.347-2.592 1.041-.672.684-1.008 1.565-1.008 2.643 0 1.121.325 2.018.976 2.69.661.663 1.536.994 2.624.994s1.963-.374 2.624-1.121c.299-.353.517-.726.656-1.121h2.48a6.868 6.868 0 01-1.104 2.242c-1.152 1.495-2.704 2.242-4.656 2.242-1.792 0-3.269-.56-4.432-1.682zm11.865 1.362v-8.169h2.24v1.202h.08c.096-.257.24-.48.432-.673.438-.46.987-.689 1.648-.689h.96v2.162h-1.2c-.608 0-1.082.166-1.424.497-.33.32-.496.769-.496 1.345v4.325h-2.24zm6.084-8.169h2.32l1.6 6.247h.64l1.76-6.247h2.32l-3.28 11.212h-2.32l.88-3.043h-1.76l-2.16-8.169zm9.837 11.212V36.543h2.24v1.041h.08c.171-.224.379-.437.624-.64a3.17 3.17 0 011.936-.64c1.067 0 1.957.4 2.672 1.2.725.79 1.088 1.832 1.088 3.124 0 1.291-.363 2.338-1.088 3.139-.715.79-1.605 1.185-2.672 1.185a3.17 3.17 0 01-1.936-.64 3.937 3.937 0 01-.624-.641h-.08v4.084h-2.24zm2.816-8.89c-.384.417-.576 1.005-.576 1.763s.192 1.35.576 1.777c.384.417.885.625 1.504.625.587 0 1.067-.214 1.44-.64.373-.428.56-1.015.56-1.762 0-.748-.187-1.335-.56-1.762-.373-.427-.853-.64-1.44-.64-.619 0-1.12.213-1.504.64zm6.864-.4v-1.922h1.04v-1.761h2.24v1.761h2.305v1.922h-2.305v4.325h2.4v1.922h-4.64v-6.247h-1.04zm8.073 5.238c-.854-.844-1.28-1.869-1.28-3.075 0-1.207.426-2.227 1.28-3.06.853-.843 1.92-1.265 3.2-1.265 1.269 0 2.33.422 3.184 1.266.864.832 1.296 1.852 1.296 3.059 0 1.206-.432 2.231-1.296 3.075-.854.832-1.915 1.249-3.184 1.249-1.28 0-2.347-.416-3.2-1.25zm1.664-4.805c-.416.448-.624 1.025-.624 1.73 0 .704.208 1.28.624 1.73.416.448.928.672 1.536.672s1.12-.224 1.536-.673c.416-.448.624-1.025.624-1.73 0-.704-.208-1.28-.624-1.73a2.013 2.013 0 00-1.536-.672c-.608 0-1.12.224-1.536.673z" fill="#fff"/><path d="M285.333 88.089H34.667c-4.419 0-8 3.585-8 8.008v21.355c0 4.422 3.581 8.008 8 8.008h250.666c4.419 0 8-3.586 8-8.008V96.097c0-4.423-3.581-8.008-8-8.008z" fill="#2F3038"/><path d="M58.374 109.048c-1.247 5.005-6.31 8.051-11.311 6.803-4.999-1.248-8.042-6.317-6.795-11.322 1.246-5.006 6.31-8.052 11.31-6.804 5 1.247 8.043 6.318 6.796 11.323z" fill="#F7931A"/><path d="M53.45 105.443c.186-1.243-.76-1.911-2.053-2.357l.42-1.685-1.024-.255-.409 1.639c-.269-.066-.545-.13-.82-.192l.411-1.651-1.023-.256-.42 1.684c-.223-.051-.442-.101-.654-.154l.001-.005-1.412-.353-.273 1.095s.76.174.744.185c.415.103.49.378.477.596l-.477 1.919a.714.714 0 01.106.034 4.89 4.89 0 00-.108-.027l-.67 2.688c-.05.126-.18.315-.47.243.011.016-.744-.185-.744-.185l-.508 1.173 1.333.333c.248.062.49.127.73.188l-.424 1.704 1.023.255.42-1.685c.28.076.55.146.816.212l-.418 1.677 1.024.256.424-1.701c1.746.331 3.06.198 3.612-1.383.445-1.273-.022-2.008-.941-2.487.67-.154 1.173-.595 1.308-1.505zm-2.34 3.284c-.316 1.274-2.458.586-3.152.413l.563-2.257c.694.173 2.92.517 2.59 1.844zm.317-3.302c-.289 1.158-2.071.569-2.65.425l.51-2.047c.579.144 2.44.414 2.14 1.622z" fill="#fff"/><path d="M249.48 103.325h3.296c.619 0 1.102.175 1.451.524.355.349.533.814.533 1.398 0 .278-.039.516-.117.716a1.526 1.526 0 01-.299.48 1.25 1.25 0 01-.416.278 1.844 1.844 0 01-.459.107v.064c.15.007.313.042.491.106.185.064.355.168.512.31.157.136.288.313.395.534.106.213.16.477.16.79 0 .299-.05.58-.15.844a1.95 1.95 0 01-1.002 1.142c-.235.107-.491.16-.768.16h-3.627v-7.453zm1.205 6.418h2.07c.312 0 .558-.083.736-.246.178-.164.266-.398.266-.705v-.363c0-.306-.088-.541-.266-.705-.178-.163-.424-.245-.736-.245h-2.07v2.264zm0-3.268h1.867c.299 0 .53-.075.693-.224.164-.157.246-.377.246-.662v-.342c0-.285-.082-.502-.246-.651-.163-.157-.394-.235-.693-.235h-1.867v2.114zm8.318-2.082v6.385h-1.205v-6.385h-2.219v-1.068h5.643v1.068h-2.219zm5.949 6.513c-.975 0-1.739-.327-2.293-.982-.555-.662-.832-1.62-.832-2.872 0-.627.07-1.178.213-1.655.142-.477.348-.879.619-1.207a2.55 2.55 0 01.981-.736 3.24 3.24 0 011.312-.257c.647 0 1.187.142 1.621.427.441.285.786.705 1.035 1.26l-1.013.556a1.797 1.797 0 00-.598-.844c-.263-.214-.612-.32-1.045-.32-.576 0-1.028.195-1.355.587-.327.392-.49.932-.49 1.623v1.132c0 .69.163 1.231.49 1.623.327.391.779.587 1.355.587.448 0 .811-.114 1.088-.342.284-.235.494-.534.629-.897l.971.588c-.249.541-.597.964-1.045 1.27-.448.307-.996.459-1.643.459zm11.975-2.278l2.966-2.97a.36.36 0 00.107-.258.361.361 0 00-.107-.258l-.218-.219a.366.366 0 00-.516 0l-2.491 2.494-2.494-2.497a.364.364 0 00-.515 0l-.219.219a.364.364 0 000 .517l2.969 2.972a.359.359 0 00.259.106.359.359 0 00.259-.106z" fill="#999AA3"/><path d="M69.867 110.906c-.889 0-1.54-.338-1.952-1.014-.406-.676-.608-1.623-.608-2.84 0-1.217.202-2.164.608-2.84.412-.676 1.063-1.015 1.952-1.015s1.536.339 1.941 1.015c.413.676.619 1.623.619 2.84 0 1.217-.206 2.164-.619 2.84-.405.676-1.052 1.014-1.941 1.014zm0-.779c.292 0 .54-.061.746-.182.207-.12.374-.291.502-.512.128-.221.22-.481.277-.78.064-.299.096-.63.096-.993v-1.217c0-.363-.032-.694-.096-.993a2.452 2.452 0 00-.277-.779 1.383 1.383 0 00-.502-.513 1.45 1.45 0 00-.746-.181c-.292 0-.54.06-.747.181a1.388 1.388 0 00-.501.513c-.128.221-.224.48-.288.779-.057.299-.086.63-.086.993v1.217c0 .363.029.694.086.993.064.299.16.559.288.78.128.221.295.392.501.512.207.121.455.182.747.182zm4.646.779c-.227 0-.394-.056-.501-.17a.662.662 0 01-.15-.449v-.139c0-.185.05-.334.15-.448.107-.114.274-.171.501-.171.228 0 .392.057.491.171.107.114.16.263.16.448v.139a.633.633 0 01-.16.449c-.1.114-.263.17-.49.17zm5.456-.128v-1.463h-3.595v-.79l3.115-5.2h1.333v5.243h1.077v.747h-1.077v1.463h-.853zm-2.752-2.21h2.752v-4.549h-.054l-2.698 4.549zm7.014 2.21l2.848-6.684h-3.178v1.388h-.8v-2.157h4.885v.791l-2.795 6.662h-.96zm7.314-4.292c.504 0 .882-.114 1.13-.342.256-.235.384-.534.384-.897v-.074c0-.392-.124-.684-.373-.876-.242-.199-.562-.299-.96-.299-.384 0-.697.085-.939.256a1.9 1.9 0 00-.597.673l-.661-.513c.092-.149.202-.295.33-.437.136-.15.292-.281.47-.395a2.47 2.47 0 01.618-.278c.235-.071.502-.107.8-.107.313 0 .608.043.886.128.277.078.515.2.714.363.206.157.366.353.48.588.121.235.182.502.182.8 0 .243-.04.46-.118.652-.071.192-.17.36-.298.502a1.796 1.796 0 01-.459.363c-.17.099-.355.174-.555.224v.043c.2.042.392.114.576.213.192.093.36.217.502.374.149.149.266.334.352.555.092.214.138.459.138.737 0 .32-.06.616-.181.886-.12.264-.291.491-.512.683a2.48 2.48 0 01-.8.438 3.18 3.18 0 01-1.035.16c-.32 0-.604-.035-.853-.106a2.58 2.58 0 01-.661-.289 2.894 2.894 0 01-.512-.405 4.11 4.11 0 01-.384-.47l.672-.513c.092.15.192.285.298.406a1.817 1.817 0 00.832.512c.171.043.37.065.598.065.526 0 .924-.118 1.194-.353.27-.242.406-.584.406-1.025v-.085c0-.441-.136-.78-.406-1.015-.27-.242-.668-.363-1.194-.363h-.875v-.779h.81zm9.297 4.292h-4.885v-.918l2.432-2.242c.348-.321.64-.659.874-1.015.235-.363.352-.726.352-1.089v-.128c0-.413-.114-.747-.341-1.004-.228-.256-.573-.384-1.035-.384-.228 0-.426.032-.597.096-.17.064-.32.153-.448.267a1.597 1.597 0 00-.31.406 2.448 2.448 0 00-.191.491l-.8-.31c.07-.221.166-.434.288-.64a2.37 2.37 0 01.469-.566 2.27 2.27 0 01.683-.395c.27-.1.586-.15.949-.15s.686.054.97.16c.285.107.523.257.715.449.192.192.338.42.438.683.106.264.16.555.16.876 0 .291-.043.562-.128.811a3.155 3.155 0 01-.331.716 4.322 4.322 0 01-.523.651c-.199.214-.416.427-.65.641l-2.006 1.804h3.915v.79zm4.223-7.453h3.062c.618 0 1.102.175 1.45.524.356.349.534.814.534 1.398 0 .278-.04.513-.118.705a1.56 1.56 0 01-.298.481c-.122.12-.253.213-.395.277a2.078 2.078 0 01-.395.118v.064c.135.007.284.042.448.106.171.064.331.168.48.31.15.136.274.313.374.534.106.213.16.473.16.779 0 .307-.05.591-.15.855a1.95 1.95 0 01-1.002 1.142c-.235.107-.491.16-.768.16h-3.382v-7.453zm.896 6.663h2.208c.384 0 .686-.096.907-.288.22-.2.331-.488.331-.865v-.363c0-.377-.111-.662-.331-.854-.221-.2-.523-.299-.907-.299h-2.208v2.669zm0-3.438h2.059c.355 0 .633-.089.832-.267.199-.178.299-.434.299-.769v-.363c0-.334-.1-.59-.299-.769-.199-.178-.477-.266-.832-.266h-2.059v2.434zm8.308-2.434v6.662h-.896v-6.662h-2.368v-.791h5.632v.791h-2.368zm6.014 6.79c-.946 0-1.682-.32-2.208-.961-.526-.648-.79-1.598-.79-2.85 0-1.253.264-2.214.79-2.883.526-.676 1.262-1.015 2.208-1.015.626 0 1.148.142 1.568.427.426.285.757.687.992 1.207l-.726.438a2.028 2.028 0 00-.682-.919c-.306-.234-.69-.352-1.152-.352-.32 0-.608.061-.864.182-.249.12-.462.295-.64.523a2.42 2.42 0 00-.395.801 3.59 3.59 0 00-.139 1.035v1.111c0 .769.178 1.37.534 1.804.356.435.857.652 1.504.652.476 0 .874-.121 1.194-.363.32-.249.555-.577.704-.983l.715.449a2.942 2.942 0 01-1.013 1.249c-.441.299-.974.448-1.6.448z" fill="#797A81"/><path d="M29.344 78.746V75.81l-2.56-4.517h1.376l1.814 3.32h.032l1.802-3.32h1.323l-2.582 4.495v2.958h-1.205zm6.341.128c-.384 0-.736-.067-1.056-.203a2.245 2.245 0 01-.8-.576 2.743 2.743 0 01-.512-.919 3.8 3.8 0 01-.181-1.206c0-.441.06-.84.181-1.196.121-.363.292-.67.512-.918a2.18 2.18 0 01.8-.587c.32-.136.672-.203 1.056-.203s.733.067 1.046.203c.32.135.59.33.81.587.22.249.391.555.512.918.121.356.182.755.182 1.196 0 .441-.06.843-.182 1.206a2.748 2.748 0 01-.512.919c-.22.249-.49.44-.81.576a2.605 2.605 0 01-1.046.203zm0-.96c.398 0 .718-.122.96-.364.242-.249.363-.62.363-1.11v-.94c0-.491-.121-.858-.363-1.1-.242-.249-.562-.373-.96-.373-.398 0-.718.124-.96.373-.242.242-.362.609-.362 1.1v.94c0 .49.12.861.362 1.11.242.242.562.363.96.363zm7.205-.086h-.043c-.05.135-.117.267-.202.395a1.27 1.27 0 01-.31.341c-.12.093-.27.168-.448.225-.17.056-.37.085-.597.085-.576 0-1.024-.185-1.344-.555-.313-.37-.47-.9-.47-1.591v-3.534h1.163v3.385c0 .861.356 1.292 1.067 1.292.15 0 .295-.019.437-.054a1.22 1.22 0 00.374-.181.828.828 0 00.266-.3.828.828 0 00.107-.427v-3.715h1.163v5.552H42.89v-.918zm7.108 1.046c-.526 0-.967-.093-1.322-.277a2.898 2.898 0 01-.928-.77l.746-.683c.207.25.434.445.683.588.256.135.551.203.885.203.342 0 .594-.064.758-.193a.67.67 0 00.256-.555.608.608 0 00-.182-.448c-.113-.129-.316-.21-.608-.246l-.512-.064c-.569-.071-1.017-.235-1.344-.491-.32-.264-.48-.651-.48-1.164 0-.27.05-.51.15-.715.1-.214.238-.392.416-.534a1.94 1.94 0 01.65-.342c.256-.078.537-.117.843-.117.498 0 .903.078 1.216.234.32.157.605.374.853.652l-.714.683a1.787 1.787 0 00-.566-.438 1.582 1.582 0 00-.789-.192c-.32 0-.558.064-.715.192a.63.63 0 00-.224.502c0 .214.068.374.203.48.135.108.352.186.65.236l.513.064c.611.093 1.056.274 1.333.544.285.264.427.62.427 1.068 0 .27-.054.516-.16.737-.1.213-.246.398-.438.555a2.067 2.067 0 01-.693.363 3 3 0 01-.907.128zm5.687 0c-.398 0-.754-.067-1.066-.203a2.246 2.246 0 01-.8-.576 2.745 2.745 0 01-.512-.919 4.021 4.021 0 01-.171-1.206c0-.441.057-.84.17-1.196a2.61 2.61 0 01.513-.918 2.18 2.18 0 01.8-.587 2.66 2.66 0 011.066-.203c.406 0 .761.071 1.067.213.313.142.572.342.779.598.206.249.359.541.458.876.107.334.16.694.16 1.078v.438h-3.808v.181c0 .427.125.78.374 1.057.256.27.618.406 1.088.406.34 0 .629-.075.864-.224.234-.15.433-.352.597-.609l.683.673a2.234 2.234 0 01-.896.822c-.392.2-.847.3-1.366.3zm0-4.9a1.289 1.289 0 00-.981.406 1.39 1.39 0 00-.267.458 1.725 1.725 0 00-.096.587v.075h2.582v-.107c0-.427-.11-.769-.331-1.025-.22-.263-.523-.395-.907-.395zm3.751 4.772v-5.552H60.6v.918h.053c.121-.299.303-.548.544-.747.25-.2.587-.3 1.014-.3.569 0 1.01.19 1.322.567.32.37.48.9.48 1.59v3.524H62.85v-3.374c0-.868-.349-1.303-1.046-1.303-.149 0-.298.022-.448.064-.142.036-.27.093-.384.171a.93.93 0 00-.277.3.901.901 0 00-.096.426v3.716h-1.163zm9.676-.918h-.053c-.122.327-.32.584-.598.769a1.66 1.66 0 01-.96.277c-.704 0-1.248-.253-1.632-.758-.384-.513-.576-1.228-.576-2.146 0-.918.192-1.63.576-2.136.384-.512.928-.768 1.632-.768.37 0 .69.092.96.277.278.178.476.435.598.769h.053v-3.267h1.163v7.901h-1.163v-.918zm-1.259.043c.356 0 .654-.086.896-.257a.825.825 0 00.363-.694v-1.9a.798.798 0 00-.363-.684c-.242-.178-.54-.267-.896-.267-.405 0-.729.132-.97.395-.242.257-.363.598-.363 1.025v.961c0 .427.12.772.363 1.036.241.256.565.385.97.385z" fill="#fff"/><path d="M285.333 165.5H34.667c-4.419 0-8 3.585-8 8.008v21.355c0 4.423 3.581 8.008 8 8.008h250.666c4.419 0 8-3.585 8-8.008v-21.355c0-4.423-3.581-8.008-8-8.008z" fill="#2F3038"/><path d="M58.26 183.76l.23-.732-.761.024c-.064 0-.532-.014-.985-.34.034.003.068.007.102.007.467 0 .918-.279 1.099-.678l.327-.722c-.41.006-.785-.046-.785-.046-.003 0-.299-.038-.64-.385a1.215 1.215 0 00-1.26-.321c.016-.059.033-.118.042-.179.105-.676-.332-1.191-.332-1.19l-.572-.705-.355.828c-.001.002-.09.196-.25.291a1.538 1.538 0 00-.421-.778 1.891 1.891 0 00-1.632-.547l-.69.135a2.34 2.34 0 01.279-.661l.38-.591-.958.109-.305-.645-.591.303-.547-.537-.545.537-.593-.303-.305.645-.958-.109.381.591c.156.24.24.507.28.66l-.66-.129-.022-.004a1.891 1.891 0 00-1.64.546 1.537 1.537 0 00-.42.778.722.722 0 01-.249-.285l-.355-.832-.58.709c-.072.092-.422.576-.327 1.185.01.061.026.12.043.179a1.217 1.217 0 00-1.26.32c-.34.346-.635.385-.632.385 0 0-.31.056-.792.047l.326.721c.18.401.632.679 1.098.679.035 0 .069-.005.103-.007a1.81 1.81 0 01-.975.34l-.775-.025.234.732c.118.377.513 1.001 1.268 1.069-.082.342-.264.726-.665.891l-.577.237.315.545c.178.294.594.638 1.188.638.129-.001.252-.014.372-.038.03.134.069.269.114.401.176.524.024.889.022.893l-.285.594.636.166c.008.003.2.055.44.055a1.362 1.362 0 00.526-.102c.082.147.182.281.298.401.408.416.985.627 1.716.627h.003l.522-.007-1.078.446.819.393c.297.144.65.315 1.01.446l-.103.278.283.127c.025.012.567.253 1.47.305 0 0 .218.01.338.01.12 0 .335-.011.335-.011.896-.053 1.435-.291 1.46-.304l.283-.128-.103-.279c.37-.134.735-.311 1.02-.45l.804-.388-1.076-.446.524.006c.733 0 1.31-.21 1.717-.627.116-.119.216-.253.299-.4a1.352 1.352 0 00.525.102 1.8 1.8 0 00.436-.054l.638-.167-.278-.583c-.007-.015-.159-.379.018-.904a4.09 4.09 0 00.113-.402c.12.026.245.038.375.038.756 0 1.118-.529 1.188-.644l.312-.538-.577-.236c-.401-.166-.583-.55-.664-.892.744-.063 1.145-.688 1.267-1.068zm-10.315-5.086l-.008.002.007-.009v.007z" fill="#fff"/><path d="M49.636 178.641c-.611.001-1.069.2-1.17.434l1.17.458 1.168-.458c-.099-.234-.557-.433-1.168-.434zm.012 12.144h-.023a4.797 4.797 0 01-1.126-.145l-.296.795c.195.07.855.202 1.433.202.577 0 1.238-.133 1.432-.202l-.295-.795a4.75 4.75 0 01-1.126.145zm2.236-.791c-.22.123-.711.31-.997.396l.24.657c.442-.12.806-.26 1.108-.411l-.498-.164.147-.478zm-4.496 0l.147.478-.498.164c.301.151.667.291 1.107.411l.24-.657c-.284-.086-.776-.273-.996-.396zm2.248-12.114c.46 0 .912.11 1.26.303.031-.106.075-.235.136-.369l-.131.015-.138.015-.059-.125-.175-.369-.32.166-.125.063-.099-.097-.348-.343-.347.343-.1.097-.124-.063-.322-.166-.174.369-.06.125-.137-.015-.131-.015c.06.135.104.263.136.369a2.647 2.647 0 011.258-.303zm7.03 4.266c.06.021.12.03.181.03.26 0 .512-.167.599-.36 0 0-.478-.028-.991-.547a.66.66 0 00-.485-.218.777.777 0 00-.404.121c.62.328.747.855 1.1.974zm-14.241.03a.53.53 0 00.18-.03c.354-.119.48-.646 1.101-.974 0 0-.174-.121-.403-.121a.662.662 0 00-.486.218c-.513.519-.99.547-.99.547.085.193.337.36.598.36z" fill="#fff"/><path d="M56.835 184.289l.03.001c.65 0 .871-.693.871-.693h-.012a2.36 2.36 0 01-1.77-.892c-.45-.568-.818-1.067-1.546-1.264l-.071-.012-.016-.073c-.02-.111.056-.214.23-.326 1.003-.654.322-1.489.322-1.489s-.287.668-.93.668l-.047-.001c-.073-.004-.143-.006-.214-.022l-.119-.023s.183-.495-.258-.95a1.34 1.34 0 00-.971-.401c-.118 0-.193.015-.193.015.222.289.382.767.126 1.063-.221.253-.762.266-.762.644 0 .16.15.348.42.516.814.509 1.62 1.184 1.956 2.09.42 1.13-.053 1.879-.728 2.309 0 0 .212.193.519.218.062.006.123.009.18.009.647 0 .982-.303.982-.303s-.055.418-.393.805c-.31.359-.719.569-1.34.577 0 0-.02.288.255.536.176.157.584.209.584.209s-.763.154-.847 1.273c-.046.608-.201.819-.201.819h.014c1.77 0 1.724-1.51 1.724-1.51a.855.855 0 00.8.585c.16 0 .297-.037.297-.037s-.258-.543-.002-1.301c.213-.63.179-1.096.179-1.096s.238.359.83.362h.005a.83.83 0 00.707-.371c-1.18-.487-1.063-2.06-1.063-2.06s.153.114.452.125zm-.355 1.642c-.48-.235-.784-.86-.857-1.085-.08 1.239-.688 2.099-1.399 2.926-.369.43-.497.847-.497.847s.07-.473.39-.857c.663-.794 1.293-1.78 1.34-2.921a3.447 3.447 0 00-.495-1.973c.18.553.155 1.232-.456 1.865 0 0 1.215-1.447-.483-2.931-.68-.565-1.424-.914-1.806-1.161 1.383.449 2.058-.046 2.058-.046-.442.381-1.014.375-1.368.32.096.047.196.096.304.153 1.166.63 2.214 1.667 2.393 3.103v-.011c.272 1.41.876 1.771.876 1.771zM45.332 187.5s.407-.051.583-.209c.275-.248.256-.536.256-.536-.623-.008-1.03-.218-1.343-.576-.335-.387-.39-.805-.39-.805s.334.302.981.302c.058 0 .119-.002.181-.008a.956.956 0 00.519-.219c-.675-.429-1.148-1.179-.73-2.309.337-.905 1.143-1.581 1.956-2.09.27-.168.42-.355.42-.516 0-.378-.54-.391-.76-.644-.257-.296-.096-.775.125-1.063 0 0-.073-.015-.192-.015-.233 0-.638.058-.97.401-.443.455-.26.95-.26.95l-.118.023c-.07.016-.142.018-.214.022l-.047.001c-.643 0-.929-.667-.929-.667s-.682.834.322 1.488c.173.112.249.216.229.327l-.016.072-.073.012c-.727.197-1.096.696-1.546 1.265a2.36 2.36 0 01-1.768.891h-.013s.22.693.87.693l.032-.001c.299-.011.452-.125.452-.125s.116 1.572-1.063 2.06c0 0 .215.371.707.371h.006c.592-.003.83-.362.83-.362s-.035.466.177 1.096c.256.758 0 1.301 0 1.301s.137.037.296.037a.706.706 0 00.183-.022c.493-.116.617-.563.617-.563s-.045 1.51 1.725 1.51h.012s-.155-.211-.2-.819c-.085-1.119-.847-1.273-.847-1.273zm-.285.272c-.71-.827-1.318-1.687-1.398-2.926-.074.224-.376.85-.856 1.085 0 0 .603-.361.874-1.771v.011c.18-1.436 1.227-2.473 2.394-3.103.107-.058.208-.106.304-.153-.355.055-.927.061-1.369-.32 0 0 .675.495 2.058.046-.383.247-1.125.596-1.805 1.161-1.699 1.484-.484 2.931-.484 2.931-.61-.634-.635-1.312-.456-1.865a3.439 3.439 0 00-.494 1.973c.046 1.141.676 2.127 1.338 2.921.32.384.393.857.393.857s-.13-.417-.499-.847zm3.28-5.793a2.065 2.065 0 01.18.228l.016.025a3.2 3.2 0 01.086.138c.255.439.664.7 1.026.701.363-.001.77-.262 1.027-.701.029-.048.057-.096.087-.14a1.59 1.59 0 01.197-.251l.014-.014c.13-.133.285-.233.487-.289l-.09-.052h-.005l-.36-.208-.368-.21-.986.534-.003-.002-.002.002-.986-.534-.369.209-.36.208h-.004l-.09.052c.203.056.357.155.487.288.006.006.01.012.016.016zm.91-.042h.833v.285c-.098-.12-.288-.095-.288-.095v.41s.007.202.078.289h-.413c.072-.087.079-.289.079-.289v-.41s-.19-.025-.29.095v-.285z" fill="#fff"/><path d="M49.55 181.384v-1.666l-1.066-.36.281 1.615.785.411zm-.229-1.257v.267l-.052-.024c-.002-.001-.078-.018-.21-.123-.219-.168-.223-.324-.223-.324l.485.204zm1.186.846l.28-1.615-1.066.36v1.666l.786-.411zm-.556-.846l.485-.203s-.004.155-.224.324c-.132.104-.208.121-.21.123l-.052.024v-.268zm-1.909 5.122a.96.96 0 00.294.045l.01-.029.015-.059a1.69 1.69 0 00.025-.264.377.377 0 01-.14-.148c-.04-.083-.096-.121-.178-.121a.582.582 0 00-.272.094c-.04.231.131.44.246.482zm2.359-.885c-.198.214-.586.587-.605.606l-.023.024-1.225-.019a1.224 1.224 0 01-.05.338l1.458.26c.151-.106.569-.409.73-.527a.705.705 0 01-.102-.518.759.759 0 01-.183-.164z" fill="#fff"/><path d="M50.567 182.898c-.282.279-.553.382-.795.405a1.17 1.17 0 01-.133.008h-.006a1.19 1.19 0 01-.134-.008.885.885 0 01-.13-.02.494.494 0 00.02.318c.051.113.155.196.307.252l.051.02v.054c0 .016.013.371.402.469.063-.065.12-.124.163-.172-.08-.186-.037-.376.078-.469-.005.02-.056.485.32.658l.06.029-.018.065c-.006.02-.131.47.323.638l.08.03-.036.078c-.008.016-.186.425.233.657h.91v-.718c-.323-.039-.46-.298-.495-.481a.524.524 0 01-.347-.196c-.19-.25-.026-.478-.025-.491 0 .002 0 .246.152.396a.463.463 0 00.298.141l.066.006.006.067c.001.015.038.344.346.396v-1.466c0-.228.066-.457.146-.668h-1.842v.002zm-2.447.672l-.025.935.106.016.261-.897-.132-.275-.21.221zm2.878 4.287c.007 0 .017.001.025.003.163.046.204.628.489.681a.356.356 0 00.076.007c.082 0 .131-.036.184-.097 0 0-.143-.224-.25-.375-.143-.198-.253-.437-.518-.437l-.021.001a.264.264 0 00-.141.046.552.552 0 00-.298-.09c-.167 0-.296.076-.36.076h-.003l-.592-.058c-.093-.008-.166-.102-.192-.138a.26.26 0 01-.01-.016c0-.015 0-.032-.002-.047-.02-.481-.394-.688-.528-.691 0 0 .016-.091-.02-.126l-.13.157-.43-.214.306.355-.259.289c-.032.034-.029.078-.015.097l.112.098.142-.086c.007-.005.02-.006.035-.006.04 0 .098.009.151.009.058 0 .108-.012.114-.066-.017.178-.184.489-.075.733l.081.183-.523-.074-.245.411c-.076.137-.088.286-.015.366l.092.114s.128-.136.157-.225l-.041-.045c-.036-.038-.034-.073-.012-.114l.153-.254.618.145.033-.055a.181.181 0 01.168-.09c.027 0 .055.003.084.008.115.022.304.052.493.052.207 0 .412-.036.522-.158.224.33.678.383.642.549l-.12.566c.08-.003.156-.008.228-.018l.113-.589c.013-.064.025-.15.025-.15-.044-.044-.15-.138-.21-.251-.08-.153-.036-.233-.111-.432.003.002.025-.044.078-.044zm-2.313-.827a.053.053 0 01-.05-.057.053.053 0 01.056-.049c.03.001.052.028.051.056a.054.054 0 01-.057.05z" fill="#fff"/><path d="M47.841 188.392s.205-.084.223-.144l-.027-.068c-.02-.044-.016-.093.02-.119l.222-.152.37.07s-.067-.082-.06-.194l-.353-.075-.333.203a.319.319 0 00-.106.381l.044.098zm2.613.958c.066-.003.14-.004.22-.004 0 0 .19-.553.2-.571a4.806 4.806 0 01-.413-.216c.056.083.193.179.166.253l-.173.538z" fill="#fff"/><path d="M52.264 186.07h-5.256v1.967c0 .804.585 1.308 1.448 1.308.722 0 .912.027 1.18.292.185-.183.338-.252.652-.277l.008-.031.165-.509-.28-.317a1.031 1.031 0 01-.35.041c-.155 0-.33-.018-.52-.054a.267.267 0 00-.056-.006c-.023 0-.025.003-.03.014l-.034.054-.06.099-.114-.026-.504-.118-.069.114.011.011.062.067-.028.088a.893.893 0 01-.194.285l-.126.135-.114-.145-.086-.107c-.091-.101-.112-.256-.061-.418-.002.002-.004.002-.005.002l-.143.059-.064-.139-.045-.098a.476.476 0 01.16-.577l.406-.228.386.076c.01-.037.023-.169.034-.203l-.022-.002-.222.082-.215-.148s-.084-.08-.008-.16l.208-.313-.527-.658.81.331.054-.067.11-.13.123.118a.231.231 0 01.065.117c.223.086.623.341.658.755l-.125.05v.003c.028.034.052.048.06.049l.577.057.054-.015a.921.921 0 01.307-.059c.104 0 .205.023.302.068a.463.463 0 01.13-.026l.027-.001c.31 0 .463.23.587.413a10.449 10.449 0 01.317.475l.063.098-.078.091a.386.386 0 01-.305.15.575.575 0 01-.197-.038l-.016.098-.102.526c.607-.148.991-.604.991-1.256l.001-1.967zm-5.256-.158h4.087a.648.648 0 01-.149-.647.723.723 0 01-.152-.1c-.16.117-.647.471-.774.559l-.028.018-1.604-.289h-.032c-.039 0-.095-.001-.157-.008a.155.155 0 01-.15.121c-.009 0-.018 0-.026-.002a.159.159 0 01-.131-.181l.006-.034a.636.636 0 01-.25-.648l.006-.029.023-.017.073-.044-.117-.018a.08.08 0 01-.066-.091.078.078 0 01.091-.066l.278.043.025-.972.413-.435.258.54-.272.935.245.038a.08.08 0 01.066.092.079.079 0 01-.079.065h-.012l-.2-.033.01.016a.21.21 0 00.096.088l1.223.02c.051-.05.18-.176.312-.308a.658.658 0 01-.429-.543.637.637 0 01-.348-.317.664.664 0 01-.03-.428 1.423 1.423 0 01-.51-.34h-1.842c.08.211.146.44.146.667v2.348z" fill="#FFDD2D"/><path d="M48.692 186.924a.053.053 0 00-.057.049.052.052 0 00.05.057c.03.003.056-.02.058-.05 0-.028-.02-.056-.051-.056zm3.565 3.566l-.303-.116.084-.311.092-.339s-.537.289-1.293.507c-.215.061-.377.089-.377.089v.231s-.404.07-.813.07h-.023a5.45 5.45 0 01-.813-.07v-.231s-.163-.028-.377-.089a7.217 7.217 0 01-1.292-.507l.09.339.086.311-.303.116-.337.125c.386.185.921.455 1.41.589l-.114.314s.62.28 1.655.283v.001h.014v-.001c1.036-.003 1.656-.283 1.656-.283l-.116-.314c.49-.134 1.026-.404 1.41-.589l-.336-.125zm-5.22.146l.498-.165-.147-.478c.22.124.712.311.997.397l-.24.657a6.202 6.202 0 01-1.108-.411zm2.6 1c-.579 0-1.24-.132-1.434-.201l.296-.795c.245.071.755.147 1.126.144h.023a4.8 4.8 0 001.125-.144l.295.795c-.194.07-.854.201-1.431.201zm1.49-.589l-.24-.657c.286-.086.777-.273.997-.397l-.147.478.498.165a6.16 6.16 0 01-1.108.411zm-1.491-12.974c.616 0 1.109.203 1.381.42 0 0 .081-.484.357-.912l-.496.056-.26-.549-.498.255-.484-.476-.483.476-.5-.255-.258.549-.496-.056c.276.428.357.912.357.912.273-.217.764-.42 1.38-.42zm-1.264-.244l.138.015.06-.125.173-.369.322.165.125.064.1-.098.346-.343.348.343.1.098.124-.064.32-.165.176.369.058.125.138-.015.131-.015c-.06.135-.105.263-.136.369a2.649 2.649 0 00-1.26-.303c-.458 0-.91.11-1.258.303a3.107 3.107 0 00-.137-.369l.132.015zm8.493 6.672c.797 0 1.063-.807 1.075-.841l.088-.284-.298.009h-.002c-.105 0-.984-.023-1.608-.811l-.059-.073c-.407-.516-.794-1.006-1.484-1.228a.66.66 0 01.088-.066c.366-.24.58-.531.633-.869.078-.509-.248-.915-.262-.931l-.222-.273-.139.324c-.01.02-.242.539-.733.539h-.036a27.166 27.166 0 01-.097-.006 1.172 1.172 0 00-.352-.925 1.56 1.56 0 00-1.124-.465c-.134 0-.224.017-.233.018l-.335.066.206.271c.163.208.31.594.135.796-.055.064-.17.116-.28.168-.226.103-.534.247-.534.614 0 .237.185.484.52.695.993.621 1.605 1.269 1.87 1.984.408 1.1-.125 1.728-.643 2.058l-.233.149.204.186c.027.024.276.242.644.273a2.073 2.073 0 00.798-.078c-.045.079-.1.158-.17.239-.296.341-.66.497-1.184.505l-.195.003-.015.195a.912.912 0 00.508.824c-.232.208-.469.57-.514 1.192-.039.519-.163.71-.165.712l-.215.327.389.006c.643 0 1.135-.177 1.476-.526.202-.207.317-.44.385-.647a1.055 1.055 0 00.678.247c.182 0 .334-.038.351-.042l.248-.066-.11-.23c-.008-.019-.215-.481.008-1.142a3.82 3.82 0 00.17-.74c.156.081.365.148.636.149.615 0 .886-.457.899-.476l.12-.21-.224-.092c-.733-.302-.895-1.115-.927-1.555.066.012.141.024.227.027h.037zm.581 1.723s-.215.371-.707.371h-.006c-.59-.003-.83-.362-.83-.362s.035.467-.178 1.096c-.257.758.002 1.301.002 1.301s-.138.037-.297.037a.719.719 0 01-.184-.022.855.855 0 01-.617-.564s.046 1.511-1.724 1.511h-.014s.156-.211.202-.819c.084-1.119.847-1.274.847-1.274s-.407-.05-.583-.208c-.276-.248-.257-.536-.257-.536.623-.008 1.03-.218 1.341-.577.337-.387.392-.805.392-.805s-.334.303-.981.303c-.057 0-.118-.003-.18-.009-.307-.025-.519-.218-.519-.218.674-.43 1.147-1.18.728-2.31-.336-.905-1.143-1.581-1.955-2.09-.27-.168-.421-.354-.421-.515 0-.379.54-.391.762-.645.256-.295.096-.775-.126-1.062 0 0 .075-.016.193-.016.234 0 .638.059.971.401.442.456.258.95.258.95l.119.023c.07.016.141.018.214.022h.048c.642 0 .929-.668.929-.668s.682.836-.322 1.489c-.173.112-.25.216-.23.327l.016.072.072.012c.728.197 1.096.696 1.546 1.265a2.36 2.36 0 001.77.892h.012s-.22.692-.87.692h-.032c-.299-.011-.452-.125-.452-.125s-.117 1.573 1.063 2.061z" fill="#000"/><path d="M55.465 181.359c.297.158.47.369.622.556.15.182.291.358.512.431.08.028.163.04.247.04.333 0 .667-.202.794-.482l.127-.281-.308-.019c-.015 0-.411-.036-.852-.484a.884.884 0 00-.638-.281c-.289 0-.503.143-.527.158l-.283.198.306.164zm.505-.308a.66.66 0 01.485.218c.513.519.991.547.991.547-.087.192-.338.36-.599.36a.545.545 0 01-.18-.03c-.354-.119-.48-.646-1.101-.974 0 0 .173-.121.404-.121zm-.366 3.108v.011c-.179-1.435-1.227-2.472-2.393-3.102-.108-.058-.208-.106-.304-.154.355.055.927.062 1.368-.32 0 0-.675.495-2.059.047.383.246 1.127.595 1.806 1.16 1.699 1.484.483 2.932.483 2.932.61-.634.636-1.312.456-1.866.322.532.527 1.177.495 1.974-.047 1.14-.677 2.127-1.34 2.92-.319.384-.39.857-.39.857s.128-.417.497-.846c.711-.828 1.319-1.688 1.398-2.927.074.225.377.85.857 1.086.001 0-.602-.362-.874-1.772zm-9.05 5.312c0-.002-.124-.194-.163-.712-.047-.622-.283-.985-.516-1.193a.911.911 0 00.508-.824l-.013-.195-.196-.003c-.523-.009-.888-.164-1.184-.505a1.522 1.522 0 01-.17-.239c.163.05.363.087.6.087.063 0 .128-.004.198-.008.368-.032.617-.25.645-.274l.203-.186-.233-.149c-.52-.33-1.051-.958-.643-2.057.264-.716.876-1.363 1.87-1.984.335-.211.519-.459.519-.696 0-.367-.308-.511-.534-.614-.11-.052-.224-.104-.28-.168-.175-.201-.027-.587.135-.796l.208-.271-.337-.066c-.01-.001-.098-.017-.233-.017-.252 0-.732.06-1.124.464-.327.336-.37.694-.353.925a1.514 1.514 0 01-.097.005h-.036c-.491 0-.724-.518-.733-.538l-.139-.323-.224.273c-.012.016-.34.422-.26.93.053.338.267.629.633.87a.54.54 0 01.087.065c-.69.223-1.075.713-1.483 1.228l-.058.074a2.144 2.144 0 01-1.61.811l-.3-.009.092.284c.01.034.276.841 1.074.841l.038-.001a1.35 1.35 0 00.227-.028c-.033.44-.195 1.253-.929 1.556l-.224.092.122.21c.012.019.283.475.9.475.268 0 .478-.067.635-.148.024.199.073.455.169.74.223.66.015 1.123.007 1.142l-.11.23.25.066c.016.004.169.042.35.042a1.046 1.046 0 00.678-.248c.068.207.184.441.384.648.342.349.834.525 1.476.525l.39-.005-.216-.326zm-.188.121c-1.77 0-1.725-1.511-1.725-1.511s-.123.448-.616.564a.706.706 0 01-.184.022c-.159 0-.296-.037-.296-.037s.257-.543 0-1.301c-.212-.63-.177-1.096-.177-1.096s-.238.358-.83.362h-.006a.833.833 0 01-.707-.371c1.18-.487 1.064-2.06 1.064-2.06s-.153.114-.453.125l-.03.001c-.651 0-.871-.693-.871-.693h.013c.12 0 1.085-.028 1.768-.892.45-.568.82-1.067 1.546-1.264l.073-.012.016-.073c.02-.111-.056-.214-.229-.326-1.004-.655-.322-1.489-.322-1.489s.286.667.929.667h.047c.072-.004.144-.007.214-.022l.119-.024s-.184-.494.259-.949a1.34 1.34 0 011.163-.386c-.222.288-.382.767-.126 1.062.221.254.761.266.761.644 0 .16-.15.348-.42.516-.814.509-1.62 1.185-1.956 2.09-.419 1.13.054 1.879.729 2.31 0 0-.212.193-.519.218a1.884 1.884 0 01-.18.009c-.648 0-.982-.303-.982-.303s.056.418.39.805c.313.358.72.569 1.343.577 0 0 .02.288-.256.536-.176.157-.583.209-.583.209s.763.153.846 1.273c.046.608.2.819.2.819h-.012z" fill="#000"/><path d="M42.425 182.387a.79.79 0 00.247-.039c.223-.074.364-.25.513-.432.153-.188.324-.399.622-.556l.306-.164-.285-.198c-.023-.015-.237-.158-.525-.158a.88.88 0 00-.638.281c-.441.448-.837.484-.851.485l-.308.018.126.281c.127.279.46.482.793.482zm.392-1.117a.664.664 0 01.486-.218c.23 0 .403.121.403.121-.62.328-.747.856-1.102.974a.555.555 0 01-.18.03c-.26 0-.512-.168-.598-.359 0-.001.477-.03.99-.548zm.998 3.571a3.438 3.438 0 01.494-1.973c-.18.553-.155 1.232.456 1.866 0 0-1.215-1.448.484-2.932.68-.565 1.423-.914 1.805-1.161-1.382.449-2.058-.046-2.058-.046.442.381 1.014.375 1.369.319-.096.047-.197.096-.304.153-1.167.631-2.215 1.668-2.394 3.103v-.011c-.271 1.41-.874 1.772-.874 1.772.48-.236.782-.861.855-1.086.08 1.239.688 2.099 1.399 2.927.369.429.499.846.499.846s-.072-.473-.392-.857c-.662-.792-1.293-1.779-1.339-2.92zm5.421-2.904v.284c.099-.119.29-.094.29-.094v.41s-.007.202-.08.289h.414c-.071-.087-.078-.289-.078-.289v-.41s.19-.025.288.094v-.284h-.834zm-.177-1.689c.132.104.208.122.21.124l.052.023v-.268l-.485-.203s.005.155.223.324zm1.153 0c.22-.169.223-.324.223-.324l-.485.203v.268l.051-.023c.004-.002.08-.02.211-.124z" fill="#000"/><path d="M51.086 179.156c0-.407-.688-.772-1.448-.772h-.005c-.76 0-1.449.365-1.449.772l.016.101.303 1.732-.304.176-.789.458h.003s-.178.09-.26.146c-.3.208-.364.511-.19.635a.594.594 0 01.607-.504c.264 0 .465.135.629.339.041.052.081.106.118.165.046.075.091.141.137.204h-2.03c.149.298.29.615.29.958v4.471c0 1.082.837 1.599 1.742 1.599.7 0 .794-.032 1.18.351.384-.383.479-.351 1.179-.351.906 0 1.741-.517 1.741-1.599v-4.471c0-.343.142-.66.292-.958h-2.032a3.25 3.25 0 00.137-.204c.037-.059.077-.113.118-.165.164-.204.365-.339.63-.339.366 0 .562.257.605.504.175-.124.112-.427-.19-.635-.081-.056-.259-.146-.259-.146h.003l-.789-.458-.303-.176.303-1.732.015-.101zm-2.603.202l1.067.36v1.667l-.785-.413-.282-1.614zm.221 3.54c.175.174.346.281.51.341a.656.656 0 00.03.428.64.64 0 00.348.316.658.658 0 00.428.543c-.131.133-.26.257-.312.308l-1.223-.019a.219.219 0 01-.096-.089c-.002-.006-.006-.009-.008-.016l.2.032.012.001a.079.079 0 00.078-.066.08.08 0 00-.066-.091l-.245-.038.273-.935-.258-.54-.414.435-.025.972-.278-.043c-.043-.009-.084.023-.09.066a.08.08 0 00.065.091l.117.018a.63.63 0 00-.072.045l-.024.016-.007.029c-.067.273.086.532.25.648l-.005.034a.153.153 0 00.027.117.153.153 0 00.129.066.156.156 0 00.151-.122c.062.008.118.009.157.009h.032l1.604.288.027-.018c.128-.088.615-.442.775-.559a.653.653 0 00.152.1.65.65 0 00.15.648h-4.088v-2.346c0-.228-.067-.457-.146-.667h1.842v-.002zm1.982 2.148c-.162.118-.58.421-.73.527l-1.458-.26.01-.04a1.24 1.24 0 00.04-.298l1.225.02.023-.024c.019-.019.407-.392.605-.607a.76.76 0 00.183.165.703.703 0 00.102.517zm-2.44-.252c.035.072.097.12.14.148a1.681 1.681 0 01-.026.264.64.64 0 01-.024.088.956.956 0 01-.294-.045c-.115-.042-.286-.251-.246-.482a.584.584 0 01.271-.094c.083 0 .14.038.18.121zm-.152-.289l.025-.934.21-.222.133.275-.26.897-.108-.016zm2.58 4.842c-.08 0-.154.001-.22.004l.173-.537c.028-.075-.11-.171-.166-.254.086.053.307.169.414.216-.012.017-.202.571-.202.571zm.544-.611l-.114.588a2.67 2.67 0 01-.227.019l.119-.566c.036-.168-.418-.22-.642-.55-.11.122-.316.159-.522.159-.19 0-.378-.031-.493-.053a.498.498 0 00-.084-.008.181.181 0 00-.168.09l-.033.055-.618-.144-.154.253c-.022.04-.023.076.012.114l.042.045c-.029.09-.157.225-.157.225l-.093-.114c-.072-.081-.06-.229.016-.366l.245-.412.523.075-.081-.184c-.11-.244.057-.555.075-.733-.006.054-.056.066-.114.066-.053 0-.112-.01-.151-.01-.016 0-.029.001-.036.006l-.142.086-.112-.098c-.013-.019-.018-.063.015-.096l.26-.289-.307-.355.429.214.13-.157c.036.035.021.126.021.126.134.003.509.21.529.691a.532.532 0 01.001.046l.01.016c.026.037.1.13.192.138l.593.058h.002c.065 0 .194-.075.36-.075.09 0 .19.022.298.09 0 0 .054-.042.141-.047l.02-.001c.267 0 .377.239.519.437.107.151.25.375.25.375-.053.063-.102.097-.184.097a.435.435 0 01-.076-.007c-.285-.052-.326-.635-.488-.681a.118.118 0 00-.026-.003c-.052 0-.076.046-.076.046.075.198.031.279.11.432.06.113.167.207.21.251 0 .001-.012.086-.024.151zm-3.181-.556l.027.068c-.018.059-.223.144-.223.144l-.045-.097a.32.32 0 01.106-.382l.333-.202.352.075a.309.309 0 00.06.194l-.369-.07-.221.152c-.037.025-.04.074-.02.118zm3.236 1.112l.102-.526c.005-.031.012-.067.016-.098a.581.581 0 00.197.039.39.39 0 00.306-.15l.078-.091-.064-.099a9.549 9.549 0 00-.317-.474c-.123-.183-.278-.414-.587-.414l-.028.001a.531.531 0 00-.13.026.71.71 0 00-.301-.068.918.918 0 00-.308.06c-.02.005-.039.012-.053.014l-.579-.057c-.007-.001-.031-.014-.06-.049v-.003l.126-.05c-.035-.414-.436-.669-.659-.756a.236.236 0 00-.065-.116l-.124-.117-.11.13-.053.067-.81-.331.527.658-.208.313c-.076.08.008.16.008.16l.214.147.223-.082c.008 0 .015.002.022.003-.01.033-.025.165-.034.202l-.386-.076-.407.228a.476.476 0 00-.16.577l.046.098.064.139.142-.058a.036.036 0 00.005-.003c-.05.162-.03.316.061.418l.086.108.115.144.126-.134a.902.902 0 00.194-.286l.027-.087-.061-.068-.01-.012.069-.112.504.117.113.026.06-.099.034-.054c.005-.011.007-.013.03-.013.019 0 .036.002.056.006.19.035.365.053.521.053.151 0 .241-.006.35-.041 0 0 .27.305.28.318l-.166.508-.008.031c-.313.025-.466.094-.651.277-.269-.265-.459-.292-1.18-.292-.864 0-1.449-.504-1.449-1.308v-1.966h5.256l.001 1.966c0 .653-.384 1.108-.99 1.256zm1.137-6.394a1.92 1.92 0 00-.147.668v1.466c-.308-.051-.344-.381-.346-.396l-.006-.067-.066-.006a.464.464 0 01-.297-.142c-.151-.15-.152-.394-.151-.396-.002.013-.167.241.024.492.08.105.196.169.347.195.035.184.172.442.495.481v.718h-.909c-.42-.231-.242-.64-.233-.657l.036-.078-.08-.03c-.454-.168-.33-.619-.323-.637l.019-.067-.062-.028c-.375-.173-.324-.639-.32-.658-.115.092-.157.283-.077.468-.043.049-.1.108-.164.173a.507.507 0 01-.4-.47v-.054l-.051-.02c-.152-.057-.256-.14-.307-.253a.487.487 0 01-.021-.317 1.476 1.476 0 00.265.027h.006c.045 0 .089-.003.133-.007.242-.024.513-.127.795-.405h1.84zm-1.417-1.483l.36.208h.005l.09.052a1.055 1.055 0 00-.502.303 1.4 1.4 0 00-.087.101c-.006.006-.01.014-.017.021a1.582 1.582 0 00-.092.13c-.03.044-.058.091-.087.14-.255.438-.664.7-1.027.7-.362 0-.77-.262-1.026-.7a2.307 2.307 0 00-.085-.138l-.017-.025a2.867 2.867 0 00-.076-.106l-.02-.024a2.317 2.317 0 00-.084-.098l-.016-.016a1.047 1.047 0 00-.488-.288l.09-.052h.005l.359-.208.369-.21.986.534.002-.002.003.002.986-.534.37.21zm-.486-.442l-.786.412v-1.667l1.066-.36-.28 1.615zm-.871-1.439l-1.17-.459c.1-.234.559-.433 1.17-.434.611.001 1.07.2 1.168.434l-1.168.459z" fill="#000"/><path d="M219.013 181.804v6.385h-1.205v-6.385h-2.219v-1.067h5.643v1.067h-2.219zm2.83.833h1.141v2.712l-.107 1.314h.043l.661-1.186 1.92-2.84h1.056v5.552h-1.141v-2.712l.107-1.313h-.043l-.661 1.185-1.92 2.84h-1.056v-5.552zm6.374 0h1.163v2.232h2.389v-2.232h1.163v5.552h-1.163v-2.37h-2.389v2.37h-1.163v-5.552zm6.376 0h1.162v1.858h1.526c.554 0 1.002.164 1.344.491.348.321.522.772.522 1.356 0 .591-.17 1.047-.512 1.367-.341.32-.789.48-1.344.48h-2.698v-5.552zm2.474 4.645c.27 0 .484-.057.64-.171.157-.121.235-.306.235-.555v-.438c0-.249-.078-.43-.235-.544-.156-.115-.37-.171-.64-.171h-1.312v1.879h1.312zm3.265-4.645h1.163v2.242h.981l.917-1.548c.157-.263.314-.445.47-.544.156-.1.356-.15.597-.15h.565v.951h-.618l-.704 1.174c-.107.185-.203.313-.288.384a.747.747 0 01-.32.161v.042a.944.944 0 01.373.16c.107.072.21.2.309.385l.747 1.345h.608v.95h-.661c-.235 0-.438-.053-.608-.16-.164-.106-.32-.295-.47-.566l-.917-1.644h-.981v2.37h-1.163v-5.552zm8.093 5.681a2.69 2.69 0 01-1.056-.203 2.248 2.248 0 01-.8-.577 2.748 2.748 0 01-.512-.918 3.803 3.803 0 01-.182-1.207c0-.441.061-.84.182-1.196.121-.363.292-.669.512-.918a2.18 2.18 0 01.8-.587c.32-.136.672-.203 1.056-.203s.732.067 1.045.203c.32.135.591.331.811.587.22.249.391.555.512.918.121.356.181.755.181 1.196 0 .441-.06.844-.181 1.207a2.748 2.748 0 01-.512.918c-.22.249-.491.441-.811.577a2.611 2.611 0 01-1.045.203zm0-.961c.398 0 .718-.121.96-.363.242-.249.362-.62.362-1.111v-.939c0-.492-.12-.858-.362-1.1-.242-.249-.562-.374-.96-.374-.398 0-.718.125-.96.374-.242.242-.363.608-.363 1.1v.939c0 .491.121.862.363 1.111.242.242.562.363.96.363zm6.585.245h-.043a1.563 1.563 0 01-.501.534 1.274 1.274 0 01-.693.182c-.612 0-1.067-.232-1.366-.694-.298-.463-.448-1.2-.448-2.211s.146-1.747.438-2.21c.298-.462.757-.694 1.376-.694.27 0 .501.064.693.192.199.128.367.307.501.534h.043v-2.626h1.163v2.626h.042c.136-.227.299-.406.491-.534.199-.128.434-.192.704-.192.619 0 1.074.232 1.365.694.299.463.448 1.199.448 2.21s-.149 1.748-.448 2.211c-.298.462-.753.694-1.365.694a1.33 1.33 0 01-.704-.182 1.629 1.629 0 01-.491-.534h-.042v2.723h-1.163v-2.723zm-.843-.203c.57 0 .854-.231.854-.694v-2.584c0-.221-.068-.391-.203-.512s-.352-.182-.651-.182c-.348 0-.6.118-.757.353-.156.227-.235.605-.235 1.132v1.003c0 .534.079.915.235 1.143.157.227.409.341.757.341zm2.848 0c.349 0 .602-.114.758-.341.156-.228.234-.609.234-1.143v-1.003c0-.527-.078-.905-.234-1.132-.156-.235-.409-.353-.758-.353-.298 0-.515.061-.65.182s-.203.291-.203.512v2.584c0 .463.285.694.853.694zm6.276.203h-.042a1.566 1.566 0 01-.502.534 1.271 1.271 0 01-.693.182c-.611 0-1.067-.232-1.365-.694-.299-.463-.448-1.2-.448-2.211s.146-1.747.437-2.21c.299-.462.757-.694 1.376-.694.271 0 .501.064.693.192.2.128.367.307.502.534h.042v-2.626h1.163v2.626h.043c.135-.227.298-.406.49-.534.2-.128.434-.192.704-.192.619 0 1.074.232 1.366.694.298.463.448 1.199.448 2.21s-.15 1.748-.448 2.211c-.299.462-.754.694-1.366.694-.27 0-.504-.061-.704-.182a1.616 1.616 0 01-.49-.534h-.043v2.723h-1.163v-2.723zm-.842-.203c.569 0 .853-.231.853-.694v-2.584c0-.221-.067-.391-.203-.512-.134-.121-.352-.182-.65-.182-.348 0-.601.118-.758.353-.156.227-.234.605-.234 1.132v1.003c0 .534.078.915.234 1.143.157.227.41.341.758.341zm2.848 0c.348 0 .601-.114.757-.341.157-.228.235-.609.235-1.143v-1.003c0-.527-.078-.905-.235-1.132-.156-.235-.409-.353-.757-.353-.299 0-.516.061-.651.182s-.203.291-.203.512v2.584c0 .463.285.694.854.694zm11.63-1.36l2.966-2.969a.364.364 0 000-.517l-.218-.219a.366.366 0 00-.516 0l-2.491 2.494-2.494-2.496a.36.36 0 00-.515 0l-.219.218a.364.364 0 000 .517l2.969 2.972a.359.359 0 00.259.106.359.359 0 00.259-.106z" fill="#999AA3"/><path d="M67.605 188.189v-.79h2.08v-6h-.074l-1.878 1.751-.522-.566 1.973-1.847h1.397v6.662h1.92v.79h-4.896zm6.396 0v-.79h2.08v-6h-.074l-1.878 1.751-.522-.566 1.973-1.847h1.397v6.662h1.92v.79h-4.896zm8.658.129c-.89 0-1.54-.339-1.952-1.015-.406-.676-.608-1.623-.608-2.84 0-1.217.202-2.164.608-2.84.412-.676 1.062-1.014 1.952-1.014.888 0 1.536.338 1.941 1.014.412.676.619 1.623.619 2.84 0 1.217-.207 2.164-.619 2.84-.405.676-1.053 1.015-1.941 1.015zm0-.78c.291 0 .54-.061.746-.181a1.39 1.39 0 00.502-.513c.128-.221.22-.48.277-.779.064-.299.096-.63.096-.993v-1.218c0-.363-.032-.694-.096-.993a2.47 2.47 0 00-.277-.779 1.388 1.388 0 00-.502-.513 1.463 1.463 0 00-.746-.181 1.46 1.46 0 00-.747.181 1.383 1.383 0 00-.501.513c-.128.221-.224.48-.288.779-.058.299-.086.63-.086.993v1.218c0 .363.028.694.086.993.064.299.16.558.288.779.128.221.294.392.501.513.206.12.455.181.747.181zm7.583.651l2.848-6.684h-3.179v1.388h-.8v-2.156h4.886v.79l-2.795 6.662h-.96zm7.729.129c-.889 0-1.54-.339-1.952-1.015-.406-.676-.608-1.623-.608-2.84 0-1.217.202-2.164.608-2.84.412-.676 1.063-1.014 1.952-1.014s1.536.338 1.941 1.014c.413.676.619 1.623.619 2.84 0 1.217-.206 2.164-.619 2.84-.405.676-1.052 1.015-1.941 1.015zm0-.78c.292 0 .54-.061.746-.181.207-.121.374-.292.502-.513.128-.221.22-.48.277-.779.064-.299.096-.63.096-.993v-1.218c0-.363-.032-.694-.096-.993a2.452 2.452 0 00-.277-.779 1.383 1.383 0 00-.502-.513 1.46 1.46 0 00-.746-.181c-.292 0-.54.061-.747.181a1.388 1.388 0 00-.501.513c-.128.221-.224.48-.288.779-.057.299-.086.63-.086.993v1.218c0 .363.029.694.086.993.064.299.16.558.288.779.128.221.295.392.501.513.207.12.455.181.747.181zm6.396.78c-.889 0-1.54-.339-1.952-1.015-.406-.676-.608-1.623-.608-2.84 0-1.217.202-2.164.608-2.84.412-.676 1.063-1.014 1.952-1.014s1.536.338 1.941 1.014c.413.676.619 1.623.619 2.84 0 1.217-.206 2.164-.619 2.84-.405.676-1.052 1.015-1.941 1.015zm0-.78c.292 0 .54-.061.746-.181.207-.121.374-.292.502-.513.128-.221.22-.48.277-.779.064-.299.096-.63.096-.993v-1.218c0-.363-.032-.694-.096-.993a2.462 2.462 0 00-.277-.779 1.382 1.382 0 00-.502-.513 1.457 1.457 0 00-.746-.181c-.292 0-.54.061-.747.181a1.387 1.387 0 00-.501.513c-.128.221-.224.48-.288.779-.057.299-.086.63-.086.993v1.218c0 .363.029.694.086.993.064.299.16.558.288.779.128.221.295.392.501.513.207.12.455.181.747.181zm7.604.651h-.896v-7.452h2.966c.654 0 1.162.181 1.525.544.37.363.555.886.555 1.57 0 .548-.128 1-.384 1.356-.249.349-.619.58-1.11.694l1.707 3.288h-1.013l-1.611-3.203h-1.739v3.203zm2.07-3.972c.356 0 .629-.092.821-.277.199-.185.299-.449.299-.79v-.555c0-.342-.1-.606-.299-.791-.192-.184-.465-.277-.821-.277h-2.07v2.69h2.07zm4.575-3.48v4.612c0 .712.131 1.253.395 1.623.263.363.725.545 1.386.545.662 0 1.124-.182 1.387-.545.263-.37.395-.911.395-1.623v-4.612h.896v4.399c0 .541-.05 1.011-.15 1.409-.092.399-.245.73-.458.993a1.898 1.898 0 01-.843.587c-.341.129-.761.193-1.259.193-.498 0-.917-.064-1.258-.193a1.838 1.838 0 01-.811-.587c-.206-.263-.355-.594-.448-.993a6.82 6.82 0 01-.128-1.409v-4.399h.896zm6.387 0h3.061c.619 0 1.102.174 1.451.523.355.349.533.815.533 1.399 0 .277-.039.512-.117.704a1.531 1.531 0 01-.299.481 1.331 1.331 0 01-.395.277 2.07 2.07 0 01-.394.118v.064c.135.007.284.043.448.107a1.59 1.59 0 01.853.843c.107.214.16.473.16.78 0 .306-.05.59-.149.854a1.938 1.938 0 01-1.003 1.142c-.235.107-.491.16-.768.16h-3.381v-7.452zm.896 6.662h2.208c.384 0 .686-.096.906-.288.221-.199.331-.488.331-.865v-.363c0-.377-.11-.662-.331-.854-.22-.2-.522-.299-.906-.299h-2.208v2.669zm0-3.438h2.058c.356 0 .633-.089.832-.267.2-.178.299-.434.299-.768v-.364c0-.334-.099-.59-.299-.768-.199-.178-.476-.267-.832-.267h-2.058v2.434z" fill="#797A81"/><path d="M29.344 156.157v-2.936l-2.56-4.517h1.376l1.814 3.321h.032l1.802-3.321h1.323l-2.582 4.496v2.957h-1.205zm6.341.128a2.69 2.69 0 01-1.056-.202 2.251 2.251 0 01-.8-.577 2.746 2.746 0 01-.512-.918 3.803 3.803 0 01-.181-1.207c0-.441.06-.84.181-1.196.121-.363.292-.669.512-.918a2.18 2.18 0 01.8-.587c.32-.136.672-.203 1.056-.203s.733.067 1.046.203c.32.135.59.331.81.587.22.249.391.555.512.918.121.356.182.755.182 1.196 0 .441-.06.844-.182 1.207a2.75 2.75 0 01-.512.918c-.22.249-.49.441-.81.577a2.612 2.612 0 01-1.046.202zm0-.961c.398 0 .718-.12.96-.363.242-.249.363-.619.363-1.11v-.94c0-.491-.121-.857-.363-1.099-.242-.249-.562-.374-.96-.374-.398 0-.718.125-.96.374-.242.242-.362.608-.362 1.099v.94c0 .491.12.861.362 1.11.242.243.562.363.96.363zm7.205-.085h-.043c-.05.135-.117.267-.202.395a1.282 1.282 0 01-.31.342 1.48 1.48 0 01-.448.224c-.17.057-.37.085-.597.085-.576 0-1.024-.184-1.344-.555-.313-.37-.47-.9-.47-1.591v-3.534h1.163v3.385c0 .861.356 1.292 1.067 1.292.15 0 .295-.018.437-.054.143-.042.267-.103.374-.181a.826.826 0 00.266-.299.83.83 0 00.107-.427v-3.716h1.163v5.552H42.89v-.918zm5.348.918v-5.552h1.163v1.068h.053c.079-.285.242-.534.491-.748.249-.213.594-.32 1.035-.32h.31v1.121h-.46c-.462 0-.817.075-1.066.224a.731.731 0 00-.363.662v3.545h-1.163zm6.208.128c-.398 0-.754-.067-1.067-.202a2.253 2.253 0 01-.8-.577 2.747 2.747 0 01-.512-.918 4.025 4.025 0 01-.17-1.207c0-.441.056-.84.17-1.196.12-.363.291-.669.512-.918a2.18 2.18 0 01.8-.587 2.652 2.652 0 011.067-.203c.405 0 .76.071 1.066.213.313.143.573.342.779.598.206.249.36.542.459.876.106.334.16.694.16 1.078v.438h-3.808v.182c0 .427.124.779.373 1.057.256.27.619.405 1.088.405.341 0 .63-.074.864-.224.235-.149.434-.352.597-.608l.683.672a2.229 2.229 0 01-.896.822c-.391.2-.846.299-1.365.299zm0-4.901c-.2 0-.384.036-.555.107a1.3 1.3 0 00-.427.299 1.39 1.39 0 00-.266.459 1.731 1.731 0 00-.096.588v.074h2.581v-.106c0-.428-.11-.769-.33-1.025-.221-.264-.523-.396-.907-.396zm5.895 4.901c-.398 0-.754-.067-1.067-.202a2.153 2.153 0 01-.79-.577 2.71 2.71 0 01-.49-.918 4.025 4.025 0 01-.17-1.207c0-.441.056-.84.17-1.196.114-.363.277-.669.49-.918a2.09 2.09 0 01.79-.587 2.651 2.651 0 011.067-.203c.554 0 1.01.125 1.365.374.356.249.615.579.779.993l-.96.448a1.165 1.165 0 00-.416-.609c-.192-.156-.448-.234-.768-.234-.427 0-.75.135-.97.405-.214.264-.32.609-.32 1.036v.993c0 .427.106.776.32 1.046.22.264.543.395.97.395.341 0 .611-.082.81-.245.207-.171.37-.395.491-.673l.885.47c-.184.456-.462.804-.832 1.046-.37.243-.82.363-1.354.363zm5.407 0c-.398 0-.754-.067-1.067-.202a2.252 2.252 0 01-.8-.577 2.749 2.749 0 01-.512-.918 4.025 4.025 0 01-.17-1.207c0-.441.056-.84.17-1.196a2.61 2.61 0 01.512-.918 2.18 2.18 0 01.8-.587 2.651 2.651 0 011.067-.203c.405 0 .76.071 1.067.213.312.143.572.342.778.598.206.249.359.542.459.876.107.334.16.694.16 1.078v.438h-3.808v.182c0 .427.124.779.373 1.057.256.27.619.405 1.088.405.341 0 .63-.074.864-.224.235-.149.434-.352.598-.608l.682.672a2.234 2.234 0 01-.896.822c-.391.2-.846.299-1.365.299zm0-4.901a1.43 1.43 0 00-.555.107 1.3 1.3 0 00-.427.299 1.391 1.391 0 00-.266.459 1.731 1.731 0 00-.096.588v.074h2.581v-.106c0-.428-.11-.769-.33-1.025-.221-.264-.523-.396-.907-.396zm4.337-1.772c-.241 0-.419-.057-.533-.171a.614.614 0 01-.16-.438v-.181c0-.178.053-.324.16-.438.114-.114.292-.171.533-.171.242 0 .416.057.523.171.107.114.16.26.16.438v.181a.614.614 0 01-.16.438c-.107.114-.28.171-.523.171zm-.586.993h1.162v5.552H69.5v-5.552zm4.028 5.552l-1.888-5.552h1.152l.843 2.531.565 1.943h.064l.566-1.943.864-2.531h1.109l-1.91 5.552h-1.365zm6.346.128c-.398 0-.754-.067-1.067-.202a2.257 2.257 0 01-.8-.577 2.74 2.74 0 01-.512-.918 4.019 4.019 0 01-.17-1.207c0-.441.056-.84.17-1.196.12-.363.291-.669.512-.918a2.18 2.18 0 01.8-.587 2.652 2.652 0 011.067-.203c.405 0 .76.071 1.066.213.313.143.573.342.779.598.206.249.36.542.459.876.106.334.16.694.16 1.078v.438h-3.808v.182c0 .427.124.779.373 1.057.256.27.619.405 1.088.405.341 0 .63-.074.864-.224.235-.149.434-.352.597-.608l.683.672a2.226 2.226 0 01-.896.822c-.391.2-.846.299-1.365.299zm0-4.901c-.2 0-.384.036-.555.107a1.3 1.3 0 00-.427.299 1.386 1.386 0 00-.266.459 1.731 1.731 0 00-.096.588v.074h2.581v-.106c0-.428-.11-.769-.33-1.025-.221-.264-.523-.396-.907-.396z" fill="#fff"/><path d="M270.333 125.46v40.04" stroke="#2F3038"/><path d="M270 156.157c5.891 0 10.667-4.78 10.667-10.677 0-5.897-4.776-10.678-10.667-10.678s-10.667 4.781-10.667 10.678c0 5.897 4.776 10.677 10.667 10.677z" fill="#FD7B01"/><path d="M271.755 149.24a.608.608 0 00.86 0v-.001l1.665-1.666a.61.61 0 00-.862-.863l-.625.625v-5.179a.61.61 0 10-1.218 0v5.179l-.641-.641a.61.61 0 10-.862.863l1.681 1.683h.002zm-5.812-4.793a.603.603 0 00.43-.178l.641-.642v5.18a.61.61 0 001.219 0v-5.18l.624.626a.609.609 0 10.861-.863l-.132-.132c-.109-.109-.215-.218-.325-.325l-.417-.418c-.137-.138-.278-.272-.413-.413a9.451 9.451 0 00-.406-.394.591.591 0 00-.683-.094c-.135.077-.243.202-.353.312-.134.132-.266.267-.399.401l-.478.477-.402.404-.195.195-.003.003a.61.61 0 00.431 1.041z" fill="#fff"/><path d="M27.659 233.569v-7.453h4.544v.79h-3.648v2.498h3.434v.79h-3.434v2.584h3.648v.791h-4.544zm5.45 0l2.038-2.777-1.952-2.733h1.003l1.397 2.05h.032l1.45-2.05h.95l-1.941 2.669 1.984 2.841h-1.003l-1.43-2.157h-.031l-1.547 2.157h-.95zm8.012.128c-.384 0-.728-.068-1.034-.203a2.174 2.174 0 01-.779-.577 2.695 2.695 0 01-.48-.907 4.161 4.161 0 01-.16-1.196c0-.441.053-.84.16-1.196.114-.356.274-.659.48-.908a2.16 2.16 0 01.779-.576 2.52 2.52 0 011.034-.203c.548 0 .985.121 1.312.363.335.235.584.544.747.929l-.715.363a1.296 1.296 0 00-.49-.662c-.228-.157-.512-.235-.854-.235-.256 0-.48.043-.672.128a1.227 1.227 0 00-.48.342 1.382 1.382 0 00-.288.523c-.064.199-.096.42-.096.662v.94c0 .483.128.882.384 1.195.264.307.648.46 1.152.46.69 0 1.188-.321 1.494-.961l.618.416a2.178 2.178 0 01-.8.95c-.348.235-.785.353-1.312.353zm3.317-8.03h.853v3.289h.043a1.84 1.84 0 01.565-.748c.25-.184.58-.277.992-.277.57 0 1.017.185 1.344.555.335.363.502.879.502 1.548v3.535h-.854v-3.385c0-.99-.416-1.484-1.248-1.484-.17 0-.337.021-.501.064a1.42 1.42 0 00-.427.192.975.975 0 00-.309.331.932.932 0 00-.107.459v3.823h-.853v-7.902zm10.063 7.902c-.32 0-.552-.086-.694-.257a1.298 1.298 0 01-.256-.64h-.053c-.121.341-.32.598-.597.768-.278.171-.608.257-.992.257-.584 0-1.039-.15-1.366-.449-.32-.299-.48-.704-.48-1.217 0-.52.189-.918.566-1.196.384-.278.977-.416 1.78-.416h1.089v-.545c0-.392-.107-.691-.32-.897-.213-.206-.54-.309-.981-.309-.335 0-.616.074-.843.224a1.88 1.88 0 00-.555.598l-.512-.481c.15-.299.388-.552.715-.758.327-.213.74-.32 1.237-.32.669 0 1.188.163 1.558.491.37.328.554.783.554 1.367v3.032h.63v.748h-.48zm-2.454-.598c.214 0 .41-.025.587-.075.178-.05.33-.121.459-.214a1.05 1.05 0 00.298-.32.767.767 0 00.107-.395v-.908h-1.13c-.491 0-.85.072-1.078.214a.692.692 0 00-.33.619v.224c0 .271.095.481.287.63.2.15.466.225.8.225zm4.151.598v-5.51h.854v.897h.042c.136-.313.324-.563.566-.748.249-.184.58-.277.992-.277.569 0 1.017.185 1.344.555.334.363.501.879.501 1.548v3.535h-.853v-3.385c0-.99-.416-1.484-1.248-1.484-.17 0-.338.021-.502.064a1.418 1.418 0 00-.426.192.975.975 0 00-.31.331.932.932 0 00-.106.459v3.823h-.854zm10.703.608c0 .569-.224.986-.672 1.249-.44.271-1.106.406-1.995.406-.86 0-1.479-.117-1.856-.352s-.565-.569-.565-1.004c0-.299.078-.534.235-.705.156-.163.37-.285.64-.363v-.117c-.328-.157-.491-.413-.491-.769 0-.277.089-.488.267-.63.177-.149.405-.259.682-.331v-.043a1.814 1.814 0 01-.768-.672 1.912 1.912 0 01-.266-1.015c0-.277.05-.533.149-.768.1-.235.238-.435.416-.598.185-.171.402-.303.65-.395.257-.093.541-.139.854-.139.391 0 .74.071 1.045.213v-.096a.86.86 0 01.15-.523c.1-.142.263-.213.49-.213h.821v.747h-1.045v.352c.2.171.352.377.459.62.114.235.17.501.17.8 0 .278-.05.534-.149.769-.1.235-.242.438-.426.609a1.92 1.92 0 01-.651.384c-.256.093-.54.139-.853.139-.178 0-.356-.018-.534-.053a1.68 1.68 0 00-.501.224.44.44 0 00-.224.395c0 .163.078.274.235.331.156.057.359.085.608.085h1.173c.683 0 1.177.132 1.483.395.313.257.469.612.469 1.068zm-.8.064a.65.65 0 00-.256-.534c-.164-.128-.459-.192-.885-.192h-1.835c-.341.157-.512.406-.512.748 0 .242.089.448.267.619.184.171.494.256.928.256h.789c.476 0 .846-.075 1.11-.224a.728.728 0 00.394-.673zm-1.91-3.192c.363 0 .651-.086.865-.257.213-.178.32-.448.32-.811v-.299c0-.363-.107-.63-.32-.801-.214-.178-.502-.267-.864-.267-.363 0-.651.089-.864.267-.214.171-.32.438-.32.801v.299c0 .363.106.633.32.811.213.171.501.257.864.257zm5.712 2.648a2.51 2.51 0 01-1.024-.203 2.307 2.307 0 01-.778-.577 2.862 2.862 0 01-.502-.907 3.913 3.913 0 01-.17-1.196c0-.435.056-.83.17-1.185.121-.356.288-.659.502-.908.22-.256.48-.452.778-.587a2.494 2.494 0 011.024-.203c.37 0 .701.067.992.203.292.135.54.323.747.566.206.235.363.515.47.843.113.328.17.687.17 1.079v.405h-3.957v.257c0 .234.035.455.106.662.078.199.185.373.32.523.142.149.313.267.512.352.206.086.438.128.694.128.348 0 .65-.082.906-.245.264-.164.466-.399.608-.705l.608.438a2.154 2.154 0 01-.832.918c-.376.228-.824.342-1.344.342zm0-5.051c-.234 0-.448.043-.64.128a1.43 1.43 0 00-.501.342 1.801 1.801 0 00-.437 1.196v.075h3.04v-.118c0-.491-.136-.883-.406-1.174-.263-.299-.615-.449-1.056-.449zm6.306 4.923v-5.51h.853v1.014h.053c.1-.263.278-.498.534-.704.256-.207.608-.31 1.056-.31h.33v.854h-.501c-.462 0-.825.089-1.088.267-.256.171-.384.388-.384.651v3.738h-.853zm7.875 0c-.32 0-.551-.086-.693-.257a1.295 1.295 0 01-.256-.64h-.054a1.42 1.42 0 01-.597.768c-.277.171-.608.257-.992.257-.583 0-1.038-.15-1.365-.449-.32-.299-.48-.704-.48-1.217 0-.52.188-.918.565-1.196.384-.278.978-.416 1.781-.416h1.088v-.545c0-.392-.106-.691-.32-.897-.213-.206-.54-.309-.981-.309-.334 0-.615.074-.843.224-.22.149-.405.349-.554.598l-.512-.481c.149-.299.387-.552.714-.758.328-.213.74-.32 1.238-.32.668 0 1.187.163 1.557.491.37.328.555.783.555 1.367v3.032h.629v.748h-.48zm-2.453-.598c.213 0 .408-.025.586-.075.178-.05.331-.121.459-.214.128-.092.227-.199.299-.32a.764.764 0 00.106-.395v-.908h-1.13c-.491 0-.85.072-1.078.214a.692.692 0 00-.33.619v.224c0 .271.096.481.288.63.199.15.466.225.8.225zm5.367.598c-.299 0-.527-.083-.683-.246-.149-.171-.224-.392-.224-.662v-3.855h-.906v-.747h.512c.184 0 .309-.035.373-.107.07-.078.107-.21.107-.395v-1.025h.768v1.527h1.205v.747h-1.205v4.015h1.12v.748h-1.067zm4.551.128a2.51 2.51 0 01-1.024-.203 2.3 2.3 0 01-.778-.577 2.86 2.86 0 01-.502-.907 3.913 3.913 0 01-.17-1.196c0-.435.056-.83.17-1.185a2.72 2.72 0 01.502-.908c.22-.256.48-.452.778-.587a2.49 2.49 0 011.024-.203c.37 0 .7.067.992.203.292.135.54.323.747.566.206.235.363.515.47.843.113.328.17.687.17 1.079v.405H89.97v.257c0 .234.035.455.106.662.078.199.185.373.32.523.142.149.313.267.512.352.206.086.438.128.694.128.348 0 .65-.082.906-.245a1.6 1.6 0 00.608-.705l.608.438a2.154 2.154 0 01-.832.918c-.377.228-.825.342-1.344.342zm0-5.051c-.234 0-.448.043-.64.128a1.43 1.43 0 00-.501.342 1.787 1.787 0 00-.437 1.196v.075h3.04v-.118c0-.491-.136-.883-.406-1.174-.263-.299-.615-.449-1.056-.449z" fill="#999AA3"/><path d="M162.345 233.569v-.791h2.08v-6h-.075l-1.877 1.751-.523-.566 1.973-1.847h1.398v6.662h1.92v.791h-4.896zm9.396-7.453h3.062c.618 0 1.102.174 1.45.523.356.349.534.815.534 1.399 0 .277-.04.512-.118.704a1.536 1.536 0 01-.298.481 1.331 1.331 0 01-.395.277 2.057 2.057 0 01-.395.118v.064c.136.007.285.043.448.107.171.064.331.167.48.309.15.136.274.313.374.534.106.214.16.473.16.78 0 .306-.05.59-.15.854a1.95 1.95 0 01-1.002 1.142 1.832 1.832 0 01-.768.161h-3.382v-7.453zm.896 6.662h2.208c.384 0 .686-.096.907-.288.221-.199.331-.488.331-.865v-.363c0-.377-.11-.662-.331-.854-.221-.2-.523-.299-.907-.299h-2.208v2.669zm0-3.438h2.059c.355 0 .633-.089.832-.267.199-.178.299-.434.299-.768v-.363c0-.335-.1-.591-.299-.769-.199-.178-.477-.267-.832-.267h-2.059v2.434zm8.522-2.434v6.663h-.896v-6.663h-2.368v-.79h5.632v.79h-2.368zm6.227 6.791c-.946 0-1.682-.321-2.208-.961-.527-.648-.789-1.599-.789-2.851 0-1.253.262-2.214.789-2.883.526-.676 1.262-1.014 2.208-1.014.625 0 1.148.142 1.568.427.427.285.757.686.992 1.206l-.725.438a2.041 2.041 0 00-.683-.918c-.306-.235-.69-.353-1.152-.353-.32 0-.608.061-.864.182a1.797 1.797 0 00-.64.523 2.4 2.4 0 00-.395.801 3.594 3.594 0 00-.138 1.036v1.11c0 .769.177 1.37.533 1.805.355.434.857.651 1.504.651.476 0 .875-.121 1.195-.363.32-.249.554-.577.704-.983l.714.449a2.935 2.935 0 01-1.013 1.249c-.441.299-.975.449-1.6.449zm6.671-4.1v-.727h4.97v.727h-4.97zm0 2.135v-.726h4.97v.726h-4.97zm11.412-2.456c.506 0 .882-.114 1.131-.341.256-.235.384-.534.384-.897v-.075c0-.392-.124-.683-.373-.876-.242-.199-.562-.299-.96-.299-.384 0-.697.086-.939.257a1.889 1.889 0 00-.597.672l-.662-.512c.093-.15.203-.296.331-.438a2.338 2.338 0 011.088-.673c.235-.071.501-.106.8-.106.313 0 .608.042.885.128.278.078.516.199.715.363.207.157.367.352.48.587.121.235.181.502.181.801 0 .242-.038.459-.117.651a1.54 1.54 0 01-.299.502 1.77 1.77 0 01-.458.363 2.146 2.146 0 01-.555.224v.043c.199.043.391.114.576.213.192.093.359.217.501.374.15.15.267.334.352.555.093.214.139.46.139.737 0 .32-.06.616-.181.886a2.01 2.01 0 01-.512.684 2.45 2.45 0 01-.8.437 3.183 3.183 0 01-1.035.161c-.32 0-.604-.036-.853-.107a2.612 2.612 0 01-.662-.288 2.971 2.971 0 01-.512-.406 4.026 4.026 0 01-.384-.47l.672-.512c.093.149.192.284.299.405.114.121.239.224.373.31.136.085.288.153.459.203.171.042.37.064.597.064.527 0 .925-.118 1.195-.353.271-.242.405-.583.405-1.025v-.085c0-.441-.134-.779-.405-1.014-.27-.243-.668-.363-1.195-.363h-.874v-.78h.81zm6.759 4.293v-.791h2.08v-6h-.075l-1.877 1.751-.523-.566 1.974-1.847h1.397v6.662h1.92v.791h-4.896zm6.609 0v-.791h2.08v-6h-.074l-1.878 1.751-.522-.566 1.973-1.847h1.397v6.662h1.92v.791h-4.896zm11.356-4.72c0 .555-.082 1.079-.246 1.57a5.87 5.87 0 01-.64 1.334 5.976 5.976 0 01-1.77 1.816h-1.152c.398-.292.754-.577 1.066-.855.314-.277.587-.566.822-.865a5.51 5.51 0 00.597-.971c.164-.349.295-.74.395-1.175l-.054-.021a2.466 2.466 0 01-.693.769c-.277.199-.643.299-1.099.299-.32 0-.614-.054-.885-.16a1.934 1.934 0 01-.693-.46 2.24 2.24 0 01-.459-.715 2.717 2.717 0 01-.16-.961c0-.363.057-.694.171-.993.121-.306.288-.566.501-.779.221-.221.48-.392.779-.513a2.762 2.762 0 011.024-.181c.384 0 .729.067 1.034.202.314.129.576.317.79.566.22.243.388.542.501.897.114.356.171.755.171 1.196zm-2.486 1.143c.491 0 .872-.136 1.142-.406.277-.27.416-.659.416-1.164v-.085c0-.506-.139-.894-.416-1.164-.27-.271-.651-.406-1.142-.406-.49 0-.874.135-1.152.406-.27.27-.405.658-.405 1.164v.085c0 .505.135.894.405 1.164.278.27.662.406 1.152.406zm8.188-.716c.505 0 .882-.114 1.131-.341.256-.235.384-.534.384-.897v-.075c0-.392-.125-.683-.373-.876-.242-.199-.562-.299-.96-.299-.384 0-.697.086-.939.257a1.88 1.88 0 00-.597.672l-.662-.512c.093-.15.203-.296.331-.438a2.31 2.31 0 011.088-.673c.235-.071.501-.106.8-.106.313 0 .608.042.885.128.278.078.516.199.715.363.206.157.366.352.48.587.121.235.181.502.181.801 0 .242-.039.459-.117.651a1.54 1.54 0 01-.299.502 1.77 1.77 0 01-.458.363 2.146 2.146 0 01-.555.224v.043c.199.043.391.114.576.213.192.093.359.217.501.374.15.15.267.334.352.555.093.214.139.46.139.737 0 .32-.061.616-.181.886a2.01 2.01 0 01-.512.684 2.47 2.47 0 01-.8.437 3.183 3.183 0 01-1.035.161c-.32 0-.605-.036-.853-.107a2.612 2.612 0 01-.662-.288 2.971 2.971 0 01-.512-.406 4.026 4.026 0 01-.384-.47l.672-.512c.093.149.192.284.299.405.114.121.238.224.373.31.136.085.288.153.459.203.171.042.37.064.597.064.526 0 .925-.118 1.195-.353.27-.242.405-.583.405-1.025v-.085c0-.441-.135-.779-.405-1.014-.27-.243-.669-.363-1.195-.363h-.874v-.78h.81zm7.826 4.293v-1.463h-3.595v-.79l3.115-5.2h1.333v5.242h1.077v.748h-1.077v1.463h-.853zm-2.752-2.211h2.752v-4.548h-.054l-2.698 4.548zm8.572 2.339c-.384 0-.733-.064-1.046-.193a2.316 2.316 0 01-.789-.565 2.597 2.597 0 01-.491-.908 3.913 3.913 0 01-.17-1.196c0-.555.081-1.075.245-1.559.163-.491.373-.936.629-1.334.263-.406.551-.762.864-1.068.313-.313.619-.566.918-.758h1.152c-.399.291-.754.576-1.067.854a6.208 6.208 0 00-.821.875 5.025 5.025 0 00-.598.972 5.516 5.516 0 00-.394 1.164l.053.021c.177-.306.405-.558.683-.758.284-.206.654-.309 1.109-.309.32 0 .615.053.885.16.27.106.502.259.694.459.192.199.341.441.448.726.113.285.17.601.17.95 0 .363-.06.698-.181 1.004a2.202 2.202 0 01-.501.779 2.269 2.269 0 01-.779.502 2.733 2.733 0 01-1.013.182zm-.011-.78c.491 0 .871-.135 1.141-.406.278-.27.416-.658.416-1.163v-.086c0-.505-.138-.893-.416-1.164-.27-.27-.65-.405-1.141-.405s-.875.135-1.152.405c-.271.271-.405.659-.405 1.164v.086c0 .505.134.893.405 1.163.277.271.661.406 1.152.406zm4.859-.598c.228 0 .392.061.491.182.107.114.16.263.16.448v.15c0 .291-.085.612-.256.961a2.85 2.85 0 01-.715.929h-.714c.213-.228.384-.446.512-.652.135-.199.231-.423.288-.672a.54.54 0 01-.32-.203.66.66 0 01-.096-.363v-.15c0-.185.05-.334.149-.448.107-.121.274-.182.501-.182zm2.608 1.25v-.791h2.08v-6h-.074l-1.878 1.751-.522-.566 1.973-1.847h1.397v6.662h1.92v.791h-4.896zm11.356-4.72c0 .555-.082 1.079-.246 1.57a5.87 5.87 0 01-.64 1.334 5.976 5.976 0 01-1.77 1.816h-1.152c.398-.292.754-.577 1.066-.855.314-.277.587-.566.822-.865a5.51 5.51 0 00.597-.971c.164-.349.295-.74.395-1.175l-.054-.021a2.466 2.466 0 01-.693.769c-.277.199-.643.299-1.099.299-.32 0-.614-.054-.885-.16a1.934 1.934 0 01-.693-.46 2.24 2.24 0 01-.459-.715 2.717 2.717 0 01-.16-.961c0-.363.057-.694.171-.993.121-.306.288-.566.501-.779.221-.221.48-.392.779-.513a2.762 2.762 0 011.024-.181c.384 0 .729.067 1.034.202.314.129.576.317.79.566.22.243.388.542.501.897.114.356.171.755.171 1.196zm-2.486 1.143c.491 0 .872-.136 1.142-.406.277-.27.416-.659.416-1.164v-.085c0-.506-.139-.894-.416-1.164-.27-.271-.651-.406-1.142-.406-.49 0-.874.135-1.152.406-.27.27-.405.658-.405 1.164v.085c0 .505.135.894.405 1.164.278.27.662.406 1.152.406zm8.032 3.577h-.896v-7.453h2.965c.655 0 1.163.181 1.525.544.37.363.555.886.555 1.57 0 .548-.128 1-.384 1.356-.249.349-.619.58-1.109.694l1.706 3.289h-1.013l-1.611-3.204h-1.738v3.204zm2.069-3.972c.356 0 .629-.093.821-.278.2-.185.299-.449.299-.79v-.555c0-.342-.099-.606-.299-.791-.192-.184-.465-.277-.821-.277h-2.069v2.691h2.069zm4.789-3.481v4.612c0 .712.132 1.253.394 1.623.264.363.726.545 1.387.545s1.124-.182 1.387-.545c.263-.37.394-.911.394-1.623v-4.612h.896v4.399c0 .541-.049 1.011-.149 1.409-.092.399-.245.73-.459.993a1.895 1.895 0 01-.842.587c-.342.129-.761.193-1.259.193-.497 0-.917-.064-1.259-.193a1.835 1.835 0 01-.81-.587 2.498 2.498 0 01-.448-.993 6.752 6.752 0 01-.128-1.409v-4.399h.896zm6.6 0h3.061c.619 0 1.102.174 1.451.523.355.349.533.815.533 1.399 0 .277-.039.512-.117.704a1.52 1.52 0 01-.299.481 1.331 1.331 0 01-.395.277 2.07 2.07 0 01-.394.118v.064c.135.007.284.043.448.107a1.59 1.59 0 01.853.843c.107.214.16.473.16.78 0 .306-.05.59-.149.854a1.938 1.938 0 01-1.003 1.142 1.832 1.832 0 01-.768.161h-3.381v-7.453zm.896 6.662h2.208c.384 0 .686-.096.906-.288.221-.199.331-.488.331-.865v-.363c0-.377-.11-.662-.331-.854-.22-.2-.522-.299-.906-.299h-2.208v2.669zm0-3.438h2.058c.356 0 .633-.089.832-.267.2-.178.299-.434.299-.768v-.363c0-.335-.099-.591-.299-.769-.199-.178-.476-.267-.832-.267h-2.058v2.434zm-2.92 32.257H34.667c-4.419 0-8 3.585-8 8.008v21.355c0 4.422 3.581 8.008 8 8.008h250.666c4.419 0 8-3.586 8-8.008v-21.355c0-4.423-3.581-8.008-8-8.008z" fill="#FD7B01"/><path d="M117.663 284.954v-8.385h5.292v1.298h-3.72v2.186h3.588v1.297h-3.588v2.306h3.72v1.298h-5.292zm6.607 0l2.316-3.148-2.184-3.051h1.764l.744 1.094.576.864h.084l.576-.864.744-1.094h1.632l-2.184 2.979 2.316 3.22h-1.776l-.852-1.25-.588-.877h-.084l-.588.877-.852 1.25h-1.644zm10.627.144c-.472 0-.896-.076-1.272-.228a2.696 2.696 0 01-.96-.649 2.998 2.998 0 01-.6-1.021 4.17 4.17 0 01-.204-1.345c0-.497.068-.945.204-1.346.144-.4.344-.741.6-1.021.264-.28.58-.496.948-.649.376-.152.8-.228 1.272-.228.656 0 1.184.136 1.584.409.4.272.704.632.912 1.081l-1.188.648a1.545 1.545 0 00-.48-.636c-.2-.168-.476-.252-.828-.252-.456 0-.808.132-1.056.396-.24.264-.36.625-.36 1.081v1.033c0 .448.12.809.36 1.081.248.264.608.397 1.08.397.368 0 .66-.085.876-.253a1.81 1.81 0 00.54-.672l1.152.684a2.616 2.616 0 01-.948 1.081c-.416.273-.96.409-1.632.409zm4.256-9.033h1.536v3.784h.06c.136-.337.344-.625.624-.865.288-.249.684-.373 1.188-.373.608 0 1.1.204 1.476.613.384.4.576.977.576 1.73v4h-1.536v-3.784c0-.897-.388-1.346-1.164-1.346-.16 0-.312.02-.456.061-.144.04-.276.104-.396.192a.99.99 0 00-.276.3.907.907 0 00-.096.432v4.145h-1.536v-8.889zm12.175 8.889c-.376 0-.668-.092-.876-.277-.2-.192-.32-.456-.36-.792h-.06a1.57 1.57 0 01-.66.9c-.328.209-.732.313-1.212.313-.624 0-1.12-.164-1.488-.493-.368-.328-.552-.785-.552-1.369 0-1.249.916-1.874 2.748-1.874h1.092v-.408c0-.393-.096-.689-.288-.889-.192-.2-.504-.301-.936-.301-.392 0-.708.076-.948.229a2.14 2.14 0 00-.612.588l-.876-.745c.192-.344.5-.632.924-.864.432-.241.988-.361 1.668-.361.816 0 1.452.192 1.908.577.464.376.696.941.696 1.694v2.918h.732v1.154h-.9zm-2.652-.913c.368 0 .672-.084.912-.253a.826.826 0 00.372-.708v-.829h-1.056c-.84 0-1.26.264-1.26.793v.24c0 .248.092.436.276.565.184.128.436.192.756.192zm4.867.913v-6.199h1.536v1.094h.06c.136-.337.344-.625.624-.865.288-.249.684-.373 1.188-.373.608 0 1.1.204 1.476.613.384.4.576.977.576 1.73v4h-1.536v-3.784c0-.897-.388-1.346-1.164-1.346-.16 0-.312.02-.456.061-.144.04-.276.104-.396.192a.99.99 0 00-.276.3.907.907 0 00-.096.432v4.145h-1.536zm13.208.648c0 .649-.272 1.125-.816 1.43-.536.312-1.376.468-2.52.468-.56 0-1.028-.036-1.404-.108-.376-.064-.68-.16-.912-.288a1.18 1.18 0 01-.48-.469 1.232 1.232 0 01-.144-.6c0-.345.1-.609.3-.793.2-.184.48-.32.84-.408v-.097a1.445 1.445 0 01-.576-.336c-.136-.144-.204-.344-.204-.601 0-.304.1-.532.3-.684.208-.152.48-.268.816-.349v-.06a2.069 2.069 0 01-.864-.744c-.208-.321-.312-.709-.312-1.166 0-.344.06-.648.18-.912.128-.273.304-.501.528-.685a2.35 2.35 0 01.828-.433c.32-.104.676-.156 1.068-.156.416 0 .792.056 1.128.168v-.264c0-.24.076-.44.228-.6.16-.161.38-.241.66-.241h1.116v1.153h-1.464v.205c.304.184.536.424.696.72.168.289.252.637.252 1.045 0 .345-.064.653-.192.925a1.77 1.77 0 01-.528.685 2.48 2.48 0 01-.828.433c-.32.096-.676.144-1.068.144-.16 0-.316-.004-.468-.012a2.44 2.44 0 01-.42-.084 1.05 1.05 0 00-.324.192.434.434 0 00-.156.348c0 .192.092.312.276.36.184.04.404.061.66.061h1.404c.432 0 .8.044 1.104.132.304.08.552.2.744.36.192.152.332.336.42.553.088.216.132.452.132.708zm-1.44.108a.525.525 0 00-.228-.444c-.144-.104-.416-.156-.816-.156h-2.136c-.24.136-.36.336-.36.6a.67.67 0 00.264.541c.184.144.492.216.924.216h.996c.904 0 1.356-.252 1.356-.757zm-1.932-3.735c.392 0 .68-.092.864-.277.184-.192.276-.44.276-.744v-.313c0-.304-.092-.548-.276-.732-.184-.193-.472-.289-.864-.289-.384 0-.668.096-.852.289-.184.184-.276.428-.276.732v.313c0 .304.092.552.276.744.184.185.468.277.852.277zm7.399 3.123c-.496 0-.936-.076-1.32-.228a2.675 2.675 0 01-.972-.649 2.869 2.869 0 01-.588-1.009 4.17 4.17 0 01-.204-1.345c0-.505.068-.957.204-1.358.144-.4.344-.741.6-1.021.256-.28.564-.496.924-.649a3.21 3.21 0 011.236-.228c.448 0 .852.076 1.212.228.36.145.664.353.912.625.256.272.452.601.588.985.136.384.204.809.204 1.273v.505h-4.344v.156c0 .448.14.813.42 1.093.28.272.672.409 1.176.409.384 0 .712-.077.984-.229.28-.16.512-.368.696-.624l.876.877c-.224.328-.552.608-.984.84-.424.233-.964.349-1.62.349zm-.108-5.358c-.432 0-.78.137-1.044.409-.264.272-.396.632-.396 1.081v.084h2.808v-.108c0-.449-.124-.805-.372-1.069-.24-.264-.572-.397-.996-.397zm11.655 5.214v-6.199h1.536v1.094h.06c.136-.337.344-.625.624-.865.288-.249.684-.373 1.188-.373.608 0 1.1.204 1.476.613.384.4.576.977.576 1.73v4h-1.536v-3.784c0-.897-.388-1.346-1.164-1.346-.16 0-.312.02-.456.061-.144.04-.276.104-.396.192a.99.99 0 00-.276.3.907.907 0 00-.096.432v4.145h-1.536zm9.895.144c-.472 0-.896-.076-1.272-.228a2.72 2.72 0 01-.948-.649 2.998 2.998 0 01-.6-1.021 4.17 4.17 0 01-.204-1.345c0-.497.068-.945.204-1.346.144-.4.344-.741.6-1.021.264-.28.58-.496.948-.649.376-.152.8-.228 1.272-.228.464 0 .884.076 1.26.228.376.153.692.369.948.649.264.28.464.621.6 1.021.144.401.216.849.216 1.346 0 .496-.072.944-.216 1.345-.136.4-.336.741-.6 1.021a2.58 2.58 0 01-.948.649 3.335 3.335 0 01-1.26.228zm0-1.177c.44 0 .788-.133 1.044-.397.256-.272.384-.668.384-1.189v-.961c0-.521-.128-.913-.384-1.177-.256-.272-.604-.409-1.044-.409-.44 0-.788.137-1.044.409-.256.264-.384.656-.384 1.177v.961c0 .521.128.917.384 1.189.256.264.604.397 1.044.397zm3.763-5.166h1.284l.528 5.118h.108l.84-5.118h1.404l.828 5.118h.108l.54-5.118h1.224l-.792 6.199h-1.86l-.72-4.553h-.108l-.732 4.553h-1.86l-.792-6.199z" fill="#fff"/></g><defs><clipPath id="clip0_2:754"><path fill="#fff" d="M0 0h320v331H0z"/></clipPath></defs></svg>