<svg width="48" height="20" fill="none" xmlns="http://www.w3.org/2000/svg"><g clip-path="url(#clip0_2:1038)"><path d="M32.153 2.344L25.88 19.567l-.039.105-1.153-2.344-2.406 1.11 6.312-17.327L31 0l1.153 2.344zm15.707.434L41.587 20l-1.152-2.35-2.407 1.111.146-.405L44.447 1.11 46.853 0l1.119 2.344-.112.434zM34.43 17.694l3.694-10.138-2.412 1.11-1.12-2.35-3.732 10.112 1.148 2.35 2.422-1.084zm-19.987-10H3.408l1.88 1.75-1.88 1.806H14.43l1.875-1.806-1.864-1.75zM1.88 15.184h17.84l-1.875 1.794 1.874 1.789H1.88L0 16.977l1.88-1.794zM7.353.143H25.18L23.31 1.94l1.87 1.789H7.353l-1.88-1.79L7.353.145z" fill="#A8A8A8"/></g><defs><clipPath id="clip0_2:1038"><path fill="#fff" d="M0 0h48v20H0z"/></clipPath></defs></svg>