<svg width="22" height="24" fill="none" xmlns="http://www.w3.org/2000/svg"><path d="M20.281 3.275L11.405.072a1.196 1.196 0 00-.819 0L1.742 3.275A1.224 1.224 0 00.93 4.411V12c0 1.694.546 3.389 1.588 5.036.799 1.263 1.91 2.501 3.287 3.68 2.302 1.973 4.586 3.111 4.682 3.159a1.219 1.219 0 001.068.003c.096-.047 2.379-1.167 4.683-3.131 1.378-1.175 2.473-2.413 3.272-3.68 1.041-1.653 1.56-3.357 1.56-5.067V4.411a1.2 1.2 0 00-.789-1.136zm-17.419 8.72v-6.68a.6.6 0 01.395-.568l7.518-2.735a.665.665 0 01.224-.042V12h8.195l.001.018c-.002 2.185-1.102 4.352-3.271 6.46-1.694 1.648-3.619 2.824-4.609 3.378a.747.747 0 01-.315.076v-9.935l-8.138-.003z" fill="#81828A"/></svg>