<svg width="99" height="20" fill="none" xmlns="http://www.w3.org/2000/svg"><path d="M4.49 10l-2.234 2.246L0 10l2.255-2.266L4.49 10zm5.462-5.488l3.849 3.866 2.256-2.265L9.952 0 3.848 6.133l2.256 2.265 3.848-3.886zm7.698 3.222L15.415 10l2.255 2.266L19.924 10 17.65 7.734zm-7.698 7.754l-3.848-3.886-2.256 2.265L9.952 20l6.105-6.133-2.256-2.265-3.849 3.886zm0-3.241l2.256-2.267-2.256-2.245L7.697 10l2.255 2.246zm23.716.233v-.038c0-1.465-.778-2.208-2.041-2.696.777-.43 1.438-1.133 1.438-2.364v-.038c0-1.719-1.38-2.832-3.596-2.832h-5.074v10.957h5.19c2.469.02 4.083-.996 4.083-2.988v-.001zm-2.994-4.687c0 .82-.661 1.152-1.73 1.152h-2.216V6.621H29.1c1.011 0 1.575.41 1.575 1.133v.04zm.602 4.375c0 .82-.64 1.192-1.692 1.192h-2.856v-2.403h2.78c1.224 0 1.768.45 1.768 1.191v.02zm7.426 3.32V4.512h-2.41v10.957h2.41v.02zm12.907 0V4.512h-2.372v6.758l-5.112-6.758H41.91v10.957h2.372V8.516l5.287 6.972h2.042zm13.295 0L60.221 4.453h-2.215L53.32 15.488h2.47l.99-2.46h4.608l.99 2.46h2.528-.002zm-4.373-4.59h-2.896l1.458-3.554 1.438 3.554zm15.824 4.59V4.512h-2.373v6.758L68.87 4.512h-2.216v10.957h2.372V8.516l5.288 6.972h2.04zm12.381-1.777l-1.535-1.543c-.856.781-1.614 1.289-2.877 1.289-1.866 0-3.168-1.563-3.168-3.438v-.058c0-1.875 1.321-3.418 3.168-3.418 1.088 0 1.944.469 2.8 1.23l1.534-1.777c-1.01-.996-2.235-1.7-4.295-1.7-3.343 0-5.695 2.559-5.695 5.665V10c0 3.144 2.39 5.644 5.598 5.644 2.1.02 3.343-.722 4.47-1.933zm10.245 1.777V13.34h-5.93v-2.305h5.152V8.887h-5.151V6.66h5.85V4.512H90.68v10.957h8.3v.02z" fill="#A8A8A8"/></svg>