<svg width="150" height="44" fill="none" xmlns="http://www.w3.org/2000/svg"><path d="M144.444 0H5.556C2.487 0 0 2.462 0 5.5v33C0 41.538 2.487 44 5.556 44h138.888c3.069 0 5.556-2.462 5.556-5.5v-33c0-3.038-2.487-5.5-5.556-5.5z" fill="#000"/><path d="M53.76 25.749h2.237c-.373-2.356-2.432-3.996-5.113-3.996-3.173 0-5.552 2.308-5.552 6.175 0 3.797 2.273 6.153 5.617 6.153 3 0 5.149-1.91 5.149-5.004v-1.442h-4.919v1.7h2.794c-.035 1.71-1.19 2.794-3.012 2.794-2.03 0-3.421-1.505-3.421-4.224 0-2.701 1.414-4.201 3.373-4.201 1.462 0 2.456.773 2.847 2.045zm8.332 8.343c2.663 0 4.356-1.857 4.356-4.64 0-2.79-1.693-4.653-4.356-4.653s-4.356 1.864-4.356 4.653c0 2.783 1.693 4.64 4.356 4.64zm.012-1.699c-1.474 0-2.196-1.3-2.196-2.947s.722-2.965 2.196-2.965c1.45 0 2.172 1.318 2.172 2.965 0 1.646-.722 2.947-2.172 2.947zm10.128 1.7c2.663 0 4.356-1.858 4.356-4.641 0-2.79-1.693-4.653-4.356-4.653s-4.356 1.864-4.356 4.653c0 2.783 1.692 4.64 4.356 4.64zm.012-1.7c-1.474 0-2.196-1.3-2.196-2.947s.722-2.965 2.196-2.965c1.45 0 2.172 1.318 2.172 2.965 0 1.646-.722 2.947-2.172 2.947zM82.36 37.48c2.456 0 4.267-1.113 4.267-3.416v-9.146h-2.113v1.488h-.118c-.326-.65-1.006-1.606-2.61-1.606-2.101 0-3.752 1.63-3.752 4.588 0 2.936 1.65 4.4 3.746 4.4 1.557 0 2.285-.825 2.616-1.487h.107v1.705c0 1.324-.888 1.869-2.108 1.869-1.29 0-1.858-.604-2.118-1.131l-1.93.463c.39 1.26 1.699 2.273 4.013 2.273zm.018-5.355c-1.415 0-2.16-1.09-2.16-2.748 0-1.635.733-2.836 2.16-2.836 1.379 0 2.136 1.13 2.136 2.836 0 1.716-.769 2.748-2.136 2.748zm8.588-10.207h-2.143v12h2.143v-12zm6.227 12.175c2.119 0 3.575-1.025 3.954-2.59l-2-.222c-.29.762-1 1.16-1.924 1.16-1.385 0-2.302-.902-2.32-2.443h6.333v-.65c0-3.159-1.918-4.548-4.155-4.548-2.604 0-4.303 1.893-4.303 4.67 0 2.825 1.675 4.623 4.415 4.623zm-2.284-5.525c.065-1.148.923-2.115 2.202-2.115 1.23 0 2.06.89 2.071 2.115H94.91zm12.369 5.35h2.195v-4.055h2.32c2.799 0 4.303-1.664 4.303-3.973 0-2.29-1.486-3.972-4.273-3.972h-4.545v12zm2.195-5.842v-4.342h2.012c1.645 0 2.374.879 2.374 2.156 0 1.278-.729 2.186-2.362 2.186h-2.024zm10.578-6.158h-2.143v12h2.143v-12zm4.819 12.181c1.426 0 2.279-.662 2.67-1.418h.07v1.237h2.06v-6.024c0-2.379-1.959-3.094-3.693-3.094-1.911 0-3.38.844-3.853 2.485l2.001.281c.213-.615.816-1.143 1.864-1.143.994 0 1.539.504 1.539 1.39v.034c0 .61-.646.639-2.249.809-1.764.187-3.451.709-3.451 2.736 0 1.77 1.308 2.707 3.042 2.707zm.557-1.558c-.894 0-1.534-.405-1.534-1.184 0-.814.717-1.154 1.675-1.289.562-.076 1.687-.217 1.965-.44v1.061c0 1.002-.817 1.852-2.106 1.852zm7.403 4.752c1.67 0 2.635-.85 3.149-2.285l3.652-10.079-2.29-.011-2.101 6.796h-.096l-2.094-6.796h-2.273l3.297 9.187-.184.486c-.397 1.026-1.024 1.096-1.959.827l-.497 1.652c.29.117.81.223 1.396.223zM49.864 11.917h.841c-.25-1.29-1.341-2.175-2.762-2.175-1.726 0-2.946 1.315-2.946 3.425s1.21 3.424 2.999 3.424c1.604 0 2.749-1.058 2.749-2.708v-.716H48.18v.716h1.776c-.024 1.198-.82 1.953-1.96 1.953-1.25 0-2.21-.938-2.21-2.67 0-1.731.96-2.669 2.157-2.669.973 0 1.634.544 1.92 1.42zM52.14 16.5h4.117v-.716h-3.301v-2.266h3.038v-.716h-3.038V10.55h3.248v-.717H52.14V16.5zm5.166-5.95h2.117v5.95h.816v-5.95h2.117v-.717h-5.05v.716zm9.728-.717h-.815V16.5h.816V9.833zm1.267.716h2.118V16.5h.815v-5.95h2.118v-.717h-5.05v.716zm14.595 2.618c0-2.11-1.25-3.425-2.972-3.425-1.723 0-2.973 1.315-2.973 3.425s1.25 3.424 2.973 3.424c1.723 0 2.972-1.315 2.972-3.424zm-.789 0c0 1.731-.96 2.669-2.183 2.669-1.223 0-2.183-.938-2.183-2.67 0-1.731.96-2.669 2.183-2.669 1.223 0 2.183.938 2.183 2.67zm7.5-3.334h-.802v5.248h-.066l-3.682-5.248h-.79V16.5h.816v-5.234h.066l3.67 5.234h.788V9.833z" fill="#fff"/><path d="M24.176 22.002l-13.02 12.412a2.187 2.187 0 01-.965-1.83V11.42a2.187 2.187 0 01.966-1.83l13.02 12.412z" fill="#00D4FF"/><path d="M28.732 17.667l-4.555 4.335-13.02-12.411c.05-.038.1-.073.153-.105a2.246 2.246 0 012.249-.035l15.173 8.216z" fill="#00F076"/><path d="M34.253 22.002a2.225 2.225 0 01-1.177 1.982l-4.344 2.354-4.555-4.336 4.555-4.335 4.344 2.354a2.225 2.225 0 011.177 1.981z" fill="#FFCF00"/><path d="M28.732 26.337L13.56 34.554a2.276 2.276 0 01-2.249-.035 1.719 1.719 0 01-.153-.105l13.02-12.412 4.555 4.335z" fill="#FB3746"/></svg>