<svg width="155" height="40" fill="none" xmlns="http://www.w3.org/2000/svg"><path fill-rule="evenodd" clip-rule="evenodd" d="M35.621 4.28a.28.28 0 01.066.158c.023.287 2.104 28.745-17.336 35.373a.278.278 0 01-.18 0C-1.27 33.183.81 4.725.835 4.438a.28.28 0 01.21-.249L18.195.008a.287.287 0 01.131 0l17.15 4.181a.277.277 0 01.145.09zm-3.156 3.038c.031.036.05.081.054.128h.002c.019.234 1.72 23.468-14.187 28.878a.204.204 0 01-.145 0C2.282 30.914 3.984 7.68 4.003 7.446a.225.225 0 01.172-.201l14.031-3.416a.222.222 0 01.108 0l14.032 3.416a.227.227 0 01.12.073z" fill="#868686"/><path d="M18.062 8.928l-9.356 2.276a.154.154 0 00-.114.136c-.012.156-1.147 15.646 9.457 19.253a.16.16 0 00.098 0c10.603-3.608 9.47-19.097 9.456-19.254a.15.15 0 00-.115-.135l-9.355-2.276a.139.139 0 00-.071 0M55.61 22.5v-3.647h5.896v10.724c-2.839.466-5.141.699-6.907.699-3.156 0-5.33-.86-6.52-2.582-1.172-1.722-1.757-4.456-1.757-8.203 0-3.746.615-6.45 1.846-8.11 1.23-1.661 3.324-2.492 6.282-2.492 1.845 0 3.84.213 5.984.638l1.072.214-.12 3.25c-2.381-.263-4.336-.396-5.865-.396-1.508 0-2.57.182-3.185.547-.615.365-1.072 1.043-1.37 2.035-.278.973-.416 2.654-.416 5.044 0 2.37.287 4.03.863 4.982.576.952 1.766 1.428 3.573 1.428l2.47-.122v-4.01h-1.845zm13.705.515c0 2.41 1.201 3.616 3.603 3.616 2.401 0 3.602-1.206 3.602-3.616V9.254h4.109v13.67c0 2.532-.645 4.395-1.936 5.59-1.27 1.175-3.195 1.762-5.775 1.762-2.58 0-4.516-.587-5.806-1.762-1.27-1.195-1.905-3.058-1.905-5.59V9.254h4.108v13.761zm13.708 6.896l4.555-20.657h7.8l4.556 20.657h-4.109l-.804-3.736h-7.085l-.804 3.736h-4.109zm7.741-17.194L88.71 22.53h5.537l-2.054-9.812h-1.429zm15.974 10.268v6.926h-4.108V9.254h7.86c4.763 0 7.145 2.268 7.145 6.805 0 2.694-.992 4.678-2.977 5.955l2.888 7.897h-4.496l-2.352-6.926h-3.96zm3.811-3.585c.973 0 1.697-.303 2.174-.911.476-.607.714-1.408.714-2.4s-.258-1.782-.774-2.369c-.496-.587-1.221-.881-2.173-.881h-3.752V19.4h3.811zm17.36 10.511h-6.817V9.254h6.817c1.747 0 3.186.192 4.317.578 1.132.363 2.005.982 2.62 1.853.635.85 1.072 1.862 1.31 3.038.238 1.154.357 2.663.357 4.526s-.109 3.412-.327 4.648c-.218 1.215-.635 2.308-1.251 3.28-.595.952-1.468 1.651-2.619 2.096-1.151.426-2.62.638-4.407.638zm4.317-8.202c.04-.647.06-1.54.06-2.673 0-1.154-.04-2.076-.119-2.765a5.33 5.33 0 00-.566-1.883 2.304 2.304 0 00-1.34-1.155c-.575-.223-1.359-.333-2.352-.333H125.2v13.367h2.709c1.489 0 2.571-.386 3.246-1.155.575-.628.932-1.762 1.071-3.403zm5.863 8.202l4.556-20.657h7.8L155 29.91h-4.109l-.804-3.736h-7.085l-.804 3.736h-4.109zm7.741-17.194l-2.054 9.812h5.537l-2.054-9.812h-1.429z" fill="#868686"/></svg>