<svg width="46" height="20" fill="none" xmlns="http://www.w3.org/2000/svg"><path d="M32.343 4.156l-.998 3.91-6.679.89 7.677-4.8z" fill="#E5E5E5"/><path d="M35.82 12.822l-2.162-.918.495 8.014 1.666-7.096z" fill="#727272"/><path d="M31.345 8.065l-1.758 3.7-4.92-2.809 6.678-.89z" fill="#E4E4E4"/><path d="M33.658 11.904l-4.07-.139 4.565 8.152-.495-8.013z" fill="#A7A7A7"/><path d="M31.345 8.065l2.313 3.84-4.07-.14 1.757-3.7z" fill="#E2E2E2"/><path d="M32.343 4.156l5.542.714-6.54 3.195.998-3.909zm11.609-1.773l-3.49 4.156.248-3.848 3.242-.308zm0 0L45.887 0l-.425 2.57-1.51-.187z" fill="#F2F2F2"/><path d="M42.073 4.543l3.389-1.973-1.51-.187-1.88 2.16z" fill="#E7E7E7"/><path d="M35.82 12.822l.164-4.77-2.326 3.852 2.161.918z" fill="#A7A7A7"/><path d="M35.984 8.052l-2.326 3.852-2.313-3.839 4.64-.013z" fill="#BEBEBE"/><path d="M37.885 4.87l-1.9 3.182-4.64.013 6.54-3.195z" fill="#E5E5E5"/><path d="M35.984 8.052l-.165 4.77 4.253 4.465-4.088-9.235z" fill="#8D8D8D"/><path d="M42.298 14.791L40.05 9.07l.022 8.217 2.226-2.496zM40.463 6.54l-.413 2.53-4.066-1.018 4.479-1.513z" fill="#CBCBCB"/><path d="M42.524 9.978L40.05 9.07l.413-2.53 2.06 3.438z" fill="#fff"/><path d="M43.41 14.63l-2.696-4.426h1.537l1.158 4.426z" fill="#F2F2F2"/><path d="M38.393 3.93l2.07 2.61.247-3.849-2.317 1.24z" fill="#E5E5E5"/><path d="M40.05 9.07l-4.066-1.018 4.088 9.235-.022-8.217z" fill="#BEBEBE"/><path d="M3.242 19.917v-2.265H1.423v2.265H0v-5.874h1.423V16.3h1.819v-2.257h1.423v5.874H3.242zm2.964-5.16a.718.718 0 01.737-.67.67.67 0 01.727.672.675.675 0 01-.727.671.71.71 0 01-.737-.673zm.1 1.304l.637.343.656-.339v3.857H6.297v-3.857l.008-.004zm4.314 3.856H9.316v-2.926h-.52v-1.27h.511v-1.408h1.302v1.409h.513v1.265h-.504v2.93z" fill="#A8A8A8"/><path d="M14.794 14.043c1.736 0 2.018 1.057 2.018 1.596a1.306 1.306 0 01-.72 1.235 1.302 1.302 0 01.893 1.304c0 .922-.52 1.74-2.235 1.74h-2.287v-5.874h2.33zm-.907 2.253h1.063a.433.433 0 00.512-.435.436.436 0 00-.512-.435h-1.063v.904-.034zm0 2.274h1.163a.527.527 0 00.563-.302.532.532 0 00-.563-.746h-1.163v1.048zm6.761 1.347h-1.424v-4.53h-1.501v-1.344h4.409v1.344h-1.484v4.53zm7.429-4.957l-.92.87a1.881 1.881 0 00-1.302-.486 1.542 1.542 0 00-1.462 1.016 1.55 1.55 0 00-.091.623 1.542 1.542 0 00.938 1.523c.196.083.407.124.62.12.479.013.945-.158 1.302-.478l.92.87a3.036 3.036 0 01-2.213.973 2.987 2.987 0 01-2.115-.877A2.998 2.998 0 0125.868 14a3.034 3.034 0 012.21.96z" fill="#DBDBDB"/><path d="M42.298 14.791l.898.513-3.111 1.983 2.213-2.496z" fill="#A7A7A7"/><path d="M43.41 14.583L40.05 9.07l2.248 5.721 1.111-.208z" fill="#E5E5E5"/><path d="M38.393 3.93l-2.409 4.122 4.479-1.513-2.07-2.609z" fill="#F2F2F2"/><path opacity=".7" d="M1.61 11.196v.317H.087V9.474H1.57v.317H.464v.53h.981v.314h-.98v.56H1.61zm.785.282a.949.949 0 01-.347-.174l.122-.3a1.12 1.12 0 00.673.222.633.633 0 00.338-.074.221.221 0 00.098-.27.186.186 0 00-.046-.064.434.434 0 00-.16-.088l-.26-.073a3.056 3.056 0 01-.378-.11.62.62 0 01-.248-.173.466.466 0 01-.104-.317.549.549 0 01.087-.31.632.632 0 01.278-.22c.137-.057.285-.085.434-.083.123 0 .245.016.364.047.111.027.217.073.313.135l-.087.296a1.17 1.17 0 00-.278-.118 1.044 1.044 0 00-.282-.039.59.59 0 00-.334.074.235.235 0 00-.094.279c.01.025.026.047.046.065.047.04.102.07.16.087l.261.074c.127.027.251.063.373.108.095.037.18.097.248.174.072.088.11.2.104.313a.535.535 0 01-.091.304.62.62 0 01-.278.218 1.13 1.13 0 01-.434.082 1.549 1.549 0 01-.478-.065zm2.279-1.682h-.677v-.322h1.736v.322H5.05v1.739h-.377v-1.74zm1.263 1.669a.244.244 0 01.262-.399.243.243 0 11-.262.4zm3.176-.269v.321H7.625v-.256l.807-.77a.9.9 0 00.187-.23.436.436 0 00.06-.191.261.261 0 00-.095-.218.433.433 0 00-.282-.074.567.567 0 00-.49.222l-.265-.204a.781.781 0 01.32-.248c.138-.058.286-.087.435-.087a.831.831 0 01.53.156.517.517 0 01.199.435.714.714 0 01-.07.313c-.07.125-.16.237-.269.33l-.542.518h.963v-.017zm.837.226a.834.834 0 01-.303-.361 1.494 1.494 0 010-1.126.839.839 0 01.304-.361.789.789 0 01.434-.122.797.797 0 01.434.122.836.836 0 01.303.36c.147.362.147.766 0 1.127a.793.793 0 01-.738.487.784.784 0 01-.433-.126zm.782-.387a.945.945 0 00.117-.54.941.941 0 00-.126-.538.435.435 0 00-.685 0 .94.94 0 00-.126.539.945.945 0 00.126.539.434.434 0 00.694 0zm1.623-1.561v2.04h-.378v-1.74h-.434v-.3h.812zm1.875 1.035c.1.107.152.25.147.396a.601.601 0 01-.091.321.62.62 0 01-.273.23 1.03 1.03 0 01-.434.088 1.402 1.402 0 01-.434-.061 1.066 1.066 0 01-.343-.174l.165-.296c.08.066.17.116.269.148a1 1 0 00.325.052.53.53 0 00.326-.082.265.265 0 00.117-.226.261.261 0 00-.117-.222.568.568 0 00-.334-.079h-.183v-.26l.465-.553h-.929v-.317h1.389v.252l-.495.591a.685.685 0 01.43.192z" fill="#fff"/></svg>