<svg width="104" height="16" fill="none" xmlns="http://www.w3.org/2000/svg"><path d="M9.746.077A10.595 10.595 0 0115.001 1.1c2.39 1.142 4.29 3.206 5.188 5.639a9.707 9.707 0 01.611 3.355v4.24c0 .173.006.351-.037.518-.097.428-.41.803-.825.987a1.62 1.62 0 01-.922.101c-.666-.118-1.18-.725-1.186-1.38-.006-1.314 0-2.628 0-3.949.013-.375.013-.773-.195-1.1-.336-.607-1.155-.898-1.809-.637-.556.19-.96.738-.965 1.315-.007 1.338 0 2.67 0 4.003 0 .25.012.505-.062.743-.14.47-.543.85-1.026.982-.636.172-1.363-.101-1.687-.672-.22-.345-.201-.762-.195-1.142-.006-1.327.006-2.653-.006-3.98-.012-.672-.58-1.278-1.271-1.368a1.502 1.502 0 00-1.24.387 1.425 1.425 0 00-.459 1.047v3.866c-.006.327.037.66-.091.964a1.45 1.45 0 01-1.375.94 1.457 1.457 0 01-1.418-.946c-.11-.28-.086-.577-.086-.875 0-1.332.007-2.664 0-4.003-.006-.66-.531-1.26-1.197-1.38a1.51 1.51 0 00-1.57.702c-.129.22-.196.476-.196.726v4.33a1.42 1.42 0 01-.526 1.106c-.5.429-1.313.452-1.845.06A1.375 1.375 0 010 14.537v-4.384a9.9 9.9 0 011.247-4.77 10.259 10.259 0 012.67-3.099A10.468 10.468 0 019.747.077zm40.5 5.086h-2.255c.08-1.54.41-2.927 1.858-3.801C51.285.494 52.868.297 54.511.428c.892.072 1.76.256 2.579.625 1.436.642 2.145 1.743 2.145 3.271.006 2.712 0 5.43 0 8.143 0 1 .208 1.183 1.234 1.082.11-.011.22-.03.336-.047.012.053.025.095.025.137v1.647c-.82.268-1.638.351-2.463.137-.599-.16-.984-.583-1.191-1.142-.104-.286-.166-.583-.263-.916-.086.095-.16.184-.245.262-1.778 1.754-3.898 2.492-6.391 1.88a4 4 0 01-3.031-3.79 6.415 6.415 0 01.177-1.707c.324-1.284 1.259-2.058 2.45-2.575.838-.369 1.73-.476 2.628-.583 1.051-.13 2.102-.256 3.153-.399.715-.095 1.075-.463 1.185-1.165.227-1.392-.409-2.332-1.808-2.665a6.117 6.117 0 00-2.524-.077c-1.246.22-1.943.904-2.187 2.111a4.563 4.563 0 01-.074.506zm6.642 2.694c-1.038.547-2.047.678-3.061.827-.855.13-1.723.25-2.542.511-1.1.351-1.589 1.232-1.497 2.41.08.98.77 1.772 1.851 1.944 1.68.274 3.172-.178 4.345-1.391.342-.351.617-.863.69-1.339.153-.945.147-1.915.214-2.962zm32.099 2.831c-.055.238-.086.44-.147.631-.978 2.879-2.94 4.122-5.328 4.378-4.143.446-6.508-2.195-7.119-4.997-.483-2.224-.415-4.437.587-6.53.947-1.975 2.474-3.278 4.747-3.664 2.713-.464 6.57.838 7.217 4.978.165 1.065.201 2.153.305 3.277H78.721c.092 1.517.336 2.933 1.473 4.039.47.458 1.075.678 1.729.785 2.139.363 3.892-.63 4.589-2.623.073-.214.171-.28.397-.274.678.012 1.357 0 2.078 0zM78.807 6.81h7.882c-.085-.886-.25-1.719-.672-2.492-.41-.75-1.02-1.285-1.852-1.558-2.725-.91-5.542 1.207-5.358 4.05zm15.85 8.405h-2.395V.749h2.273v2.029c.171-.19.281-.31.385-.423 1.625-1.808 3.678-2.284 6-1.725 1.62.387 2.518 1.5 2.823 3.058.129.636.202 1.29.208 1.939.025 3.105.012 6.21.012 9.314 0 .083-.012.173-.018.274h-2.45v-.393c0-2.896.018-5.799-.012-8.696a6.78 6.78 0 00-.288-1.915c-.311-1.017-1.142-1.558-2.236-1.594-1.986-.065-3.569.958-4.051 2.689-.171.618-.226 1.284-.233 1.933-.024 2.516-.012 5.038-.018 7.554v.422zM63.145.75h2.31v6.126c.147-.137.232-.208.318-.286 1.888-1.873 3.782-3.753 5.664-5.632a.706.706 0 01.55-.232c.886.011 1.779.006 2.756.006-.134.136-.208.22-.287.303-1.662 1.624-3.318 3.247-4.992 4.865-.19.179-.196.298-.061.512 1.814 2.813 3.617 5.627 5.426 8.446.067.101.128.202.214.35-.123.013-.214.025-.306.025-.825 0-1.65-.006-2.475.006-.226.005-.336-.078-.446-.256-1.38-2.266-2.774-4.527-4.161-6.793-.061-.1-.128-.196-.208-.315-.641.619-1.265 1.22-1.882 1.838-.08.077-.097.232-.097.357-.007 1.588-.007 3.17-.007 4.758v.41c-.458 0-.898.007-1.338 0-.318-.005-.74.078-.923-.083-.158-.142-.06-.57-.06-.874V1.184c.005-.143.005-.28.005-.435zM36.534.732c-1.876 1.808-3.696 3.574-5.53 5.34l5.86 9.143c-.158.006-.256.018-.36.018-.8 0-1.607-.006-2.408.006-.232.006-.36-.078-.476-.268-1.381-2.266-2.774-4.526-4.161-6.793-.055-.095-.117-.184-.208-.327-.355.357-.66.738-1.045 1.017-.776.571-1.008 1.285-.947 2.219.08 1.231.018 2.474.018 3.712v.404h-2.291V.743h2.279v6.038c.049.03.098.065.146.095.062-.101.098-.226.178-.304 1.876-1.873 3.764-3.735 5.64-5.608a.723.723 0 01.58-.244c.782.018 1.564.006 2.34.006.11.006.22.006.385.006zm4.577 2.397C42.272 1.475 43.506.095 45.798.494v2.474c-.611.042-1.21.024-1.778.137-1.412.285-2.5 1.54-2.713 3.051a6.442 6.442 0 00-.062.91c-.006 2.582 0 5.169 0 7.75v.399h-2.389V.755h2.261c-.006.774-.006 1.535-.006 2.374z" fill="#A8A8A8"/></svg>