<svg width="16" height="16" fill="none" xmlns="http://www.w3.org/2000/svg"><path d="M6.193 2.176c-.111.297-.213.613-.304.946a12.783 12.783 0 004.222 0 11.123 11.123 0 00-.304-.946C9.296.814 8.62 0 8 0c-.62 0-1.296.814-1.807 2.176zM9.846.215c.31.432.593.978.839 1.632.127.34.242.702.346 1.083a9.852 9.852 0 002.31-.88A7.988 7.988 0 009.846.214zM8 4.235c-.8 0-1.581-.067-2.33-.195a19.568 19.568 0 00-.372 3.491h5.404a19.567 19.567 0 00-.371-3.491c-.75.128-1.532.195-2.331.195zM4.36 8.469H.014a7.966 7.966 0 001.962 4.79c.82-.482 1.76-.855 2.776-1.107a20.548 20.548 0 01-.392-3.683zm7.28 0a20.537 20.537 0 01-.392 3.683c1.016.252 1.955.625 2.776 1.107a7.967 7.967 0 001.962-4.79H11.64zm-7.28-.938c.026-1.303.16-2.555.392-3.683a10.495 10.495 0 01-2.776-1.107 7.966 7.966 0 00-1.962 4.79H4.36zm5.447 6.293c.111-.297.213-.613.304-.946a12.783 12.783 0 00-4.222 0c.091.333.193.649.304.946C6.704 15.187 7.38 16 8 16c.62 0 1.296-.813 1.807-2.176zM8 11.765c.799 0 1.58.067 2.33.195a19.52 19.52 0 00.372-3.491H5.298c.026 1.24.153 2.427.371 3.491A13.85 13.85 0 018 11.765zm3.248-7.917c.231 1.128.366 2.38.392 3.683h4.346a7.967 7.967 0 00-1.962-4.79c-.821.482-1.76.855-2.776 1.107zm-.218 9.222c-.103.38-.218.743-.345 1.083-.246.654-.528 1.2-.84 1.632a7.988 7.988 0 003.496-1.834 9.849 9.849 0 00-2.31-.881zM4.97 2.93a12.1 12.1 0 01.345-1.083c.246-.654.528-1.2.84-1.632A7.988 7.988 0 002.658 2.05c.686.374 1.47.67 2.31.881zm.345 11.223c-.127-.34-.242-.702-.346-1.083a9.848 9.848 0 00-2.31.88 7.988 7.988 0 003.495 1.835c-.31-.432-.593-.978-.839-1.632z" fill="#fff"/></svg>