<svg width="89" height="20" fill="none" xmlns="http://www.w3.org/2000/svg"><path d="M69.548 9.99c0-.51 0-.99-.017-1.432a8.512 8.512 0 00-.127-1.247 4.14 4.14 0 00-.357-1.086 3.517 3.517 0 00-.704-.956 4.509 4.509 0 00-1.432-.966 4.783 4.783 0 00-1.83-.336 4.85 4.85 0 00-1.836.336 4.473 4.473 0 00-1.44.961 3.49 3.49 0 00-.702.956c-.167.345-.285.71-.35 1.086a8.536 8.536 0 00-.123 1.247c-.01.443-.017.923-.014 1.433.003.51 0 .986.014 1.432.01.418.051.835.122 1.247.066.376.184.742.351 1.086.178.355.415.678.702.956.41.41.9.737 1.44.96a4.814 4.814 0 001.837.338 4.744 4.744 0 001.829-.338 4.46 4.46 0 001.432-.96c.287-.278.525-.6.704-.956a4.14 4.14 0 00.357-1.086c.072-.41.114-.826.125-1.243.014-.446.02-.923.017-1.432h.002zm-2.362 0c0 .566-.008 1.037-.028 1.41a7.026 7.026 0 01-.093.918 2.23 2.23 0 01-.188.585c-.072.15-.167.287-.28.41a1.813 1.813 0 01-.64.458 2.228 2.228 0 01-.872.173c-.301.001-.6-.057-.877-.173a1.82 1.82 0 01-.937-.868 2.17 2.17 0 01-.178-.585 7.512 7.512 0 01-.094-.917 32.279 32.279 0 01-.025-1.41c0-.565.008-1.037.025-1.411a7.51 7.51 0 01.094-.918 2.17 2.17 0 01.178-.584 1.83 1.83 0 01.937-.869c.277-.116.575-.175.877-.172.3-.003.597.055.872.172.245.105.463.262.64.459.113.122.208.26.28.41.09.186.153.382.188.584.05.304.082.61.093.918.02.373.028.845.028 1.41zm21.176-5.717a.207.207 0 00-.207-.202h-1.948a.206.206 0 00-.207.202v7.046l-4.75-7.192c-.032-.048-.06-.056-.13-.056h-1.807a.208.208 0 00-.207.202v11.433a.206.206 0 00.207.202h1.947c.114 0 .206-.09.206-.202V8.642l4.751 7.208c.033.05.06.057.13.057h1.806c.114 0 .206-.09.207-.201l.002-11.433zm-13.058 0a.206.206 0 00-.207-.202h-1.946a.206.206 0 00-.207.202v11.433c0 .111.093.202.207.202h1.946a.206.206 0 00.207-.202V4.273zM52.007 9.99c0-.568.007-1.041.024-1.418.011-.308.042-.614.093-.918.18-1.018.977-1.62 1.993-1.62.664.006 1.265.247 1.65.793.173.256.3.539.374.837a.063.063 0 00.068.05h2.29c.033 0 .046-.021.04-.053-.25-1.388-1.006-2.634-2.343-3.252a4.903 4.903 0 00-2.096-.436c-1.29 0-2.377.433-3.26 1.298a3.405 3.405 0 00-.988 1.776c-.135.665-.203 1.646-.204 2.943-.001 1.296.067 2.277.204 2.942a3.41 3.41 0 00.985 1.78c.883.864 1.97 1.296 3.26 1.296.723.01 1.44-.138 2.097-.435 1.336-.617 2.092-1.864 2.342-3.252.006-.032-.006-.053-.04-.053h-2.291a.062.062 0 00-.067.05 2.6 2.6 0 01-.375.836c-.384.55-.986.788-1.65.793-1.016 0-1.813-.6-1.992-1.619a7.169 7.169 0 01-.094-.917c-.013-.379-.02-.853-.02-1.42zM27.81 4.273a.206.206 0 00-.206-.202h-1.947a.206.206 0 00-.207.202v11.433a.206.206 0 00.207.202h1.947c.113 0 .206-.09.207-.202V12.35l1.561-1.828 3.209 5.326a.13.13 0 00.116.06h2.365c.109 0 .128-.066.074-.157l-4.2-6.972 3.853-4.527c.078-.091.045-.179-.077-.179h-2.585a.094.094 0 00-.08.037L27.81 9.084v-4.81zm14.179 9.674c-1.095 0-2.088-.993-2.088-2.178V4.273a.206.206 0 00-.208-.202h-1.946a.206.206 0 00-.207.202v7.466c0 2.61 1.994 4.27 4.449 4.27s4.449-1.66 4.449-4.27V4.273a.207.207 0 00-.207-.202h-1.947a.206.206 0 00-.206.202v7.496c0 1.184-.995 2.178-2.089 2.178zM5.888 9.992l6.042 5.916 3.813-3.734a1.752 1.752 0 012.374.061c.649.635.676 1.657.062 2.325l-5.032 4.928a1.763 1.763 0 01-2.436 0L3.45 12.377v4.227c0 .932-.772 1.689-1.725 1.689-.953 0-1.725-.757-1.725-1.69V3.375c0-.933.772-1.689 1.725-1.689.953 0 1.725.756 1.725 1.69V7.6L10.71.49a1.763 1.763 0 012.436 0l5.036 4.928c.614.668.587 1.69-.062 2.325a1.752 1.752 0 01-2.374.06L11.932 4.07 5.888 9.99zM11.932 8.3c-.698 0-1.328.411-1.596 1.043-.267.632-.12 1.36.374 1.843a1.754 1.754 0 001.882.367 1.69 1.69 0 001.066-1.562c0-.449-.181-.879-.505-1.196a1.746 1.746 0 00-1.22-.496z" fill="#A8A8A8"/></svg>