<svg width="18" height="20" fill="none" xmlns="http://www.w3.org/2000/svg"><path d="M10.048 4.352C11.569 3.074 12.586.194 11.96.068c-.831-.167-2.636.567-3.509.696C7.214.914 5.866-.578 5.11.254c-.615.675.441 3.134 2.094 4.204-4.93 2.423-11.86 14.586.229 15.469 16.726 1.221 8.35-13.214 2.616-15.575zm1.436 9.592a1.759 1.759 0 01-.678 1.194c-.397.308-.894.45-1.389.49v.525a.49.49 0 01-.166.368.496.496 0 01-.531.079.496.496 0 01-.287-.447v-.573a3.239 3.239 0 01-.252-.058 2.416 2.416 0 01-1.203-.74 2.17 2.17 0 01-.432-.791.966.966 0 01-.04-.167.492.492 0 01.957-.204c.019.057.032.115.053.17.02.056.046.11.075.162.059.102.132.195.216.277.174.167.396.276.626.34v-1.946c-.45-.117-.917-.268-1.29-.557a1.5 1.5 0 01-.435-.524 1.637 1.637 0 01-.152-.704 1.678 1.678 0 01.551-1.267c.362-.333.844-.52 1.326-.588V8.44a.5.5 0 01.167-.37.496.496 0 01.53-.078c.174.08.287.257.287.447v.541c.065.008.129.018.193.03.474.085.937.281 1.284.623a1.877 1.877 0 01.463.745c.019.057.037.116.046.176a.492.492 0 01-.946.248c-.02-.053-.03-.11-.052-.164a.937.937 0 00-.313-.399 1.595 1.595 0 00-.675-.263v1.862c.284.068.568.143.84.25.412.162.802.41 1.026.803a.691.691 0 00.001.002c.069.12.036.063.002.002.178.315.237.692.198 1.05z" fill="#FD7B01"/></svg>