<svg width="20" height="18" fill="none" xmlns="http://www.w3.org/2000/svg"><path d="M5.81 10.42c.563 0 1.106-.036 1.62-.103V4.682a12.465 12.465 0 00-1.62-.104C2.603 4.578 0 5.758 0 7.214v.571c0 1.456 2.602 2.636 5.81 2.636zm0 2.943c.563 0 1.106-.036 1.62-.104v-1.651c-.514.067-1.057.104-1.62.104-2.8 0-5.138-.9-5.688-2.096-.08.175-.122.355-.122.54v.572c0 1.455 2.602 2.635 5.81 2.635zm1.62 1.315v-.128c-.514.067-1.057.104-1.62.104-2.8 0-5.139-.899-5.688-2.095-.08.174-.122.354-.122.54v.57c0 1.457 2.602 2.636 5.81 2.636.643 0 1.26-.047 1.837-.134a2.079 2.079 0 01-.217-.921v-.572zM14.19.115c-3.21 0-5.811 1.18-5.811 2.635v.572c0 1.455 2.601 2.635 5.81 2.635C17.4 5.957 20 4.777 20 3.322V2.75C20 1.294 17.398.115 14.19.115z" fill="#FD7B01"/><path d="M14.19 7.248c-2.802 0-5.14-.899-5.69-2.095a1.28 1.28 0 00-.121.54v.57c0 1.457 2.601 2.636 5.81 2.636C17.4 8.9 20 7.72 20 6.264v-.572c0-.185-.042-.365-.122-.54-.55 1.197-2.887 2.096-5.689 2.096z" fill="#FD7B01"/><path d="M14.19 10.19c-2.802 0-5.14-.898-5.69-2.095-.08.174-.121.355-.121.54v.571c0 1.456 2.601 2.636 5.81 2.636 3.21 0 5.811-1.18 5.811-2.636v-.571c0-.185-.042-.366-.122-.54-.55 1.197-2.887 2.096-5.689 2.096z" fill="#FD7B01"/><path d="M14.19 13.292c-2.802 0-5.14-.9-5.69-2.096-.08.175-.121.355-.121.54v.572c0 1.455 2.601 2.635 5.81 2.635 3.21 0 5.811-1.18 5.811-2.635v-.572c0-.185-.042-.366-.122-.54-.55 1.197-2.887 2.096-5.689 2.096z" fill="#FD7B01"/><path d="M14.19 16.234c-2.802 0-5.14-.899-5.69-2.095-.08.174-.121.355-.121.54v.571c0 1.456 2.601 2.636 5.81 2.636 3.21 0 5.811-1.18 5.811-2.636v-.572c0-.185-.042-.365-.122-.54-.55 1.197-2.887 2.096-5.689 2.096z" fill="#FD7B01"/></svg>