<svg width="74" height="20" fill="none" xmlns="http://www.w3.org/2000/svg"><g clip-path="url(#clip0_2:984)" fill="#A8A8A8"><path d="M10.724 5.807l-1.608-.949a1.068 1.068 0 00-.97 0l-1.607.949c-.345.206-.351.541 0 .741l1.607.962a1.03 1.03 0 00.97 0l1.608-.962a.39.39 0 00.259-.37.397.397 0 00-.26-.371z"/><path d="M16.994 4.632L9.224.116a1.068 1.068 0 00-.97 0L.485 4.632A1.098 1.098 0 000 5.484v9.032a1.113 1.113 0 00.485.852l7.77 4.516a1.068 1.068 0 00.97 0l7.77-4.516a1.097 1.097 0 00.484-.852V5.484a1.112 1.112 0 00-.485-.852zM13.537 6.73L9.116 9.36a1.03 1.03 0 01-.97 0L5.34 7.697c-.344-.213-.637-.046-.637.36v5.04a.41.41 0 01-.19.41.398.398 0 01-.448-.023l-.479-.252a1.039 1.039 0 01-.497-.839v-5.47a1.113 1.113 0 01.484-.852L8.14 3.387a1.068 1.068 0 01.97 0l4.42 2.58a.389.389 0 01.294.379.396.396 0 01-.287.383zm13.116 9.657a.125.125 0 01.037-.103.122.122 0 01.103-.032h.262a.132.132 0 01.13.082c.007.017.01.035.01.053v1.407a.163.163 0 01-.083.129 2.376 2.376 0 01-2.354.288 2.396 2.396 0 01-.97-.758 2.435 2.435 0 01-.322-2.376c.155-.39.409-.732.735-.993a2.378 2.378 0 012.343-.361c.217.083.638.277.638.438a.111.111 0 010 .065l-.134.232a.128.128 0 01-.108.071.184.184 0 01-.115-.045 1.9 1.9 0 00-1.11-.368 1.82 1.82 0 00-1.368.503 1.858 1.858 0 00-.577 1.352 1.877 1.877 0 00.577 1.352 1.835 1.835 0 001.368.503c.346.007.686-.092.976-.284l-.038-1.155zm4.823 1.4a.126.126 0 01.1.04.13.13 0 01.034.102v.252a.135.135 0 01-.134.142h-2.654a.12.12 0 01-.107-.035.122.122 0 01-.033-.107v-4.407a.137.137 0 01.09-.135.132.132 0 01.056-.007h.256a.128.128 0 01.134.142v4.013h2.258zm5.684-1.794c-.007.476-.152.94-.418 1.332-.266.393-.64.697-1.077.875a2.362 2.362 0 01-2.59-.544 2.438 2.438 0 01-.503-2.625c.182-.44.488-.814.88-1.078a2.367 2.367 0 013.022.312 2.41 2.41 0 01.686 1.728zm-2.386 1.852a1.83 1.83 0 001.026-.31 1.86 1.86 0 00.681-.836 1.883 1.883 0 00-.395-2.035 1.825 1.825 0 00-2.01-.407c-.337.141-.626.38-.828.687a1.88 1.88 0 00-.311 1.037 1.877 1.877 0 00.535 1.318 1.835 1.835 0 001.302.546zm6.616-2.032c.248.148.443.375.554.645a1.363 1.363 0 01-.4 1.57 1.324 1.324 0 01-.793.295h-2.035a.132.132 0 01-.105-.037.138.138 0 01-.041-.105v-4.394a.138.138 0 01.035-.114.132.132 0 01.111-.04h1.844a1.192 1.192 0 01.9.333 1.218 1.218 0 01.376.892 1.301 1.301 0 01-.447.955zm-.837-1.62h-1.448v1.452h1.449a.72.72 0 00.527-.247.737.737 0 00.18-.56.653.653 0 00-.21-.483.636.636 0 00-.498-.162zm-1.448 1.968v1.626h1.659a.8.8 0 00.568-.238.818.818 0 000-1.15.8.8 0 00-.568-.238h-1.659zm4.542 2.033a.174.174 0 01-.172.129h-.274c-.083 0-.128 0-.128-.104a.302.302 0 010-.084c1.806-4.38 1.812-4.38 1.812-4.387a.154.154 0 01.153-.116h.185a.153.153 0 01.153.116l1.831 4.394a.323.323 0 010 .077c0 .071-.057.104-.14.104h-.268a.177.177 0 01-.166-.123l-.364-.903h-2.252l-.37.896zm.575-1.433h1.83l-.912-2.31-.919 2.31zm7.093 1.026a.126.126 0 01.128.087.132.132 0 01.006.055v.252a.137.137 0 01-.081.13.133.133 0 01-.053.012h-2.654a.12.12 0 01-.106-.035.123.123 0 01-.034-.107v-4.407a.135.135 0 01.147-.142h.255a.127.127 0 01.134.142v4.013h2.258zM23.195 1.994a.234.234 0 01.145-.243.227.227 0 01.098-.016h3.7c.724.024 1.41.335 1.909.866.499.532.771 1.24.757 1.973a2.753 2.753 0 01-.742 1.949c-.493.525-1.17.83-1.886.851h-1.767v2.768c0 .174-.09.258-.268.258h-1.703c-.172 0-.243-.084-.243-.258V1.994zM25.41 3.58v1.935h1.276a.897.897 0 00.65-.29.917.917 0 00.243-.678.954.954 0 00-.247-.675.934.934 0 00-.646-.305l-1.276.013zm6.442-1.586a.24.24 0 01.146-.24.234.234 0 01.097-.018h3.827a2.812 2.812 0 011.959.886c.512.545.792 1.272.778 2.023a2.98 2.98 0 01-.409 1.376c-.245.417-.59.767-1 1.018l1.664 3.103a.162.162 0 01-.14.258h-2.086c-.166 0-.224-.045-.313-.245l-1.378-2.639h-.919v2.626a.233.233 0 01-.152.247.228.228 0 01-.103.011h-1.728c-.166 0-.243-.084-.243-.258V1.994zm2.226 1.542v2.11h1.276c.27-.008.526-.12.715-.316a1.05 1.05 0 00.293-.73 1.09 1.09 0 00-.304-.738 1.066 1.066 0 00-.723-.326h-1.257zm10.814-1.93a4.379 4.379 0 012.453.75 4.454 4.454 0 011.629 2c.335.816.424 1.713.255 2.58a4.48 4.48 0 01-1.205 2.287 4.4 4.4 0 01-2.259 1.225 4.369 4.369 0 01-2.55-.25 4.426 4.426 0 01-1.984-1.641 4.5 4.5 0 01.54-5.638c.41-.416.896-.745 1.432-.97a4.372 4.372 0 011.688-.343zm0 6.775a2.167 2.167 0 001.577-.685 2.217 2.217 0 00.604-1.625 2.22 2.22 0 00-.639-1.56 2.17 2.17 0 00-1.542-.646 2.17 2.17 0 00-1.543.646 2.22 2.22 0 00-.64 1.56 2.235 2.235 0 00.602 1.63 2.187 2.187 0 001.58.686v-.006zm6.729-6.375a.248.248 0 01.148-.252.24.24 0 01.101-.019h3.662a2.451 2.451 0 011.748.738A2.506 2.506 0 0158 4.245a2.3 2.3 0 01-.516 1.497 2.844 2.844 0 01.9 2.045 2.641 2.641 0 01-.75 1.833 2.582 2.582 0 01-1.802.78H51.87a.221.221 0 01-.236-.146.228.228 0 01-.013-.1V2.007zm3.299 1.446h-1.06v1.71h1.04a.814.814 0 00.629-.225.832.832 0 00.258-.62.86.86 0 00-.25-.62.84.84 0 00-.617-.245zm.287 3.27H53.86v1.936h1.346a.94.94 0 00.643-.307.96.96 0 00.25-.674.98.98 0 00-.264-.652.96.96 0 00-.63-.302zm5.856-4.728c0-.175.076-.258.242-.258h1.73a.227.227 0 01.243.154.234.234 0 01.011.104v8.148a.234.234 0 01-.153.247.228.228 0 01-.102.011h-1.729c-.166 0-.242-.084-.242-.258V1.994zm5.097 0a.227.227 0 01.152-.25.22.22 0 01.103-.009h6.258a.222.222 0 01.241.155c.01.034.013.069.008.104v1.483a.23.23 0 01-.064.19.224.224 0 01-.185.068h-2.048v6.407a.235.235 0 01-.067.194.223.223 0 01-.194.064h-1.665a.225.225 0 01-.19-.066.238.238 0 01-.066-.192V3.735h-2.028a.226.226 0 01-.19-.066.23.23 0 01-.054-.088.244.244 0 01-.011-.104V1.994z"/></g><defs><clipPath id="clip0_2:984"><path fill="#fff" d="M0 0h74v20H0z"/></clipPath></defs></svg>