<svg width="160" height="160" fill="none" xmlns="http://www.w3.org/2000/svg"><path d="M26.26 133.74c-1.562 1.562-4.103 1.569-5.585-.07A79.993 79.993 0 016.09 49.385a80 80 0 11133.235 84.285c-1.482 1.639-4.023 1.632-5.585.07-1.562-1.562-1.553-4.087-.08-5.734a72.001 72.001 0 0012.859-75.56 71.998 71.998 0 00-133.038 0 72 72 0 0012.859 75.56c1.473 1.647 1.482 4.172-.08 5.734z" fill="#FD7B01" fill-opacity=".08"/><path d="M26.26 133.74c-1.562 1.562-4.103 1.569-5.585-.069A80.014 80.014 0 01.483 71.221a80 80 0 01153.339-22.048c.851 2.038-.237 4.335-2.315 5.083-2.079.748-4.36-.335-5.222-2.37A72.002 72.002 0 008.435 72.1a71.998 71.998 0 0017.905 55.907c1.473 1.647 1.482 4.172-.08 5.734z" fill="#FD7B01"/><path d="M32.653 84v-2.568h4.608V69.528h-.216l-3.648 4.32-1.968-1.656 4.152-4.944h4.776v14.184h3.84V84H32.653zm14.39 0v-2.568h4.608V69.528h-.216l-3.648 4.32-1.968-1.656 4.152-4.944h4.776v14.184h3.84V84H47.043zm15.783.264c-.656 0-1.144-.16-1.464-.48-.304-.336-.456-.76-.456-1.272v-.432c0-.512.152-.936.456-1.272.32-.336.808-.504 1.464-.504.672 0 1.16.168 1.464.504.304.336.456.76.456 1.272v.432c0 .512-.152.936-.456 1.272-.304.32-.792.48-1.464.48zm16.7-.264H67.91v-2.928l5.256-4.608c.896-.784 1.552-1.488 1.968-2.112.416-.64.624-1.328.624-2.064v-.312c0-.736-.24-1.296-.72-1.68-.48-.4-1.064-.6-1.752-.6-.864 0-1.52.248-1.968.744a4.16 4.16 0 00-.96 1.752l-2.736-1.056a6.51 6.51 0 01.744-1.584c.32-.512.72-.96 1.2-1.344a5.923 5.923 0 011.728-.912c.656-.224 1.408-.336 2.256-.336.88 0 1.664.128 2.352.384.688.24 1.264.584 1.728 1.032.48.448.84.976 1.08 1.584.256.608.384 1.272.384 1.992 0 .704-.112 1.344-.336 1.92a7.324 7.324 0 01-.912 1.656 11.525 11.525 0 01-1.344 1.488c-.512.464-1.056.936-1.632 1.416l-3.528 2.904h8.184V84zm8.734 0V71.472h3.072v2.088h.12a4.061 4.061 0 011.152-1.68c.528-.464 1.264-.696 2.208-.696.864 0 1.608.208 2.232.624.624.416 1.088 1.048 1.392 1.896h.048c.224-.704.664-1.296 1.32-1.776.672-.496 1.512-.744 2.52-.744 1.232 0 2.176.424 2.832 1.272.672.848 1.008 2.056 1.008 3.624V84h-3.072v-7.608c0-1.792-.672-2.688-2.016-2.688-.304 0-.6.048-.888.144a2.2 2.2 0 00-.744.384c-.208.16-.376.368-.504.624-.128.24-.192.528-.192.864V84h-3.072v-7.608c0-1.792-.672-2.688-2.016-2.688-.288 0-.576.048-.864.144-.272.08-.52.208-.744.384-.208.16-.384.368-.528.624-.128.24-.192.528-.192.864V84H88.26zm22.841-14.352c-.64 0-1.104-.144-1.392-.432-.272-.288-.408-.656-.408-1.104v-.48c0-.448.136-.816.408-1.104.288-.288.752-.432 1.392-.432.624 0 1.08.144 1.368.432.288.288.432.656.432 1.104v.48c0 .448-.144.816-.432 1.104-.288.288-.744.432-1.368.432zm-1.536 1.824h3.072V84h-3.072V71.472zM116.198 84V71.472h3.072v2.088h.12a3.966 3.966 0 011.2-1.68c.56-.464 1.328-.696 2.304-.696 1.296 0 2.288.424 2.976 1.272.688.848 1.032 2.056 1.032 3.624V84h-3.072v-7.608c0-.896-.16-1.568-.48-2.016-.32-.448-.848-.672-1.584-.672-.32 0-.632.048-.936.144-.288.08-.552.208-.792.384-.224.16-.408.368-.552.624-.144.24-.216.528-.216.864V84h-3.072z" fill="#fff"/><path d="M39.169 105.168c-1.241 0-2.207-.42-2.898-1.26-.69-.849-1.036-2.095-1.036-3.738 0-1.643.345-2.903 1.036-3.78.69-.887 1.657-1.33 2.898-1.33.821 0 1.507.187 2.058.56.56.373.994.9 1.302 1.582l-.952.574a2.666 2.666 0 00-.896-1.204c-.401-.308-.905-.462-1.512-.462-.42 0-.798.08-1.134.238a2.372 2.372 0 00-.84.686c-.224.29-.397.64-.518 1.05a4.686 4.686 0 00-.182 1.358v1.456c0 1.008.233 1.797.7 2.366.466.569 1.124.854 1.974.854.625 0 1.148-.159 1.568-.476.42-.327.728-.756.924-1.288l.938.588c-.308.691-.752 1.237-1.33 1.638-.579.392-1.279.588-2.1.588zm9.591-1.344h-.056a3.403 3.403 0 01-.28.504 1.903 1.903 0 01-.392.434 1.97 1.97 0 01-.574.294 2.473 2.473 0 01-.784.112c-.746 0-1.34-.238-1.778-.714-.438-.485-.658-1.167-.658-2.044v-4.634h1.12v4.438c0 1.297.55 1.946 1.652 1.946.224 0 .439-.028.644-.084a1.71 1.71 0 00.56-.252 1.203 1.203 0 00.546-1.05v-4.998h1.12V105h-1.12v-1.176zM52.265 105v-7.224h1.12v1.33h.07c.13-.345.364-.653.7-.924.336-.27.798-.406 1.386-.406h.434v1.12h-.658c-.606 0-1.083.117-1.428.35-.336.224-.504.509-.504.854v4.9h-1.12zm5.14 0v-7.224h1.12v1.33h.07c.132-.345.365-.653.7-.924.337-.27.799-.406 1.387-.406h.434v1.12h-.658c-.607 0-1.083.117-1.428.35-.336.224-.504.509-.504.854v4.9h-1.12zm7.79.168c-.496 0-.944-.089-1.345-.266a3 3 0 01-1.022-.756 3.77 3.77 0 01-.658-1.19 5.132 5.132 0 01-.224-1.568c0-.569.075-1.087.224-1.554.159-.467.378-.863.658-1.19a2.93 2.93 0 011.022-.77 3.29 3.29 0 011.344-.266c.485 0 .92.089 1.302.266.383.177.71.425.98.742.27.308.476.677.616 1.106.15.429.224.901.224 1.414v.532h-5.194v.336c0 .308.047.597.14.868.103.261.243.49.42.686.187.196.41.35.672.462.27.112.574.168.91.168.457 0 .854-.107 1.19-.322a2.1 2.1 0 00.798-.924l.798.574a2.818 2.818 0 01-1.092 1.204c-.495.299-1.083.448-1.764.448zm0-6.622a2.04 2.04 0 00-.84.168 1.876 1.876 0 00-.659.448 2.354 2.354 0 00-.574 1.568v.098h3.99v-.154c0-.644-.177-1.157-.532-1.54-.345-.392-.807-.588-1.386-.588zM70.161 105v-7.224h1.12v1.176h.056a2.4 2.4 0 01.742-.98c.326-.243.76-.364 1.302-.364.746 0 1.334.243 1.764.728.438.476.658 1.153.658 2.03V105h-1.12v-4.438c0-1.297-.546-1.946-1.638-1.946-.224 0-.444.028-.658.084-.206.056-.392.14-.56.252a1.292 1.292 0 00-.406.434 1.22 1.22 0 00-.14.602V105h-1.12zm9.553 0c-.392 0-.691-.107-.896-.322-.196-.224-.294-.513-.294-.868v-5.054h-1.19v-.98h.672c.242 0 .406-.047.49-.14.093-.103.14-.275.14-.518v-1.344h1.008v2.002h1.582v.98h-1.582v5.264h1.47v.98h-1.4zm8.79.168c-.671 0-1.236-.126-1.694-.378a3.958 3.958 0 01-1.162-1.036l.799-.644c.28.355.592.63.938.826.345.187.746.28 1.204.28.475 0 .844-.103 1.105-.308.271-.205.407-.495.407-.868a.997.997 0 00-.28-.714c-.178-.205-.505-.345-.98-.42l-.575-.084a5.23 5.23 0 01-.923-.21 2.946 2.946 0 01-.742-.392 1.858 1.858 0 01-.49-.616 2.058 2.058 0 01-.168-.868c0-.355.065-.663.195-.924a1.91 1.91 0 01.532-.672c.234-.177.51-.308.826-.392.318-.093.659-.14 1.022-.14.588 0 1.078.103 1.47.308.402.205.752.49 1.05.854l-.742.672c-.158-.224-.391-.425-.7-.602-.307-.187-.695-.28-1.161-.28-.467 0-.822.103-1.065.308-.233.196-.35.467-.35.812 0 .355.117.611.35.77.243.159.589.275 1.037.35l.56.084c.802.121 1.371.355 1.707.7.337.336.505.779.505 1.33 0 .7-.239 1.251-.715 1.652-.475.401-1.129.602-1.96.602zm4.653-7.392h1.12v1.176h.056c.186-.457.457-.793.812-1.008.364-.224.798-.336 1.302-.336.448 0 .854.089 1.218.266.364.177.672.43.924.756.261.327.457.723.588 1.19.14.467.21.989.21 1.568 0 .579-.07 1.101-.21 1.568-.13.467-.327.863-.588 1.19-.252.327-.56.579-.924.756-.364.177-.77.266-1.218.266-.98 0-1.685-.448-2.114-1.344h-.056v3.976h-1.12V97.776zm2.982 6.384c.634 0 1.134-.196 1.498-.588.364-.401.546-.924.546-1.568v-1.232c0-.644-.182-1.162-.546-1.554-.364-.401-.864-.602-1.498-.602-.252 0-.495.037-.728.112-.224.065-.42.159-.588.28-.168.121-.304.27-.406.448-.094.168-.14.35-.14.546v2.688c0 .233.046.443.14.63.102.177.238.331.406.462.168.121.364.215.588.28a2.7 2.7 0 00.728.098zm7.855 1.008c-.495 0-.943-.089-1.344-.266a2.996 2.996 0 01-1.022-.756 3.776 3.776 0 01-.658-1.19 5.141 5.141 0 01-.224-1.568c0-.569.075-1.087.224-1.554.159-.467.378-.863.658-1.19.289-.336.63-.593 1.022-.77a3.289 3.289 0 011.344-.266c.485 0 .919.089 1.302.266.383.177.709.425.98.742.271.308.476.677.616 1.106.149.429.224.901.224 1.414v.532h-5.194v.336c0 .308.047.597.14.868.103.261.243.49.42.686.187.196.411.35.672.462.271.112.574.168.91.168.457 0 .854-.107 1.19-.322.345-.215.611-.523.798-.924l.798.574a2.814 2.814 0 01-1.092 1.204c-.495.299-1.083.448-1.764.448zm0-6.622c-.308 0-.588.056-.84.168a1.879 1.879 0 00-.658.448 2.348 2.348 0 00-.574 1.568v.098h3.99v-.154c0-.644-.177-1.157-.532-1.54-.345-.392-.807-.588-1.386-.588zm7.683 6.622a3.3 3.3 0 01-1.344-.266 3.006 3.006 0 01-1.022-.756 3.776 3.776 0 01-.658-1.19 5.141 5.141 0 01-.224-1.568c0-.569.075-1.087.224-1.554.159-.467.378-.863.658-1.19.29-.336.63-.593 1.022-.77a3.3 3.3 0 011.344-.266c.486 0 .92.089 1.302.266.383.177.71.425.98.742.271.308.476.677.616 1.106.15.429.224.901.224 1.414v.532h-5.194v.336c0 .308.047.597.14.868.103.261.243.49.42.686.187.196.411.35.672.462.271.112.574.168.91.168.458 0 .854-.107 1.19-.322.346-.215.612-.523.798-.924l.798.574a2.814 2.814 0 01-1.092 1.204c-.494.299-1.082.448-1.764.448zm0-6.622c-.308 0-.588.056-.84.168a1.879 1.879 0 00-.658.448c-.177.196-.317.43-.42.7a2.369 2.369 0 00-.154.868v.098h3.99v-.154c0-.644-.177-1.157-.532-1.54-.345-.392-.807-.588-1.386-.588zm9.588 5.278h-.056c-.439.896-1.143 1.344-2.114 1.344-.448 0-.854-.089-1.218-.266a2.7 2.7 0 01-.938-.756 3.64 3.64 0 01-.588-1.19 5.8 5.8 0 01-.196-1.568 5.8 5.8 0 01.196-1.568 3.64 3.64 0 01.588-1.19 2.7 2.7 0 01.938-.756c.364-.177.77-.266 1.218-.266.504 0 .933.112 1.288.336.364.215.639.55.826 1.008h.056V94.64h1.12V105h-1.12v-1.176zm-1.862.336c.252 0 .49-.033.714-.098a1.89 1.89 0 00.602-.28c.168-.131.299-.285.392-.462.103-.187.154-.397.154-.63v-2.688c0-.196-.051-.378-.154-.546a1.283 1.283 0 00-.392-.448 1.89 1.89 0 00-.602-.28 2.242 2.242 0 00-.714-.112c-.635 0-1.134.2-1.498.602-.364.392-.546.91-.546 1.554v1.232c0 .644.182 1.167.546 1.568.364.392.863.588 1.498.588z" fill="#797A81"/></svg>