<svg width="22" height="24" fill="none" xmlns="http://www.w3.org/2000/svg"><path d="M6 8.555c.076.92.248 2.18.64 3.503.83 2.81 2.296 4.807 4.36 5.942 2.065-1.135 3.531-3.133 4.362-5.942.39-1.323.563-2.583.638-3.503L11 6 6 8.555z" fill="#FD7B01"/><path d="M21.587 5.609a.703.703 0 00-.387-.592L11.315.074a.703.703 0 00-.629 0L.801 5.017a.703.703 0 00-.387.592c-.008.144-.17 3.57.997 7.548.69 2.354 1.706 4.41 3.02 6.11a14.29 14.29 0 006.32 4.687.704.704 0 00.5 0 14.29 14.29 0 006.32-4.686c1.313-1.701 2.329-3.757 3.02-6.11 1.166-3.979 1.004-7.405.996-7.55zM11.312 20.863a.702.702 0 01-.623 0c-3.131-1.548-5.33-4.357-6.535-8.348-.603-1.996-.82-3.877-.897-5.103a.703.703 0 01.388-.673l7.041-3.52a.703.703 0 01.629 0l7.042 3.52a.703.703 0 01.387.673c-.077 1.227-.294 3.108-.897 5.103-1.205 3.991-3.404 6.8-6.535 8.348z" fill="#FD7B01"/></svg>