<svg width="56" height="56" fill="none" xmlns="http://www.w3.org/2000/svg"><path d="M51.506 14.414c-.067-1.473-.067-2.88-.067-4.285 0-1.139-.87-2.01-2.009-2.01-8.37 0-14.732-2.41-20.023-7.567a2.066 2.066 0 00-2.812 0C21.305 5.71 14.943 8.12 6.572 8.12c-1.138 0-2.009.87-2.009 2.009 0 1.406 0 2.812-.067 4.285-.268 14.063-.67 33.35 22.836 41.452l.67.134.669-.134c23.438-8.103 23.103-27.322 22.835-41.452zM26.394 33.901c-.402.335-.87.536-1.406.536h-.067a1.885 1.885 0 01-1.406-.67l-6.228-6.897 3.013-2.679 4.889 5.425 10.848-10.313 2.746 2.946-12.389 11.652z" fill="#FD7B01"/></svg>