<svg width="16" height="16" fill="none" xmlns="http://www.w3.org/2000/svg"><g clip-path="url(#clip0_2:1713)" fill="#FD7B01"><path d="M4.667 5.703c.05.614.165 1.454.425 2.336C5.646 9.91 6.624 11.243 8 12c1.376-.757 2.354-2.089 2.907-3.961.26-.882.376-1.722.426-2.336L8 4 4.667 5.703z"/><path d="M15.058 3.74a.469.469 0 00-.259-.396L8.21.05a.469.469 0 00-.419 0L1.2 3.344a.469.469 0 00-.258.395c-.005.096-.113 2.38.665 5.033.46 1.569 1.137 2.94 2.013 4.073a9.528 9.528 0 004.213 3.124.47.47 0 00.334 0 9.528 9.528 0 004.213-3.124c.875-1.134 1.553-2.504 2.013-4.073.778-2.652.67-4.937.665-5.033zm-6.85 10.168a.468.468 0 01-.416 0c-2.087-1.031-3.553-2.904-4.356-5.564a15.303 15.303 0 01-.598-3.403.469.469 0 01.258-.448L7.79 2.146a.469.469 0 01.42 0l4.694 2.347c.168.084.27.26.258.448a15.304 15.304 0 01-.598 3.403c-.803 2.66-2.27 4.532-4.356 5.565z"/></g><defs><clipPath id="clip0_2:1713"><path fill="#fff" d="M0 0h16v16H0z"/></clipPath></defs></svg>