<svg width="171" height="32" fill="none" xmlns="http://www.w3.org/2000/svg"><g clip-path="url(#clip0_2:625)"><path d="M0 .009h31.983v31.983H0V.008zm34.648 0h31.983v31.983H34.648V.008zm34.648 0h31.983v31.983H69.296V.008zm34.649 0h31.983v31.983h-31.983V.008zm34.648 0h31.983v31.983h-31.983V.008z" fill="#00B67A"/><path d="M15.991 21.564l4.864-1.233 2.033 6.263-6.897-5.03zm11.194-8.096h-8.562l-2.632-8.062-2.631 8.062H4.796l6.93 4.997-2.632 8.063 6.93-4.998 4.264-3.065 6.896-4.997zm23.455 8.096l4.864-1.233 2.032 6.263-6.896-5.03zm11.194-8.096H53.27l-2.63-8.062-2.632 8.062h-8.562l6.93 4.997-2.633 8.063 6.93-4.998 4.264-3.065 6.897-4.997zm23.454 8.096l4.864-1.233 2.032 6.263-6.896-5.03zm11.194-8.096H87.92l-2.632-8.062-2.632 8.062h-8.562l6.93 4.997-2.633 8.063 6.93-4.998 4.264-3.065 6.897-4.997zm23.454 8.096l4.864-1.233 2.032 6.263-6.896-5.03zm11.194-8.096h-8.562l-2.632-8.062-2.632 8.062h-8.562l6.93 4.997-2.632 8.063 6.929-4.998 4.265-3.065 6.896-4.997zm23.454 8.096l4.864-1.233 2.032 6.263-6.896-5.03zm11.194-8.096h-8.562l-2.632-8.062-2.632 8.062h-8.562l6.93 4.997-2.632 8.063 6.929-4.998 4.265-3.065 6.896-4.997z" fill="#fff"/></g><defs><clipPath id="clip0_2:625"><path fill="#fff" d="M0 0h170.576v32H0z"/></clipPath></defs></svg>