<svg width="112" height="24" fill="none" xmlns="http://www.w3.org/2000/svg"><path d="M.025 0h15.312v2.852H9.308v16.075H6.004V2.852H0L.025 0zm14.657 5.224h2.825v2.65h.05a3.33 3.33 0 01.53-1.085c.252-.354.555-.682.933-.96.354-.302.757-.53 1.211-.706a3.523 3.523 0 011.337-.278c.353 0 .606.026.732.026.126.025.277.05.403.05v2.902c-.201-.05-.428-.075-.655-.1-.227-.026-.43-.051-.656-.051a3.5 3.5 0 00-1.438.303c-.454.202-.833.504-1.186.883a4.784 4.784 0 00-.807 1.464c-.202.58-.303 1.262-.303 2.019v6.51h-3.027l.05-13.627zm21.896 13.703H33.6V17.01h-.05c-.379.707-.934 1.237-1.665 1.666a4.393 4.393 0 01-2.245.631c-1.791 0-3.103-.429-3.91-1.338-.808-.883-1.211-2.246-1.211-4.037V5.224h3.027v8.404c0 1.211.227 2.07.706 2.549.454.504 1.11.757 1.943.757.63 0 1.16-.101 1.589-.303.429-.202.782-.454 1.034-.782.278-.329.454-.732.58-1.187a5.61 5.61 0 00.177-1.489V5.225h3.027v13.703h-.025zm5.146-4.39c.1.883.429 1.488 1.009 1.867.58.353 1.286.53 2.094.53.277 0 .605-.026.958-.076s.707-.126 1.01-.252c.327-.127.58-.303.781-.556.202-.252.303-.555.278-.933-.025-.379-.152-.707-.429-.96-.277-.252-.605-.428-1.01-.605a8.744 8.744 0 00-1.412-.378c-.53-.101-1.06-.228-1.614-.354a17.422 17.422 0 01-1.64-.454 4.7 4.7 0 01-1.413-.732c-.403-.303-.756-.681-.983-1.16-.253-.48-.379-1.036-.379-1.742 0-.757.177-1.363.555-1.868a4.024 4.024 0 011.388-1.211 6.296 6.296 0 011.866-.656 10.683 10.683 0 011.943-.177c.706 0 1.387.076 2.018.227.63.152 1.236.379 1.74.732.53.328.959.783 1.287 1.312.353.53.555 1.187.656 1.944h-3.153c-.152-.732-.48-1.212-.984-1.464-.53-.252-1.11-.379-1.791-.379-.202 0-.48.026-.757.05a4.476 4.476 0 00-.832.203c-.253.1-.48.252-.656.429-.177.176-.278.429-.278.732 0 .378.126.656.379.883.252.227.58.404 1.009.58.403.152.883.278 1.412.379.53.1 1.085.227 1.64.353.555.126 1.085.278 1.614.454.53.177 1.01.404 1.413.732a3.64 3.64 0 011.01 1.136c.251.454.377 1.035.377 1.69 0 .808-.176 1.49-.554 2.07a4.718 4.718 0 01-1.438 1.388c-.58.354-1.262.606-1.968.783-.732.151-1.438.252-2.144.252a9.035 9.035 0 01-2.397-.303c-.731-.202-1.387-.505-1.917-.883-.53-.404-.959-.883-1.261-1.49-.303-.58-.48-1.286-.505-2.119H41.7v.025h.025zm9.964-9.313h2.296V1.085h3.027V5.2h2.724v2.246h-2.724v7.318c0 .329.025.58.05.833.026.227.101.43.177.58.1.152.252.278.429.354.201.076.454.126.807.126.202 0 .429 0 .63-.025.202-.025.43-.05.631-.101v2.347c-.328.05-.656.076-.984.1-.328.051-.63.051-.983.051-.808 0-1.438-.075-1.918-.227-.479-.151-.857-.378-1.135-.656a2.346 2.346 0 01-.555-1.085c-.1-.43-.151-.96-.176-1.514V7.47h-2.296V5.174v.05zm10.166 0h2.85v1.867h.051c.43-.807 1.01-1.362 1.766-1.716a5.717 5.717 0 012.472-.53c1.085 0 2.018.177 2.826.58.807.38 1.463.884 1.992 1.566.53.656.934 1.438 1.186 2.321.252.884.404 1.843.404 2.827 0 .934-.126 1.817-.353 2.675-.253.858-.606 1.64-1.085 2.296a5.367 5.367 0 01-1.842 1.59c-.756.404-1.614.606-2.623.606-.43 0-.883-.05-1.312-.126a5.582 5.582 0 01-1.261-.379 4.528 4.528 0 01-1.11-.681 3.848 3.848 0 01-.858-.96h-.05V24H61.88V5.224h-.026zm10.57 6.864c0-.605-.076-1.211-.252-1.791a4.571 4.571 0 00-.732-1.54 4.035 4.035 0 00-1.186-1.085c-.479-.278-1.034-.404-1.64-.404-1.26 0-2.22.43-2.875 1.312-.63.884-.959 2.07-.959 3.534 0 .706.076 1.337.253 1.917.176.581.403 1.086.757 1.515.327.429.731.757 1.21 1.01.48.252 1.01.378 1.64.378.706 0 1.261-.152 1.74-.43.48-.277.858-.655 1.186-1.084.303-.455.53-.96.656-1.54a8.665 8.665 0 00.202-1.792zM77.747 0h3.027v2.852h-3.027V0zm0 5.224h3.027v13.703h-3.027V5.224zM83.473 0H86.5v18.927h-3.027V0zm12.26 19.306c-1.085 0-2.069-.177-2.926-.555-.858-.379-1.564-.858-2.17-1.49a6.483 6.483 0 01-1.337-2.296 8.975 8.975 0 01-.48-2.902c0-1.035.152-1.994.48-2.877a6.712 6.712 0 011.337-2.296 6.05 6.05 0 012.17-1.49 7.654 7.654 0 012.926-.555c1.084 0 2.068.177 2.926.556a6.273 6.273 0 012.169 1.489 6.46 6.46 0 011.337 2.296 8.81 8.81 0 01.48 2.877c0 1.06-.152 2.019-.48 2.902-.327.884-.756 1.64-1.337 2.297a6.047 6.047 0 01-2.169 1.489c-.858.353-1.816.555-2.926.555zm0-2.398c.656 0 1.261-.15 1.74-.428.505-.278.883-.657 1.211-1.11.328-.455.555-.985.707-1.54a6.926 6.926 0 000-3.508 4.527 4.527 0 00-.707-1.54 3.834 3.834 0 00-1.21-1.085 3.557 3.557 0 00-1.741-.429c-.656 0-1.261.152-1.74.43-.505.277-.884.655-1.212 1.084a4.525 4.525 0 00-.706 1.54 6.878 6.878 0 000 3.508 4.53 4.53 0 00.706 1.54c.328.453.732.832 1.211 1.11.505.302 1.085.428 1.74.428zm7.82-11.684h2.295V1.085h3.028V5.2h2.724v2.246h-2.724v7.318c0 .329.025.58.05.833.025.227.101.43.177.58a.987.987 0 00.428.354c.202.076.455.126.808.126.202 0 .429 0 .63-.025.202-.025.429-.05.631-.101v2.347c-.328.05-.656.076-.984.1-.328.051-.63.051-.984.051-.807 0-1.438-.075-1.917-.227-.479-.151-.858-.378-1.135-.656a2.352 2.352 0 01-.555-1.085c-.101-.43-.151-.96-.177-1.514V7.47h-2.295V5.173v.051z" fill="#fff"/></svg>