<svg width="56" height="56" fill="none" xmlns="http://www.w3.org/2000/svg"><g clip-path="url(#clip0_2:144)" fill="#FD7B01"><path d="M51.201 43.061a33.325 33.325 0 00-.453-3.538 27.885 27.885 0 00-.87-3.558 17.57 17.57 0 00-1.463-3.318c-.632-1.11-1.373-2.078-2.206-2.874-.87-.833-1.935-1.502-3.168-1.99-1.227-.486-2.588-.732-4.044-.732-.572 0-1.124.234-2.192.93-.657.428-1.426.923-2.284 1.472-.733.467-1.727.905-2.954 1.301a11.733 11.733 0 01-3.614.584c-1.2 0-2.416-.196-3.615-.584-1.226-.396-2.22-.834-2.952-1.301-.85-.543-1.62-1.039-2.286-1.473-1.066-.695-1.62-.93-2.191-.93-1.456 0-2.817.247-4.044.733-1.232.487-2.297 1.157-3.169 1.99-.832.797-1.574 1.764-2.204 2.874a17.604 17.604 0 00-1.463 3.319 27.95 27.95 0 00-.87 3.557 33.199 33.199 0 00-.453 3.54 48 48 0 00-.112 3.306c0 2.923.929 5.29 2.761 7.035C9.165 55.126 11.56 56 14.472 56h26.964c2.912 0 5.306-.873 7.117-2.596 1.832-1.744 2.762-4.11 2.762-7.035 0-1.129-.039-2.241-.114-3.308z"/><path fill-rule="evenodd" clip-rule="evenodd" d="M37.138 23.024c-2.622 2.622-5.831 3.951-9.537 3.951-3.705 0-6.914-1.33-9.536-3.95-2.623-2.623-3.952-5.831-3.952-9.538 0-3.705 1.33-6.914 3.951-9.536C20.686 1.33 23.894 0 27.601 0c3.705 0 6.914 1.33 9.536 3.95 2.623 2.624 3.952 5.832 3.952 9.537 0 3.707-1.33 6.915-3.951 9.537zm-10.524-8.875c-.364.56-.546 1.148-.546 1.764h2.898c0-.336.119-.672.357-1.008.252-.336.546-.658.882-.966.35-.322.693-.658 1.029-1.008.35-.364.644-.798.882-1.302.252-.504.378-1.05.378-1.638 0-1.288-.47-2.296-1.407-3.024-.924-.742-2.023-1.113-3.297-1.113-1.134 0-2.163.287-3.087.861-.91.56-1.575 1.358-1.995 2.394l2.478 1.428c.49-1.246 1.323-1.869 2.499-1.869.602 0 1.07.133 1.407.4.336.265.504.643.504 1.133 0 .462-.19.924-.567 1.386a7.592 7.592 0 01-1.197 1.218c-.434.336-.84.784-1.218 1.344zm.903 6.972c.49 0 .91-.175 1.26-.525.35-.35.525-.77.525-1.26s-.175-.91-.525-1.26c-.35-.35-.77-.525-1.26-.525s-.91.175-1.26.525c-.35.35-.525.77-.525 1.26s.175.91.525 1.26c.35.35.77.525 1.26.525z"/></g><defs><clipPath id="clip0_2:144"><path fill="#fff" d="M0 0h56v56H0z"/></clipPath></defs></svg>