<svg width="29" height="61" fill="none" xmlns="http://www.w3.org/2000/svg"><path fill-rule="evenodd" clip-rule="evenodd" d="M3.435.326a.8.8 0 011.131 0L7.49 3.25H24A4.75 4.75 0 0128.75 8v44A4.75 4.75 0 0124 56.75H5.784l2.989 2.989a.548.548 0 010 .774l-.328.327a.543.543 0 01-.387.16.543.543 0 01-.386-.16l-4.45-4.45a.544.544 0 01-.16-.388c0-.147.056-.285.16-.388l4.454-4.454a.543.543 0 01.387-.16c.146 0 .283.057.386.16l.328.327c.103.103.16.24.16.387a.543.543 0 01-.16.387l-2.989 2.99H24A3.25 3.25 0 0027.25 52V8A3.25 3.25 0 0024 4.75H7.496l-2.93 2.93a.8.8 0 01-1.131 0L.324 4.568a.8.8 0 010-1.131L3.434.326z" fill="#56575C"/></svg>