<svg width="146" height="44" viewBox="0 0 146 44" fill="none" xmlns="http://www.w3.org/2000/svg">
<path d="M140.593 0H5.40741C2.42098 0 0 2.46243 0 5.5V38.5C0 41.5376 2.42098 44 5.40741 44H140.593C143.579 44 146 41.5376 146 38.5V5.5C146 2.46243 143.579 0 140.593 0Z" fill="black"/>
<path d="M51.9368 30.6135H47.2635L46.1721 33.9167H43.875L48.3812 20.9992H50.9335L55.4485 33.9167H53.0105L51.9368 30.6135ZM47.7915 28.7873H51.4088L49.6837 23.461H49.5341L47.7915 28.7873ZM62.8281 23.9622C64.0484 23.9622 65.0136 24.4128 65.7236 25.3139C66.4394 26.2151 66.7974 27.4505 66.7974 29.02C66.7974 30.5836 66.4452 31.8159 65.7412 32.7171C65.0312 33.6242 64.069 34.0778 62.8545 34.0778C61.4169 34.0778 60.4371 33.5287 59.9148 32.4307H59.7652V37.0498H57.5826V24.1234H59.686V25.7437H59.8357C60.1114 25.1886 60.5133 24.753 61.0414 24.4367C61.5753 24.1204 62.1709 23.9622 62.8281 23.9622ZM62.1416 32.1889C62.8984 32.1889 63.491 31.9084 63.9194 31.3475C64.3419 30.7865 64.553 30.0107 64.553 29.02C64.553 28.0294 64.3389 27.2535 63.9105 26.6925C63.4881 26.1316 62.9014 25.8511 62.1503 25.8511C61.4052 25.8511 60.8155 26.1345 60.3813 26.7015C59.9472 27.2684 59.7271 28.0413 59.7212 29.02C59.7271 29.9987 59.9472 30.7716 60.3813 31.3385C60.8096 31.9055 61.3964 32.1889 62.1416 32.1889ZM74.4145 23.9622C75.635 23.9622 76.6002 24.4128 77.3101 25.3139C78.0259 26.2151 78.3838 27.4505 78.3838 29.02C78.3838 30.5836 78.0318 31.8159 77.3277 32.7171C76.6177 33.6242 75.6555 34.0778 74.4409 34.0778C73.0034 34.0778 72.0235 33.5287 71.5014 32.4307H71.3517V37.0498H69.1691V24.1234H71.2725V25.7437H71.4221C71.6979 25.1886 72.0999 24.753 72.6279 24.4367C73.1618 24.1204 73.7574 23.9622 74.4145 23.9622ZM73.728 32.1889C74.4849 32.1889 75.0775 31.9084 75.5059 31.3475C75.9283 30.7865 76.1396 30.0107 76.1396 29.02C76.1396 28.0294 75.9254 27.2535 75.4971 26.6925C75.0746 26.1316 74.4879 25.8511 73.7369 25.8511C72.9916 25.8511 72.402 26.1345 71.9678 26.7015C71.5336 27.2684 71.3136 28.0413 71.3078 29.02C71.3136 29.9987 71.5336 30.7716 71.9678 31.3385C72.3961 31.9055 72.9829 32.1889 73.728 32.1889ZM87.607 30.4076C87.6774 30.9864 87.9738 31.446 88.4959 31.7861C89.0182 32.1323 89.6811 32.3053 90.4854 32.3053C91.2361 32.3053 91.8517 32.1293 92.3329 31.7772C92.8205 31.431 93.0638 30.9864 93.0638 30.4433C93.0638 29.9778 92.8791 29.5989 92.5096 29.3065C92.1455 29.0141 91.5561 28.7723 90.7405 28.5814L89.0944 28.1965C86.8355 27.6773 85.706 26.4718 85.706 24.58C85.706 23.4042 86.1372 22.4614 86.9998 21.7511C87.8681 21.035 89.0122 20.6769 90.4322 20.6769C91.7643 20.6769 92.8674 21.0291 93.7416 21.7332C94.6158 22.4374 95.079 23.3446 95.1322 24.4546H92.9584C92.8818 23.8876 92.615 23.4371 92.1572 23.1028C91.6994 22.7686 91.1217 22.6015 90.4232 22.6015C89.69 22.6015 89.1033 22.7657 88.6632 23.0939C88.2173 23.4281 87.9943 23.8697 87.9943 24.4188C87.9943 24.8544 88.1673 25.2065 88.5136 25.4751C88.8598 25.7496 89.4259 25.9793 90.2123 26.1644L91.6732 26.5046C92.9584 26.797 93.8912 27.2326 94.4716 27.8115C95.0466 28.3904 95.334 29.1722 95.334 30.1569C95.334 31.4161 94.8888 32.4098 93.9966 33.1379C93.099 33.8719 91.8814 34.239 90.3439 34.239C88.889 34.239 87.7127 33.8928 86.8149 33.2006C85.9231 32.5082 85.4479 31.5772 85.3892 30.4076H87.607ZM100.707 21.787V24.1861H102.82V25.9585H100.707V30.7656C100.707 31.6966 101.147 32.1621 102.028 32.1621C102.227 32.1621 102.467 32.1472 102.749 32.1173V33.854C102.397 33.9256 102.021 33.9614 101.623 33.9614C100.52 33.9614 99.7276 33.7555 99.2463 33.3437C98.7714 32.932 98.5334 32.2516 98.5334 31.3027V25.9585H96.9671V24.1861H98.5334V21.787H100.707ZM109.196 32.2516C109.958 32.2516 110.545 31.9681 110.956 31.4012C111.372 30.8402 111.581 30.0465 111.581 29.02C111.581 27.9995 111.372 27.2057 110.956 26.6388C110.54 26.0719 109.953 25.7884 109.196 25.7884C108.433 25.7884 107.843 26.0719 107.427 26.6388C107.01 27.2057 106.802 27.9995 106.802 29.02C106.802 30.0465 107.01 30.8402 107.427 31.4012C107.843 31.9681 108.433 32.2516 109.196 32.2516ZM109.196 34.1136C107.752 34.1136 106.62 33.663 105.798 32.7618C104.977 31.8548 104.566 30.6075 104.566 29.02C104.566 27.4445 104.98 26.2002 105.807 25.2871C106.635 24.38 107.764 23.9265 109.196 23.9265C110.633 23.9265 111.763 24.38 112.585 25.2871C113.412 26.1942 113.826 27.4385 113.826 29.02C113.826 30.6075 113.415 31.8548 112.593 32.7618C111.765 33.663 110.633 34.1136 109.196 34.1136ZM116.206 24.1234H118.309V25.6452H118.459C118.594 25.1558 118.893 24.753 119.356 24.4367C119.831 24.1204 120.375 23.9622 120.985 23.9622C121.36 23.9622 121.659 23.995 121.883 24.0607V26.1196C121.659 26.0361 121.29 25.9943 120.773 25.9943C120.069 25.9943 119.497 26.2002 119.057 26.6119C118.611 27.0297 118.389 27.5787 118.389 28.2591V33.9167H116.206V24.1234ZM127.642 25.6899C126.992 25.6899 126.455 25.9077 126.032 26.3434C125.609 26.779 125.375 27.355 125.328 28.0711H129.86C129.837 27.3431 129.626 26.7642 129.227 26.3345C128.828 25.9048 128.299 25.6899 127.642 25.6899ZM131.947 31.2221C131.741 32.1173 131.26 32.8215 130.503 33.3348C129.74 33.854 128.796 34.1136 127.669 34.1136C126.255 34.1136 125.143 33.663 124.333 32.7618C123.529 31.8667 123.127 30.6313 123.127 29.0559C123.127 27.4803 123.533 26.23 124.342 25.305C125.152 24.386 126.255 23.9265 127.651 23.9265C129.024 23.9265 130.101 24.3651 130.881 25.2423C131.656 26.1136 132.043 27.3222 132.043 28.8678V29.5839H125.319V29.7004C125.349 30.5179 125.578 31.1624 126.006 31.634C126.44 32.1114 127.015 32.3501 127.731 32.3501C128.834 32.3501 129.549 31.9742 129.878 31.2221H131.947Z" fill="white"/>
<path d="M46.3445 9.12467C47.2862 9.12467 48.0196 9.40517 48.5448 9.96617C49.0698 10.5301 49.3325 11.3194 49.3325 12.3339C49.3325 13.3664 49.0714 14.1661 48.5491 14.733C48.0269 15.3 47.2921 15.5834 46.3445 15.5834H44.0518V9.12467H46.3445ZM45.0375 14.6703H46.2345C46.9004 14.6703 47.4153 14.4689 47.779 14.0661C48.1457 13.6603 48.3291 13.0873 48.3291 12.3473C48.3291 11.6193 48.1443 11.0523 47.7747 10.6465C47.408 10.2406 46.8945 10.0378 46.2345 10.0378H45.0375V14.6703ZM52.5756 14.8225C52.9834 14.8225 53.3003 14.6748 53.5262 14.3794C53.7491 14.087 53.8606 13.6752 53.8606 13.1441C53.8606 12.6159 53.7491 12.2041 53.5262 11.9087C53.3003 11.6163 52.9834 11.4701 52.5756 11.4701C52.1649 11.4701 51.8481 11.6163 51.6251 11.9087C51.4021 12.2011 51.2907 12.6129 51.2907 13.1441C51.2907 13.6781 51.4021 14.0915 51.6251 14.3839C51.8481 14.6763 52.1649 14.8225 52.5756 14.8225ZM52.5756 15.6774C51.8716 15.6774 51.3186 15.4522 50.9166 15.0015C50.5147 14.551 50.3137 13.9318 50.3137 13.1441C50.3137 12.3592 50.5162 11.7416 50.9211 11.291C51.3229 10.8404 51.8745 10.6152 52.5756 10.6152C53.2739 10.6152 53.8239 10.8404 54.2259 11.291C54.6307 11.7416 54.8331 12.3592 54.8331 13.1441C54.8331 13.9318 54.6322 14.551 54.2303 15.0015C53.8284 15.4522 53.2768 15.6774 52.5756 15.6774ZM60.7123 15.5834H59.731L58.7408 11.9937H58.666L57.6803 15.5834H56.7078L55.3876 10.7091H56.3469L57.205 14.4286H57.2755L58.2612 10.7091H59.1677L60.1534 14.4286H60.2282L61.0819 10.7091H62.0281L60.7123 15.5834ZM63.005 10.7091H63.9159V11.4834H63.9863C64.1037 11.2119 64.2943 11.0001 64.5584 10.8479C64.8253 10.6927 65.1392 10.6152 65.5001 10.6152C66.034 10.6152 66.4462 10.7718 66.7366 11.0852C67.0271 11.4014 67.1723 11.849 67.1723 12.4279V15.5834H66.2262V12.6696C66.2262 11.8878 65.877 11.4969 65.1789 11.4969C64.7975 11.4969 64.4983 11.6073 64.2811 11.8281C64.0612 12.0489 63.9511 12.3503 63.9511 12.7322V15.5834H63.005V10.7091ZM68.5497 8.80688H69.4958V15.5834H68.5497V8.80688ZM72.9415 14.8225C73.3492 14.8225 73.6661 14.6748 73.892 14.3794C74.115 14.087 74.2264 13.6752 74.2264 13.1441C74.2264 12.6159 74.115 12.2041 73.892 11.9087C73.6661 11.6163 73.3492 11.4701 72.9415 11.4701C72.5307 11.4701 72.2139 11.6163 71.9909 11.9087C71.768 12.2011 71.6565 12.6129 71.6565 13.1441C71.6565 13.6781 71.768 14.0915 71.9909 14.3839C72.2139 14.6763 72.5307 14.8225 72.9415 14.8225ZM72.9415 15.6774C72.2373 15.6774 71.6843 15.4522 71.2825 15.0015C70.8805 14.551 70.6795 13.9318 70.6795 13.1441C70.6795 12.3592 70.882 11.7416 71.2868 11.291C71.6888 10.8404 72.2403 10.6152 72.9415 10.6152C73.6397 10.6152 74.1898 10.8404 74.5916 11.291C74.9965 11.7416 75.199 12.3592 75.199 13.1441C75.199 13.9318 74.998 14.551 74.596 15.0015C74.1941 15.4522 73.6426 15.6774 72.9415 15.6774ZM77.9053 14.8538C78.2603 14.8538 78.5565 14.7524 78.7942 14.5495C79.0289 14.3466 79.1462 14.0929 79.1462 13.7886V13.3813L77.9757 13.4574C77.3362 13.5021 77.0164 13.7363 77.0164 14.1601C77.0164 14.3749 77.0999 14.545 77.2672 14.6703C77.4285 14.7927 77.6412 14.8538 77.9053 14.8538ZM77.6632 15.664C77.1939 15.664 76.8125 15.5327 76.5191 15.2701C76.2169 14.9986 76.0659 14.6435 76.0659 14.2048C76.0659 13.7692 76.2199 13.426 76.5279 13.1753C76.836 12.9277 77.276 12.7859 77.8481 12.7502L79.1462 12.6741V12.2534C79.1462 11.7162 78.8191 11.4477 78.1649 11.4477C77.6104 11.4477 77.2775 11.6282 77.166 11.9893H76.2506C76.2976 11.5715 76.5 11.2373 76.858 10.9867C77.213 10.739 77.6632 10.6152 78.2089 10.6152C78.8074 10.6152 79.2709 10.7599 79.5995 11.0493C79.9251 11.3358 80.088 11.7371 80.088 12.2534V15.5834H79.177V14.8986H79.1022C78.803 15.4089 78.3233 15.664 77.6632 15.664ZM83.186 15.664C82.5758 15.664 82.0917 15.4372 81.7337 14.9836C81.3759 14.5301 81.1969 13.9169 81.1969 13.1441C81.1969 12.3742 81.3773 11.7625 81.7381 11.3089C82.096 10.8553 82.5786 10.6286 83.186 10.6286C83.5145 10.6286 83.8094 10.7032 84.0705 10.8524C84.3315 11.0046 84.5267 11.215 84.6557 11.4834H84.7261V8.80688H85.6722V15.5834H84.7658V14.8136H84.691C84.3858 15.3805 83.8842 15.664 83.186 15.664ZM83.4544 11.4924C83.0554 11.4924 82.7429 11.6401 82.5171 11.9355C82.2883 12.228 82.1738 12.6308 82.1738 13.1441C82.1738 13.6603 82.2867 14.0661 82.5127 14.3615C82.7415 14.6539 83.0554 14.8001 83.4544 14.8001C83.8534 14.8001 84.1673 14.6525 84.3961 14.357C84.6279 14.0616 84.7438 13.6588 84.7438 13.1486C84.7438 12.6413 84.6279 12.2384 84.3961 11.94C84.1644 11.6417 83.8505 11.4924 83.4544 11.4924ZM91.5821 14.8225C91.9903 14.8225 92.3067 14.6748 92.5329 14.3794C92.7555 14.087 92.8672 13.6752 92.8672 13.1441C92.8672 12.6159 92.7555 12.2041 92.5329 11.9087C92.3067 11.6163 91.9903 11.4701 91.5821 11.4701C91.1711 11.4701 90.8548 11.6163 90.6313 11.9087C90.4087 12.2011 90.2969 12.6129 90.2969 13.1441C90.2969 13.6781 90.4087 14.0915 90.6313 14.3839C90.8548 14.6763 91.1711 14.8225 91.5821 14.8225ZM91.5821 15.6774C90.8782 15.6774 90.3248 15.4522 89.9232 15.0015C89.5213 14.551 89.3203 13.9318 89.3203 13.1441C89.3203 12.3592 89.5228 11.7416 89.9276 11.291C90.3294 10.8404 90.8809 10.6152 91.5821 10.6152C92.2805 10.6152 92.8303 10.8404 93.2322 11.291C93.6369 11.7416 93.8397 12.3592 93.8397 13.1441C93.8397 13.9318 93.6387 14.551 93.2367 15.0015C92.8348 15.4522 92.2832 15.6774 91.5821 15.6774ZM94.9797 10.7091H95.89V11.4834H95.9612C96.0783 11.2119 96.2685 11.0001 96.5326 10.8479C96.8002 10.6927 97.1138 10.6152 97.4743 10.6152C98.0088 10.6152 98.4206 10.7718 98.7108 11.0852C99.0019 11.4014 99.147 11.849 99.147 12.4279V15.5834H98.2007V12.6696C98.2007 11.8878 97.852 11.4969 97.1535 11.4969C96.7723 11.4969 96.4731 11.6073 96.2559 11.8281C96.036 12.0489 95.926 12.3503 95.926 12.7322V15.5834H94.9797V10.7091ZM104.225 9.52755V10.7315H105.299V11.5417H104.225V14.0482C104.225 14.3018 104.28 14.4883 104.388 14.6076C104.497 14.724 104.668 14.7823 104.902 14.7823C104.991 14.7823 105.108 14.7747 105.255 14.7599V15.561C105.073 15.5939 104.904 15.6103 104.749 15.6103C104.224 15.6103 103.847 15.5088 103.618 15.3059C103.392 15.103 103.279 14.7658 103.279 14.2944V11.5417H102.492V10.7315H103.279V9.52755H104.225ZM106.421 8.80688H107.358V11.4924H107.433C107.55 11.2179 107.741 11.0046 108.005 10.8524C108.269 10.6972 108.581 10.6197 108.943 10.6197C109.482 10.6197 109.899 10.7778 110.193 11.094C110.488 11.4104 110.637 11.858 110.637 12.4369V15.5834H109.691V12.6741C109.691 11.8923 109.334 11.5014 108.621 11.5014C108.237 11.5014 107.931 11.6148 107.706 11.8416C107.48 12.0653 107.367 12.3637 107.367 12.7367V15.5834H106.421V8.80688ZM113.942 11.4342C113.592 11.4342 113.305 11.5492 113.079 11.7789C112.853 12.0087 112.727 12.3145 112.701 12.6965H115.121C115.109 12.3116 114.998 12.0057 114.786 11.7789C114.573 11.5492 114.29 11.4342 113.942 11.4342ZM116.027 14.2675C115.919 14.7062 115.683 15.0507 115.319 15.3015C114.952 15.5521 114.496 15.6774 113.951 15.6774C113.264 15.6774 112.724 15.4522 112.331 15.0015C111.935 14.554 111.736 13.9408 111.736 13.162C111.736 12.3832 111.936 11.7639 112.336 11.3044C112.734 10.8449 113.271 10.6152 113.946 10.6152C114.612 10.6152 115.136 10.833 115.517 11.2687C115.896 11.7043 116.085 12.3056 116.085 13.0724V13.4082H112.701V13.4618C112.715 13.8915 112.837 14.2317 113.066 14.4823C113.295 14.733 113.598 14.8583 113.977 14.8583C114.555 14.8583 114.935 14.6613 115.116 14.2675H116.027Z" fill="white"/>
<path d="M31.775 26.9983C31.6915 26.8672 31.556 26.7797 31.4037 26.7588C29.4017 26.4927 27.9908 24.6264 28.2522 22.59C28.437 21.1516 29.4272 19.9538 30.7887 19.5219C31.0652 19.4318 31.2175 19.1307 31.129 18.8495C31.1152 18.8057 31.0959 18.7639 31.0715 18.7251C30.1528 17.0386 28.5193 15.8788 26.6461 15.5831C25.7022 15.629 24.772 15.8316 23.8924 16.1831C23.2607 16.4416 22.5937 16.6 21.9146 16.6525C21.2357 16.6 20.5687 16.4416 19.937 16.1831C19.0574 15.8316 18.1272 15.629 17.1833 15.5831C15.2203 15.5831 11.4004 18.4139 11.4004 23.6039C11.4004 28.5361 14.9374 34.8329 17.7089 34.8329C18.7665 34.8426 19.8113 34.5978 20.7582 34.1186C21.1147 33.9186 21.5088 33.7976 21.9147 33.7635C22.3206 33.7976 22.7148 33.9186 23.0713 34.1186C24.0181 34.5978 25.0629 34.8426 26.1204 34.8329C28.318 34.8329 30.7983 30.9958 31.8371 27.4399C31.8806 27.2906 31.8579 27.1293 31.775 26.9983Z" fill="white"/>
<path d="M21.389 15.5833C24.5813 15.5797 27.1683 12.9485 27.1718 9.70144C27.1718 9.40618 26.9364 9.16675 26.6461 9.16675C23.4538 9.17032 20.8667 11.8016 20.8633 15.0486C20.8632 15.3439 21.0986 15.5833 21.389 15.5833Z" fill="white"/>
</svg>
