<svg width="27" height="16" viewBox="0 0 27 16" fill="none" xmlns="http://www.w3.org/2000/svg">
<path d="M12.2318 0.434482L0.426727 12.5542C0.15347 12.8345 0.00292981 13.2087 0.00292979 13.6077C0.00292977 14.0066 0.153469 14.3808 0.426727 14.6612L1.29589 15.5537C1.86225 16.1345 2.78274 16.1345 3.34823 15.5537L13.2614 5.3765L23.1856 15.565C23.4589 15.8453 23.8231 16.0001 24.2116 16.0001C24.6004 16.0001 24.9647 15.8453 25.2382 15.565L26.1071 14.6724C26.3804 14.3919 26.5309 14.0179 26.5309 13.6189C26.5309 13.22 26.3804 12.8458 26.1071 12.5654L14.2913 0.434482C14.0171 0.153505 13.6511 -0.000821486 13.2621 6.3507e-05C12.8715 -0.000821519 12.5057 0.153505 12.2318 0.434482Z" fill="white"/>
</svg>
