<svg width="27" height="16" viewBox="0 0 27 16" fill="none" xmlns="http://www.w3.org/2000/svg">
<path d="M14.2995 15.5656L26.1045 3.4459C26.3778 3.16559 26.5283 2.7914 26.5283 2.3924C26.5283 1.99341 26.3778 1.61922 26.1045 1.33891L25.2354 0.446376C24.669 -0.1344 23.7485 -0.1344 23.183 0.446376L13.2698 10.6236L3.34565 0.435082C3.07239 0.154769 2.70812 -1.06894e-06 2.31969 -1.08637e-06C1.93083 -1.10382e-06 1.56656 0.154769 1.29309 0.435082L0.42414 1.32761C0.150883 1.60815 0.000344049 1.98212 0.000344032 2.38111C0.000344015 2.7801 0.150883 3.1543 0.42414 3.43461L12.24 15.5656C12.5141 15.8466 12.8801 16.0009 13.2692 16C13.6598 16.0009 14.0255 15.8466 14.2995 15.5656Z" fill="white"/>
</svg>
