<svg width="24" height="24" viewBox="0 0 24 24" fill="none" xmlns="http://www.w3.org/2000/svg">
<path d="M23.6236 14.9204C22.0209 21.3491 15.5098 25.2614 9.08038 23.6583C2.65368 22.0556 -1.25866 15.5441 0.344734 9.11595C1.94672 2.68661 8.45788 -1.22603 14.8853 0.376659C21.3142 1.97935 25.2263 8.49162 23.6235 14.9206L23.6236 14.9204H23.6236Z" fill="#F7931A"/>
<path d="M17.293 10.2903C17.5318 8.6934 16.316 7.83498 14.6535 7.26233L15.1929 5.09914L13.876 4.77103L13.351 6.87726C13.0048 6.79092 12.6493 6.70957 12.296 6.62892L12.8248 4.50878L11.5089 4.18066L10.9692 6.34315C10.6828 6.27793 10.4014 6.21347 10.1284 6.14554L10.1299 6.13874L8.31404 5.68528L7.96375 7.09171C7.96375 7.09171 8.94071 7.31565 8.92012 7.32944C9.45335 7.46252 9.54978 7.81551 9.53377 8.09529L8.91942 10.5597C8.95614 10.569 9.00376 10.5825 9.05632 10.6036C9.01239 10.5927 8.96564 10.5808 8.91713 10.5692L8.05602 14.0214C7.99085 14.1834 7.82545 14.4266 7.45264 14.3342C7.46583 14.3534 6.49556 14.0954 6.49556 14.0954L5.8418 15.6027L7.5554 16.0299C7.87419 16.1098 8.18658 16.1935 8.49423 16.2721L7.94933 18.4601L9.2646 18.7883L9.80423 16.6235C10.1635 16.721 10.5123 16.811 10.8536 16.8958L10.3158 19.0504L11.6327 19.3785L12.1775 17.1946C14.4229 17.6196 16.1113 17.4482 16.822 15.4172C17.3946 13.7821 16.7935 12.8389 15.6122 12.2238C16.4726 12.0254 17.1207 11.4595 17.2935 10.2905L17.293 10.2902L17.293 10.2903ZM14.2844 14.5091C13.8775 16.1443 11.1243 15.2604 10.2317 15.0387L10.9548 12.14C11.8474 12.3628 14.7097 12.8038 14.2845 14.5091H14.2844ZM14.6916 10.2666C14.3204 11.754 12.0289 10.9984 11.2856 10.8131L11.9412 8.1841C12.6845 8.36939 15.0784 8.71522 14.6918 10.2666H14.6916Z" fill="white"/>
</svg>
