<svg width="128" height="16" viewBox="0 0 128 16" fill="none" xmlns="http://www.w3.org/2000/svg">
<g clip-path="url(#clip0_2:953)">
<path d="M108.904 15.7296C108.925 15.7523 108.939 15.7807 108.944 15.8115C108.949 15.8422 108.946 15.874 108.934 15.9027C108.923 15.9315 108.903 15.956 108.878 15.9733C108.854 15.9906 108.824 15.9999 108.795 16H105.453C105.432 16 105.412 15.9956 105.393 15.9869C105.374 15.9782 105.357 15.9655 105.342 15.9496L100.901 11.0168L96.4099 15.9504C96.3958 15.9661 96.3788 15.9786 96.3599 15.9871C96.341 15.9956 96.3207 16 96.3002 16H92.9577C92.9279 15.9999 92.8988 15.9906 92.874 15.9733C92.8492 15.956 92.8298 15.9315 92.8181 15.9027C92.8064 15.874 92.803 15.8422 92.8083 15.8115C92.8136 15.7807 92.8274 15.7523 92.848 15.7296L98.9706 8.99282L93.0552 2.44643C93.0346 2.42374 93.0208 2.39521 93.0155 2.36437C93.0102 2.33353 93.0137 2.30174 93.0255 2.27295C93.0372 2.24415 93.0568 2.21961 93.0817 2.20238C93.1066 2.18515 93.1358 2.17599 93.1657 2.17603H96.5082C96.5501 2.17603 96.5905 2.19443 96.6194 2.22643L100.868 6.96882L105.133 2.22643C105.147 2.21056 105.165 2.19791 105.184 2.18925C105.203 2.18059 105.223 2.17609 105.244 2.17603H108.587C108.616 2.17599 108.646 2.18515 108.671 2.20238C108.696 2.21961 108.715 2.24415 108.727 2.27295C108.739 2.30174 108.742 2.33353 108.737 2.36437C108.731 2.39521 108.718 2.42374 108.697 2.44643L102.782 8.99282L108.904 15.7288V15.7296ZM77.2236 16C77.1674 16 77.1135 15.9766 77.0738 15.9349C77.0341 15.8932 77.0118 15.8366 77.0118 15.7776V2.39843C77.0118 2.27603 77.107 2.17683 77.2236 2.17683H89.8491C89.9657 2.17683 90.0602 2.27603 90.0602 2.39843V4.31203C90.0602 4.3708 90.0379 4.42716 89.9984 4.46872C89.9588 4.51028 89.9051 4.53362 89.8491 4.53362H80.0739V7.61442H85.9344C86.051 7.61442 86.1463 7.71442 86.1463 7.83682V9.75042C86.1461 9.80927 86.1236 9.86563 86.084 9.90717C86.0443 9.9487 85.9905 9.97202 85.9344 9.97202H80.0739V13.4016H89.9764C90.0929 13.4016 90.1882 13.5008 90.1882 13.6232V15.7776C90.1882 15.8366 90.1658 15.8932 90.1261 15.9349C90.0864 15.9766 90.0325 16 89.9764 16H77.2236ZM54.8678 16C54.8117 15.9998 54.7581 15.9763 54.7185 15.9346C54.6789 15.8929 54.6567 15.8365 54.6567 15.7776V2.39843C54.6567 2.27603 54.7512 2.17683 54.8678 2.17683H57.5063C57.6236 2.17683 57.7181 2.27603 57.7181 2.39843V15.7776C57.7181 15.8366 57.6958 15.8932 57.656 15.9349C57.6163 15.9766 57.5624 16 57.5063 16H54.8678ZM39.8575 16C39.8015 15.9998 39.7478 15.9763 39.7082 15.9346C39.6687 15.8929 39.6464 15.8365 39.6464 15.7776V2.39843C39.6464 2.27603 39.7409 2.17683 39.8575 2.17683H52.3299C52.4464 2.17683 52.5409 2.27603 52.5409 2.39843V4.36562C52.5407 4.42433 52.5184 4.48057 52.4789 4.52209C52.4394 4.5636 52.3858 4.58701 52.3299 4.58723H42.7078V8.23122H48.0327C48.1493 8.23122 48.2445 8.33042 48.2445 8.45282V10.5272C48.2443 10.5861 48.2219 10.6424 48.1822 10.684C48.1425 10.7255 48.0888 10.7488 48.0327 10.7488H42.7078V15.7776C42.7078 15.8366 42.6855 15.8932 42.6457 15.9349C42.606 15.9766 42.5521 16 42.496 16H39.8575ZM31.6701 4.64083V15.7776C31.6701 15.8365 31.6479 15.8929 31.6083 15.9346C31.5687 15.9763 31.5151 15.9998 31.459 16H28.8205C28.7644 16 28.7105 15.9766 28.6708 15.9349C28.631 15.8932 28.6087 15.8366 28.6087 15.7776V4.64163H22.9851C22.9289 4.64163 22.8751 4.61819 22.8353 4.57649C22.7956 4.53478 22.7733 4.47821 22.7733 4.41923V2.39843C22.7733 2.27603 22.8678 2.17683 22.9851 2.17683H37.3196C37.4362 2.17683 37.5306 2.27603 37.5306 2.39843V4.41923C37.5304 4.47793 37.5081 4.53417 37.4686 4.57569C37.4291 4.6172 37.3755 4.64061 37.3196 4.64083H31.6701ZM17.808 16C17.7519 15.9998 17.6982 15.9763 17.6587 15.9346C17.6191 15.8929 17.5969 15.8365 17.5969 15.7776V2.39843C17.5969 2.27603 17.6914 2.17683 17.808 2.17683H20.4464C20.5638 2.17683 20.6583 2.27603 20.6583 2.39843V15.7776C20.6583 15.8366 20.6359 15.8932 20.5962 15.9349C20.5565 15.9766 20.5026 16 20.4464 16H17.808Z" fill="#A8A8A8"/>
<path fill-rule="evenodd" clip-rule="evenodd" d="M1.14282 2.39839C1.14282 2.27599 1.2373 2.17679 1.35463 2.17679H12.6293C13.3584 2.177 14.0576 2.48128 14.5731 3.02271C15.0887 3.56414 15.3783 4.29839 15.3783 5.06399V5.98639C15.3784 6.36561 15.3073 6.74113 15.1692 7.09152C15.031 7.4419 14.8285 7.76028 14.5731 8.02847C14.3178 8.29665 14.0146 8.50939 13.681 8.65454C13.3473 8.79968 12.9897 8.87439 12.6285 8.87439H12.7314C13.4606 8.87439 14.16 9.17844 14.6757 9.7197C15.1915 10.261 15.4815 10.9951 15.4819 11.7608V13.1128C15.4819 13.492 15.4107 13.8675 15.2725 14.2179C15.1343 14.5682 14.9316 14.8865 14.6762 15.1546C14.4208 15.4227 14.1176 15.6354 13.7839 15.7804C13.4502 15.9255 13.0926 16.0001 12.7314 16H1.35463C1.29846 16 1.24458 15.9766 1.20486 15.9349C1.16514 15.8931 1.14282 15.8366 1.14282 15.7776V2.39839ZM4.15158 4.42719H11.2777C11.9786 4.42719 12.547 5.02399 12.547 5.75999V6.38959C12.547 7.12559 11.9786 7.72159 11.2777 7.72159H4.15158V4.42719ZM4.15158 9.99759H11.3539C12.0548 9.99759 12.6232 10.5944 12.6232 11.3304V12.176C12.6232 12.912 12.0548 13.508 11.3539 13.508H4.15235V9.99759H4.15158Z" fill="#A8A8A8"/>
<path d="M59.8331 15.7776V2.39839C59.8331 2.27599 59.9276 2.17679 60.0449 2.17679H61.8453C61.8971 2.17679 61.9467 2.19599 61.9855 2.23279L72.1417 11.6712V2.39919C72.1417 2.27599 72.2362 2.17679 72.3528 2.17679H74.6857C74.8023 2.17679 74.8968 2.27599 74.8968 2.39839V15.7776C74.8968 15.8364 74.8745 15.8929 74.835 15.9346C74.7954 15.9763 74.7418 15.9998 74.6857 16H72.8853C72.8337 15.9999 72.7838 15.98 72.7451 15.944L62.5889 6.47999V15.7776C62.5889 15.8366 62.5666 15.8931 62.5269 15.9349C62.4872 15.9766 62.4333 16 62.3771 16H60.0457C59.9895 16 59.9357 15.9766 59.8959 15.9349C59.8562 15.8931 59.8339 15.8366 59.8339 15.7776H59.8331Z" fill="#A8A8A8"/>
<path d="M111.449 10.4336C111.316 8.16798 112.222 5.64958 114.088 3.69038C118.146 -0.570425 126.597 0.0263749 126.645 0.0303749C126.622 0.0655749 120.444 9.47038 113.123 10.3504C112.558 10.4184 111.998 10.4456 111.449 10.4336Z" fill="#A8A8A8"/>
<path d="M112.306 13.3296C112.516 13.68 112.763 14.0072 113.048 14.3072C115.554 16.9376 120.081 16.4488 123.16 13.216C127.23 8.94236 126.645 0.030365 126.645 0.030365C126.623 0.083165 122.194 10.5064 115.156 12.78C114.2 13.0888 113.243 13.268 112.306 13.3296Z" fill="#A8A8A8"/>
</g>
<defs>
<clipPath id="clip0_2:953">
<rect width="128" height="16" fill="white"/>
</clipPath>
</defs>
</svg>
