<svg width="60" height="61" viewBox="0 0 60 61" fill="none" xmlns="http://www.w3.org/2000/svg">
<g clip-path="url(#clip0_44:3489)">
<path d="M59.0591 38.076C55.0523 54.1476 38.7744 63.9284 22.701 59.9207C6.63421 55.914 -3.14664 39.635 0.861834 23.5648C4.86679 7.49142 21.1447 -2.29017 37.2132 1.71655C53.2855 5.72327 63.0658 22.004 59.0586 38.0763L59.0589 38.076H59.0591Z" fill="#F7931A"/>
<path d="M43.2325 26.5003C43.8296 22.5079 40.7901 20.3619 36.6338 18.9303L37.9821 13.5223L34.6901 12.702L33.3776 17.9676C32.5121 17.7517 31.6234 17.5483 30.74 17.3467L32.0621 12.0464L28.7721 11.2261L27.4231 16.6323C26.7069 16.4692 26.0035 16.3081 25.321 16.1383L25.3249 16.1213L20.7851 14.9876L19.9094 18.5037C19.9094 18.5037 22.3518 19.0635 22.3003 19.098C23.6334 19.4307 23.8745 20.3132 23.8344 21.0126L22.2986 27.1736C22.3903 27.1969 22.5094 27.2307 22.6408 27.2834C22.531 27.2562 22.4141 27.2264 22.2928 27.1974L20.14 35.828C19.9771 36.233 19.5636 36.8408 18.6316 36.61C18.6646 36.6578 16.2389 36.0129 16.2389 36.0129L14.6045 39.7812L18.8885 40.8492C19.6855 41.049 20.4665 41.2581 21.2356 41.4548L19.8733 46.9248L23.1615 47.7451L24.5106 42.3331C25.4089 42.577 26.2806 42.8019 27.1341 43.014L25.7895 48.4004L29.0817 49.2207L30.4438 43.7609C36.0574 44.8233 40.2783 44.395 42.055 39.3175C43.4866 35.2296 41.9837 32.8716 39.0304 31.334C41.1815 30.8379 42.8017 29.4232 43.2337 26.5007L43.2326 26.5L43.2325 26.5003ZM35.711 37.0473C34.6937 41.1352 27.8108 38.9254 25.5793 38.3713L27.387 31.1245C29.6184 31.6815 36.7743 32.784 35.7112 37.0473H35.711ZM36.7291 26.441C35.8011 30.1594 30.0724 28.2703 28.214 27.8071L29.853 21.2347C31.7113 21.6979 37.6959 22.5625 36.7294 26.441H36.7291Z" fill="white"/>
</g>
<defs>
<clipPath id="clip0_44:3489">
<rect width="60" height="60" fill="white" transform="translate(0 0.774414)"/>
</clipPath>
</defs>
</svg>
