<svg width="28" height="28" viewBox="0 0 28 28" fill="none" xmlns="http://www.w3.org/2000/svg">
<path d="M27.5609 17.4072C25.6911 24.9072 18.0947 29.4716 10.5938 27.6014C3.09596 25.7316 -1.46843 18.1347 0.402189 10.6353C2.27117 3.13437 9.86753 -1.43037 17.3662 0.439436C24.8666 2.30924 29.4307 9.90689 27.5607 17.4073L27.5608 17.4072H27.5609Z" fill="#F7931A"/>
<path d="M20.1751 12.0054C20.4537 10.1423 19.0353 9.14081 17.0957 8.47272L17.7249 5.949L16.1887 5.5662L15.5761 8.02348C15.1723 7.92275 14.7575 7.82783 14.3453 7.73374L14.9622 5.26024L13.4269 4.87744L12.7974 7.40035C12.4632 7.32425 12.1349 7.24904 11.8164 7.1698L11.8182 7.16186L9.69965 6.63283L9.29099 8.27366C9.29099 8.27366 10.4308 8.53493 10.4067 8.55101C11.0289 8.70628 11.1414 9.11809 11.1227 9.44451L10.4059 12.3196C10.4488 12.3305 10.5043 12.3462 10.5656 12.3709C10.5144 12.3582 10.4599 12.3443 10.4033 12.3307L9.39863 16.3583C9.3226 16.5473 9.12963 16.831 8.69468 16.7233C8.71008 16.7456 7.5781 16.4446 7.5781 16.4446L6.81537 18.2032L8.81457 18.7015C9.18649 18.7948 9.55095 18.8924 9.90987 18.9842L9.27415 21.5368L10.8086 21.9196L11.4382 19.3941C11.8574 19.5079 12.2642 19.6128 12.6625 19.7118L12.0351 22.2255L13.5714 22.6083L14.207 20.0604C16.8267 20.5562 18.7965 20.3563 19.6256 17.9868C20.2937 16.0791 19.5923 14.9787 18.2141 14.2611C19.218 14.0296 19.974 13.3694 20.1756 12.0056L20.1752 12.0053L20.1751 12.0054ZM16.6651 16.9273C16.1903 18.835 12.9783 17.8038 11.9369 17.5452L12.7805 14.1634C13.8219 14.4233 17.1613 14.9378 16.6651 16.9273H16.6651ZM17.1402 11.9777C16.7071 13.713 14.0337 12.8314 13.1665 12.6152L13.9313 9.54811C14.7986 9.76429 17.5914 10.1678 17.1403 11.9777H17.1402Z" fill="white"/>
</svg>
