<svg width="68" height="20" viewBox="0 0 68 20" fill="none" xmlns="http://www.w3.org/2000/svg">
<path d="M9.71432 11.1024H17.0213L18.1821 9.91726L17.0213 8.73221H9.71432C9.07282 8.73221 8.55353 9.26236 8.55353 9.91726C8.55353 10.5722 9.07282 11.1024 9.71432 11.1024Z" fill="#A8A8A8"/>
<path d="M9.71424 4.36597C6.71442 4.36597 4.27673 6.85465 4.27673 9.9171C4.27673 12.9796 6.71442 15.4683 9.71424 15.4683H12.7445L15.0662 13.0982H9.71424C7.99746 13.0982 6.59838 11.6698 6.59838 9.9171C6.59838 8.16445 7.99746 6.7361 9.71424 6.7361H15.0662L12.7445 4.36597H9.71424Z" fill="#A8A8A8"/>
<path d="M19.4284 15.4683V13.0981H17.6811L15.3594 15.4683H19.4284Z" fill="#A8A8A8"/>
<path d="M2.84705 2.90656C1.00807 4.77774 0 7.2664 0 9.91725C0 12.568 1.00807 15.0568 2.84705 16.9279C4.67991 18.7991 7.12371 19.8344 9.71417 19.8344H19.4283V17.4643H9.71417C7.7408 17.4643 5.88347 16.6784 4.4844 15.2563C3.09143 13.828 2.32163 11.9318 2.32163 9.91725C2.32163 7.9026 3.09143 6.0065 4.4844 4.57815C5.88347 3.15605 7.7408 2.37016 9.71417 2.37016H19.4283V0H9.71417C7.11759 0 4.67991 1.02915 2.84705 2.90656Z" fill="#A8A8A8"/>
<path d="M17.6811 6.7361H19.4284V4.36597H15.3594L17.6811 6.7361Z" fill="#A8A8A8"/>
<path d="M32.9732 6.47095L33.4559 6.04685C32.46 5.0489 31.1403 4.5 29.729 4.5C28.1711 4.5 26.8453 5.0177 25.8922 5.99695C24.9269 6.9949 24.4015 8.3983 24.4198 9.95135C24.426 11.4109 24.9086 12.7332 25.7761 13.6875C26.7292 14.7353 28.0978 15.2842 29.729 15.2842C31.1403 15.2842 32.46 14.7353 33.4559 13.7374L32.9854 13.2821C32.1239 14.1303 30.9387 14.6168 29.729 14.6168C28.3055 14.6168 27.1202 14.1303 26.2893 13.2135C25.5379 12.3777 25.1163 11.2113 25.1041 9.9202C25.098 8.52305 25.5562 7.2818 26.3932 6.4211C27.2119 5.57905 28.3666 5.12995 29.729 5.12995C30.9631 5.1362 32.1178 5.61025 32.9732 6.47095Z" fill="#A8A8A8"/>
<path d="M35.5394 14.3362V14.2863V10.1198V10.0761H35.5882H41.6428V9.41495H35.5882H35.5394V9.3713V5.24225V5.19235H35.5882H42.266V4.5H34.8245V15.0285H42.1194V14.3362H35.5882H35.5394Z" fill="#A8A8A8"/>
<path d="M47.6115 9.62705L47.6298 9.6021L51.1306 4.5H50.3728L47.2205 9.022L47.1838 9.07815L47.141 9.022L44.0068 4.5H43.231L46.7256 9.6021L46.7439 9.62705L46.7256 9.652L42.9438 15.0285H43.7991L47.141 10.1884L47.1838 10.1322L47.2205 10.1884L50.5626 15.0285H51.4114L47.6298 9.652L47.6115 9.62705Z" fill="#A8A8A8"/>
<path d="M55.7434 4.5H55.0653V15.0285H55.7434V4.5Z" fill="#A8A8A8"/>
<path d="M66.2276 5.94705C65.3049 4.99898 64.0158 4.5 62.5066 4.5C58.9144 4.5 57.3015 7.2257 57.3015 9.9264C57.3015 11.3797 57.7657 12.7207 58.6027 13.7062C59.5435 14.8102 60.8937 15.3965 62.5008 15.3965C64.1073 15.3965 65.4575 14.8164 66.3983 13.7186C67.2353 12.7394 67.6996 11.4046 67.7059 9.9576C67.7182 8.36085 67.1928 6.93875 66.2276 5.94705ZM65.8915 13.2384C65.0725 14.2114 63.8999 14.7228 62.5008 14.7228C61.1139 14.7228 59.9466 14.2114 59.1282 13.2384C58.4012 12.3777 57.9981 11.205 57.9917 9.9389C57.9859 8.52925 58.4379 7.2756 59.2808 6.41485C60.0753 5.59775 61.1872 5.1674 62.5008 5.1674C63.9058 5.1674 65.0848 5.6726 65.8973 6.62065C66.6243 7.47515 67.0279 8.654 67.0279 9.9389C67.0279 11.1988 66.6243 12.3714 65.8915 13.2384Z" fill="#A8A8A8"/>
<path d="M52.1143 9.5C51.8272 9.5 51.5889 9.737 51.5889 10.0364C51.5889 10.3295 51.8213 10.5728 52.1143 10.5728C52.4015 10.5728 52.6397 10.3295 52.6397 10.0364C52.6397 9.74325 52.4015 9.5 52.1143 9.5Z" fill="#A8A8A8"/>
</svg>
