<svg width="56" height="55" viewBox="0 0 56 55" fill="none" xmlns="http://www.w3.org/2000/svg">
<circle cx="28.4736" cy="27.5" r="27.5" fill="#FD7B01"/>
<g clip-path="url(#clip0_44:3896)">
<path d="M32.9977 37.1818C33.2511 37.4331 33.5987 37.6027 33.9548 37.632C34.315 37.6613 34.6857 37.5734 34.9851 37.3703C35.0668 37.3158 35.1443 37.2509 35.2134 37.1818L35.2155 37.1797L39.5066 32.8886C40.1202 32.275 40.1202 31.2803 39.5066 30.6666C38.8929 30.053 37.8982 30.053 37.2846 30.6666L35.6741 32.2771V18.9369C35.6741 18.0699 34.9704 17.3662 34.1035 17.3662C33.2364 17.3662 32.5328 18.0699 32.5328 18.9369V32.2771L30.8804 30.6247C30.2668 30.0111 29.2721 30.0111 28.6585 30.6247C28.0448 31.2384 28.0448 32.2331 28.6585 32.8467L32.9935 37.1818C32.9956 37.1797 32.9956 37.1818 32.9977 37.1818Z" fill="white"/>
<path d="M18.0125 24.8421C18.4146 24.8421 18.8167 24.6892 19.1225 24.3813L20.7748 22.729L20.7748 36.0692C20.7748 36.9362 21.4785 37.6399 22.3455 37.6399C23.2125 37.6399 23.9161 36.9362 23.9161 36.0692L23.9161 22.729L25.5266 24.3395C25.8324 24.6452 26.2344 24.8002 26.6365 24.8002C27.0386 24.8002 27.4407 24.6473 27.7465 24.3395C28.3601 23.7259 28.3601 22.7311 27.7465 22.1175C27.6334 22.0044 27.5182 21.8892 27.4051 21.7761C27.1266 21.4976 26.8501 21.217 26.5695 20.9405C26.2093 20.5824 25.8512 20.2243 25.4931 19.8641C25.1413 19.5081 24.7769 19.1625 24.4271 18.8023C24.0879 18.4547 23.7444 18.1133 23.3821 17.7866C23.0052 17.4474 22.513 17.2798 22.0062 17.3992C21.8764 17.4285 21.7382 17.4788 21.6209 17.5437C21.2711 17.7406 20.9926 18.0652 20.7099 18.3458C20.3643 18.6871 20.0251 19.0348 19.6816 19.3803C19.2733 19.7908 18.8607 20.1992 18.4502 20.6076C18.1068 20.9552 17.7591 21.3028 17.4136 21.6505C17.246 21.818 17.0785 21.9835 16.911 22.151C16.9089 22.1531 16.9047 22.1573 16.9026 22.1594C16.289 22.773 16.289 23.7677 16.9026 24.3813C17.2083 24.6892 17.6104 24.8421 18.0125 24.8421Z" fill="white"/>
</g>
<defs>
<clipPath id="clip0_44:3896">
<rect width="24.0625" height="20.625" fill="white" transform="translate(16.4424 17.1877)"/>
</clipPath>
</defs>
</svg>
