<svg width="32" height="32" viewBox="0 0 32 32" fill="none" xmlns="http://www.w3.org/2000/svg">
<circle cx="16" cy="16" r="16" fill="#FD7B01"/>
<path d="M18.6323 21.6336C18.7797 21.7798 18.982 21.8785 19.1891 21.8955C19.3987 21.9126 19.6143 21.8614 19.7886 21.7432C19.8361 21.7115 19.8812 21.6738 19.9214 21.6336L19.9226 21.6323L22.4192 19.1357C22.7762 18.7787 22.7762 18.1999 22.4192 17.8429C22.0622 17.4859 21.4834 17.4859 21.1264 17.8429L20.1894 18.7799V11.0183C20.1894 10.5139 19.78 10.1045 19.2756 10.1045C18.7712 10.1045 18.3618 10.5139 18.3618 11.0183V18.7799L17.4004 17.8185C17.0434 17.4615 16.4646 17.4615 16.1076 17.8185C15.7506 18.1756 15.7506 18.7543 16.1076 19.1113L18.6298 21.6336C18.631 21.6323 18.631 21.6336 18.6323 21.6336Z" fill="white"/>
<path d="M9.91353 14.4533C10.1475 14.4533 10.3814 14.3644 10.5593 14.1852L11.5207 13.2239L11.5207 20.9855C11.5207 21.4899 11.9301 21.8993 12.4345 21.8993C12.939 21.8993 13.3484 21.4899 13.3484 20.9855L13.3484 13.2239L14.2853 14.1609C14.4633 14.3388 14.6972 14.4289 14.9311 14.4289C15.1651 14.4289 15.399 14.34 15.5769 14.1609C15.9339 13.8039 15.9339 13.2251 15.5769 12.8681C15.5111 12.8023 15.4441 12.7353 15.3783 12.6695C15.2163 12.5074 15.0554 12.3442 14.8921 12.1833C14.6826 11.975 14.4742 11.7666 14.2659 11.557C14.0612 11.3499 13.8492 11.1488 13.6457 10.9393C13.4483 10.737 13.2485 10.5384 13.0377 10.3483C12.8183 10.1509 12.532 10.0535 12.2371 10.1229C12.1616 10.14 12.0812 10.1692 12.0129 10.207C11.8095 10.3215 11.6474 10.5104 11.4829 10.6736C11.2819 10.8723 11.0845 11.0745 10.8847 11.2756C10.6471 11.5144 10.407 11.752 10.1682 11.9896C9.96837 12.1918 9.76611 12.3941 9.56506 12.5964C9.46758 12.6939 9.37011 12.7901 9.27263 12.8876C9.27141 12.8888 9.26897 12.8912 9.26776 12.8925C8.91075 13.2495 8.91075 13.8282 9.26776 14.1852C9.44564 14.3644 9.67958 14.4533 9.91353 14.4533Z" fill="white"/>
</svg>
