<svg width="20" height="20" viewBox="0 0 20 20" fill="none" xmlns="http://www.w3.org/2000/svg">
<path d="M2.5 10.4813C2.0856 10.4813 1.68817 10.6459 1.39515 10.9389C1.10212 11.2319 0.9375 11.6293 0.9375 12.0438V17.5C0.9375 17.9144 1.10212 18.3118 1.39515 18.6049C1.68817 18.8979 2.0856 19.0625 2.5 19.0625C2.9144 19.0625 3.31183 18.8979 3.60485 18.6049C3.89788 18.3118 4.0625 17.9144 4.0625 17.5V12.0438C4.0625 11.6293 3.89788 11.2319 3.60485 10.9389C3.31183 10.6459 2.9144 10.4813 2.5 10.4813ZM7.5 7.3C7.0856 7.3 6.68817 7.46462 6.39515 7.75765C6.10212 8.05067 5.9375 8.4481 5.9375 8.8625V17.5C5.9375 17.9144 6.10212 18.3118 6.39515 18.6049C6.68817 18.8979 7.0856 19.0625 7.5 19.0625C7.9144 19.0625 8.31183 18.8979 8.60485 18.6049C8.89788 18.3118 9.0625 17.9144 9.0625 17.5V8.8625C9.0625 8.4481 8.89788 8.05067 8.60485 7.75765C8.31183 7.46462 7.9144 7.3 7.5 7.3ZM12.5 4.11875C12.0856 4.11875 11.6882 4.28337 11.3951 4.5764C11.1021 4.86942 10.9375 5.26685 10.9375 5.68125V17.5C10.9375 17.9144 11.1021 18.3118 11.3951 18.6049C11.6882 18.8979 12.0856 19.0625 12.5 19.0625C12.9144 19.0625 13.3118 18.8979 13.6049 18.6049C13.8979 18.3118 14.0625 17.9144 14.0625 17.5V5.68125C14.0625 5.26685 13.8979 4.86942 13.6049 4.5764C13.3118 4.28337 12.9144 4.11875 12.5 4.11875ZM17.5 0.9375C17.0856 0.9375 16.6882 1.10212 16.3951 1.39515C16.1021 1.68817 15.9375 2.0856 15.9375 2.5V17.5C15.9375 17.9144 16.1021 18.3118 16.3951 18.6049C16.6882 18.8979 17.0856 19.0625 17.5 19.0625C17.9144 19.0625 18.3118 18.8979 18.6049 18.6049C18.8979 18.3118 19.0625 17.9144 19.0625 17.5V2.5C19.0625 2.0856 18.8979 1.68817 18.6049 1.39515C18.3118 1.10212 17.9144 0.9375 17.5 0.9375Z" fill="#FD7B01"/>
</svg>
