<svg width="20" height="20" viewBox="0 0 20 20" fill="none" xmlns="http://www.w3.org/2000/svg">
<path d="M10 19.6875C15.3437 19.6875 19.6875 15.3437 19.6875 10C19.6875 4.65626 15.3437 0.3125 10 0.3125C4.65626 0.3125 0.3125 4.65626 0.3125 10C0.3125 15.3437 4.65626 19.6875 10 19.6875ZM11.3063 11.225C11.1187 11.0375 10.8688 10.9375 10.6 10.9375H9.39999C8.63126 10.9375 7.90628 10.6375 7.36874 10.1C6.83125 9.56249 6.53126 8.83751 6.53126 8.06873C6.53126 6.59999 7.64374 5.40623 9.06251 5.23124V4.81251C9.06251 4.29374 9.48124 3.87501 10 3.87501C10.5188 3.87501 10.9375 4.29374 10.9375 4.81251V5.20001H12.5312C13.05 5.20001 13.4688 5.61874 13.4688 6.13751C13.4688 6.65623 13.05 7.07501 12.5312 7.07501H9.39999C8.84999 7.07501 8.40626 7.51873 8.40626 8.06874C8.40626 8.33748 8.50624 8.5875 8.69374 8.77499C8.88127 8.96248 9.13124 9.0625 9.39999 9.0625H10.6C11.3687 9.0625 12.0937 9.36249 12.6313 9.89998C13.1688 10.4375 13.4687 11.1625 13.4687 11.9312C13.4687 13.4 12.3563 14.5937 10.9375 14.7688V15.1875C10.9375 15.7063 10.5188 16.125 10 16.125C9.48124 16.125 9.0625 15.7063 9.0625 15.1875V14.8H7.46876C6.94999 14.8 6.53126 14.3813 6.53126 13.8625C6.53126 13.3437 6.94999 12.925 7.46876 12.925H10.6C11.15 12.925 11.5937 12.4812 11.5937 11.9312C11.5937 11.6625 11.4938 11.4125 11.3063 11.225Z" fill="#FD7B01"/>
</svg>
