<svg width="56" height="56" viewBox="0 0 56 56" fill="none" xmlns="http://www.w3.org/2000/svg">
<g clip-path="url(#clip0_2:157)">
<path d="M21.0162 24.725C24.8798 19.7982 30.8811 16.6319 37.6367 16.6319C38.6426 16.6319 39.6371 16.7005 40.6202 16.8376V12.3339C37.5681 15.0773 29.6579 17.032 20.3646 17.032C11.1285 17.032 3.24113 15.1001 0.154785 12.3682V18.1636C1.69796 24.4849 20.799 24.7364 21.0162 24.725Z" fill="#FD7B01"/>
<path d="M0.143267 22.6903L0.131836 28.5772C0.874845 31.8465 7.76768 34.4984 16.6952 35.0814C17.0381 32.3037 17.9298 29.686 19.2557 27.3541C10.4882 27.2055 3.09244 25.3194 0.143267 22.6903Z" fill="#FD7B01"/>
<path d="M0.131548 33.1497L0.120117 38.7508C0.15441 38.7165 0.188703 38.6822 0.222995 38.6594C0.440183 42.2715 8.15604 45.2321 18.0666 45.6551C17.0721 43.2088 16.5349 40.5455 16.5349 37.7449V37.7334C8.96764 37.2648 2.76066 35.5044 0.131548 33.1497Z" fill="#FD7B01"/>
<path d="M19.3814 48.3185C10.4424 48.1699 2.93232 46.1923 0.120318 43.4946L0.108887 48.7757C0.108887 52.7537 9.17359 55.9772 20.3645 55.9772C22.502 55.9772 24.5596 55.8629 26.4914 55.6457C23.5651 53.8167 21.1189 51.3019 19.3814 48.3185Z" fill="#FD7B01"/>
<path d="M20.3644 14.3801C31.5638 14.3801 40.6428 11.161 40.6428 7.19003C40.6428 3.21909 31.5638 0 20.3644 0C9.1649 0 0.0859375 3.21909 0.0859375 7.19003C0.0859375 11.161 9.1649 14.3801 20.3644 14.3801Z" fill="#FD7B01"/>
<path d="M37.6364 19.4554C27.5429 19.4554 19.3584 27.64 19.3584 37.7335C19.3584 47.827 27.5429 56 37.6364 56C47.7299 56 55.9144 47.8155 55.9144 37.722C55.9144 27.6285 47.7299 19.4554 37.6364 19.4554ZM39.3053 47.484V48.6385C39.3053 49.5644 38.5623 50.3075 37.6364 50.3075C36.7105 50.3075 35.9675 49.5644 35.9675 48.6385V47.484C34.9959 47.1868 34.0928 46.6496 33.3841 45.8951C32.7554 45.2207 32.7897 44.1691 33.4527 43.5404C34.1271 42.9117 35.1445 42.9802 35.8075 43.6089C36.539 44.3062 37.7507 44.3862 37.8079 44.3862C39.0996 44.2948 40.1283 43.2089 40.1283 41.8943C40.1283 40.5226 39.0081 39.3909 37.6364 39.3909C34.4243 39.3909 31.8067 36.7733 31.8067 33.5612C31.8067 30.9206 33.567 28.6916 35.9675 27.9715V26.8169C35.9675 25.891 36.7105 25.148 37.6364 25.148C38.5623 25.148 39.3053 25.891 39.3053 26.8169V27.9715C40.277 28.2687 41.18 28.8059 41.8887 29.5604C42.5174 30.2348 42.4831 31.2864 41.8201 31.9151C41.1457 32.5438 40.0369 32.5667 39.4654 31.8465C38.8595 31.0807 37.5221 31.0692 37.465 31.0692C36.1733 31.1607 35.1445 32.2466 35.1445 33.5612C35.1445 34.9329 36.2647 36.0645 37.6364 36.0645C40.8485 36.0645 43.4662 38.6822 43.4662 41.8943C43.4662 44.5348 41.7058 46.7639 39.3053 47.484Z" fill="#FD7B01"/>
</g>
<defs>
<clipPath id="clip0_2:157">
<rect width="56" height="56" fill="white"/>
</clipPath>
</defs>
</svg>
