<svg width="114" height="20" viewBox="0 0 114 20" fill="none" xmlns="http://www.w3.org/2000/svg">
<path d="M22.9618 5.58362C18.8288 5.58362 15.5994 8.67119 15.5994 12.8045C15.5994 16.9378 18.7472 19.999 22.9618 19.999C27.1763 19.999 30.3788 16.885 30.3788 12.7781C30.3788 8.69759 27.2311 5.58362 22.9618 5.58362ZM22.9896 17.0202C20.636 17.0202 18.9114 15.2213 18.9114 12.8055C18.9114 10.3623 20.6082 8.56447 22.9618 8.56447C25.3432 8.56447 27.0669 10.3897 27.0669 12.8055C27.0669 15.2213 25.3432 17.0202 22.9896 17.0202ZM31.2814 8.72503H33.3344V19.7317H36.6185V5.85194H31.2814V8.72503ZM7.33446 8.56344C9.05913 8.56344 10.4275 9.61025 10.947 11.1672H14.4231C13.7932 7.83881 11.0017 5.58362 7.36234 5.58362C3.22934 5.58362 0 8.67119 0 12.8055C0 16.9399 3.14777 20 7.36234 20C10.9201 20 13.7663 17.7448 14.3963 14.3889H10.947C10.4543 15.9459 9.08596 17.0202 7.36132 17.0202C4.97983 17.0202 3.31092 15.2213 3.31092 12.8055C3.31197 10.3623 4.95401 8.56344 7.33446 8.56344ZM93.681 11.463L91.2727 11.1144C90.1235 10.9538 89.3023 10.5778 89.3023 9.69156C89.3023 8.72503 90.3703 8.24228 91.8202 8.24228C93.4076 8.24228 94.4206 8.91306 94.6394 10.0137H97.8142C97.4579 7.22191 95.2684 5.58463 91.9027 5.58463C88.4265 5.58463 86.1278 7.32966 86.1278 9.79928C86.1278 12.1612 87.6333 13.5312 90.6707 13.9601L93.0789 14.3087C94.2564 14.4692 94.9131 14.9266 94.9131 15.7853C94.9131 16.886 93.7639 17.3423 92.1765 17.3423C90.2328 17.3423 89.1382 16.5638 88.974 15.3829H85.7445C86.0462 18.0944 88.2077 20 92.1485 20C95.7343 20 98.1146 18.3892 98.1146 15.6237C98.1146 13.1541 96.391 11.8654 93.681 11.463ZM34.9764 0.134153C33.7723 0.134153 32.8688 0.992937 32.8688 2.17389C32.8688 3.35484 33.7713 4.21362 34.9764 4.21362C36.1806 4.21362 37.0843 3.35484 37.0843 2.17389C37.0843 0.992937 36.1806 0.134153 34.9764 0.134153ZM83.1721 10.6042C83.1721 7.59794 81.3112 5.58463 77.3701 5.58463C73.6481 5.58463 71.5682 7.43738 71.1573 10.283H74.4144C74.5786 9.18237 75.4544 8.26972 77.3155 8.26972C78.9855 8.26972 79.8064 8.99434 79.8064 9.88059C79.8064 11.0351 78.3005 11.3298 76.4397 11.5179C73.9219 11.7862 70.8019 12.6449 70.8019 15.8667C70.8019 18.3638 72.6907 19.9736 75.7014 19.9736C78.0548 19.9736 79.5326 19.0071 80.2722 17.4765C80.3818 18.8455 81.4217 19.7317 82.8726 19.7317H84.7884V16.8596H83.173V10.6042H83.1721ZM79.9426 14.0942C79.9426 15.9469 78.3005 17.3159 76.3022 17.3159C75.0704 17.3159 74.0305 16.8057 74.0305 15.7325C74.0305 14.3635 75.7001 13.9875 77.2329 13.8269C78.7108 13.6928 79.5317 13.3706 79.9426 12.7527V14.0942ZM62.5092 5.58362C60.675 5.58362 59.1425 6.33569 58.0479 7.59694V0H54.7638V19.7317H57.993V17.9064C59.0876 19.2215 60.6483 20 62.5092 20C66.4499 20 69.4336 16.9399 69.4336 12.8055C69.4336 8.67119 66.3953 5.58362 62.5092 5.58362ZM62.0166 17.0202C59.663 17.0202 57.9384 15.2213 57.9384 12.8055C57.9384 10.3897 59.69 8.56447 62.0433 8.56447C64.4249 8.56447 66.0937 10.3633 66.0937 12.8055C66.0937 15.2213 64.37 17.0202 62.0166 17.0202ZM46.9086 5.58362C44.7741 5.58362 43.3778 6.44241 42.5569 7.65078V5.85194H39.2995V19.7307H42.5836V12.1876C42.5836 10.0666 43.9519 8.56344 45.9773 8.56344C47.866 8.56344 49.0422 9.87856 49.0422 11.7852V19.7317H52.3263V11.5443C52.3276 8.05325 50.4944 5.58362 46.9086 5.58362ZM113.77 12.3492C113.77 8.37644 110.814 5.58463 106.845 5.58463C102.631 5.58463 99.5379 8.69862 99.5379 12.8055C99.5379 17.1279 102.85 20 106.9 20C110.322 20 113.004 18.0131 113.687 15.1949H110.266C109.773 16.4297 108.569 17.1279 106.954 17.1279C104.846 17.1279 103.259 15.8392 102.903 13.584H113.769V12.3492H113.77ZM103.095 11.275C103.616 9.34194 105.094 8.40287 106.791 8.40287C108.652 8.40287 110.075 9.44966 110.403 11.275H103.095Z" fill="#A8A8A8"/>
</svg>
