<svg width="50" height="50" viewBox="0 0 50 50" fill="none" xmlns="http://www.w3.org/2000/svg">
<path d="M16.667 8.33366V33.3337C16.667 34.4387 17.106 35.4985 17.8874 36.2799C18.6688 37.0613 19.7286 37.5003 20.8337 37.5003H37.5003C38.6054 37.5003 39.6652 37.0613 40.4466 36.2799C41.228 35.4985 41.667 34.4387 41.667 33.3337V15.0878C41.6669 14.5327 41.5559 13.9833 41.3406 13.4717C41.1252 12.9601 40.8098 12.4967 40.4128 12.1087L33.5066 5.35449C32.7282 4.59336 31.6828 4.16713 30.5941 4.16699H20.8337C19.7286 4.16699 18.6688 4.60598 17.8874 5.38738C17.106 6.16878 16.667 7.22859 16.667 8.33366V8.33366Z" stroke="#FD7B01" stroke-width="4.16667" stroke-linecap="round" stroke-linejoin="round"/>
<path d="M33.3335 37.5007V41.6673C33.3335 42.7724 32.8945 43.8322 32.1131 44.6136C31.3317 45.395 30.2719 45.834 29.1668 45.834H12.5002C11.3951 45.834 10.3353 45.395 9.55388 44.6136C8.77248 43.8322 8.3335 42.7724 8.3335 41.6673V18.7507C8.3335 17.6456 8.77248 16.5858 9.55388 15.8044C10.3353 15.023 11.3951 14.584 12.5002 14.584H16.6668" stroke="#FD7B01" stroke-width="4.16667" stroke-linecap="round" stroke-linejoin="round"/>
</svg>
