<svg width="10" height="10" viewBox="0 0 10 10" fill="none" xmlns="http://www.w3.org/2000/svg">
<g clip-path="url(#clip0_2:329)">
<path d="M0.185592 3.25195L4.56056 7.62688C4.68414 7.7506 4.8306 7.81241 4.99998 7.81241C5.16936 7.81241 5.31579 7.7506 5.43951 7.62688L9.81448 3.25195C9.93819 3.12823 10 2.98177 10 2.81253C10 2.64329 9.93819 2.49672 9.81448 2.37311C9.69062 2.24939 9.54419 2.18755 9.37495 2.18755L0.625048 2.18755C0.455771 2.18755 0.309241 2.24939 0.185592 2.37311C0.0620122 2.49669 -3.47842e-05 2.64325 -3.47694e-05 2.81253C-3.47546e-05 2.98181 0.0620123 3.12823 0.185592 3.25195Z" fill="#FF4B32"/>
</g>
<defs>
<clipPath id="clip0_2:329">
<rect width="10" height="10" fill="white" transform="translate(10 10) rotate(180)"/>
</clipPath>
</defs>
</svg>
