<svg width="60" height="61" viewBox="0 0 60 61" fill="none" xmlns="http://www.w3.org/2000/svg">
<g clip-path="url(#clip0_44:3498)">
<path d="M59.0591 38.0755C55.0524 54.1471 38.7745 63.9279 22.701 59.9202C6.63421 55.9135 -3.14664 39.6346 0.861835 23.5643C4.86679 7.49093 21.1447 -2.29065 37.2132 1.71606C53.2855 5.72278 63.0658 22.0035 59.0586 38.0758L59.0589 38.0755H59.0591Z" fill="#E9E9E9"/>
<g clip-path="url(#clip1_44:3498)">
<path d="M29.9974 10.7744L29.729 11.686V38.1346L29.9974 38.4023L42.2743 31.1453L29.9974 10.7744Z" fill="#343434"/>
<path d="M29.9969 10.7744L17.7197 31.1453L29.9969 38.4023V25.5649V10.7744Z" fill="#8C8C8C"/>
<path d="M29.9974 40.723L29.8462 40.9074V50.3288L29.9974 50.7703L42.2819 33.4697L29.9974 40.723Z" fill="#3C3C3B"/>
<path d="M29.9969 50.7703V40.723L17.7197 33.4697L29.9969 50.7703Z" fill="#8C8C8C"/>
<path d="M29.9976 38.4068L42.2745 31.1498L29.9976 25.5693V38.4068Z" fill="#141414"/>
<path d="M17.7197 31.1498L29.9969 38.4068V25.5693L17.7197 31.1498Z" fill="#393939"/>
</g>
</g>
<defs>
<clipPath id="clip0_44:3498">
<rect width="60" height="60" fill="white" transform="translate(0 0.774414)"/>
</clipPath>
<clipPath id="clip1_44:3498">
<rect width="40" height="40" fill="white" transform="translate(10 10.7744)"/>
</clipPath>
</defs>
</svg>
