<svg width="28" height="28" viewBox="0 0 28 28" fill="none" xmlns="http://www.w3.org/2000/svg">
<g clip-path="url(#clip0_2:832)">
<path d="M27.5609 17.4072C25.6911 24.9072 18.0947 29.4716 10.5938 27.6014C3.09596 25.7316 -1.46843 18.1347 0.402189 10.6353C2.27117 3.13437 9.86753 -1.43037 17.3662 0.439436C24.8666 2.30924 29.4307 9.90689 27.5607 17.4073L27.5608 17.4072H27.5609Z" fill="#E9E9E9"/>
<g clip-path="url(#clip1_2:832)">
<path d="M13.9988 4.66675L13.8735 5.09214V17.4348L13.9988 17.5598L19.728 14.1732L13.9988 4.66675Z" fill="#343434"/>
<path d="M13.9985 4.66675L8.26917 14.1732L13.9985 17.5598V11.569V4.66675Z" fill="#8C8C8C"/>
<path d="M13.9988 18.6429L13.9282 18.729V23.1256L13.9988 23.3317L19.7315 15.2581L13.9988 18.6429Z" fill="#3C3C3B"/>
<path d="M13.9985 23.3317V18.6429L8.26917 15.2581L13.9985 23.3317Z" fill="#8C8C8C"/>
<path d="M13.9988 17.5617L19.728 14.1751L13.9988 11.5709V17.5617Z" fill="#141414"/>
<path d="M8.26917 14.1751L13.9985 17.5617V11.5709L8.26917 14.1751Z" fill="#393939"/>
</g>
</g>
<defs>
<clipPath id="clip0_2:832">
<rect width="28" height="28" fill="white"/>
</clipPath>
<clipPath id="clip1_2:832">
<rect width="18.6667" height="18.6667" fill="white" transform="translate(4.66663 4.66675)"/>
</clipPath>
</defs>
</svg>
