<svg width="24" height="24" viewBox="0 0 24 24" fill="none" xmlns="http://www.w3.org/2000/svg">
<g clip-path="url(#clip0_2:198)">
<path d="M23.6236 14.9204C22.0209 21.3491 15.5098 25.2614 9.08038 23.6583C2.65368 22.0556 -1.25866 15.5441 0.344734 9.11595C1.94672 2.68661 8.45788 -1.22603 14.8853 0.376659C21.3142 1.97935 25.2263 8.49162 23.6235 14.9206L23.6236 14.9204H23.6236Z" fill="#E9E9E9"/>
<g clip-path="url(#clip1_2:198)">
<path d="M11.9989 4L11.8916 4.36462V14.9441L11.9989 15.0512L16.9097 12.1484L11.9989 4Z" fill="#343434"/>
<path d="M11.9988 4L7.08789 12.1484L11.9988 15.0512V9.91619V4Z" fill="#8C8C8C"/>
<path d="M11.999 15.9795L11.9385 16.0533V19.8218L11.999 19.9985L16.9127 13.0782L11.999 15.9795Z" fill="#3C3C3B"/>
<path d="M11.9988 19.9985V15.9795L7.08789 13.0782L11.9988 19.9985Z" fill="#8C8C8C"/>
<path d="M11.999 15.0528L16.9098 12.15L11.999 9.91785V15.0528Z" fill="#141414"/>
<path d="M7.08789 12.15L11.9988 15.0528V9.91785L7.08789 12.15Z" fill="#393939"/>
</g>
</g>
<defs>
<clipPath id="clip0_2:198">
<rect width="24" height="24" fill="white"/>
</clipPath>
<clipPath id="clip1_2:198">
<rect width="16" height="16" fill="white" transform="translate(4 4)"/>
</clipPath>
</defs>
</svg>
