<svg width="56" height="56" viewBox="0 0 56 56" fill="none" xmlns="http://www.w3.org/2000/svg">
<g clip-path="url(#clip0_2:132)">
<path d="M29.2693 22.2599V25.0755C29.2693 25.9697 29.4478 26.72 29.8003 27.3044C30.2865 28.1111 31.0846 28.5734 31.9908 28.5734C32.8786 28.5734 33.7609 28.141 34.6128 27.2891L43.9123 17.9896C45.9541 15.9478 45.9541 12.6255 43.9123 10.5837L34.6128 1.2843C33.7609 0.431946 32.8786 0 31.9908 0C30.636 0 29.2693 1.08179 29.2693 3.49786V6.05493C16.0665 6.83466 5.13669 16.9668 3.5123 30.2324C3.42129 30.9732 3.84256 31.6824 4.53683 31.9572C4.73337 32.0349 4.93802 32.0725 5.14011 32.0725C5.65195 32.0725 6.14841 31.8328 6.46457 31.4009C10.8216 25.4476 17.8174 21.8934 25.1779 21.8934C26.5417 21.8934 27.9132 22.0164 29.2693 22.2599Z" fill="#FD7B01"/>
<path d="M51.4342 24.0429C50.74 23.7678 49.9479 23.9968 49.5065 24.5996C45.1499 30.5524 38.1542 34.1067 30.7936 34.1067C29.4298 34.1067 28.0583 33.9836 26.7022 33.7401V30.9246C26.7022 28.5085 25.3351 27.4267 23.9807 27.4267C23.0929 27.4267 22.2106 27.8591 21.3583 28.7114L12.0588 38.0104C10.0174 40.0523 10.0174 43.3745 12.0592 45.4168L21.3583 54.7158C22.2106 55.5681 23.0929 56.0001 23.9807 56.0001C25.3351 56.0001 26.7022 54.9183 26.7022 52.5022V49.9451C39.9054 49.1654 50.8348 39.0333 52.4592 25.7681C52.5502 25.0269 52.1289 24.3176 51.4342 24.0429Z" fill="#FD7B01"/>
</g>
<defs>
<clipPath id="clip0_2:132">
<rect width="56" height="56" fill="white"/>
</clipPath>
</defs>
</svg>
