<svg width="32" height="32" viewBox="0 0 32 32" fill="none" xmlns="http://www.w3.org/2000/svg">
<g clip-path="url(#clip0_2:596)">
<path d="M16.7253 12.72V14.3289C16.7253 14.8398 16.8273 15.2686 17.0288 15.6025C17.3066 16.0635 17.7626 16.3276 18.2805 16.3276C18.7878 16.3276 19.2919 16.0806 19.7788 15.5938L25.0927 10.2798C26.2595 9.11304 26.2595 7.2146 25.0927 6.04785L19.7788 0.733887C19.2919 0.246826 18.7878 0 18.2805 0C17.5063 0 16.7253 0.618164 16.7253 1.99878V3.45996C9.18086 3.90552 2.93525 9.69531 2.00703 17.2756C1.95503 17.699 2.19575 18.1042 2.59248 18.2612C2.70478 18.3057 2.82172 18.3271 2.9372 18.3271C3.22968 18.3271 3.51338 18.1902 3.69404 17.9434C6.18379 14.5415 10.1813 12.5105 14.3874 12.5105C15.1667 12.5105 15.9504 12.5808 16.7253 12.72Z" fill="#FD7B01"/>
<path d="M29.3907 13.7387C28.994 13.5815 28.5414 13.7124 28.2892 14.0569C25.7997 17.4585 21.8021 19.4895 17.596 19.4895C16.8167 19.4895 16.0331 19.4192 15.2581 19.28V17.6711C15.2581 16.2905 14.4769 15.6723 13.703 15.6723C13.1956 15.6723 12.6915 15.9194 12.2044 16.4065L6.89047 21.7202C5.72397 22.8869 5.72397 24.7854 6.89072 25.9524L12.2044 31.2661C12.6915 31.7532 13.1956 32 13.703 32C14.4769 32 15.2581 31.3818 15.2581 30.0012V28.54C22.8028 28.0945 29.0482 22.3047 29.9764 14.7246C30.0284 14.301 29.7877 13.8957 29.3907 13.7387Z" fill="#FD7B01"/>
</g>
<defs>
<clipPath id="clip0_2:596">
<rect width="32" height="32" fill="white"/>
</clipPath>
</defs>
</svg>
