<svg width="48" height="20" viewBox="0 0 48 20" fill="none" xmlns="http://www.w3.org/2000/svg">
<g clip-path="url(#clip0_2:1038)">
<path d="M32.1529 2.34444L25.8802 19.5667L25.841 19.6722L24.6883 17.3278L22.2821 18.4389L28.5941 1.11111L31.0002 0L32.1529 2.34444ZM47.8601 2.77778L41.5873 20L40.4346 17.65L38.0284 18.7611L38.1739 18.3556L44.4467 1.11111L46.8529 0L47.972 2.34444L47.8601 2.77778ZM34.4304 17.6944L38.1236 7.55556L35.7118 8.66667L34.5927 6.31667L30.8603 16.4278L32.0075 18.7778L34.4304 17.6944ZM14.4425 7.69445H3.40779L5.28795 9.44444L3.40779 11.25H14.4313L16.3059 9.44444L14.4425 7.69445ZM1.88016 15.1833H19.7193L17.8447 16.9778L19.7193 18.7667H1.88016L0 16.9778L1.88016 15.1833ZM7.35276 0.144444H25.1807L23.3117 1.93889L25.1807 3.72778H7.35276L5.4726 1.93889L7.35276 0.144444Z" fill="#A8A8A8"/>
</g>
<defs>
<clipPath id="clip0_2:1038">
<rect width="48" height="20" fill="white"/>
</clipPath>
</defs>
</svg>
