<svg width="22" height="24" viewBox="0 0 22 24" fill="none" xmlns="http://www.w3.org/2000/svg">
<path d="M20.281 3.27454L11.405 0.0717041C11.2725 0.0239282 11.1361 0 10.9972 0C10.8578 0 10.7194 0.0241699 10.5863 0.0724292L1.74211 3.27527C1.26411 3.44864 0.928711 3.9028 0.928711 4.41133V12C0.928711 13.6942 1.47479 15.3887 2.51691 17.0362C3.31573 18.2989 4.42754 19.5372 5.80418 20.7169C8.10596 22.6893 10.3899 23.8271 10.4858 23.8746C10.6547 23.9581 10.8405 24 11.0241 24C11.2049 24 11.387 23.9594 11.554 23.8782C11.6499 23.8315 13.9328 22.7114 16.2367 20.7468C17.6147 19.5718 18.7099 18.3335 19.5092 17.0664C20.551 15.4153 21.0702 13.7108 21.0702 12V4.41133C21.0703 3.90199 20.7601 3.44727 20.281 3.27454ZM2.8623 11.9943V5.31488C2.8623 5.06062 3.01812 4.8335 3.25716 4.74681L10.775 2.01182C10.842 1.98757 10.9189 1.96969 10.9995 1.96969V12H19.194C19.1945 12 19.195 12.0109 19.195 12.0178C19.1934 14.2035 18.0926 16.3697 15.9235 18.4789C14.2296 20.126 12.3051 21.3016 11.3152 21.8561C11.2234 21.9076 11.0801 21.9319 10.9996 21.9319C10.9996 21.7439 10.9996 12.1042 10.9996 11.9969L2.8623 11.9943Z" fill="#81828A"/>
</svg>
