<svg width="99" height="20" viewBox="0 0 99 20" fill="none" xmlns="http://www.w3.org/2000/svg">
<path d="M4.49022 10L2.25589 12.2458L0 10L2.25507 7.73416L4.49022 10ZM9.95248 4.51166L13.8008 8.37834L16.0567 6.11334L9.95248 0L3.84829 6.13334L6.1042 8.39834L9.95248 4.51166ZM17.6499 7.73416L15.4147 10L17.6698 12.2658L19.924 10L17.6499 7.73416ZM9.95248 15.4883L6.1042 11.6017L3.84829 13.8675L9.95248 20L16.0567 13.8667L13.8008 11.6017L9.95248 15.4883ZM9.95248 12.2467L12.2076 9.98L9.95248 7.735L7.69741 10L9.95248 12.2458V12.2467ZM33.6676 12.48V12.4417C33.6676 10.9767 32.8897 10.2342 31.6265 9.74584C32.4037 9.31666 33.0646 8.6125 33.0646 7.3825V7.34416C33.0646 5.625 31.6845 4.51166 29.4685 4.51166H24.3952V15.4692H29.5855C32.0536 15.4883 33.6676 14.4725 33.6676 12.4808V12.48ZM30.6735 7.79334C30.6735 8.61334 30.0126 8.945 28.9435 8.945H26.7282V6.62084H29.0993C30.1103 6.62084 30.6735 7.03084 30.6735 7.75416V7.79334ZM31.2765 12.1683C31.2765 12.9883 30.6354 13.36 29.5845 13.36H26.7282V10.9567H29.5074C30.7324 10.9567 31.2765 11.4067 31.2765 12.1483V12.1683ZM38.7019 15.4883V4.51166H36.2918V15.4692H38.7019V15.4883ZM51.6095 15.4883V4.51166H49.2374V11.27L44.1251 4.51166H41.9091V15.4692H44.2812V8.51584L49.5684 15.4883H51.6087H51.6095ZM64.9044 15.4883L60.2209 4.45334H58.0055L53.3204 15.4883H55.7895L56.7807 13.0275H61.3878L62.3789 15.4883H64.9059H64.9044ZM60.5309 10.8983H57.6348L59.0929 7.34416L60.5309 10.8983ZM76.3546 15.4883V4.51166H73.9825V11.27L68.8704 4.51166H66.6542V15.4692H69.0263V8.51584L74.3136 15.4883H76.3538H76.3546ZM88.7363 13.7108L87.2012 12.1683C86.3452 12.9492 85.5873 13.4567 84.3242 13.4567C82.4581 13.4567 81.1559 11.8942 81.1559 10.0192V9.96084C81.1559 8.08584 82.4771 6.54334 84.3242 6.54334C85.4121 6.54334 86.2682 7.01166 87.1233 7.77334L88.6584 5.99584C87.6481 5 86.4231 4.29666 84.363 4.29666C81.0198 4.29666 78.6678 6.855 78.6678 9.96084V10C78.6678 13.1442 81.0579 15.6442 84.266 15.6442C86.3652 15.6642 87.6093 14.9217 88.7363 13.7108ZM98.9807 15.4883V13.34H93.0516V11.035H98.2028V8.88666H93.0516V6.66H98.9028V4.51166H90.6803V15.4692H98.9807V15.4883Z" fill="#A8A8A8"/>
</svg>
