<svg width="150" height="44" viewBox="0 0 150 44" fill="none" xmlns="http://www.w3.org/2000/svg">
<path d="M144.444 0H5.55556C2.48731 0 0 2.46243 0 5.5V38.5C0 41.5376 2.48731 44 5.55556 44H144.444C147.513 44 150 41.5376 150 38.5V5.5C150 2.46243 147.513 0 144.444 0Z" fill="black"/>
<path d="M53.7601 25.7487H55.9973C55.6244 23.3932 53.5647 21.7526 50.8836 21.7526C47.7113 21.7526 45.332 24.0612 45.332 27.9283C45.332 31.7253 47.6048 34.0807 50.9488 34.0807C53.9494 34.0807 56.0979 32.1706 56.0979 29.0768V27.6354H51.1795V29.3346H53.9731C53.9376 31.0455 52.7835 32.1295 50.9606 32.1295C48.9306 32.1295 47.5396 30.6237 47.5396 27.905C47.5396 25.2037 48.9542 23.7038 50.9132 23.7038C52.3751 23.7038 53.3694 24.4772 53.7601 25.7487ZM62.0919 34.0924C64.7553 34.0924 66.448 32.235 66.448 29.4518C66.448 26.6627 64.7553 24.7995 62.0919 24.7995C59.4286 24.7995 57.7358 26.6627 57.7358 29.4518C57.7358 32.235 59.4286 34.0924 62.0919 34.0924ZM62.1038 32.3932C60.63 32.3932 59.908 31.0924 59.908 29.446C59.908 27.7994 60.63 26.4811 62.1038 26.4811C63.5538 26.4811 64.2758 27.7994 64.2758 29.446C64.2758 31.0924 63.5538 32.3932 62.1038 32.3932ZM72.2319 34.0924C74.8953 34.0924 76.588 32.235 76.588 29.4518C76.588 26.6627 74.8953 24.7995 72.2319 24.7995C69.5685 24.7995 67.8758 26.6627 67.8758 29.4518C67.8758 32.235 69.5685 34.0924 72.2319 34.0924ZM72.2437 32.3932C70.77 32.3932 70.048 31.0924 70.048 29.446C70.048 27.7994 70.77 26.4811 72.2437 26.4811C73.6938 26.4811 74.4158 27.7994 74.4158 29.446C74.4158 31.0924 73.6938 32.3932 72.2437 32.3932ZM82.36 37.4792C84.8162 37.4792 86.6273 36.3659 86.6273 34.0631V24.9166H84.5144V26.4049H84.396C84.0705 25.7545 83.3899 24.7995 81.7859 24.7995C79.6848 24.7995 78.0336 26.4284 78.0336 29.3873C78.0336 32.3229 79.6848 33.7878 81.78 33.7878C83.3366 33.7878 84.0646 32.9616 84.396 32.2995H84.5026V34.0045C84.5026 35.3288 83.6148 35.8736 82.3955 35.8736C81.1053 35.8736 80.5371 35.2702 80.2767 34.7428L78.3472 35.2056C78.7379 36.4654 80.0459 37.4792 82.36 37.4792ZM82.3778 32.1236C80.9632 32.1236 80.2175 31.0338 80.2175 29.3757C80.2175 27.7409 80.9514 26.5397 82.3778 26.5397C83.7569 26.5397 84.5144 27.6706 84.5144 29.3757C84.5144 31.0924 83.745 32.1236 82.3778 32.1236ZM90.9656 21.9166H88.8231V33.9166H90.9656V21.9166ZM97.1933 34.0924C99.3119 34.0924 100.768 33.0671 101.147 31.5026L99.1461 31.2799C98.8563 32.0416 98.1461 32.4401 97.223 32.4401C95.8378 32.4401 94.9211 31.5377 94.9026 29.9967H101.236V29.3463C101.236 26.1881 99.3183 24.7995 97.0813 24.7995C94.4767 24.7995 92.7785 26.692 92.7785 29.4693C92.7785 32.2936 94.4535 34.0924 97.1933 34.0924ZM94.9091 28.5671C94.9739 27.4186 95.8322 26.4518 97.1109 26.4518C98.3415 26.4518 99.1702 27.3424 99.1822 28.5671H94.9091ZM107.278 33.9166H109.473V29.8619H111.793C114.592 29.8619 116.096 28.1979 116.096 25.8893C116.096 23.5983 114.61 21.9166 111.823 21.9166H107.278V33.9166ZM109.473 28.0748V23.733H111.485C113.13 23.733 113.859 24.6119 113.859 25.8893C113.859 27.1667 113.13 28.0748 111.497 28.0748H109.473ZM120.051 21.9166H117.908V33.9166H120.051V21.9166ZM124.87 34.0983C126.296 34.0983 127.149 33.4362 127.54 32.6803H127.61V33.9166H129.67V27.8932C129.67 25.5143 127.711 24.7995 125.977 24.7995C124.066 24.7995 122.597 25.6432 122.124 27.2838L124.125 27.5651C124.338 26.9499 124.941 26.4225 125.989 26.4225C126.983 26.4225 127.528 26.9264 127.528 27.8112V27.8463C127.528 28.4557 126.882 28.485 125.279 28.6549C123.515 28.8424 121.828 29.3639 121.828 31.3912C121.828 33.1607 123.136 34.0983 124.87 34.0983ZM125.427 32.5397C124.533 32.5397 123.893 32.1354 123.893 31.3561C123.893 30.5416 124.61 30.2017 125.568 30.067C126.13 29.9908 127.255 29.8502 127.533 29.6275V30.6881C127.533 31.6901 126.716 32.5397 125.427 32.5397ZM132.83 37.2916C134.5 37.2916 135.465 36.442 135.979 35.0065L139.631 24.9284L137.341 24.9166L135.24 31.7135H135.144L133.05 24.9166H130.777L134.074 34.1041L133.89 34.5905C133.493 35.6159 132.866 35.6862 131.931 35.4167L131.434 37.069C131.724 37.1862 132.244 37.2916 132.83 37.2916Z" fill="white"/>
<path d="M49.8635 11.9167H50.7052C50.4553 10.6277 49.3636 9.74219 47.9432 9.74219C46.217 9.74219 44.9971 11.0573 44.9971 13.1667C44.9971 15.2761 46.2071 16.5912 47.9958 16.5912C49.6004 16.5912 50.7447 15.5332 50.7447 13.8829V13.1667H48.1799V13.8829H49.9555C49.9324 15.0808 49.1368 15.836 47.9958 15.836C46.7463 15.836 45.7862 14.8984 45.7862 13.1667C45.7862 11.4349 46.7463 10.4974 47.9432 10.4974C48.9164 10.4974 49.5773 11.041 49.8635 11.9167ZM52.1412 16.5H56.2579V15.7839H52.9567V13.5183H55.9949V12.8021H52.9567V10.5495H56.2053V9.8334H52.1412V16.5ZM57.3069 10.5495H59.4244V16.5H60.2398V10.5495H62.3573V9.8334H57.3069V10.5495ZM67.0355 9.8334H66.22V16.5H67.0355V9.8334ZM68.3022 10.5495H70.4198V16.5H71.2352V10.5495H73.3527V9.8334H68.3022V10.5495ZM82.8972 13.1667C82.8972 11.0573 81.6477 9.74219 79.9247 9.74219C78.2018 9.74219 76.9523 11.0573 76.9523 13.1667C76.9523 15.2761 78.2018 16.5912 79.9247 16.5912C81.6477 16.5912 82.8972 15.2761 82.8972 13.1667ZM82.1081 13.1667C82.1081 14.8984 81.148 15.836 79.9247 15.836C78.7016 15.836 77.7415 14.8984 77.7415 13.1667C77.7415 11.4349 78.7016 10.4974 79.9247 10.4974C81.148 10.4974 82.1081 11.4349 82.1081 13.1667ZM89.6082 9.8334H88.806V15.0808H88.7401L85.0575 9.8334H84.2684V16.5H85.0838V11.2657H85.1496L88.8191 16.5H89.6082V9.8334Z" fill="white"/>
<path d="M24.1761 22.0022L11.1568 34.4136C10.547 34.0011 10.1851 33.315 10.1915 32.5839V11.4204C10.1851 10.6893 10.547 10.0032 11.1568 9.5907L24.1761 22.0022Z" fill="#00D4FF"/>
<path d="M28.7322 17.6671L24.1766 22.0024L11.1572 9.59089C11.2063 9.55331 11.2574 9.51829 11.3103 9.48603C11.9983 9.07317 12.8578 9.05984 13.5586 9.4511L28.7322 17.6671Z" fill="#00F076"/>
<path d="M34.2532 22.0024C34.2618 22.8277 33.8088 23.5899 33.0761 23.9836L28.7324 26.3376L24.1768 22.0024L28.7324 17.6671L33.0761 20.0212C33.8088 20.4148 34.2618 21.1771 34.2532 22.0024Z" fill="#FFCF00"/>
<path d="M28.7322 26.3375L13.5586 34.5536C12.8563 34.9388 12 34.9254 11.3103 34.5186C11.2574 34.4864 11.2063 34.4514 11.1572 34.4137L24.1767 22.0023L28.7322 26.3375Z" fill="#FB3746"/>
</svg>
