<svg width="155" height="40" viewBox="0 0 155 40" fill="none" xmlns="http://www.w3.org/2000/svg">
<path fill-rule="evenodd" clip-rule="evenodd" d="M35.6215 4.27924C35.6594 4.32392 35.6823 4.37953 35.6868 4.43803C35.7103 4.72491 37.7909 33.1834 18.3507 39.8114C18.2924 39.8314 18.2291 39.8314 18.1706 39.8114C-1.26881 33.1834 0.811722 4.72491 0.834634 4.43803C0.83931 4.37971 0.862169 4.32432 0.899965 4.27969C0.937771 4.23507 0.9886 4.20348 1.04529 4.18937L18.1948 0.00765665C18.2381 -0.00255222 18.2832 -0.00255222 18.3265 0.00765665L35.4755 4.18937C35.5324 4.20309 35.5835 4.23458 35.6215 4.27924ZM32.4652 7.3178C32.4961 7.35399 32.5149 7.39898 32.5189 7.44644H32.5209C32.5399 7.68044 34.2418 30.9141 18.3345 36.3244C18.2879 36.3422 18.2362 36.3422 18.1895 36.3244C2.28163 30.9141 3.9841 7.68044 4.00321 7.44644C4.0069 7.39898 4.02551 7.35386 4.0564 7.31767C4.08727 7.28149 4.12882 7.25603 4.17504 7.24495L18.206 3.82896C18.2415 3.82004 18.2787 3.82004 18.3142 3.82896L32.3464 7.24495C32.3927 7.25616 32.4342 7.28167 32.4652 7.3178Z" fill="#868686"/>
<path d="M18.0619 8.92814L8.70624 11.2041C8.67541 11.2121 8.6478 11.2294 8.62722 11.2537C8.60673 11.278 8.59426 11.3082 8.59168 11.34C8.57956 11.4961 7.44486 26.9856 18.0485 30.5928C18.0803 30.603 18.1147 30.603 18.1465 30.5928C28.7503 26.9849 27.6162 11.4961 27.6034 11.3393C27.601 11.3075 27.5886 11.2772 27.5679 11.2529C27.5472 11.2286 27.5193 11.2115 27.4882 11.2041L18.1332 8.92752C18.1098 8.9213 18.0853 8.9213 18.0619 8.92752" fill="#868686"/>
<path d="M55.6107 22.4994V18.8533H61.5056V29.5768C58.6673 30.0429 56.365 30.276 54.5985 30.276C51.4427 30.276 49.2693 29.4153 48.0784 27.6938C46.9074 25.9723 46.3219 23.2377 46.3219 19.4913C46.3219 15.7449 46.9372 13.0416 48.1678 11.3801C49.3983 9.71978 51.4923 8.88892 54.4497 8.88892C56.2955 8.88892 58.2902 9.10234 60.4339 9.52712L61.5056 9.74055L61.3865 12.9909C59.0048 12.7276 57.0497 12.5949 55.5214 12.5949C54.013 12.5949 52.9511 12.7772 52.3358 13.142C51.7205 13.5066 51.264 14.1849 50.9663 15.1773C50.6884 16.1498 50.5495 17.8309 50.5495 20.2206C50.5495 22.5905 50.8373 24.2509 51.4129 25.2026C51.9885 26.1546 53.1794 26.6311 54.9855 26.6311L57.4567 26.5088V22.4994H55.6107Z" fill="#868686"/>
<path d="M69.3154 23.0152C69.3154 25.4255 70.5162 26.6313 72.9178 26.6313C75.3194 26.6313 76.5201 25.4255 76.5201 23.0152V9.25366H80.6286V22.9241C80.6286 25.4555 79.9837 27.3189 78.6935 28.5143C77.4233 29.6887 75.4979 30.2762 72.9178 30.2762C70.3375 30.2762 68.4024 29.6887 67.1122 28.5143C65.842 27.3189 65.2069 25.4555 65.2069 22.9241V9.25366H69.3154V23.0152Z" fill="#868686"/>
<path d="M83.0233 29.9114L87.5783 9.25366H95.3786L99.9338 29.9114H95.8251L95.0214 26.1754H87.9356L87.1318 29.9114H83.0233ZM90.764 12.7174L88.7097 22.5293H94.2472L92.193 12.7174H90.764Z" fill="#868686"/>
<path d="M106.738 22.9853V29.9114H102.63V9.25366H110.49C115.253 9.25366 117.635 11.522 117.635 16.0589C117.635 18.7529 116.643 20.7375 114.658 22.0136L117.546 29.9114H113.05L110.698 22.9853H106.738ZM110.549 19.4004C111.522 19.4004 112.246 19.0967 112.723 18.4887C113.199 17.8819 113.437 17.081 113.437 16.0889C113.437 15.0965 113.179 14.3074 112.663 13.72C112.167 13.1327 111.442 12.8386 110.49 12.8386H106.738V19.4004H110.549Z" fill="#868686"/>
<path d="M127.909 29.9114H121.092V9.25366H127.909C129.656 9.25366 131.095 9.44632 132.226 9.83165C133.358 10.1951 134.231 10.8136 134.846 11.6847C135.481 12.5351 135.918 13.5469 136.156 14.7227C136.394 15.8766 136.513 17.3856 136.513 19.249C136.513 21.1115 136.404 22.6608 136.186 23.8966C135.968 25.1117 135.551 26.2054 134.935 27.177C134.34 28.1287 133.467 28.8281 132.316 29.2734C131.165 29.6991 129.696 29.9114 127.909 29.9114ZM132.226 21.7091C132.266 21.0619 132.286 20.1699 132.286 19.0356C132.286 17.8819 132.246 16.9599 132.167 16.2712C132.087 15.5833 131.899 14.9546 131.601 14.3882C131.303 13.8203 130.857 13.4362 130.261 13.2331C129.686 13.0105 128.902 12.8997 127.909 12.8997H125.2V26.2665H127.909C129.398 26.2665 130.48 25.8812 131.155 25.1117C131.73 24.4839 132.087 23.3498 132.226 21.7091Z" fill="#868686"/>
<path d="M138.089 29.9114L142.645 9.25366H150.445L155 29.9114H150.891L150.087 26.1754H143.002L142.198 29.9114H138.089ZM145.83 12.7174L143.776 22.5293H149.313L147.259 12.7174H145.83Z" fill="#868686"/>
</svg>
