<svg width="46" height="20" viewBox="0 0 46 20" fill="none" xmlns="http://www.w3.org/2000/svg">
<path d="M32.3431 4.15649L31.345 8.06519L24.6664 8.95649L32.3431 4.15649Z" fill="#E5E5E5"/>
<path d="M35.8192 12.8218L33.6581 11.9044L34.1528 19.9175L35.8192 12.8218Z" fill="#727272"/>
<path d="M31.345 8.06519L29.5875 11.7652L24.6664 8.95649L31.345 8.06519Z" fill="#E4E4E4"/>
<path d="M33.6581 11.9043L29.5876 11.7652L34.1529 19.9174L33.6581 11.9043Z" fill="#A7A7A7"/>
<path d="M31.3451 8.06519L33.6581 11.9043L29.5876 11.7652L31.3451 8.06519Z" fill="#E2E2E2"/>
<path d="M32.3432 4.15649L37.8849 4.86954L31.3451 8.06519L32.3432 4.15649Z" fill="#F2F2F2"/>
<path d="M43.9517 2.38263L40.4626 6.53915L40.71 2.69133L43.9517 2.38263Z" fill="#F2F2F2"/>
<path d="M43.9517 2.38261L45.8872 0L45.4619 2.56957L43.9517 2.38261Z" fill="#F2F2F2"/>
<path d="M42.0727 4.5435L45.4619 2.56959L43.9517 2.38263L42.0727 4.5435Z" fill="#E7E7E7"/>
<path d="M35.8192 12.8217L35.9841 8.05215L33.6581 11.9043L35.8192 12.8217Z" fill="#A7A7A7"/>
<path d="M35.9841 8.05215L33.6581 11.9043L31.3451 8.0652L35.9841 8.05215Z" fill="#BEBEBE"/>
<path d="M37.8849 4.8696L35.9841 8.05221L31.3451 8.06525L37.8849 4.8696Z" fill="#E5E5E5"/>
<path d="M35.9841 8.05215L35.8192 12.8217L40.072 17.2869L35.9841 8.05215Z" fill="#8D8D8D"/>
<path d="M42.2983 14.7913L40.0504 9.06952L40.0721 17.2869L42.2983 14.7913Z" fill="#CBCBCB"/>
<path d="M40.4627 6.53912L40.0504 9.06956L35.9842 8.05217L40.4627 6.53912Z" fill="#CBCBCB"/>
<path d="M42.5239 9.97825L40.0504 9.06956L40.4626 6.53912L42.5239 9.97825Z" fill="white"/>
<path d="M43.4092 14.6305L40.7143 10.2044H42.2505L43.4092 14.6305Z" fill="#F2F2F2"/>
<path d="M38.3927 3.93048L40.4627 6.53917L40.71 2.69135L38.3927 3.93048Z" fill="#E5E5E5"/>
<path d="M40.0504 9.06955L35.9842 8.05215L40.0721 17.2869L40.0504 9.06955Z" fill="#BEBEBE"/>
<path d="M3.2417 19.9174V17.6522H1.4234V19.9174H0V14.0435H1.4234V16.3H3.2417V14.0435H4.66509V19.9174H3.2417Z" fill="#A8A8A8"/>
<path d="M6.20563 14.7565C6.21791 14.5708 6.30172 14.3972 6.43937 14.2723C6.57702 14.1474 6.75773 14.0809 6.94336 14.087C7.03595 14.0795 7.12907 14.0913 7.21687 14.1217C7.30466 14.152 7.38523 14.2003 7.45349 14.2634C7.52175 14.3265 7.57623 14.4031 7.61349 14.4883C7.65075 14.5736 7.66999 14.6656 7.66999 14.7587C7.66999 14.8517 7.65075 14.9438 7.61349 15.029C7.57623 15.1143 7.52175 15.1909 7.45349 15.254C7.38523 15.3171 7.30466 15.3653 7.21687 15.3957C7.12907 15.4261 7.03595 15.4379 6.94336 15.4304C6.75673 15.4376 6.57478 15.3709 6.43677 15.2448C6.29876 15.1187 6.21574 14.9434 6.20563 14.7565ZM6.30544 16.0609L6.94336 16.4043L7.59865 16.0652V19.9217H6.29676V16.0652L6.30544 16.0609Z" fill="#A8A8A8"/>
<path d="M10.6191 19.9174H9.31717V16.9913H8.79642V15.7218H9.30849V14.3131H10.6104V15.7218H11.1225V16.987H10.6191V19.9174Z" fill="#A8A8A8"/>
<path d="M14.7938 14.0435C16.5296 14.0435 16.8117 15.1 16.8117 15.6391C16.8247 15.8929 16.7635 16.1449 16.6355 16.3642C16.5075 16.5836 16.3184 16.7607 16.0913 16.8739C16.3624 16.9631 16.5967 17.1391 16.7583 17.3748C16.9198 17.6104 16.9995 17.8927 16.9853 18.1782C16.9853 19.1 16.4645 19.9174 14.7504 19.9174H12.4634V14.0435H14.7938ZM13.8868 16.2956H14.95C15.0132 16.3072 15.0781 16.3046 15.1401 16.288C15.2022 16.2714 15.2598 16.2412 15.3088 16.1997C15.3577 16.1581 15.3969 16.1061 15.4234 16.0475C15.4499 15.9889 15.4631 15.9252 15.4621 15.8608C15.4631 15.7965 15.4499 15.7328 15.4234 15.6742C15.3969 15.6156 15.3577 15.5636 15.3088 15.522C15.2598 15.4805 15.2022 15.4503 15.1401 15.4337C15.0781 15.4171 15.0132 15.4145 14.95 15.4261H13.8868V16.3304V16.2956ZM13.8868 18.5695H15.0498C15.1254 18.5815 15.2027 18.577 15.2763 18.5561C15.35 18.5353 15.4183 18.4988 15.4765 18.449C15.5346 18.3992 15.5814 18.3373 15.6134 18.2677C15.6454 18.1981 15.662 18.1223 15.662 18.0456C15.662 17.969 15.6454 17.8932 15.6134 17.8236C15.5814 17.7539 15.5346 17.6921 15.4765 17.6423C15.4183 17.5925 15.35 17.5559 15.2763 17.5351C15.2027 17.5143 15.1254 17.5097 15.0498 17.5217H13.8868V18.5695Z" fill="#DBDBDB"/>
<path d="M20.6479 19.9174H19.2245V15.3869H17.723V14.0435H22.132V15.3869H20.6479V19.9174Z" fill="#DBDBDB"/>
<path d="M28.0774 14.9609L27.1574 15.8305C26.8012 15.5078 26.3355 15.3336 25.8555 15.3435C25.644 15.3419 25.4344 15.3839 25.2397 15.4668C25.0451 15.5497 24.8695 15.6718 24.7238 15.8255C24.5782 15.9791 24.4656 16.1611 24.393 16.3602C24.3204 16.5592 24.2894 16.7711 24.3019 16.9826C24.2875 17.1952 24.3172 17.4085 24.3893 17.6089C24.4614 17.8094 24.5742 17.9926 24.7207 18.1471C24.8671 18.3016 25.044 18.4239 25.2401 18.5064C25.4362 18.5889 25.6472 18.6296 25.8598 18.6261C26.3389 18.6393 26.8047 18.4681 27.1617 18.1479L28.0817 19.0174C27.799 19.3229 27.4567 19.5669 27.076 19.7344C26.6953 19.902 26.2843 19.9894 25.8685 19.9913C25.0755 19.9913 24.315 19.6757 23.7543 19.1139C23.1935 18.5521 22.8785 17.7902 22.8785 16.9957C22.8785 16.2012 23.1935 15.4392 23.7543 14.8774C24.315 14.3156 25.0755 14 25.8685 14C26.2826 14.0009 26.6922 14.0866 27.072 14.2518C27.4519 14.417 27.794 14.6584 28.0774 14.9609Z" fill="#DBDBDB"/>
<path d="M42.2982 14.7913L43.1965 15.3043L40.085 17.2869L42.2982 14.7913Z" fill="#A7A7A7"/>
<path d="M43.4092 14.5826L40.0504 9.06952L42.2983 14.7913L43.4092 14.5826Z" fill="#E5E5E5"/>
<path d="M38.3927 3.93042L35.9842 8.05216L40.4627 6.53911L38.3927 3.93042Z" fill="#F2F2F2"/>
<g opacity="0.7">
<path opacity="0.7" d="M1.61003 11.1958V11.5132H0.0868225V9.47403H1.57097V9.79142H0.46437V10.3219H1.44512V10.6349H0.46437V11.1958H1.61003Z" fill="white"/>
<path opacity="0.7" d="M2.39548 11.4783C2.26905 11.4449 2.15086 11.3857 2.04831 11.3044L2.16982 11.0044C2.26263 11.0752 2.36683 11.1296 2.47793 11.1653C2.59524 11.2057 2.71842 11.2262 2.84246 11.2262C2.95995 11.2335 3.07717 11.2079 3.18095 11.1522C3.21489 11.1331 3.2432 11.1054 3.26301 11.0718C3.28282 11.0382 3.29343 11 3.29378 10.9609C3.29455 10.9341 3.28952 10.9073 3.27904 10.8826C3.26855 10.8578 3.25286 10.8356 3.23303 10.8175C3.18626 10.7774 3.13153 10.7478 3.07246 10.7305L2.81208 10.6566C2.68404 10.6285 2.55793 10.5922 2.43454 10.5479C2.33904 10.5112 2.25407 10.4515 2.18718 10.374C2.11443 10.2848 2.07732 10.1717 2.08303 10.0566C2.08057 9.94732 2.1108 9.83982 2.16982 9.74789C2.23905 9.64863 2.33552 9.5716 2.44755 9.52616C2.5853 9.47002 2.73282 9.44194 2.88152 9.44355C3.00455 9.44402 3.12704 9.46009 3.24605 9.49137C3.35702 9.51838 3.46265 9.56395 3.5585 9.62616L3.47171 9.92181C3.38456 9.87086 3.29121 9.8314 3.19397 9.80442C3.10216 9.77855 3.00726 9.76538 2.91189 9.76529C2.79567 9.75632 2.6794 9.78204 2.57774 9.8392C2.54422 9.86058 2.51667 9.89016 2.49769 9.92515C2.47871 9.96013 2.46892 9.99938 2.46925 10.0392C2.46819 10.0661 2.47308 10.093 2.48358 10.1178C2.49409 10.1426 2.50994 10.1647 2.53001 10.1827C2.57677 10.2227 2.6315 10.2524 2.69057 10.2696L2.95095 10.3435C3.07775 10.3709 3.20246 10.4073 3.32416 10.4522C3.4194 10.4894 3.50427 10.549 3.57152 10.6262C3.64398 10.7138 3.68112 10.8255 3.67567 10.9392C3.67677 11.0476 3.64499 11.1537 3.58454 11.2435C3.51487 11.3414 3.4184 11.4169 3.3068 11.4609C3.16896 11.5167 3.0215 11.5448 2.87284 11.5435C2.7113 11.5468 2.55025 11.5248 2.39548 11.4783Z" fill="white"/>
<path opacity="0.7" d="M4.67381 9.79577H3.99683V9.47403H5.73268V9.79577H5.05135V11.5349H4.67381V9.79577Z" fill="white"/>
<path opacity="0.7" d="M5.93659 11.4653C5.89633 11.4257 5.87103 11.3734 5.86503 11.3173C5.85903 11.2611 5.8727 11.2046 5.90369 11.1575C5.93469 11.1103 5.98109 11.0754 6.03494 11.0587C6.08879 11.0421 6.14676 11.0447 6.19891 11.0661C6.25105 11.0875 6.29414 11.1265 6.3208 11.1762C6.34745 11.226 6.35601 11.2835 6.34501 11.3389C6.33402 11.3943 6.30414 11.4441 6.26051 11.4798C6.21688 11.5156 6.1622 11.535 6.10583 11.5348C6.07441 11.5352 6.04323 11.5292 6.01415 11.5173C5.98508 11.5053 5.9587 11.4876 5.93659 11.4653Z" fill="white"/>
<path opacity="0.7" d="M9.11327 11.1957V11.5174H7.62477V11.2609L8.43194 10.4913C8.50644 10.4254 8.5695 10.3475 8.61855 10.2609C8.65342 10.2027 8.67422 10.1372 8.6793 10.0696C8.6817 10.0284 8.67429 9.98717 8.65769 9.94938C8.64109 9.91158 8.61578 9.87828 8.58383 9.8522C8.50113 9.7957 8.40148 9.76959 8.30176 9.77828C8.2081 9.7718 8.1143 9.78866 8.02873 9.82736C7.94316 9.86605 7.86849 9.92537 7.81138 10L7.54666 9.79568C7.63007 9.6862 7.74085 9.60071 7.86779 9.54785C8.0052 9.49011 8.15276 9.46054 8.30176 9.46089C8.4909 9.45093 8.67775 9.50617 8.83119 9.61742C8.89695 9.66843 8.94944 9.73459 8.98419 9.81029C9.01895 9.88599 9.03494 9.96898 9.03081 10.0522C9.03169 10.1605 9.00795 10.2675 8.96138 10.3652C8.8918 10.4904 8.80071 10.6022 8.69232 10.6957L8.14987 11.2131H9.11327V11.1957Z" fill="white"/>
<path opacity="0.7" d="M9.9508 11.4218C9.817 11.3333 9.71152 11.208 9.64703 11.0609C9.50014 10.7 9.50014 10.2957 9.64703 9.9348C9.71173 9.78787 9.81716 9.66262 9.9508 9.57393C10.0806 9.49199 10.2314 9.44969 10.3848 9.45219C10.5381 9.45019 10.6887 9.49245 10.8187 9.57393C10.9525 9.66243 11.058 9.78773 11.1225 9.9348C11.2694 10.2957 11.2694 10.7 11.1225 11.0609C11.0582 11.2081 10.9527 11.3334 10.8187 11.4218C10.6893 11.505 10.5386 11.5488 10.3848 11.5478C10.2309 11.5493 10.08 11.5055 9.9508 11.4218ZM10.7319 11.0348C10.8237 10.8708 10.8645 10.6831 10.8491 10.4957C10.8622 10.3074 10.8183 10.1195 10.7233 9.95654C10.6827 9.90417 10.6307 9.86179 10.5713 9.83264C10.5119 9.80348 10.4466 9.78833 10.3804 9.78833C10.3143 9.78833 10.249 9.80348 10.1896 9.83264C10.1301 9.86179 10.0782 9.90417 10.0376 9.95654C9.94252 10.1195 9.89867 10.3074 9.91175 10.4957C9.89894 10.6839 9.94277 10.8717 10.0376 11.0348C10.078 11.0888 10.1304 11.1326 10.1907 11.1628C10.251 11.193 10.3174 11.2087 10.3848 11.2087C10.4521 11.2087 10.5186 11.193 10.5788 11.1628C10.6391 11.1326 10.6915 11.0888 10.7319 11.0348Z" fill="white"/>
<path opacity="0.7" d="M12.355 9.47403V11.5132H11.9774V9.77403H11.5435V9.47403H12.3507H12.355Z" fill="white"/>
<path opacity="0.7" d="M14.2296 10.5088C14.3292 10.6159 14.3823 10.7582 14.3772 10.9045C14.3778 11.0182 14.3462 11.1298 14.286 11.2262C14.2194 11.3282 14.1243 11.4083 14.0126 11.4566C13.876 11.5167 13.7279 11.5464 13.5787 11.5436C13.4317 11.5462 13.2853 11.5256 13.1447 11.4827C13.0209 11.446 12.9047 11.3871 12.8019 11.3088L12.9668 11.0132C13.0463 11.079 13.1376 11.1292 13.2358 11.161C13.3408 11.1961 13.4507 11.2137 13.5613 11.2132C13.6759 11.2217 13.7901 11.1927 13.8868 11.1306C13.9237 11.1057 13.9538 11.072 13.9742 11.0325C13.9947 10.993 14.0049 10.949 14.004 10.9045C14.0046 10.8606 13.9942 10.8173 13.9737 10.7786C13.9532 10.7398 13.9233 10.7068 13.8868 10.6827C13.7861 10.6228 13.6694 10.5954 13.5526 10.6045H13.3704V10.3436L13.8347 9.79142H12.906V9.47403H14.2947V9.7262L13.8 10.3175C13.9612 10.3286 14.1134 10.3963 14.2296 10.5088Z" fill="white"/>
</g>
</svg>
