<svg width="104" height="16" viewBox="0 0 104 16" fill="none" xmlns="http://www.w3.org/2000/svg">
<path d="M9.74618 0.0773104C11.5488 -0.0357007 13.3819 0.315229 15.0012 1.10036C17.3904 2.24237 19.2907 4.30631 20.189 6.73902C20.5861 7.8156 20.8 8.95166 20.8 10.0937V14.3346C20.8 14.507 20.8061 14.6855 20.7633 14.852C20.6656 15.2803 20.3539 15.655 19.9384 15.8394C19.6512 15.9702 19.3213 15.9881 19.0157 15.9405C18.3497 15.8215 17.8364 15.2149 17.8303 14.5606C17.8242 13.2461 17.8303 11.9316 17.8303 10.6111C17.8425 10.2364 17.8425 9.8379 17.6348 9.51077C17.2987 8.90407 16.4799 8.61263 15.8261 8.87434C15.27 9.06467 14.8667 9.61188 14.8606 10.1888C14.8545 11.5271 14.8606 12.8595 14.8606 14.1918C14.8606 14.4416 14.8729 14.6974 14.7995 14.9353C14.659 15.4052 14.2557 15.7859 13.773 15.9167C13.1375 16.0892 12.4103 15.8156 12.0865 15.2446C11.8665 14.8996 11.8848 14.4833 11.891 14.1026C11.8848 12.7762 11.8971 11.4498 11.8848 10.1234C11.8726 9.45129 11.3043 8.8446 10.6139 8.75538C10.1678 8.68995 9.6973 8.8327 9.37344 9.14199C9.08014 9.40965 8.91516 9.79627 8.91516 10.1888V14.055C8.90905 14.3821 8.95182 14.7152 8.8235 15.0186C8.62797 15.5717 8.05358 15.9762 7.44865 15.9584C6.83149 15.994 6.22656 15.5777 6.03102 15.0126C5.92103 14.7331 5.94548 14.4357 5.94548 14.1383C5.94548 12.8059 5.95159 11.4736 5.94548 10.1353C5.93937 9.47508 5.41387 8.87434 4.74783 8.75538C4.149 8.63047 3.48296 8.92787 3.17744 9.45724C3.04912 9.67731 2.9819 9.93307 2.9819 10.1829V14.513C2.98801 14.9353 2.78637 15.3517 2.4564 15.6193C1.95535 16.0476 1.14266 16.0714 0.611046 15.6788C0.226087 15.423 0 14.9888 0 14.5368V10.1531C0.00611046 8.49367 0.433842 6.84014 1.24653 5.38289C1.91257 4.1933 2.82303 3.12861 3.9168 2.284C5.56663 0.9814 7.63196 0.202217 9.74618 0.0773104Z" fill="#A8A8A8"/>
<path d="M50.2462 5.16279C49.4885 5.16279 48.7614 5.16279 47.9915 5.16279C48.0709 3.62227 48.4009 2.23639 49.8491 1.36205C51.285 0.493644 52.8676 0.297361 54.5113 0.428216C55.4035 0.499592 56.2712 0.683979 57.09 1.05275C58.5259 1.69513 59.2347 2.7955 59.2347 4.32413C59.2408 7.03639 59.2347 9.75461 59.2347 12.4669C59.2347 13.4661 59.4425 13.6505 60.469 13.5494C60.579 13.5375 60.689 13.5197 60.8051 13.5018C60.8173 13.5554 60.8296 13.597 60.8296 13.6386C60.8296 14.1799 60.8296 14.7212 60.8296 15.2862C60.0108 15.5539 59.192 15.6371 58.367 15.423C57.7682 15.2624 57.3833 14.8401 57.1755 14.281C57.0716 13.9955 57.0105 13.6981 56.9128 13.365C56.8272 13.4602 56.7539 13.5494 56.6683 13.6267C54.8902 15.3814 52.7699 16.1189 50.2768 15.5063C48.5109 15.0721 47.2888 13.4959 47.246 11.7174C47.2338 11.1464 47.2827 10.5635 47.4232 10.0104C47.7471 8.72561 48.682 7.95238 49.8735 7.43491C50.7106 7.06613 51.6028 6.95907 52.501 6.85201C53.552 6.72115 54.603 6.59625 55.654 6.4535C56.3689 6.35833 56.7294 5.98955 56.8394 5.2877C57.0655 3.89587 56.43 2.9561 55.0307 2.62301C54.1997 2.42673 53.3504 2.39104 52.5071 2.54569C51.2606 2.76576 50.564 3.44978 50.3196 4.65721C50.3073 4.81186 50.2829 4.97245 50.2462 5.16279ZM56.8883 7.85721C55.8495 8.40442 54.8413 8.53528 53.827 8.68398C52.9715 8.81483 52.1038 8.93379 51.285 9.1955C50.1851 9.54643 49.6963 10.4267 49.788 11.6044C49.8674 12.5858 50.5579 13.3769 51.6394 13.5494C53.3198 13.823 54.8108 13.371 55.984 12.1576C56.3261 11.8067 56.6011 11.2951 56.6744 10.8193C56.8272 9.87357 56.8211 8.90405 56.8883 7.85721Z" fill="#A8A8A8"/>
<path d="M88.9866 10.6885C88.9316 10.9264 88.9011 11.1286 88.84 11.319C87.8623 14.1978 85.9008 15.4409 83.5116 15.6966C79.3688 16.1427 77.004 13.5019 76.393 10.7004C75.9102 8.47583 75.9775 6.26319 76.9796 4.16951C77.9267 2.19479 79.4543 0.892183 81.7274 0.505566C84.4404 0.041625 88.2961 1.34423 88.9438 5.48401C89.1088 6.54869 89.1455 7.63717 89.2494 8.76133C85.687 8.76133 82.2223 8.76133 78.7211 8.76133C78.8127 10.2781 79.0571 11.6937 80.1937 12.8C80.6642 13.258 81.2691 13.4781 81.9229 13.5851C84.0616 13.9479 85.8153 12.9546 86.5119 10.9621C86.5852 10.7479 86.683 10.6825 86.9091 10.6885C87.5873 10.7004 88.2656 10.6885 88.9866 10.6885ZM78.8066 6.8104C81.4402 6.8104 84.0555 6.8104 86.6891 6.8104C86.6035 5.92415 86.4385 5.09144 86.0169 4.31821C85.6075 3.56876 84.9965 3.03345 84.1655 2.75984C81.4402 1.8498 78.6233 3.96728 78.8066 6.8104Z" fill="#A8A8A8"/>
<path d="M94.6571 15.2148C93.8383 15.2148 93.0623 15.2148 92.2618 15.2148C92.2618 10.391 92.2618 5.57911 92.2618 0.749374C93.0134 0.749374 93.7589 0.749374 94.5349 0.749374C94.5349 1.40365 94.5349 2.03413 94.5349 2.77763C94.706 2.58729 94.816 2.46833 94.9199 2.35532C96.5453 0.547143 98.5984 0.0713068 100.92 0.630415C102.54 1.01703 103.438 2.1293 103.743 3.68766C103.872 4.3241 103.945 4.97837 103.951 5.6267C103.976 8.73153 103.963 11.8364 103.963 14.9412C103.963 15.0245 103.951 15.1137 103.945 15.2148C103.138 15.2148 102.338 15.2148 101.495 15.2148C101.495 15.0721 101.495 14.9471 101.495 14.8222C101.495 11.9256 101.513 9.02298 101.483 6.12633C101.476 5.48395 101.385 4.82372 101.195 4.21108C100.884 3.19398 100.053 2.65272 98.9589 2.61703C96.973 2.5516 95.3904 3.57465 94.9077 5.30551C94.7366 5.9241 94.6816 6.59027 94.6755 7.23859C94.651 9.75458 94.6632 12.2765 94.6571 14.7925C94.6571 14.9174 94.6571 15.0483 94.6571 15.2148Z" fill="#A8A8A8"/>
<path d="M63.1455 0.749378C63.9337 0.749378 64.6792 0.749378 65.4552 0.749378C65.4552 2.76573 65.4552 4.77614 65.4552 6.87577C65.6019 6.73897 65.6874 6.66759 65.773 6.59027C67.6611 4.71666 69.5554 2.83711 71.4374 0.957556C71.5962 0.796961 71.7551 0.725586 71.9873 0.725586C72.8733 0.737482 73.7655 0.731534 74.7431 0.731534C74.6087 0.868337 74.5354 0.951608 74.4559 1.03488C72.7939 2.65867 71.138 4.28246 69.4637 5.90031C69.2743 6.07875 69.2682 6.19771 69.4026 6.41183C71.2174 9.22521 73.02 12.0386 74.8287 14.8579C74.8959 14.959 74.957 15.0602 75.0425 15.2089C74.9203 15.2208 74.8287 15.2326 74.737 15.2326C73.9121 15.2326 73.0872 15.2267 72.2623 15.2386C72.0362 15.2445 71.9262 15.1613 71.8162 14.9828C70.4353 12.7167 69.0421 10.4564 67.655 8.19027C67.5939 8.08915 67.5267 7.99399 67.4472 7.87503C66.8057 8.49362 66.1824 9.09436 65.5652 9.71295C65.4858 9.79027 65.4675 9.94492 65.4675 10.0698C65.4614 11.6579 65.4614 13.2401 65.4614 14.8282C65.4614 14.9471 65.4614 15.0661 65.4614 15.2386C65.0031 15.2386 64.5631 15.2445 64.1232 15.2386C63.8054 15.2326 63.3838 15.3159 63.2005 15.1553C63.0416 15.0126 63.1394 14.5843 63.1394 14.281C63.1394 9.91518 63.1394 5.54938 63.1394 1.18358C63.1455 1.04083 63.1455 0.904025 63.1455 0.749378Z" fill="#A8A8A8"/>
<path d="M36.5344 0.731584C34.6585 2.53976 32.8376 4.30631 31.0045 6.07285C32.972 9.14199 34.8968 12.1457 36.8644 15.2149C36.7055 15.2208 36.6077 15.2327 36.5039 15.2327C35.7034 15.2327 34.8968 15.2268 34.0963 15.2386C33.8641 15.2446 33.7358 15.1613 33.6197 14.971C32.2388 12.7048 30.8456 10.4446 29.4585 8.17842C29.4035 8.08326 29.3424 7.99404 29.2508 7.85129C28.8963 8.20816 28.5908 8.58883 28.2059 8.86839C27.4298 9.43939 27.1976 10.1531 27.2587 11.087C27.3382 12.3182 27.2771 13.5613 27.2771 14.7985C27.2771 14.9294 27.2771 15.0543 27.2771 15.203C26.501 15.203 25.7556 15.203 24.9857 15.203C24.9857 10.3911 24.9857 5.57917 24.9857 0.74348C25.7372 0.74348 26.4766 0.74348 27.2649 0.74348C27.2649 2.75984 27.2649 4.77025 27.2649 6.78065C27.3137 6.81039 27.3626 6.84608 27.4115 6.87582C27.4726 6.77471 27.5093 6.6498 27.5887 6.57248C29.4646 4.69887 31.3528 2.83716 33.2287 0.963555C33.3936 0.797012 33.5586 0.713741 33.8092 0.719688C34.5913 0.737532 35.3734 0.725636 36.1495 0.725636C36.2594 0.731584 36.3694 0.731584 36.5344 0.731584Z" fill="#A8A8A8"/>
<path d="M41.1111 3.12855C42.2721 1.47502 43.5064 0.0950911 45.7978 0.493604C45.7978 1.33821 45.7978 2.17688 45.7978 2.96795C45.1868 3.00959 44.5879 2.99175 44.0197 3.10476C42.6081 3.39026 41.5205 4.64528 41.3066 6.15606C41.2638 6.45346 41.2455 6.76275 41.2455 7.0661C41.2394 9.64751 41.2455 12.2349 41.2455 14.8163C41.2455 14.9412 41.2455 15.072 41.2455 15.2148C40.4328 15.2148 39.6629 15.2148 38.8563 15.2148C38.8563 10.3969 38.8563 5.591 38.8563 0.755314C39.5957 0.755314 40.3351 0.755314 41.1172 0.755314C41.1111 1.52855 41.1111 2.28989 41.1111 3.12855Z" fill="#A8A8A8"/>
</svg>
