<svg width="16" height="16" viewBox="0 0 16 16" fill="none" xmlns="http://www.w3.org/2000/svg">
<path d="M6.19334 2.17625C6.08203 2.4731 5.98038 2.78924 5.88867 3.12164C6.57231 3.23645 7.28224 3.29671 8.00001 3.29671C8.71778 3.29671 9.4277 3.23645 10.1113 3.12164C10.0196 2.78924 9.91798 2.4731 9.80667 2.17625C9.29561 0.813542 8.62022 0 8.00001 0C7.37979 0 6.70437 0.813542 6.19334 2.17625Z" fill="white"/>
<path d="M9.8457 0.215332C10.1568 0.646531 10.4393 1.19298 10.6846 1.84701C10.8119 2.18659 10.9273 2.54909 11.0306 2.93037C11.8718 2.71991 12.655 2.42265 13.3408 2.04937C12.3624 1.17038 11.167 0.528596 9.8457 0.215332Z" fill="white"/>
<path d="M7.99979 4.23453C7.20066 4.23453 6.41891 4.16801 5.66913 4.03979C5.45089 5.10368 5.32351 6.29059 5.29785 7.53124H10.7017C10.6761 6.29059 10.5487 5.10368 10.3305 4.03979C9.58068 4.16798 8.79893 4.23453 7.99979 4.23453Z" fill="white"/>
<path d="M4.3597 8.46875H0.0136719C0.119854 10.2965 0.842187 11.9615 1.9759 13.2585C2.79666 12.777 3.73583 12.4042 4.75155 12.1516C4.52021 11.0241 4.38574 9.7721 4.3597 8.46875Z" fill="white"/>
<path d="M11.6399 8.46878C11.6139 9.77217 11.4794 11.0242 11.248 12.1516C12.2638 12.4042 13.203 12.777 14.0237 13.2585C15.1574 11.9615 15.8797 10.2965 15.9859 8.46875H11.6399V8.46878Z" fill="white"/>
<path d="M4.35967 7.53116C4.38571 6.22778 4.52021 4.97578 4.75155 3.84832C3.7358 3.59576 2.79663 3.22295 1.9759 2.74146C0.842187 4.03846 0.119854 5.70343 0.0136719 7.53119H4.35967V7.53116Z" fill="white"/>
<path d="M9.80666 13.8238C9.91797 13.527 10.0196 13.2108 10.1113 12.8784C9.42769 12.7636 8.71777 12.7034 8 12.7034C7.28223 12.7034 6.57231 12.7636 5.88867 12.8784C5.98041 13.2108 6.08203 13.527 6.19334 13.8238C6.70437 15.1865 7.37975 16.0001 7.99997 16.0001C8.62018 16.0001 9.29563 15.1865 9.80666 13.8238Z" fill="white"/>
<path d="M7.99979 11.7655C8.79893 11.7655 9.58068 11.832 10.3305 11.9602C10.5487 10.8963 10.6761 9.7094 10.7017 8.46875H5.29785C5.32351 9.7094 5.45086 10.8963 5.66913 11.9602C6.41888 11.832 7.20063 11.7655 7.99979 11.7655Z" fill="white"/>
<path d="M11.248 3.84835C11.4794 4.97581 11.6139 6.22784 11.6399 7.53119H15.986C15.8798 5.70343 15.1574 4.03846 14.0237 2.74146C13.2029 3.22298 12.2638 3.59579 11.248 3.84835Z" fill="white"/>
<path d="M11.0306 13.0696C10.9273 13.4509 10.8119 13.8134 10.6846 14.1529C10.4393 14.807 10.1568 15.3534 9.8457 15.7846C11.167 15.4714 12.3624 14.8296 13.3408 13.9506C12.655 13.5773 11.8718 13.28 11.0306 13.0696Z" fill="white"/>
<path d="M4.96943 2.93037C5.07268 2.54909 5.18805 2.18659 5.31539 1.84701C5.56067 1.19298 5.84321 0.646531 6.15428 0.215332C4.83299 0.528596 3.63757 1.17038 2.65918 2.0494C3.34497 2.42265 4.12816 2.71991 4.96943 2.93037Z" fill="white"/>
<path d="M5.31539 14.1529C5.18805 13.8134 5.07268 13.4509 4.96943 13.0696C4.12816 13.28 3.34497 13.5773 2.65918 13.9506C3.63757 14.8296 4.83299 15.4714 6.15428 15.7846C5.84324 15.3534 5.56067 14.807 5.31539 14.1529Z" fill="white"/>
</svg>
