<svg width="89" height="20" viewBox="0 0 89 20" fill="none" xmlns="http://www.w3.org/2000/svg">
<path d="M69.5476 9.99078C69.5476 9.48069 69.5476 9.00087 69.5307 8.55775C69.5192 8.13972 69.477 7.72304 69.4042 7.31096C69.3362 6.93468 69.2161 6.56924 69.0472 6.22472C68.869 5.86951 68.6308 5.54632 68.3426 5.26876C67.934 4.85878 67.4477 4.53066 66.9109 4.3027C66.3302 4.0724 65.7084 3.95823 65.0819 3.96692C64.4531 3.95897 63.8289 4.07309 63.2454 4.3027C62.7056 4.52754 62.2162 4.85424 61.8053 5.26417C61.5177 5.54157 61.2804 5.86483 61.1035 6.22013C60.936 6.56472 60.8178 6.93023 60.7521 7.30637C60.681 7.71857 60.6403 8.13524 60.6303 8.55316C60.6191 8.99628 60.6134 9.4761 60.6163 9.98619C60.6191 10.4963 60.6163 10.9724 60.6303 11.4183C60.6403 11.8362 60.681 12.2529 60.7521 12.6651C60.8178 13.0412 60.936 13.4067 61.1035 13.7513C61.2811 14.1062 61.5183 14.4294 61.8053 14.7073C62.2156 15.1175 62.7051 15.4438 63.2454 15.6669C63.8285 15.898 64.4529 16.0128 65.0819 16.0045C65.7086 16.0136 66.3306 15.8988 66.9109 15.6669C67.4478 15.442 67.9342 15.1159 68.3426 14.7073C68.6301 14.4292 68.8683 14.1061 69.0472 13.7513C69.2161 13.4068 69.3362 13.0414 69.4042 12.6651C69.4761 12.2542 69.5178 11.8387 69.5288 11.422C69.5429 10.9761 69.5494 10.499 69.5457 9.98986L69.5476 9.99078ZM67.1864 9.99078C67.1864 10.5559 67.1779 11.0266 67.1583 11.4009C67.1472 11.7083 67.1159 12.0148 67.0646 12.3183C67.0295 12.5205 66.9664 12.7171 66.8772 12.9027C66.8047 13.0523 66.71 13.1905 66.5961 13.3128C66.4202 13.5099 66.202 13.6666 65.9571 13.7715C65.6814 13.887 65.3845 13.9457 65.0847 13.9441C64.7835 13.9453 64.4851 13.8866 64.2077 13.7715C63.9568 13.6685 63.7327 13.5118 63.5518 13.3128C63.4372 13.191 63.3424 13.0527 63.2707 12.9027C63.184 12.7169 63.1241 12.5202 63.0927 12.3183C63.0427 12.0146 63.0114 11.7082 62.999 11.4009C62.9821 11.0266 62.9737 10.5565 62.9737 9.99078C62.9737 9.42564 62.9821 8.95408 62.999 8.57977C63.0114 8.2724 63.0427 7.96603 63.0927 7.66234C63.1241 7.46039 63.184 7.26371 63.2707 7.07793C63.3426 6.92804 63.4374 6.78975 63.5518 6.66784C63.7329 6.46913 63.957 6.31243 64.2077 6.20913C64.4847 6.09272 64.7833 6.03399 65.0847 6.03665C65.3846 6.0336 65.6819 6.09236 65.9571 6.20913C66.2018 6.31437 66.42 6.47096 66.5961 6.66784C66.7098 6.79031 66.8045 6.92848 66.8772 7.07793C66.9664 7.26352 67.0295 7.46012 67.0646 7.66234C67.1159 7.96586 67.1472 8.27231 67.1583 8.57977C67.1789 8.95316 67.1864 9.42472 67.1864 9.99078Z" fill="#A8A8A8"/>
<path d="M88.3622 4.27337C88.3611 4.16181 88.269 4.07161 88.1551 4.07062H86.2071C86.093 4.07112 86.0005 4.1616 86 4.27337V11.3192L81.2495 4.1275C81.2177 4.07887 81.1896 4.07062 81.1193 4.07062H79.3128C79.1991 4.0721 79.1072 4.16201 79.1057 4.27337V15.7064C79.1072 15.8176 79.1992 15.9072 79.3128 15.9082H81.2598C81.3735 15.9077 81.4655 15.8177 81.466 15.7064V8.64218L86.2174 15.8504C86.2502 15.8991 86.2764 15.9073 86.3477 15.9073H88.1532C88.267 15.9068 88.3593 15.8169 88.3603 15.7055L88.3622 4.27337Z" fill="#A8A8A8"/>
<path d="M75.3044 4.27337C75.3039 4.1616 75.2115 4.07112 75.0973 4.07062H73.1512C73.0371 4.07112 72.9447 4.1616 72.9442 4.27337V15.7055C72.9447 15.8172 73.0371 15.9077 73.1512 15.9082H75.0973C75.2115 15.9077 75.3039 15.8172 75.3044 15.7055V4.27337Z" fill="#A8A8A8"/>
<path d="M52.0073 9.99079C52.0073 9.42199 52.0138 8.94859 52.0307 8.57153C52.0421 8.26409 52.0734 7.95767 52.1244 7.6541C52.3043 6.63575 53.1007 6.03483 54.1173 6.03483C54.7807 6.04034 55.3823 6.2807 55.7664 6.82749C55.9404 7.08277 56.0673 7.36596 56.1412 7.66419C56.1469 7.6956 56.1762 7.71752 56.2087 7.71465H58.4996C58.5324 7.71465 58.5446 7.69263 58.539 7.66144C58.2888 6.27336 57.5326 5.02657 56.1965 4.40914C55.5398 4.11145 54.8231 3.9625 54.0995 3.97336C52.8096 3.97336 51.723 4.40578 50.8398 5.27061C50.3355 5.75183 49.9913 6.37087 49.8522 7.04676C49.7173 7.7122 49.6492 8.69324 49.6479 9.98988C49.6467 11.2865 49.7148 12.2672 49.8522 12.9321C49.9901 13.6088 50.3333 14.2291 50.837 14.7119C51.7196 15.5761 52.8062 16.0082 54.0967 16.0082C54.8202 16.0189 55.5368 15.8703 56.1937 15.5734C57.5298 14.9559 58.286 13.7091 58.5362 12.3211C58.5418 12.289 58.5296 12.2679 58.4968 12.2679H56.2049C56.1724 12.2645 56.1428 12.2867 56.1375 12.3183C56.0633 12.6162 55.9365 12.8991 55.7627 13.1541C55.3785 13.7046 54.777 13.9422 54.1136 13.9468C53.097 13.9468 52.3005 13.3468 52.1206 12.3284C52.0697 12.0248 52.0384 11.7184 52.0269 11.411C52.0138 11.0321 52.0073 10.5578 52.0073 9.99079Z" fill="#A8A8A8"/>
<path d="M27.8106 4.27337C27.8101 4.1616 27.7177 4.07112 27.6035 4.07062H25.6574C25.5432 4.07112 25.4508 4.1616 25.4503 4.27337V15.7064C25.4513 15.8178 25.5436 15.9077 25.6574 15.9084H27.6035C27.7173 15.9077 27.8096 15.8178 27.8106 15.7064V12.3504L29.3725 10.522L32.5808 15.8477C32.6055 15.887 32.6499 15.9101 32.6969 15.9084H35.0619C35.1706 15.9084 35.1903 15.8422 35.1359 15.7514L30.9354 8.77887L34.7892 4.25227C34.867 4.16053 34.8342 4.07337 34.7124 4.07337H32.1273C32.0958 4.07156 32.0655 4.08535 32.0467 4.11007L27.8106 9.08438V4.27337Z" fill="#A8A8A8"/>
<path d="M41.989 13.9468C40.8937 13.9468 39.9005 12.9541 39.9005 11.7688V4.27337C39.9 4.1616 39.8076 4.07112 39.6934 4.07062H37.7473C37.6331 4.07112 37.5407 4.1616 37.5402 4.27337V11.7394C37.5402 14.3495 39.5341 16.0082 41.989 16.0082C44.4439 16.0082 46.4378 14.3495 46.4378 11.7394V4.27337C46.4368 4.16181 46.3447 4.07161 46.2307 4.07062H44.2837C44.1699 4.07162 44.0781 4.16196 44.0775 4.27337V11.7688C44.0775 12.9532 43.0834 13.9468 41.989 13.9468Z" fill="#A8A8A8"/>
<path d="M5.888 9.99171L11.9297 15.9082L15.7432 12.1743C16.4251 11.5731 17.4683 11.5998 18.1172 12.2351C18.766 12.8704 18.7933 13.8919 18.1793 14.5596L13.1468 19.488C12.4708 20.139 11.3866 20.139 10.7107 19.488L3.44997 12.377V16.6036C3.44997 17.5364 2.67767 18.2926 1.72499 18.2926C0.772302 18.2926 0 17.5364 0 16.6036V3.37428C0 2.44148 0.772302 1.68529 1.72499 1.68529C2.67767 1.68529 3.44997 2.44148 3.44997 3.37428V7.60089L10.7097 0.491714C11.3855 -0.159714 12.4701 -0.159714 13.1459 0.491714L18.1822 5.41924C18.7962 6.08692 18.7688 7.10839 18.12 7.7437C17.4712 8.379 16.4279 8.40575 15.746 7.80456L11.9325 4.07061L5.888 9.99171ZM11.9325 8.30089C11.2339 8.30052 10.604 8.71224 10.3364 9.34403C10.0688 9.97581 10.2163 10.7032 10.7101 11.187C11.2039 11.6707 11.9468 11.8156 12.5922 11.5539C13.2376 11.2923 13.6584 10.6757 13.6584 9.99171C13.6587 9.54328 13.477 9.11311 13.1533 8.79585C12.8296 8.47859 12.3905 8.30021 11.9325 8.29997V8.30089Z" fill="#A8A8A8"/>
</svg>
