<svg width="18" height="20" viewBox="0 0 18 20" fill="none" xmlns="http://www.w3.org/2000/svg">
<path d="M10.0476 4.35168C11.5691 3.0736 12.5857 0.19426 11.9601 0.0683241C11.1288 -0.0990722 9.3236 0.63494 8.45109 0.764263C7.21357 0.913682 5.86574 -0.577683 5.10919 0.253604C4.49406 0.929495 5.5502 3.3875 7.20256 4.45832C2.27282 6.88122 -4.65625 19.0443 7.43189 19.9269C24.1579 21.1481 15.7826 6.71274 10.0476 4.35168ZM11.4841 13.9441C11.4326 14.4183 11.1813 14.8471 10.8057 15.1382C10.4091 15.4456 9.91158 15.5886 9.4173 15.6286V16.1526C9.4173 16.2928 9.35607 16.4284 9.25113 16.5212C9.10688 16.6488 8.89492 16.6803 8.71986 16.5996C8.547 16.5201 8.43344 16.3428 8.43344 16.1526V15.5799C8.34868 15.5638 8.26454 15.5447 8.18138 15.5219C7.71943 15.3949 7.29094 15.1475 6.97794 14.7815C6.82202 14.599 6.69491 14.392 6.607 14.1685C6.58404 14.1101 6.56357 14.0506 6.54564 13.9905C6.5294 13.9361 6.51265 13.8807 6.50686 13.824C6.49712 13.7287 6.51599 13.6316 6.56037 13.5468C6.65157 13.3724 6.84377 13.267 7.04001 13.2845C7.23315 13.3016 7.40243 13.4356 7.46323 13.6198C7.48196 13.6765 7.49467 13.7346 7.5157 13.7907C7.53655 13.8464 7.56173 13.9006 7.59133 13.9521C7.64978 14.0537 7.72301 14.1474 7.80734 14.2286C7.98119 14.3961 8.20261 14.505 8.43344 14.5697V12.6232C7.98208 12.5063 7.51618 12.3554 7.14345 12.0656C6.96231 11.9247 6.80861 11.7496 6.70795 11.5424C6.60173 11.3237 6.55773 11.0801 6.55594 10.8381C6.55411 10.5924 6.60079 10.3489 6.70329 10.125C6.79929 9.91539 6.93751 9.72719 7.10698 9.57118C7.46935 9.23766 7.95069 9.05163 8.43349 8.98329V8.94047V8.43941C8.43349 8.29926 8.49472 8.16363 8.59966 8.07083C8.74395 7.94324 8.95582 7.91171 9.13093 7.99238C9.30374 8.07196 9.41735 8.24919 9.41735 8.43941V8.94047V8.98033C9.48168 8.98842 9.54582 8.99812 9.60964 9.0097C10.0837 9.09549 10.5474 9.29126 10.8941 9.63307C11.0584 9.79496 11.1928 9.98786 11.2874 10.1982C11.3138 10.2569 11.3369 10.317 11.3569 10.3782C11.3755 10.4353 11.3942 10.494 11.4031 10.5536C11.4173 10.6487 11.4029 10.747 11.3621 10.834C11.2788 11.0123 11.0917 11.1258 10.895 11.1174C10.7016 11.1089 10.5265 10.9831 10.4573 10.8023C10.4366 10.7486 10.4263 10.6917 10.4053 10.6381C10.3841 10.5838 10.3566 10.5321 10.3249 10.4832C10.2634 10.3881 10.1836 10.3066 10.0925 10.2394C9.89535 10.0938 9.65618 10.018 9.4172 9.97558V11.8383C9.70122 11.9064 9.98547 11.9805 10.2576 12.0878C10.6688 12.25 11.0586 12.4987 11.283 12.8908C11.2482 12.8297 11.2143 12.7702 11.2842 12.8928C11.3528 13.0133 11.3201 12.9559 11.2856 12.8955C11.4642 13.2102 11.5229 13.5866 11.4841 13.9441Z" fill="#FD7B01"/>
</svg>
