<svg width="20" height="18" viewBox="0 0 20 18" fill="none" xmlns="http://www.w3.org/2000/svg">
<path d="M5.81093 10.4207C6.37298 10.4207 6.91626 10.3844 7.43035 10.3169V4.68196C6.91631 4.61443 6.37298 4.57812 5.81093 4.57812C2.60172 4.57812 0.00012207 5.75805 0.00012207 7.21362V7.78519C0.00012207 9.24071 2.60172 10.4207 5.81093 10.4207Z" fill="#FD7B01"/>
<path d="M5.81093 13.3631C6.37298 13.3631 6.91626 13.3268 7.43035 13.2593V11.6076C6.91616 11.6751 6.37313 11.7119 5.81093 11.7119C3.00963 11.7119 0.671536 10.8128 0.122333 9.61621C0.0423531 9.79051 0.00012207 9.97099 0.00012207 10.156V10.7276C0.00012207 12.1832 2.60172 13.3631 5.81093 13.3631Z" fill="#FD7B01"/>
<path d="M7.43023 14.6784V14.55C6.91604 14.6175 6.37301 14.6543 5.81081 14.6543C3.00951 14.6543 0.671414 13.7552 0.122211 12.5586C0.0422311 12.7328 0 12.9133 0 13.0983V13.6699C0 15.1255 2.60159 16.3055 5.81081 16.3055C6.45259 16.3055 7.06987 16.2581 7.64711 16.171C7.50403 15.8783 7.43023 15.5697 7.43023 15.2499V14.6784Z" fill="#FD7B01"/>
<path d="M14.1894 0.114502C10.9801 0.114502 8.37854 1.29443 8.37854 2.75001V3.32157C8.37854 4.77715 10.9801 5.95708 14.1894 5.95708C17.3985 5.95708 20.0002 4.77715 20.0002 3.32157V2.75001C20.0002 1.29443 17.3985 0.114502 14.1894 0.114502Z" fill="#FD7B01"/>
<path d="M14.1894 7.2483C11.3881 7.2483 9.04995 6.34925 8.50075 5.15259C8.42077 5.32684 8.37854 5.50732 8.37854 5.69238V6.26394C8.37854 7.71952 10.9801 8.89945 14.1894 8.89945C17.3985 8.89945 20.0002 7.71952 20.0002 6.26394V5.69238C20.0002 5.50732 19.9579 5.32684 19.878 5.15259C19.3287 6.34925 16.9907 7.2483 14.1894 7.2483Z" fill="#FD7B01"/>
<path d="M14.1894 10.1907C11.3881 10.1907 9.04995 9.29159 8.50075 8.09497C8.42077 8.26922 8.37854 8.4497 8.37854 8.63476V9.20633C8.37854 10.662 10.9801 11.8419 14.1894 11.8419C17.3985 11.8419 20.0002 10.662 20.0002 9.20633V8.63476C20.0002 8.4497 19.9579 8.26922 19.878 8.09497C19.3287 9.29164 16.9907 10.1907 14.1894 10.1907Z" fill="#FD7B01"/>
<path d="M14.1894 13.292C11.3881 13.292 9.04995 12.3929 8.50075 11.1963C8.42077 11.3706 8.37854 11.551 8.37854 11.736V12.3076C8.37854 13.7632 10.9801 14.9431 14.1894 14.9431C17.3985 14.9431 20.0002 13.7632 20.0002 12.3076V11.736C20.0002 11.551 19.9579 11.3705 19.878 11.1963C19.3287 12.3928 16.9907 13.292 14.1894 13.292Z" fill="#FD7B01"/>
<path d="M14.1894 16.2344C11.3881 16.2344 9.04995 15.3353 8.50075 14.1387C8.42077 14.313 8.37854 14.4936 8.37854 14.6785V15.25C8.37854 16.7056 10.9801 17.8855 14.1894 17.8855C17.3985 17.8855 20.0002 16.7056 20.0002 15.25V14.6784C20.0002 14.4934 19.9579 14.3129 19.878 14.1387C19.3287 15.3353 16.9907 16.2344 14.1894 16.2344Z" fill="#FD7B01"/>
</svg>
