<svg width="74" height="20" viewBox="0 0 74 20" fill="none" xmlns="http://www.w3.org/2000/svg">
<g clip-path="url(#clip0_2:984)">
<path d="M10.7237 5.80656L9.11609 4.85817C8.96567 4.78159 8.79961 4.7417 8.63126 4.7417C8.46285 4.7417 8.2968 4.78159 8.14644 4.85817L6.53885 5.80656C6.19435 6.01301 6.18797 6.34849 6.53885 6.54847L8.14644 7.50976C8.2959 7.58943 8.46228 7.63111 8.63126 7.63111C8.80019 7.63111 8.96662 7.58943 9.11609 7.50976L10.7237 6.54847C10.7995 6.52131 10.8651 6.47111 10.9116 6.40465C10.9579 6.33822 10.9829 6.25887 10.9829 6.17752C10.9829 6.09618 10.9579 6.01683 10.9116 5.9504C10.8651 5.88397 10.7995 5.83371 10.7237 5.80656Z" fill="#A8A8A8"/>
<path d="M16.9945 4.63211L9.22448 0.115983C9.07406 0.0394008 8.90807 -0.000488281 8.73965 -0.000488281C8.57124 -0.000488281 8.40525 0.0394008 8.25483 0.115983L0.484828 4.63211C0.34444 4.72652 0.2276 4.85255 0.14348 5.00031C0.0593589 5.14807 0.0102473 5.31354 0 5.48372V14.516C0.0102473 14.6861 0.0593589 14.8516 0.14348 14.9994C0.2276 15.1472 0.34444 15.2732 0.484828 15.3676L8.25483 19.8837C8.40525 19.9603 8.57124 20.0002 8.73965 20.0002C8.90807 20.0002 9.07406 19.9603 9.22448 19.8837L16.9945 15.3676C17.1349 15.2732 17.2517 15.1472 17.3358 14.9994C17.42 14.8516 17.469 14.6861 17.4793 14.516V5.48372C17.469 5.31354 17.42 5.14807 17.3358 5.00031C17.2517 4.85255 17.1349 4.72652 16.9945 4.63211ZM13.5369 6.72886L9.11603 9.36112C8.96657 9.44079 8.80013 9.48247 8.63121 9.48247C8.46228 9.48247 8.29585 9.44079 8.14638 9.36112L5.33948 7.6966C4.995 7.4837 4.70155 7.65144 4.70155 8.05789V13.0966C4.71364 13.1764 4.70198 13.258 4.66806 13.331C4.63413 13.4041 4.57948 13.4652 4.51107 13.5067C4.44265 13.5483 4.36356 13.5682 4.28388 13.5641C4.2042 13.56 4.12752 13.532 4.06362 13.4837L3.58517 13.2321C3.44088 13.144 3.32011 13.0214 3.23338 12.8752C3.14665 12.7291 3.0966 12.5636 3.08759 12.3934V6.92241C3.09783 6.75228 3.14695 6.58679 3.23106 6.43902C3.31519 6.29126 3.43202 6.16523 3.57241 6.07082L8.14 3.38695C8.29042 3.31037 8.45641 3.27048 8.62483 3.27048C8.79324 3.27048 8.95923 3.31037 9.10965 3.38695L13.5305 5.96759C13.6139 5.98896 13.6879 6.03766 13.741 6.10607C13.7941 6.17449 13.8233 6.25877 13.824 6.34575C13.8248 6.43273 13.797 6.5175 13.7451 6.58679C13.6931 6.65615 13.6199 6.70608 13.5369 6.72886Z" fill="#A8A8A8"/>
<path d="M26.6529 16.3871C26.6507 16.3682 26.6528 16.3491 26.6591 16.3311C26.6655 16.3132 26.6759 16.297 26.6895 16.2839C26.7032 16.2708 26.7196 16.261 26.7376 16.2554C26.7556 16.2498 26.7747 16.2485 26.7932 16.2517H27.0548C27.0729 16.2508 27.091 16.2537 27.108 16.2601C27.125 16.2665 27.1405 16.2763 27.1537 16.289C27.1667 16.3017 27.1772 16.3169 27.1844 16.3338C27.1915 16.3506 27.1951 16.3688 27.1951 16.3871V17.7936C27.193 17.8204 27.1844 17.8462 27.1699 17.8688C27.1554 17.8913 27.1355 17.9098 27.1122 17.9226C26.7784 18.1734 26.3859 18.3319 25.973 18.3824C25.5603 18.433 25.1416 18.3739 24.7584 18.211C24.3751 18.048 24.0404 17.7868 23.7874 17.4532C23.5343 17.1195 23.3716 16.725 23.3152 16.3084C23.259 15.8917 23.311 15.4675 23.4662 15.0774C23.6214 14.6873 23.8745 14.3449 24.2005 14.0839C24.5264 13.8228 24.9141 13.6522 25.3251 13.5889C25.7361 13.5255 26.1564 13.5717 26.5444 13.7226C26.7613 13.8065 27.1824 14.0001 27.1824 14.1613C27.1888 14.1824 27.1888 14.2048 27.1824 14.2259L27.0484 14.4581C27.0382 14.4786 27.0228 14.4961 27.0037 14.5085C26.9846 14.521 26.9626 14.5281 26.94 14.5291C26.8977 14.5277 26.8572 14.5118 26.8251 14.4839C26.502 14.2473 26.114 14.1188 25.7151 14.1162C25.4652 14.1013 25.2149 14.1382 24.9795 14.2246C24.7442 14.3111 24.5288 14.4453 24.3466 14.619C24.1644 14.7928 24.0193 15.0022 23.9201 15.2348C23.8209 15.4673 23.7696 15.7178 23.7696 15.971C23.7696 16.2242 23.8209 16.4748 23.9201 16.7073C24.0193 16.9398 24.1644 17.1493 24.3466 17.323C24.5288 17.4967 24.7442 17.6309 24.9795 17.7174C25.2149 17.8039 25.4652 17.8408 25.7151 17.8259C26.0613 17.8326 26.4014 17.7337 26.6912 17.542L26.6529 16.3871Z" fill="#A8A8A8"/>
<path d="M31.4758 17.787C31.4941 17.786 31.5126 17.789 31.5297 17.7959C31.5469 17.8027 31.5623 17.8133 31.5751 17.8268C31.5878 17.8403 31.5975 17.8564 31.6035 17.874C31.6095 17.8917 31.6116 17.9104 31.6097 17.929V18.1806C31.6106 18.1989 31.6078 18.2172 31.6014 18.2344C31.5951 18.2516 31.5854 18.2673 31.5728 18.2806C31.5603 18.2939 31.5452 18.3044 31.5285 18.3116C31.5119 18.3188 31.4939 18.3225 31.4758 18.3225H28.822C28.8028 18.3259 28.7831 18.3246 28.7645 18.3186C28.7459 18.3128 28.7291 18.3024 28.7153 18.2884C28.7015 18.2745 28.6913 18.2575 28.6854 18.2386C28.6795 18.2199 28.6782 18.2 28.6816 18.1806V13.7741C28.6806 13.7546 28.6838 13.7352 28.6909 13.7171C28.698 13.699 28.7089 13.6826 28.7228 13.6692C28.7367 13.6557 28.7534 13.6453 28.7716 13.639C28.7898 13.6326 28.8091 13.6303 28.8283 13.6322H29.0835C29.1019 13.6312 29.1203 13.6342 29.1375 13.641C29.1546 13.6479 29.1701 13.6584 29.1828 13.6719C29.1955 13.6854 29.2052 13.7015 29.2112 13.7192C29.2172 13.7368 29.2193 13.7555 29.2175 13.7741V17.787H31.4758Z" fill="#A8A8A8"/>
<path d="M37.1596 15.9935C37.1533 16.4693 37.008 16.9326 36.7421 17.3252C36.4761 17.7177 36.1013 18.022 35.6649 18.1997C35.2284 18.3773 34.7497 18.4206 34.289 18.3239C33.8283 18.2271 33.4062 17.9948 33.0757 17.6561C32.7452 17.3174 32.5211 16.8874 32.4316 16.4203C32.3421 15.9532 32.3912 15.4697 32.5727 15.0306C32.7542 14.5916 33.0599 14.2166 33.4516 13.9529C33.8432 13.6892 34.3032 13.5484 34.7737 13.5484C35.09 13.5475 35.4032 13.6104 35.6952 13.7333C35.9871 13.8563 36.2519 14.0369 36.4741 14.2646C36.6962 14.4922 36.8712 14.7624 36.9889 15.0592C37.1066 15.3561 37.1647 15.6737 37.1596 15.9935ZM34.7737 17.8452C35.1386 17.8464 35.4957 17.7382 35.7997 17.5341C36.1038 17.33 36.341 17.0392 36.4815 16.6986C36.6221 16.3581 36.6595 15.983 36.5891 15.6209C36.5187 15.2588 36.3436 14.9259 36.086 14.6645C35.8284 14.4032 35.4999 14.2249 35.1421 14.1524C34.7843 14.08 34.4133 14.1165 34.076 14.2575C33.7388 14.3984 33.4505 14.6373 33.2476 14.9441C33.0447 15.2509 32.9365 15.6116 32.9365 15.9806C32.9357 16.2252 32.9825 16.4675 33.0745 16.6937C33.1665 16.9199 33.3016 17.1255 33.4724 17.2986C33.643 17.4719 33.8459 17.6093 34.0691 17.7031C34.2925 17.7969 34.5319 17.8452 34.7737 17.8452Z" fill="#A8A8A8"/>
<path d="M41.3891 15.8128C41.6384 15.9613 41.8331 16.1876 41.944 16.4577C42.0548 16.7279 42.0759 17.0272 42.0039 17.3104C41.9318 17.5937 41.7708 17.8456 41.5448 18.0282C41.3188 18.2107 41.0403 18.3141 40.7512 18.3225H38.7162C38.6971 18.3244 38.6777 18.3221 38.6595 18.3157C38.6413 18.3093 38.6246 18.299 38.6107 18.2856C38.5968 18.2721 38.5859 18.2557 38.5787 18.2376C38.5717 18.2195 38.5685 18.2001 38.5695 18.1806V13.787C38.5665 13.7666 38.5681 13.7457 38.5743 13.7259C38.5805 13.7062 38.5911 13.6881 38.6053 13.6732C38.6194 13.6582 38.6368 13.6468 38.6561 13.6397C38.6753 13.6326 38.6959 13.63 38.7162 13.6322H40.5598C40.7245 13.6225 40.8895 13.647 41.0443 13.7044C41.1992 13.7617 41.3409 13.8506 41.4605 13.9655C41.5801 14.0804 41.6751 14.2188 41.7396 14.3724C41.8042 14.5259 41.8368 14.6912 41.8357 14.858C41.8321 15.04 41.7905 15.2192 41.7135 15.3837C41.6365 15.5483 41.526 15.6946 41.3891 15.8128ZM40.5535 14.1935H39.1054V15.6451H40.5535C40.6535 15.6429 40.7521 15.6199 40.843 15.5773C40.9339 15.5348 41.0151 15.4739 41.0815 15.3981C41.148 15.3224 41.1983 15.2337 41.2293 15.1374C41.2603 15.0412 41.2713 14.9394 41.2616 14.8386C41.2621 14.7476 41.2436 14.6575 41.2073 14.5742C41.1709 14.4909 41.1175 14.4163 41.0507 14.3554C40.9837 14.2944 40.9049 14.2485 40.8192 14.2206C40.7335 14.1927 40.643 14.1835 40.5535 14.1935ZM39.1054 16.1612V17.787H40.764C40.9772 17.787 41.1816 17.7014 41.3324 17.549C41.4831 17.3965 41.5678 17.1897 41.5678 16.9741C41.5678 16.7585 41.4831 16.5518 41.3324 16.3993C41.1816 16.2469 40.9772 16.1612 40.764 16.1612H39.1054Z" fill="#A8A8A8"/>
<path d="M43.6474 18.1935C43.6373 18.2315 43.6148 18.265 43.5835 18.2884C43.5523 18.3119 43.514 18.3239 43.4751 18.3226H43.2008C43.1179 18.3226 43.0732 18.3226 43.0732 18.2193C43.0693 18.1915 43.0693 18.1633 43.0732 18.1355C44.8786 13.7548 44.885 13.7548 44.885 13.7484C44.8936 13.7143 44.9135 13.6842 44.9414 13.6632C44.9692 13.6421 45.0033 13.6312 45.0381 13.6322H45.2231C45.2578 13.6312 45.292 13.6421 45.3198 13.6632C45.3476 13.6842 45.3675 13.7143 45.3762 13.7484L47.207 18.1419C47.2101 18.1677 47.2101 18.1936 47.207 18.2193C47.207 18.2903 47.1496 18.3226 47.0667 18.3226H46.7987C46.762 18.3219 46.7263 18.3097 46.6967 18.2878C46.667 18.2659 46.6447 18.2352 46.6329 18.2L46.2693 17.2968H44.0174L43.6474 18.1935ZM44.2215 16.7613H46.0524L45.1401 14.4516L44.2215 16.7613Z" fill="#A8A8A8"/>
<path d="M51.3152 17.787C51.3336 17.786 51.352 17.789 51.3692 17.7959C51.3863 17.8027 51.4018 17.8133 51.4145 17.8268C51.4273 17.8403 51.4369 17.8564 51.4429 17.874C51.4489 17.8917 51.451 17.9104 51.4492 17.929V18.1806C51.4501 18.1989 51.4472 18.2172 51.4409 18.2344C51.4345 18.2516 51.4248 18.2673 51.4122 18.2806C51.3997 18.2939 51.3847 18.3044 51.3679 18.3116C51.3513 18.3188 51.3333 18.3225 51.3152 18.3225H48.6614C48.6422 18.3259 48.6225 18.3246 48.6039 18.3186C48.5854 18.3128 48.5685 18.3024 48.5547 18.2884C48.541 18.2745 48.5307 18.2575 48.5248 18.2386C48.519 18.2199 48.5177 18.2 48.5211 18.1806V13.7741C48.52 13.7546 48.5232 13.7352 48.5303 13.7171C48.5374 13.699 48.5483 13.6826 48.5623 13.6692C48.5762 13.6557 48.5928 13.6453 48.611 13.639C48.6292 13.6326 48.6486 13.6303 48.6678 13.6322H48.923C48.9414 13.6312 48.9598 13.6342 48.9769 13.641C48.9941 13.6479 49.0095 13.6584 49.0223 13.6719C49.035 13.6854 49.0447 13.7015 49.0507 13.7192C49.0567 13.7368 49.0588 13.7555 49.0569 13.7741V17.787H51.3152Z" fill="#A8A8A8"/>
<path d="M23.1953 1.9935C23.1915 1.95979 23.1951 1.92564 23.2058 1.89347C23.2164 1.8613 23.2339 1.83188 23.257 1.80728C23.2801 1.78268 23.3083 1.7635 23.3395 1.75108C23.3707 1.73867 23.4042 1.73333 23.4377 1.73543H27.1377C27.862 1.75905 28.5479 2.07018 29.0469 2.60147C29.546 3.13276 29.818 3.84146 29.8043 4.57414C29.8214 5.29752 29.5545 5.9983 29.0619 6.52305C28.5693 7.04788 27.8912 7.35388 27.176 7.37414H25.4089V10.1419C25.4089 10.3161 25.3196 10.3999 25.141 10.3999H23.4377C23.2655 10.3999 23.1953 10.3161 23.1953 10.1419V1.9935ZM25.4089 3.58059V5.51608H26.6848C26.8071 5.51454 26.9278 5.48795 27.0397 5.43795C27.1516 5.38794 27.2523 5.31554 27.3357 5.22511C27.4192 5.13468 27.4837 5.0281 27.5253 4.91179C27.5669 4.79547 27.5848 4.67184 27.5779 4.54834C27.5866 4.29892 27.4977 4.05609 27.3305 3.87252C27.1633 3.68895 26.9313 3.57942 26.6848 3.56769L25.4089 3.58059Z" fill="#A8A8A8"/>
<path d="M31.8522 1.99362C31.8495 1.96013 31.8537 1.92644 31.8648 1.89476C31.8759 1.86307 31.8934 1.8341 31.9163 1.80974C31.9392 1.78539 31.9669 1.76619 31.9976 1.7534C32.0284 1.74062 32.0614 1.73453 32.0946 1.73555H35.9222C36.665 1.75918 37.3687 2.07779 37.881 2.62239C38.3932 3.16699 38.6727 3.89373 38.6589 4.64523C38.6366 5.13068 38.4963 5.60309 38.2504 6.0206C38.0045 6.43811 37.6606 6.78781 37.2491 7.03877L38.9141 10.142C38.9327 10.1668 38.9437 10.1966 38.9459 10.2277C38.9482 10.2587 38.9415 10.2897 38.9266 10.317C38.9118 10.3443 38.8894 10.3667 38.8623 10.3814C38.8352 10.3962 38.8044 10.4026 38.7737 10.4001H36.6877C36.5218 10.4001 36.4644 10.3549 36.3751 10.1549L34.9972 7.51619H34.0785V10.142C34.0827 10.1769 34.0789 10.2123 34.0675 10.2455C34.0561 10.2786 34.0375 10.3088 34.0129 10.3337C33.9883 10.3585 33.9585 10.3774 33.9257 10.3889C33.8928 10.4004 33.8579 10.4042 33.8234 10.4001H32.0946C31.9287 10.4001 31.8522 10.3162 31.8522 10.142V1.99362ZM34.0785 3.53555V5.64523H35.3544C35.624 5.63849 35.8804 5.52542 36.0688 5.33013C36.2571 5.13486 36.3625 4.87285 36.3623 4.60007C36.3577 4.32362 36.2488 4.05942 36.0578 3.86154C35.8669 3.66365 35.6084 3.54704 35.3353 3.53555H34.0785Z" fill="#A8A8A8"/>
<path d="M44.8915 1.60645C45.7646 1.60517 46.6185 1.86577 47.3451 2.35527C48.0718 2.84478 48.6386 3.54121 48.9739 4.35651C49.3092 5.1718 49.3979 6.06934 49.2288 6.93561C49.0597 7.80187 48.6404 8.598 48.0239 9.22329C47.4074 9.84858 46.6214 10.2749 45.7654 10.4484C44.9093 10.6219 44.0215 10.5348 43.2144 10.1981C42.4073 9.86135 41.7171 9.29013 41.2309 8.55671C40.7448 7.82322 40.4846 6.96038 40.4834 6.07742C40.4825 5.49113 40.5959 4.91041 40.817 4.36843C41.0381 3.82644 41.3626 3.3338 41.7719 2.91864C42.1812 2.50347 42.6674 2.1739 43.2026 1.94876C43.7379 1.72361 44.3118 1.6073 44.8915 1.60645ZM44.8915 8.38064C45.1866 8.38006 45.4784 8.31916 45.7496 8.20155C46.0207 8.08393 46.2656 7.91206 46.4694 7.69632C46.6732 7.48058 46.8317 7.22535 46.9355 6.94606C47.0393 6.66671 47.0861 6.36906 47.0733 6.07097C47.0733 5.48578 46.8434 4.92456 46.4343 4.51077C46.0251 4.09698 45.4701 3.86451 44.8915 3.86451C44.3129 3.86451 43.7579 4.09698 43.3488 4.51077C42.9397 4.92456 42.7098 5.48578 42.7098 6.07097C42.696 6.36959 42.7422 6.66793 42.8456 6.948C42.9489 7.22813 43.1073 7.48413 43.3113 7.70058C43.5151 7.91703 43.7603 8.08942 44.0319 8.20742C44.3035 8.32542 44.5959 8.38658 44.8915 8.38709V8.38064Z" fill="#A8A8A8"/>
<path d="M51.6215 2.00638C51.6178 1.97154 51.6216 1.93631 51.6325 1.90305C51.6435 1.8698 51.6613 1.83931 51.6849 1.81363C51.7085 1.78795 51.7372 1.76769 51.7692 1.75419C51.8012 1.7407 51.8356 1.7343 51.8703 1.73542H55.532C55.857 1.73626 56.1787 1.80185 56.4787 1.92843C56.7787 2.05501 57.0511 2.24011 57.2804 2.47315C57.5096 2.7062 57.6912 2.98263 57.8148 3.28666C57.9384 3.59069 58.0016 3.91636 58.0008 4.24509C58.0108 4.79041 57.8275 5.32134 57.484 5.74187C57.7629 6.00355 57.9864 6.31971 58.141 6.67123C58.2956 7.02278 58.3781 7.40232 58.3835 7.78703C58.3803 8.47342 58.1114 9.13129 57.6345 9.61968C57.1575 10.1081 56.5104 10.3881 55.8318 10.3999H51.8703C51.8372 10.4039 51.8037 10.4004 51.7721 10.3896C51.7406 10.3788 51.7118 10.361 51.6879 10.3374C51.6641 10.3139 51.6458 10.2854 51.6342 10.2537C51.6227 10.2221 51.6184 10.1883 51.6215 10.1548V2.00638ZM54.9196 3.45154H53.8606V5.16122H54.9004C55.0148 5.17023 55.1298 5.15496 55.238 5.11637C55.3462 5.07778 55.4453 5.01673 55.5288 4.93714C55.6123 4.85756 55.6784 4.76119 55.7229 4.65423C55.7674 4.54727 55.7893 4.43208 55.7872 4.31606C55.7889 4.20094 55.7676 4.08665 55.7244 3.9801C55.6813 3.87354 55.6173 3.77694 55.5362 3.69614C55.4551 3.61533 55.3587 3.55199 55.2526 3.50995C55.1467 3.46791 55.0334 3.44804 54.9196 3.45154ZM55.2066 6.72252H53.8606V8.658H55.2066C55.4526 8.64465 55.6836 8.53465 55.8504 8.35142C56.0173 8.1682 56.1068 7.92632 56.0997 7.67736C56.0956 7.4342 56.0017 7.20136 55.8364 7.02465C55.6711 6.848 55.4465 6.7402 55.2066 6.72252Z" fill="#A8A8A8"/>
<path d="M61.0629 1.99358C61.0629 1.81938 61.1394 1.73551 61.3053 1.73551H63.0341C63.0686 1.73136 63.1035 1.73518 63.1364 1.74669C63.1692 1.75818 63.199 1.77707 63.2236 1.80191C63.2482 1.82676 63.2669 1.85691 63.2782 1.89011C63.2896 1.92331 63.2933 1.95869 63.2892 1.99358V10.142C63.2933 10.1769 63.2896 10.2122 63.2782 10.2454C63.2669 10.2786 63.2482 10.3088 63.2236 10.3336C63.199 10.3585 63.1692 10.3774 63.1364 10.3889C63.1035 10.4003 63.0686 10.4042 63.0341 10.4H61.3053C61.1394 10.4 61.0629 10.3161 61.0629 10.142V1.99358Z" fill="#A8A8A8"/>
<path d="M66.1598 1.99355C66.1547 1.9584 66.1573 1.92245 66.1681 1.88862C66.179 1.8548 66.1981 1.82405 66.223 1.79889C66.2478 1.77374 66.2778 1.75488 66.3116 1.74386C66.3448 1.73284 66.3805 1.72997 66.415 1.73549H72.6731C72.7075 1.73109 72.7426 1.7348 72.7752 1.74632C72.8077 1.75784 72.837 1.77685 72.8613 1.80187C72.8855 1.82687 72.9034 1.85721 72.9142 1.89047C72.9244 1.92373 72.927 1.95902 72.9219 1.99355V3.47742C72.9257 3.51171 72.9225 3.54646 72.911 3.57914C72.9002 3.61181 72.8823 3.64159 72.8581 3.66631C72.8345 3.69103 72.8058 3.71006 72.7733 3.72203C72.7414 3.734 72.7075 3.73859 72.6731 3.73549H70.6253V10.1419C70.6298 10.1774 70.626 10.2135 70.6145 10.2472C70.6024 10.281 70.5832 10.3115 70.5577 10.3365C70.5328 10.3615 70.5022 10.3802 70.4684 10.3912C70.4346 10.4022 70.3989 10.4052 70.3638 10.4H68.6988C68.6643 10.4042 68.6292 10.4003 68.5967 10.3888C68.5635 10.3773 68.5342 10.3584 68.5093 10.3336C68.4851 10.3088 68.4659 10.2786 68.4551 10.2454C68.4436 10.2122 68.4398 10.1768 68.4436 10.1419V3.73549H66.415C66.3805 3.73964 66.3455 3.73582 66.3129 3.72431C66.2797 3.71281 66.2504 3.69393 66.2255 3.66909C66.2013 3.64424 66.1821 3.61408 66.1713 3.58089C66.1598 3.54769 66.156 3.51231 66.1598 3.47742V1.99355Z" fill="#A8A8A8"/>
</g>
<defs>
<clipPath id="clip0_2:984">
<rect width="74" height="20" fill="white"/>
</clipPath>
</defs>
</svg>
