<svg width="160" height="160" viewBox="0 0 160 160" fill="none" xmlns="http://www.w3.org/2000/svg">
<path d="M26.2599 133.74C24.6978 135.302 22.1568 135.309 20.6747 133.67C10.9891 122.965 4.3634 109.816 1.53718 95.6072C-1.54964 80.0887 0.0346269 64.0034 6.08964 49.3853C12.1446 34.7672 22.3984 22.2729 35.5544 13.4824C48.7103 4.69192 64.1775 -1.88681e-07 80 0C95.8225 1.88681e-07 111.29 4.69192 124.446 13.4824C137.602 22.2729 147.855 34.7672 153.91 49.3853C159.965 64.0034 161.55 80.0887 158.463 95.6072C155.637 109.816 149.011 122.965 139.325 133.67C137.843 135.309 135.302 135.302 133.74 133.74C132.178 132.178 132.187 129.653 133.66 128.006C142.232 118.425 148.099 106.703 150.617 94.0465C153.395 80.0799 151.969 65.6031 146.519 52.4468C141.07 39.2905 131.841 28.0457 120.001 20.1342C108.161 12.2227 94.2403 8 80 8C65.7597 8 51.8393 12.2227 39.9989 20.1342C28.1586 28.0456 18.9302 39.2905 13.4807 52.4468C8.03116 65.6031 6.60532 80.0799 9.38346 94.0465C11.901 106.703 17.7682 118.425 26.3398 128.006C27.8128 129.653 27.822 132.178 26.2599 133.74Z" fill="#FD7B01" fill-opacity="0.08"/>
<path d="M26.2599 133.74C24.6978 135.302 22.1569 135.309 20.6748 133.671C13.5458 125.79 8.04878 116.558 4.51903 106.507C0.546899 95.1961 -0.832388 83.137 0.483124 71.2213C1.79864 59.3055 5.77531 47.8377 12.1192 37.6657C18.4631 27.4936 27.0119 18.8773 37.1339 12.4538C47.2558 6.03019 58.692 1.96358 70.597 0.554523C82.5021 -0.854532 94.5716 0.430002 105.913 4.31317C117.255 8.19634 127.579 14.5789 136.123 22.9889C143.714 30.4624 149.727 39.3671 153.822 49.1728C154.673 51.2113 153.585 53.5076 151.507 54.2559C149.428 55.0042 147.147 53.9206 146.285 51.8869C142.603 43.2071 137.248 35.3223 130.51 28.69C122.821 21.121 113.53 15.3767 103.322 11.8819C93.1144 8.387 82.2519 7.23092 71.5373 8.49907C60.8228 9.76722 50.5302 13.4272 41.4205 19.2084C32.3107 24.9896 24.6168 32.7443 18.9073 41.8991C13.1978 51.054 9.61877 61.375 8.43481 72.0991C7.25085 82.8233 8.49221 93.6765 12.0671 103.856C15.1996 112.776 20.0536 120.98 26.3399 128.006C27.8128 129.653 27.822 132.178 26.2599 133.74Z" fill="#FD7B01"/>
<path d="M32.6528 84V81.432H37.2608V69.528H37.0448L33.3968 73.848L31.4288 72.192L35.5808 67.248H40.3568V81.432H44.1968V84H32.6528ZM47.0434 84V81.432H51.6514V69.528H51.4354L47.7874 73.848L45.8194 72.192L49.9714 67.248H54.7474V81.432H58.5874V84H47.0434ZM62.826 84.264C62.17 84.264 61.682 84.104 61.362 83.784C61.058 83.448 60.906 83.024 60.906 82.512V82.08C60.906 81.568 61.058 81.144 61.362 80.808C61.682 80.472 62.17 80.304 62.826 80.304C63.498 80.304 63.986 80.472 64.29 80.808C64.594 81.144 64.746 81.568 64.746 82.08V82.512C64.746 83.024 64.594 83.448 64.29 83.784C63.986 84.104 63.498 84.264 62.826 84.264ZM79.5259 84H67.9099V81.072L73.1659 76.464C74.0619 75.68 74.7179 74.976 75.1339 74.352C75.5499 73.712 75.7579 73.024 75.7579 72.288V71.976C75.7579 71.24 75.5179 70.68 75.0379 70.296C74.5579 69.896 73.9739 69.696 73.2859 69.696C72.4219 69.696 71.7659 69.944 71.3179 70.44C70.8699 70.92 70.5499 71.504 70.3579 72.192L67.6219 71.136C67.7979 70.576 68.0459 70.048 68.3659 69.552C68.6859 69.04 69.0859 68.592 69.5659 68.208C70.0619 67.824 70.6379 67.52 71.2939 67.296C71.9499 67.072 72.7019 66.96 73.5499 66.96C74.4299 66.96 75.2139 67.088 75.9019 67.344C76.5899 67.584 77.1659 67.928 77.6299 68.376C78.1099 68.824 78.4699 69.352 78.7099 69.96C78.9659 70.568 79.0939 71.232 79.0939 71.952C79.0939 72.656 78.9819 73.296 78.7579 73.872C78.5339 74.448 78.2299 75 77.8459 75.528C77.4619 76.04 77.0139 76.536 76.5019 77.016C75.9899 77.48 75.4459 77.952 74.8699 78.432L71.3419 81.336H79.5259V84ZM88.2604 84V71.472H91.3324V73.56H91.4524C91.6924 72.904 92.0764 72.344 92.6044 71.88C93.1324 71.416 93.8684 71.184 94.8124 71.184C95.6764 71.184 96.4204 71.392 97.0444 71.808C97.6684 72.224 98.1324 72.856 98.4364 73.704H98.4844C98.7084 73 99.1484 72.408 99.8044 71.928C100.476 71.432 101.316 71.184 102.324 71.184C103.556 71.184 104.5 71.608 105.156 72.456C105.828 73.304 106.164 74.512 106.164 76.08V84H103.092V76.392C103.092 74.6 102.42 73.704 101.076 73.704C100.772 73.704 100.476 73.752 100.188 73.848C99.9164 73.928 99.6684 74.056 99.4444 74.232C99.2364 74.392 99.0684 74.6 98.9404 74.856C98.8124 75.096 98.7484 75.384 98.7484 75.72V84H95.6764V76.392C95.6764 74.6 95.0044 73.704 93.6604 73.704C93.3724 73.704 93.0844 73.752 92.7964 73.848C92.5244 73.928 92.2764 74.056 92.0524 74.232C91.8444 74.392 91.6684 74.6 91.5244 74.856C91.3964 75.096 91.3324 75.384 91.3324 75.72V84H88.2604ZM111.101 69.648C110.461 69.648 109.997 69.504 109.709 69.216C109.437 68.928 109.301 68.56 109.301 68.112V67.632C109.301 67.184 109.437 66.816 109.709 66.528C109.997 66.24 110.461 66.096 111.101 66.096C111.725 66.096 112.181 66.24 112.469 66.528C112.757 66.816 112.901 67.184 112.901 67.632V68.112C112.901 68.56 112.757 68.928 112.469 69.216C112.181 69.504 111.725 69.648 111.101 69.648ZM109.565 71.472H112.637V84H109.565V71.472ZM116.198 84V71.472H119.27V73.56H119.39C119.646 72.888 120.046 72.328 120.59 71.88C121.15 71.416 121.918 71.184 122.894 71.184C124.19 71.184 125.182 71.608 125.87 72.456C126.558 73.304 126.902 74.512 126.902 76.08V84H123.83V76.392C123.83 75.496 123.67 74.824 123.35 74.376C123.03 73.928 122.502 73.704 121.766 73.704C121.446 73.704 121.134 73.752 120.83 73.848C120.542 73.928 120.278 74.056 120.038 74.232C119.814 74.392 119.63 74.6 119.486 74.856C119.342 75.096 119.27 75.384 119.27 75.72V84H116.198Z" fill="white"/>
<path d="M39.1689 105.168C37.9275 105.168 36.9615 104.748 36.2709 103.908C35.5802 103.059 35.2349 101.813 35.2349 100.17C35.2349 98.5273 35.5802 97.2673 36.2709 96.39C36.9615 95.5033 37.9275 95.06 39.1689 95.06C39.9902 95.06 40.6762 95.2467 41.2269 95.62C41.7869 95.9933 42.2209 96.5207 42.5289 97.202L41.5769 97.776C41.3809 97.272 41.0822 96.8707 40.6809 96.572C40.2795 96.264 39.7755 96.11 39.1689 96.11C38.7489 96.11 38.3709 96.1893 38.0349 96.348C37.7082 96.5067 37.4282 96.7353 37.1949 97.034C36.9709 97.3233 36.7982 97.6733 36.6769 98.084C36.5555 98.4853 36.4949 98.938 36.4949 99.442V100.898C36.4949 101.906 36.7282 102.695 37.1949 103.264C37.6615 103.833 38.3195 104.118 39.1689 104.118C39.7942 104.118 40.3169 103.959 40.7369 103.642C41.1569 103.315 41.4649 102.886 41.6609 102.354L42.5989 102.942C42.2909 103.633 41.8475 104.179 41.2689 104.58C40.6902 104.972 39.9902 105.168 39.1689 105.168ZM48.7602 103.824H48.7042C48.6295 103.992 48.5362 104.16 48.4242 104.328C48.3215 104.487 48.1908 104.631 48.0322 104.762C47.8735 104.883 47.6822 104.981 47.4582 105.056C47.2342 105.131 46.9728 105.168 46.6742 105.168C45.9275 105.168 45.3348 104.93 44.8962 104.454C44.4575 103.969 44.2382 103.287 44.2382 102.41V97.776H45.3582V102.214C45.3582 103.511 45.9088 104.16 47.0102 104.16C47.2342 104.16 47.4488 104.132 47.6542 104.076C47.8688 104.02 48.0555 103.936 48.2142 103.824C48.3822 103.712 48.5128 103.572 48.6062 103.404C48.7088 103.227 48.7602 103.017 48.7602 102.774V97.776H49.8802V105H48.7602V103.824ZM52.2652 105V97.776H53.3852V99.106H53.4552C53.5859 98.7607 53.8192 98.4527 54.1552 98.182C54.4912 97.9113 54.9532 97.776 55.5412 97.776H55.9752V98.896H55.3172C54.7105 98.896 54.2345 99.0127 53.8892 99.246C53.5532 99.47 53.3852 99.7547 53.3852 100.1V105H52.2652ZM57.4058 105V97.776H58.5258V99.106H58.5958C58.7265 98.7607 58.9598 98.4527 59.2958 98.182C59.6318 97.9113 60.0938 97.776 60.6818 97.776H61.1158V98.896H60.4578C59.8512 98.896 59.3752 99.0127 59.0298 99.246C58.6938 99.47 58.5258 99.7547 58.5258 100.1V105H57.4058ZM65.1941 105.168C64.6994 105.168 64.2514 105.079 63.8501 104.902C63.4581 104.725 63.1174 104.473 62.8281 104.146C62.5481 103.81 62.3288 103.413 62.1701 102.956C62.0208 102.489 61.9461 101.967 61.9461 101.388C61.9461 100.819 62.0208 100.301 62.1701 99.834C62.3288 99.3673 62.5481 98.9707 62.8281 98.644C63.1174 98.308 63.4581 98.0513 63.8501 97.874C64.2514 97.6967 64.6994 97.608 65.1941 97.608C65.6794 97.608 66.1134 97.6967 66.4961 97.874C66.8788 98.0513 67.2054 98.2987 67.4761 98.616C67.7468 98.924 67.9521 99.2927 68.0921 99.722C68.2414 100.151 68.3161 100.623 68.3161 101.136V101.668H63.1221V102.004C63.1221 102.312 63.1688 102.601 63.2621 102.872C63.3648 103.133 63.5048 103.362 63.6821 103.558C63.8688 103.754 64.0928 103.908 64.3541 104.02C64.6248 104.132 64.9281 104.188 65.2641 104.188C65.7214 104.188 66.1181 104.081 66.4541 103.866C66.7994 103.651 67.0654 103.343 67.2521 102.942L68.0501 103.516C67.8168 104.011 67.4528 104.412 66.9581 104.72C66.4634 105.019 65.8754 105.168 65.1941 105.168ZM65.1941 98.546C64.8861 98.546 64.6061 98.602 64.3541 98.714C64.1021 98.8167 63.8828 98.966 63.6961 99.162C63.5188 99.358 63.3788 99.5913 63.2761 99.862C63.1734 100.123 63.1221 100.413 63.1221 100.73V100.828H67.1121V100.674C67.1121 100.03 66.9348 99.5167 66.5801 99.134C66.2348 98.742 65.7728 98.546 65.1941 98.546ZM70.1617 105V97.776H71.2817V98.952H71.3377C71.515 98.5413 71.7623 98.2147 72.0797 97.972C72.4063 97.7293 72.8403 97.608 73.3817 97.608C74.1283 97.608 74.7163 97.8507 75.1457 98.336C75.5843 98.812 75.8037 99.4887 75.8037 100.366V105H74.6837V100.562C74.6837 99.2647 74.1377 98.616 73.0457 98.616C72.8217 98.616 72.6023 98.644 72.3877 98.7C72.1823 98.756 71.9957 98.84 71.8277 98.952C71.6597 99.064 71.5243 99.2087 71.4217 99.386C71.3283 99.554 71.2817 99.7547 71.2817 99.988V105H70.1617ZM79.7147 105C79.3227 105 79.024 104.893 78.8187 104.678C78.6227 104.454 78.5247 104.165 78.5247 103.81V98.756H77.3347V97.776H78.0067C78.2494 97.776 78.4127 97.7293 78.4967 97.636C78.59 97.5333 78.6367 97.3607 78.6367 97.118V95.774H79.6447V97.776H81.2267V98.756H79.6447V104.02H81.1147V105H79.7147ZM88.5055 105.168C87.8335 105.168 87.2688 105.042 86.8115 104.79C86.3635 104.529 85.9762 104.183 85.6495 103.754L86.4475 103.11C86.7275 103.465 87.0402 103.74 87.3855 103.936C87.7308 104.123 88.1322 104.216 88.5895 104.216C89.0655 104.216 89.4342 104.113 89.6955 103.908C89.9662 103.703 90.1015 103.413 90.1015 103.04C90.1015 102.76 90.0082 102.522 89.8215 102.326C89.6442 102.121 89.3175 101.981 88.8415 101.906L88.2675 101.822C87.9315 101.775 87.6235 101.705 87.3435 101.612C87.0635 101.509 86.8162 101.379 86.6015 101.22C86.3962 101.052 86.2328 100.847 86.1115 100.604C85.9995 100.361 85.9435 100.072 85.9435 99.736C85.9435 99.3813 86.0088 99.0733 86.1395 98.812C86.2702 98.5413 86.4475 98.3173 86.6715 98.14C86.9048 97.9627 87.1802 97.832 87.4975 97.748C87.8148 97.6547 88.1555 97.608 88.5195 97.608C89.1075 97.608 89.5975 97.7107 89.9895 97.916C90.3908 98.1213 90.7408 98.406 91.0395 98.77L90.2975 99.442C90.1388 99.218 89.9055 99.0173 89.5975 98.84C89.2895 98.6533 88.9022 98.56 88.4355 98.56C87.9688 98.56 87.6142 98.6627 87.3715 98.868C87.1382 99.064 87.0215 99.3347 87.0215 99.68C87.0215 100.035 87.1382 100.291 87.3715 100.45C87.6142 100.609 87.9595 100.725 88.4075 100.8L88.9675 100.884C89.7702 101.005 90.3395 101.239 90.6755 101.584C91.0115 101.92 91.1795 102.363 91.1795 102.914C91.1795 103.614 90.9415 104.165 90.4655 104.566C89.9895 104.967 89.3362 105.168 88.5055 105.168ZM93.1578 97.776H94.2778V98.952H94.3338C94.5204 98.4947 94.7911 98.1587 95.1458 97.944C95.5098 97.72 95.9438 97.608 96.4478 97.608C96.8958 97.608 97.3018 97.6967 97.6658 97.874C98.0298 98.0513 98.3378 98.3033 98.5898 98.63C98.8511 98.9567 99.0471 99.3533 99.1778 99.82C99.3178 100.287 99.3878 100.809 99.3878 101.388C99.3878 101.967 99.3178 102.489 99.1778 102.956C99.0471 103.423 98.8511 103.819 98.5898 104.146C98.3378 104.473 98.0298 104.725 97.6658 104.902C97.3018 105.079 96.8958 105.168 96.4478 105.168C95.4678 105.168 94.7631 104.72 94.3338 103.824H94.2778V107.8H93.1578V97.776ZM96.1398 104.16C96.7744 104.16 97.2738 103.964 97.6378 103.572C98.0018 103.171 98.1838 102.648 98.1838 102.004V100.772C98.1838 100.128 98.0018 99.61 97.6378 99.218C97.2738 98.8167 96.7744 98.616 96.1398 98.616C95.8878 98.616 95.6451 98.6533 95.4118 98.728C95.1878 98.7933 94.9918 98.8867 94.8238 99.008C94.6558 99.1293 94.5204 99.2787 94.4178 99.456C94.3244 99.624 94.2778 99.806 94.2778 100.002V102.69C94.2778 102.923 94.3244 103.133 94.4178 103.32C94.5204 103.497 94.6558 103.651 94.8238 103.782C94.9918 103.903 95.1878 103.997 95.4118 104.062C95.6451 104.127 95.8878 104.16 96.1398 104.16ZM103.995 105.168C103.5 105.168 103.052 105.079 102.651 104.902C102.259 104.725 101.918 104.473 101.629 104.146C101.349 103.81 101.13 103.413 100.971 102.956C100.822 102.489 100.747 101.967 100.747 101.388C100.747 100.819 100.822 100.301 100.971 99.834C101.13 99.3673 101.349 98.9707 101.629 98.644C101.918 98.308 102.259 98.0513 102.651 97.874C103.052 97.6967 103.5 97.608 103.995 97.608C104.48 97.608 104.914 97.6967 105.297 97.874C105.68 98.0513 106.006 98.2987 106.277 98.616C106.548 98.924 106.753 99.2927 106.893 99.722C107.042 100.151 107.117 100.623 107.117 101.136V101.668H101.923V102.004C101.923 102.312 101.97 102.601 102.063 102.872C102.166 103.133 102.306 103.362 102.483 103.558C102.67 103.754 102.894 103.908 103.155 104.02C103.426 104.132 103.729 104.188 104.065 104.188C104.522 104.188 104.919 104.081 105.255 103.866C105.6 103.651 105.866 103.343 106.053 102.942L106.851 103.516C106.618 104.011 106.254 104.412 105.759 104.72C105.264 105.019 104.676 105.168 103.995 105.168ZM103.995 98.546C103.687 98.546 103.407 98.602 103.155 98.714C102.903 98.8167 102.684 98.966 102.497 99.162C102.32 99.358 102.18 99.5913 102.077 99.862C101.974 100.123 101.923 100.413 101.923 100.73V100.828H105.913V100.674C105.913 100.03 105.736 99.5167 105.381 99.134C105.036 98.742 104.574 98.546 103.995 98.546ZM111.678 105.168C111.184 105.168 110.736 105.079 110.334 104.902C109.942 104.725 109.602 104.473 109.312 104.146C109.032 103.81 108.813 103.413 108.654 102.956C108.505 102.489 108.43 101.967 108.43 101.388C108.43 100.819 108.505 100.301 108.654 99.834C108.813 99.3673 109.032 98.9707 109.312 98.644C109.602 98.308 109.942 98.0513 110.334 97.874C110.736 97.6967 111.184 97.608 111.678 97.608C112.164 97.608 112.598 97.6967 112.98 97.874C113.363 98.0513 113.69 98.2987 113.96 98.616C114.231 98.924 114.436 99.2927 114.576 99.722C114.726 100.151 114.8 100.623 114.8 101.136V101.668H109.606V102.004C109.606 102.312 109.653 102.601 109.746 102.872C109.849 103.133 109.989 103.362 110.166 103.558C110.353 103.754 110.577 103.908 110.838 104.02C111.109 104.132 111.412 104.188 111.748 104.188C112.206 104.188 112.602 104.081 112.938 103.866C113.284 103.651 113.55 103.343 113.736 102.942L114.534 103.516C114.301 104.011 113.937 104.412 113.442 104.72C112.948 105.019 112.36 105.168 111.678 105.168ZM111.678 98.546C111.37 98.546 111.09 98.602 110.838 98.714C110.586 98.8167 110.367 98.966 110.18 99.162C110.003 99.358 109.863 99.5913 109.76 99.862C109.658 100.123 109.606 100.413 109.606 100.73V100.828H113.596V100.674C113.596 100.03 113.419 99.5167 113.064 99.134C112.719 98.742 112.257 98.546 111.678 98.546ZM121.266 103.824H121.21C120.771 104.72 120.067 105.168 119.096 105.168C118.648 105.168 118.242 105.079 117.878 104.902C117.514 104.725 117.201 104.473 116.94 104.146C116.688 103.819 116.492 103.423 116.352 102.956C116.221 102.489 116.156 101.967 116.156 101.388C116.156 100.809 116.221 100.287 116.352 99.82C116.492 99.3533 116.688 98.9567 116.94 98.63C117.201 98.3033 117.514 98.0513 117.878 97.874C118.242 97.6967 118.648 97.608 119.096 97.608C119.6 97.608 120.029 97.72 120.384 97.944C120.748 98.1587 121.023 98.4947 121.21 98.952H121.266V94.64H122.386V105H121.266V103.824ZM119.404 104.16C119.656 104.16 119.894 104.127 120.118 104.062C120.351 103.997 120.552 103.903 120.72 103.782C120.888 103.651 121.019 103.497 121.112 103.32C121.215 103.133 121.266 102.923 121.266 102.69V100.002C121.266 99.806 121.215 99.624 121.112 99.456C121.019 99.2787 120.888 99.1293 120.72 99.008C120.552 98.8867 120.351 98.7933 120.118 98.728C119.894 98.6533 119.656 98.616 119.404 98.616C118.769 98.616 118.27 98.8167 117.906 99.218C117.542 99.61 117.36 100.128 117.36 100.772V102.004C117.36 102.648 117.542 103.171 117.906 103.572C118.27 103.964 118.769 104.16 119.404 104.16Z" fill="#797A81"/>
</svg>
