<svg width="16" height="16" viewBox="0 0 16 16" fill="none" xmlns="http://www.w3.org/2000/svg">
<g clip-path="url(#clip0_2:1713)">
<path d="M4.6665 5.70345C4.71665 6.31664 4.83182 7.15658 5.09241 8.03852C5.64585 9.91144 6.62354 11.2432 7.99984 12C9.37613 11.2432 10.3538 9.91144 10.9072 8.03852C11.1678 7.15666 11.283 6.31669 11.3332 5.70345L7.99984 4L4.6665 5.70345Z" fill="#FD7B01"/>
<path d="M15.0578 3.73929C15.049 3.57073 14.9503 3.41988 14.7993 3.34441L8.20946 0.0494766C8.07749 -0.0164922 7.92218 -0.0164922 7.79021 0.0494766L1.20036 3.34441C1.04939 3.41988 0.950644 3.57073 0.941894 3.73929C0.936894 3.83523 0.828519 6.11954 1.60667 8.77163C2.06711 10.3408 2.74436 11.7114 3.61961 12.8452C4.72258 14.274 6.14021 15.3251 7.83311 15.9694C7.88683 15.9898 7.9433 16 7.99983 16C8.05636 16 8.11283 15.9898 8.16655 15.9694C9.85946 15.3251 11.2771 14.274 12.3801 12.8452C13.2553 11.7114 13.9326 10.3408 14.393 8.77163C15.1711 6.11954 15.0628 3.83523 15.0578 3.73929ZM8.20758 13.9085C8.14211 13.9409 8.07096 13.957 7.99983 13.957C7.92871 13.957 7.85752 13.9409 7.79208 13.9085C5.70483 12.8765 4.23908 11.0042 3.43558 8.3436C3.03371 7.01288 2.88861 5.75894 2.83768 4.94138C2.82596 4.75363 2.92764 4.5771 3.09589 4.49298L7.79024 2.14582C7.92221 2.07988 8.07752 2.07985 8.20949 2.14582L12.9039 4.49298C13.0721 4.57707 13.1738 4.75366 13.1621 4.94141C13.1111 5.75904 12.966 7.01301 12.5641 8.3436C11.7606 11.0041 10.2948 12.8764 8.20758 13.9085Z" fill="#FD7B01"/>
</g>
<defs>
<clipPath id="clip0_2:1713">
<rect width="16" height="16" fill="white"/>
</clipPath>
</defs>
</svg>
