<svg width="22" height="24" viewBox="0 0 22 24" fill="none" xmlns="http://www.w3.org/2000/svg">
<path d="M6.00049 8.55517C6.07571 9.47495 6.24847 10.7349 6.63935 12.0578C7.46951 14.8672 8.93605 16.8648 11.0005 18C13.0649 16.8648 14.5315 14.8672 15.3616 12.0578C15.7525 10.735 15.9252 9.47503 16.0005 8.55517L11.0005 6L6.00049 8.55517Z" fill="#FD7B01"/>
<path d="M21.5874 5.60893C21.5743 5.35609 21.4261 5.12982 21.1997 5.01662L11.3149 0.0742148C11.117 -0.0247383 10.884 -0.0247383 10.686 0.0742148L0.801276 5.01662C0.574823 5.12982 0.426698 5.35609 0.413573 5.60893C0.406073 5.75284 0.24351 9.17931 1.41074 13.1574C2.1014 15.5112 3.11728 17.567 4.43015 19.2678C6.0846 21.411 8.21104 22.9877 10.7504 23.954C10.831 23.9846 10.9157 24 11.0005 24C11.0853 24 11.17 23.9846 11.2506 23.954C13.7899 22.9877 15.9164 21.411 17.5708 19.2678C18.8837 17.567 19.8996 15.5112 20.5902 13.1574C21.7574 9.17931 21.5949 5.75284 21.5874 5.60893ZM11.3121 20.8627C11.2139 20.9113 11.1072 20.9356 11.0005 20.9356C10.8938 20.9356 10.787 20.9113 10.6889 20.8627C7.55798 19.3147 5.35935 16.5062 4.1541 12.5154C3.55129 10.5193 3.33365 8.63842 3.25724 7.41207C3.23967 7.13045 3.3922 6.86565 3.64457 6.73946L10.6861 3.21873C10.884 3.11982 11.117 3.11978 11.315 3.21873L18.3565 6.73946C18.6089 6.8656 18.7614 7.1305 18.7439 7.41212C18.6674 8.63856 18.4498 10.5195 17.8469 12.5154C16.6416 16.5062 14.443 19.3147 11.3121 20.8627Z" fill="#FD7B01"/>
</svg>
