<svg width="56" height="56" viewBox="0 0 56 56" fill="none" xmlns="http://www.w3.org/2000/svg">
<path d="M51.5062 14.4144C51.4392 12.9411 51.4392 11.5348 51.4392 10.1286C51.4392 8.99014 50.5687 8.11958 49.4303 8.11958C41.0596 8.11958 34.6978 5.70882 29.4075 0.552466C28.6039 -0.184155 27.3986 -0.184155 26.595 0.552466C21.3047 5.70882 14.943 8.11958 6.57226 8.11958C5.43385 8.11958 4.56329 8.99014 4.56329 10.1286C4.56329 11.5348 4.56329 12.9411 4.49633 14.4144C4.22847 28.4771 3.82667 47.7632 27.3316 55.8661L28.0013 56L28.6709 55.8661C52.1089 47.7632 51.7741 28.5441 51.5062 14.4144ZM26.3941 33.9013C25.9923 34.2362 25.5235 34.4371 24.9878 34.4371H24.9208C24.3851 34.4371 23.8494 34.1692 23.5146 33.7674L17.2868 26.87L20.3002 24.1913L25.1887 29.6155L36.0371 19.3028L38.7827 22.2493L26.3941 33.9013Z" fill="#FD7B01"/>
</svg>
