<svg width="171" height="32" viewBox="0 0 171 32" fill="none" xmlns="http://www.w3.org/2000/svg">
<g clip-path="url(#clip0_2:625)">
<path d="M0 0.00854492H31.9829V31.9915H0V0.00854492ZM34.6482 0.00854492H66.6311V31.9915H34.6482V0.00854492ZM69.2964 0.00854492H101.279V31.9915H69.2964V0.00854492ZM103.945 0.00854492H135.928V31.9915H103.945V0.00854492ZM138.593 0.00854492H170.576V31.9915H138.593V0.00854492Z" fill="#00B67A"/>
<path d="M15.9914 21.5637L20.8555 20.331L22.8877 26.5943L15.9914 21.5637ZM27.1854 13.468H18.6233L15.9914 5.40564L13.3595 13.468H4.79736L11.727 18.4653L9.09507 26.5277L16.0247 21.5304L20.2891 18.4653L27.1854 13.468ZM50.6396 21.5637L55.5037 20.331L57.5359 26.5943L50.6396 21.5637ZM61.8336 13.468H53.2715L50.6396 5.40564L48.0077 13.468H39.4456L46.3752 18.4653L43.7433 26.5277L50.6729 21.5304L54.9373 18.4653L61.8336 13.468ZM85.2878 21.5637L90.1518 20.331L92.1841 26.5943L85.2878 21.5637ZM96.4818 13.468H87.9197L85.2878 5.40564L82.6558 13.468H74.0937L81.0234 18.4653L78.3914 26.5277L85.3211 21.5304L89.5855 18.4653L96.4818 13.468ZM119.936 21.5637L124.8 20.331L126.832 26.5943L119.936 21.5637ZM131.13 13.468H122.568L119.936 5.40564L117.304 13.468H108.742L115.672 18.4653L113.04 26.5277L119.969 21.5304L124.234 18.4653L131.13 13.468ZM154.584 21.5637L159.448 20.331L161.48 26.5943L154.584 21.5637ZM165.778 13.468H157.216L154.584 5.40564L151.952 13.468H143.39L150.32 18.4653L147.688 26.5277L154.617 21.5304L158.882 18.4653L165.778 13.468Z" fill="white"/>
</g>
<defs>
<clipPath id="clip0_2:625">
<rect width="170.576" height="32" fill="white"/>
</clipPath>
</defs>
</svg>
