<svg width="112" height="24" viewBox="0 0 112 24" fill="none" xmlns="http://www.w3.org/2000/svg">
<path d="M0.0252237 -2.20513e-09L15.3374 -1.34084e-06L15.3374 2.85173L9.30841 2.85173L9.30841 18.9274L6.0038 18.9274L6.00379 2.85173L2.49306e-07 2.85173L0.0252237 -2.20513e-09ZM14.6816 5.22397L17.5069 5.22397L17.5069 7.87381L17.5573 7.87381C17.6582 7.49526 17.8348 7.14195 18.0871 6.78864C18.3393 6.43533 18.642 6.10725 19.0204 5.82965C19.3736 5.52681 19.7772 5.29968 20.2313 5.12303C20.6601 4.94637 21.1142 4.84542 21.5683 4.84542C21.9214 4.84542 22.1737 4.87066 22.2998 4.87066C22.4259 4.8959 22.5773 4.92114 22.7034 4.92114L22.7034 7.82334C22.5016 7.77287 22.2746 7.74763 22.0476 7.72239C21.8205 7.69716 21.6187 7.67192 21.3917 7.67192C20.8872 7.67192 20.4079 7.77286 19.9538 7.97476C19.4997 8.17665 19.1213 8.47949 18.7682 8.85804C18.4402 9.26182 18.1627 9.74132 17.9609 10.3218C17.7591 10.9022 17.6582 11.5836 17.6582 12.3407L17.6582 18.8517L14.6311 18.8517L14.6816 5.22397ZM36.5778 18.9274L33.6011 18.9274L33.6011 17.0095L33.5506 17.0095C33.1722 17.7161 32.6173 18.2461 31.8857 18.6751C31.1542 19.1041 30.3974 19.306 29.6406 19.306C27.8495 19.306 26.5378 18.877 25.7306 17.9685C24.9233 17.0852 24.5197 15.7224 24.5197 13.9306L24.5197 5.22397L27.5468 5.22397L27.5468 13.6278C27.5468 14.8391 27.7739 15.6972 28.2532 16.1767C28.7072 16.6814 29.3631 16.9337 30.1956 16.9337C30.8262 16.9337 31.356 16.8328 31.7848 16.6309C32.2137 16.429 32.5668 16.1767 32.8191 15.8486C33.0966 15.5205 33.2731 15.1167 33.3993 14.6625C33.5254 14.2082 33.5759 13.7035 33.5759 13.1735L33.5759 5.22397L36.603 5.22397L36.603 18.9274L36.5778 18.9274ZM41.7239 14.5363C41.8248 15.4196 42.1527 16.0252 42.7329 16.4038C43.3131 16.7571 44.0194 16.9337 44.8267 16.9337C45.1042 16.9337 45.4321 16.9085 45.7853 16.858C46.1384 16.8076 46.4916 16.7319 46.7943 16.6057C47.1222 16.4795 47.3745 16.3028 47.5763 16.0505C47.7781 15.7981 47.879 15.4953 47.8538 15.1167C47.8286 14.7382 47.7024 14.4101 47.425 14.1577C47.1475 13.9054 46.8195 13.7287 46.4159 13.552C46.0123 13.4006 45.533 13.2744 45.0033 13.1735C44.4735 13.0726 43.9438 12.9464 43.3888 12.8202C42.8338 12.694 42.2788 12.5426 41.7491 12.3659C41.2194 12.1893 40.7653 11.9621 40.3364 11.6341C39.9328 11.3312 39.5797 10.9527 39.3526 10.4732C39.1004 9.99369 38.9742 9.43848 38.9742 8.73185C38.9742 7.97476 39.1508 7.36908 39.5292 6.86435C39.8824 6.35962 40.3617 5.95583 40.9166 5.65299C41.4716 5.35015 42.1023 5.12302 42.7834 4.99684C43.4645 4.87066 44.1203 4.82018 44.7258 4.82018C45.4321 4.82018 46.1132 4.8959 46.7438 5.04732C47.3745 5.19874 47.9799 5.42586 48.4844 5.77918C49.0142 6.10725 49.443 6.56151 49.771 7.09147C50.1241 7.62144 50.3259 8.2776 50.4269 9.0347L47.2736 9.0347C47.1222 8.30283 46.7943 7.82334 46.2898 7.57098C45.76 7.31861 45.1798 7.19243 44.4987 7.19243C44.2969 7.19243 44.0194 7.21766 43.742 7.2429C43.4392 7.29337 43.187 7.34385 42.9095 7.44479C42.6572 7.54574 42.4302 7.69715 42.2536 7.87381C42.077 8.05047 41.9761 8.30283 41.9761 8.60567C41.9761 8.98422 42.1023 9.26182 42.3545 9.48895C42.6068 9.71608 42.9347 9.89274 43.3636 10.0694C43.7672 10.2208 44.2465 10.347 44.7762 10.4479C45.306 10.5489 45.8609 10.6751 46.4159 10.8013C46.9709 10.9274 47.5006 11.0789 48.0304 11.2555C48.5601 11.4322 49.0394 11.6593 49.443 11.9874C49.8467 12.2902 50.1998 12.6688 50.4521 13.123C50.7043 13.5773 50.8305 14.1577 50.8305 14.8139C50.8305 15.6214 50.6539 16.3028 50.2755 16.8833C49.8971 17.4385 49.4178 17.918 48.8376 18.2713C48.2574 18.6246 47.5763 18.877 46.87 19.0536C46.1384 19.205 45.4321 19.306 44.7258 19.306C43.8681 19.306 43.0608 19.205 42.3293 19.0032C41.5977 18.8013 40.9419 18.4984 40.4121 18.1199C39.8824 17.7161 39.4535 17.2366 39.1508 16.6309C38.8481 16.0505 38.6715 15.3438 38.6463 14.511L41.6986 14.511L41.6986 14.5363L41.7239 14.5363ZM51.6882 5.22397L53.9837 5.22397L53.9837 1.08517L57.0108 1.08517L57.0108 5.19873L59.7353 5.19873L59.7353 7.44479L57.0108 7.44479L57.0109 14.7634C57.0109 15.0915 57.0361 15.3438 57.0613 15.5962C57.0865 15.8233 57.1622 16.0252 57.2379 16.1766C57.3388 16.3281 57.4901 16.4543 57.6667 16.53C57.8685 16.6057 58.1208 16.6562 58.474 16.6562C58.6758 16.6562 58.9028 16.6561 59.1046 16.6309C59.3064 16.6057 59.5334 16.5804 59.7353 16.53L59.7353 18.877C59.4073 18.9274 59.0794 18.9527 58.7514 18.9779C58.4235 19.0284 58.1208 19.0284 57.7676 19.0284C56.9604 19.0284 56.3297 18.9527 55.8505 18.8013C55.3712 18.6498 54.9928 18.4227 54.7153 18.1451C54.4378 17.8423 54.2612 17.489 54.1603 17.0599C54.0594 16.6309 54.009 16.1009 53.9837 15.5457L53.9837 7.47002L51.6882 7.47002L51.6882 5.1735L51.6882 5.22397ZM61.8542 5.22397L64.7048 5.22397L64.7048 7.09147L64.7552 7.09147C65.1841 6.2839 65.7643 5.7287 66.5211 5.37539C67.2778 5.02207 68.0851 4.84542 68.9932 4.84542C70.0779 4.84542 71.0113 5.02208 71.8185 5.42586C72.6258 5.80441 73.2816 6.30914 73.8114 6.99053C74.3411 7.64668 74.7447 8.42902 74.997 9.3123C75.2493 10.1956 75.4006 11.1546 75.4006 12.1388C75.4006 13.0725 75.2745 13.9558 75.0475 14.8139C74.7952 15.6719 74.442 16.4543 73.9627 17.1104C73.4834 17.7666 72.878 18.2965 72.1212 18.7003C71.3645 19.1041 70.5068 19.306 69.4977 19.306C69.0689 19.306 68.6148 19.2555 68.186 19.1798C67.7571 19.1041 67.3283 18.9779 66.9247 18.8013C66.5211 18.6246 66.1427 18.3975 65.8147 18.1199C65.4616 17.8423 65.1841 17.5142 64.957 17.1609L64.9066 17.1609L64.9066 24L61.8795 24L61.8795 5.22397L61.8542 5.22397ZM72.424 12.0883C72.424 11.4826 72.3483 10.877 72.1717 10.2965C72.0203 9.71608 71.7681 9.21135 71.4401 8.75709C71.1122 8.30283 70.7086 7.94952 70.2545 7.67192C69.7752 7.39432 69.2202 7.26813 68.6148 7.26813C67.3535 7.26813 66.3949 7.69716 65.7391 8.58044C65.1084 9.46372 64.7805 10.6498 64.7805 12.1136C64.7805 12.8202 64.8561 13.4511 65.0327 14.0315C65.2093 14.612 65.4363 15.1167 65.7895 15.5457C66.1174 15.9748 66.5211 16.3028 67.0004 16.5552C67.4797 16.8076 68.0094 16.9337 68.6401 16.9337C69.3464 16.9337 69.9014 16.7823 70.3806 16.5047C70.8599 16.2271 71.2383 15.8486 71.5663 15.4196C71.869 14.9653 72.096 14.4606 72.2221 13.8801C72.3483 13.2744 72.424 12.694 72.424 12.0883ZM77.7466 -6.79683e-06L80.7738 -7.06147e-06L80.7738 2.85173L77.7466 2.85173L77.7466 -6.79683e-06ZM77.7466 5.22397L80.7738 5.22396L80.7738 18.9274L77.7466 18.9274L77.7466 5.22397ZM83.473 -7.29744e-06L86.5001 -7.56208e-06L86.5001 18.9274L83.473 18.9274L83.473 -7.29744e-06ZM95.7328 19.306C94.6481 19.306 93.6643 19.1293 92.8066 18.7508C91.9489 18.3722 91.2426 17.8927 90.6372 17.2618C90.057 16.6309 89.6029 15.8486 89.3002 14.9653C88.9975 14.082 88.8209 13.0978 88.8209 12.0631C88.8209 11.0284 88.9722 10.0694 89.3002 9.18611C89.6029 8.30283 90.057 7.54573 90.6372 6.88958C91.2174 6.25867 91.9489 5.75394 92.8066 5.40062C93.6643 5.04731 94.6481 4.84541 95.7328 4.84541C96.8175 4.84541 97.8014 5.02207 98.659 5.40062C99.5167 5.75393 100.223 6.25867 100.828 6.88958C101.409 7.5205 101.863 8.30283 102.165 9.18611C102.468 10.0694 102.645 11.0284 102.645 12.0631C102.645 13.123 102.493 14.082 102.165 14.9653C101.838 15.8486 101.409 16.6057 100.828 17.2618C100.248 17.8927 99.5167 18.3975 98.659 18.7508C97.8014 19.1041 96.8428 19.306 95.7328 19.306ZM95.7328 16.9085C96.3887 16.9085 96.9941 16.7571 97.4734 16.4795C97.9779 16.2019 98.3563 15.8233 98.6843 15.3691C99.0122 14.9148 99.2392 14.3849 99.3906 13.8296C99.5419 13.2492 99.6176 12.6688 99.6176 12.0631C99.6176 11.4826 99.5419 10.9022 99.3906 10.3218C99.2392 9.74132 99.0122 9.23658 98.6843 8.78233C98.3563 8.32807 97.9527 7.97476 97.4734 7.69715C96.9689 7.41955 96.3887 7.26813 95.7328 7.26813C95.0769 7.26813 94.4715 7.41955 93.9922 7.69715C93.4877 7.97476 93.1093 8.3533 92.7814 8.78233C92.4534 9.23659 92.2264 9.74132 92.075 10.3218C91.9237 10.9022 91.848 11.4826 91.848 12.0631C91.848 12.6688 91.9237 13.2492 92.075 13.8296C92.2264 14.4101 92.4534 14.9148 92.7814 15.3691C93.1093 15.8233 93.5129 16.2019 93.9922 16.4795C94.4967 16.7823 95.0769 16.9085 95.7328 16.9085ZM103.553 5.22396L105.848 5.22396L105.848 1.08516L108.876 1.08516L108.876 5.19872L111.6 5.19872L111.6 7.44479L108.876 7.44479L108.876 14.7634C108.876 15.0915 108.901 15.3438 108.926 15.5962C108.951 15.8233 109.027 16.0252 109.103 16.1766C109.204 16.3281 109.355 16.4543 109.531 16.53C109.733 16.6057 109.986 16.6561 110.339 16.6561C110.541 16.6561 110.768 16.6561 110.969 16.6309C111.171 16.6057 111.398 16.5804 111.6 16.53L111.6 18.877C111.272 18.9274 110.944 18.9527 110.616 18.9779C110.288 19.0284 109.986 19.0284 109.632 19.0284C108.825 19.0284 108.194 18.9527 107.715 18.8013C107.236 18.6498 106.857 18.4227 106.58 18.1451C106.303 17.8423 106.126 17.4889 106.025 17.0599C105.924 16.6309 105.874 16.1009 105.848 15.5457L105.848 7.47002L103.553 7.47002L103.553 5.17349L103.553 5.22396Z" fill="white"/>
</svg>
