<svg width="56" height="56" viewBox="0 0 56 56" fill="none" xmlns="http://www.w3.org/2000/svg">
<g clip-path="url(#clip0_2:144)">
<path d="M51.2014 43.0612C51.1258 41.97 50.9728 40.7797 50.7477 39.5227C50.5204 38.2564 50.2277 37.0592 49.8774 35.9651C49.5155 34.8341 49.0233 33.7173 48.4149 32.6471C47.7835 31.5362 47.0418 30.569 46.2095 29.773C45.3392 28.9403 44.2736 28.2708 43.0415 27.7825C41.8136 27.2967 40.4528 27.0506 38.9972 27.0506C38.4255 27.0506 37.8727 27.2852 36.805 27.9803C36.1479 28.4088 35.3793 28.9044 34.5214 29.4526C33.7878 29.92 32.794 30.3579 31.5665 30.7544C30.369 31.1419 29.153 31.3384 27.9529 31.3384C26.7528 31.3384 25.5373 31.1419 24.3384 30.7544C23.1122 30.3583 22.1185 29.9204 21.3857 29.453C20.5359 28.91 19.7669 28.4144 19.1 27.9799C18.0336 27.2847 17.4803 27.0502 16.9086 27.0502C15.4526 27.0502 14.0922 27.2967 12.8648 27.7829C11.6335 28.2704 10.5675 28.9399 9.69633 29.7734C8.86449 30.5698 8.12236 31.5367 7.49175 32.6471C6.88378 33.7173 6.39159 34.8337 6.02929 35.9655C5.67938 37.0597 5.38672 38.2564 5.15942 39.5227C4.93426 40.778 4.78131 41.9687 4.70569 43.0624C4.63135 44.134 4.59375 45.2461 4.59375 46.3693C4.59375 49.2925 5.52301 51.659 7.35546 53.4043C9.16527 55.1265 11.56 56.0002 14.4721 56.0002H41.4363C44.3484 56.0002 46.7423 55.127 48.5525 53.4043C50.3854 51.6603 51.3146 49.2934 51.3146 46.3689C51.3142 45.2405 51.2762 44.1276 51.2014 43.0612Z" fill="#FD7B01"/>
<path fill-rule="evenodd" clip-rule="evenodd" d="M37.1378 23.0238C34.5159 25.6462 31.3068 26.9754 27.6009 26.9754C23.8958 26.9754 20.6872 25.6458 18.0648 23.0242C15.4424 20.4022 14.1128 17.1936 14.1128 13.4873C14.1128 9.78176 15.4424 6.57316 18.0644 3.95116C20.6864 1.32916 23.8946 0 27.6009 0C31.3064 0 34.515 1.32916 37.1374 3.95073C39.7598 6.57358 41.089 9.78219 41.089 13.4873C41.089 17.1936 39.7598 20.4018 37.1378 23.0238ZM26.6139 14.1491C26.2499 14.7091 26.0679 15.2971 26.0679 15.9131H28.9659C28.9659 15.5771 29.0849 15.2411 29.3229 14.9051C29.5749 14.5691 29.8689 14.2471 30.2049 13.9391C30.5549 13.6171 30.8979 13.2811 31.2339 12.9311C31.5839 12.5671 31.8779 12.1331 32.1159 11.6291C32.3679 11.1251 32.4939 10.5791 32.4939 9.99113C32.4939 8.70313 32.0249 7.69513 31.0869 6.96713C30.1629 6.22513 29.0639 5.85413 27.7899 5.85413C26.6559 5.85413 25.6269 6.14113 24.7029 6.71513C23.7929 7.27513 23.1279 8.07313 22.7079 9.10913L25.1859 10.5371C25.6759 9.29113 26.5089 8.66813 27.6849 8.66813C28.2869 8.66813 28.7559 8.80113 29.0919 9.06713C29.4279 9.33313 29.5959 9.71113 29.5959 10.2011C29.5959 10.6631 29.4069 11.1251 29.0289 11.5871C28.6649 12.0491 28.2659 12.4551 27.8319 12.8051C27.3979 13.1411 26.9919 13.5891 26.6139 14.1491ZM27.5169 21.1211C28.0069 21.1211 28.4269 20.9461 28.7769 20.5961C29.1269 20.2461 29.3019 19.8261 29.3019 19.3361C29.3019 18.8461 29.1269 18.4261 28.7769 18.0761C28.4269 17.7261 28.0069 17.5511 27.5169 17.5511C27.0269 17.5511 26.6069 17.7261 26.2569 18.0761C25.9069 18.4261 25.7319 18.8461 25.7319 19.3361C25.7319 19.8261 25.9069 20.2461 26.2569 20.5961C26.6069 20.9461 27.0269 21.1211 27.5169 21.1211Z" fill="#FD7B01"/>
</g>
<defs>
<clipPath id="clip0_2:144">
<rect width="55.9998" height="56" fill="white"/>
</clipPath>
</defs>
</svg>
