<svg width="29" height="61" viewBox="0 0 29 61" fill="none" xmlns="http://www.w3.org/2000/svg">
<path fill-rule="evenodd" clip-rule="evenodd" d="M3.43494 0.326356C3.74736 0.0139363 4.25389 0.0139361 4.56631 0.326356L7.49004 3.25009L24.0001 3.25023C26.6235 3.25025 28.7501 5.37689 28.7501 8.00023V52.0001C28.7501 54.6234 26.6235 56.7501 24.0001 56.7501H5.78403L8.77293 59.739C8.98618 59.9521 8.98618 60.2991 8.77293 60.5126L8.44521 60.8402C8.34228 60.9433 8.20488 61 8.05838 61C7.91188 61 7.77448 60.9433 7.67155 60.8402L3.22143 56.3902C3.11826 56.2869 3.06159 56.1491 3.06192 56.0018C3.06159 55.8552 3.11826 55.7172 3.22143 55.6139L7.6757 51.1598C7.77863 51.0567 7.91602 51 8.06253 51C8.20903 51 8.34635 51.0567 8.44935 51.1598L8.77707 51.4873C8.88 51.5904 8.93683 51.7277 8.93683 51.8743C8.93683 52.0207 8.88 52.158 8.77707 52.261L5.78807 55.2501H24.0001C25.795 55.2501 27.2501 53.795 27.2501 52.0001V8.00023C27.2501 6.20532 25.795 4.75025 24.0001 4.75023L7.49649 4.75009L4.56631 7.68027C4.25389 7.99268 3.74736 7.99269 3.43494 7.68027L0.32367 4.569C0.0112507 4.25658 0.0112505 3.75004 0.32367 3.43763L3.43494 0.326356Z" fill="#56575C"/>
</svg>
