<svg width="16" height="16" viewBox="0 0 16 16" fill="none" xmlns="http://www.w3.org/2000/svg">
<path d="M15.3764 3.33648C14.7988 2.64992 13.7325 2.36987 11.6961 2.36987H4.30379C2.22075 2.36987 1.13636 2.66799 0.560981 3.39893C0 4.1116 0 5.16167 0 6.61498V9.385C0 12.2005 0.6656 13.6301 4.30379 13.6301H11.6961C13.4621 13.6301 14.4407 13.3829 15.0738 12.777C15.723 12.1557 16 11.1413 16 9.385V6.61498C16 5.08234 15.9566 4.02608 15.3764 3.33648ZM10.2721 8.38242L6.91525 10.1368C6.84021 10.176 6.75814 10.1955 6.67618 10.1955C6.58338 10.1955 6.49079 10.1705 6.40877 10.1208C6.25435 10.0273 6.16005 9.85989 6.16005 9.67934V6.18185C6.16005 6.00162 6.25409 5.83439 6.40821 5.74076C6.56237 5.64714 6.75412 5.64074 6.91406 5.72383L10.2709 7.46691C10.4417 7.55558 10.5489 7.73189 10.5492 7.92425C10.5494 8.11676 10.4426 8.29333 10.2721 8.38242Z" fill="white"/>
</svg>
